<?xml version="1.0" encoding="UTF-8"?><svg id="Layer_1" xmlns="http://www.w3.org/2000/svg" width="520" height="520" viewBox="0 0 520 520"><defs><style>.cls-1{opacity:.35;}.cls-1,.cls-2,.cls-3,.cls-4,.cls-5{fill:#231f20;stroke-width:0px;}.cls-2{opacity:.2;}.cls-3{opacity:.3;}.cls-4{opacity:.15;}</style></defs><path class="cls-3" d="M412.63,464c0-1.97-59.39-8.88-68.07-1.07-7.19,6.47-3.82,13.62-3.82,13.62,0,0-25.47,1.62-25.71-.83s-.96-17.05,2.67-18.21c3.63-1.16,63.3-1.46,63.3-1.46l30.01,1.8,1.61,6.15Z"/><path class="cls-5" d="M383.2,101.54c-.79,1.91-1.76,3.61-2.72,5.29-.35.61-.65,1.25-1.01,1.85l-1.92,3.12c-.31.52-.61,1.04-.87,1.54l-.14.25c-.03.06-.06.12-.09.19-.06.13-.11.27-.1.42,0,.15.16.18.28.21.13.03.26.05.39.07l.6.06c.25.02.51.04.76.04.65.01,1.3-.05,1.95-.13.65-.04,1.33-.02,2.04-.05.44,0,.43.09.16.46-.27.35-.79,1.11-1.62,1.5-.75.25-1.53.36-2.32.43-.39.03-.79.04-1.19.03l-.3-.02-.4-.03c-.35-.03-.7-.09-1.04-.15-.69-.15-1.2-.4-1.5-.84-.34-.51-.36-1.1-.28-1.71.06-.31.13-.61.24-.93.11-.3.27-.65.34-.77.18-.35.38-.67.58-.99.97-1.49,1.74-3.08,2.6-4.6.94-1.66,1.88-3.31,2.66-5,.47-1.04.88-2.1,1.09-3.15.15-.81.18-1.51-.11-2.15-.27-.64-.78-1.14-1.47-1.39-1.08-.38-2.36-.17-3.51.15-.26.06-.5.18-.76.26-.94.32-1.27.27-1.78-.19-.12-.11-.25-.2-.35-.31-.34-.35-.12-1,.68-1.55,1.2-.71,2.6-1.22,4.18-1.25.79.01,1.63.09,2.48.43.85.33,1.7.9,2.32,1.7.44.61.75,1.23.94,1.96.2.77.16,1.42.11,2.04-.14,1.21-.48,2.24-.85,3.22l-.06-.02Z"/><path class="cls-5" d="M389.54,106.07c.48-1.11.95-2.23,1.43-3.34.14-.32.22-.61.13-.96-.08-.29-.3-.6-.57-.75-.29-.15-.64-.23-.96-.13-.29.09-.62.28-.75.57-.48,1.11-.95,2.23-1.43,3.34-.14.32-.22.61-.13.96.08.29.3.6.57.75.29.15.64.23.96.13.29-.09.62-.28.75-.57h0Z"/><path class="cls-5" d="M375.47,103.08l.96-2.25c.09-.14.14-.3.15-.46.04-.17.03-.33-.02-.5-.08-.29-.3-.6-.57-.75-.29-.15-.64-.23-.96-.13-.29.09-.62.28-.75.57l-.96,2.25c-.09.14-.14.3-.15.46-.04.17-.03.33.02.5.08.29.3.6.57.75.29.15.64.23.96.13.29-.09.62-.28.75-.57h0Z"/><path class="cls-5" d="M255.97,198.41c-.98.9-2.31,1.43-3.49,1.58-.43.07-.85.15-1.26.17-1.44.05-2.82,0-4.23.06-.62.02-1.24.08-1.86.14-.79.02-1.58.14-2.39-.02-.26-.08-.22-.07-.03-.22.19-.19.55-.46.99-.58l1.19-.32c.4-.09.8-.13,1.2-.19.8-.1,1.61-.18,2.43-.2.97-.04,2-.22,2.92-.35,1.03-.15,1.95-.41,2.7-.98.46-.35.88-.8,1.2-1.31.51-.78.84-1.68,1.04-2.62.16-.73.09-1.49.15-2.24.01-.17.01-.33.04-.5.09-.63.23-.83.61-.95.08-.03.16-.07.24-.08.24-.05.52.22.65.7.21.71.41,1.47.39,2.26-.01.78-.02,1.63-.33,2.43-.43,1.21-1.13,2.34-2.1,3.26l-.04-.03Z"/><path class="cls-5" d="M50.03,195.27c-.24-1.19-.37-2.36-.48-3.52-.03-.42-.11-.84-.14-1.26-.07-1.49-.1-2.96-.15-4.42-.02-.65-.09-1.3-.1-1.94-.04-.82-.06-1.65-.05-2.48,0-.26.04-.23.14-.02.09.21.29.59.42,1.05.21.83.49,1.65.59,2.48.11.84.19,1.67.25,2.52.06,1.01.29,2.04.48,3.04.19,1.11.42,2.2.7,3.27.07.34.19.65.29.98.1.33.18.66.31.96.18.48.35.96.6,1.4.21.47.5.88.79,1.28.48.61,1.1,1.06,1.73,1.43.14.08.27.17.41.24.52.29.58.55.47,1.07-.02.12-.04.24-.07.34-.1.34-.51.53-1.06.38-1.63-.47-2.94-1.86-3.8-3.32-.29-.56-.61-1.12-.81-1.71-.23-.58-.45-1.16-.57-1.76l.05-.02Z"/><polygon class="cls-1" points="120.55 108.87 138.49 119.57 138.49 139.62 123.99 148.27 102.64 139.55 102.64 120.67 120.55 108.87"/><path class="cls-5" d="M77.28,95.36c.05-1.79.16-3.58.29-5.37.05-.65.09-1.31.18-1.96.18-1.16.33-2.28.69-3.5.24-.81.77-1.24,1.2-1.65.45-.41.93-.75,1.41-1.09.85-.59,1.7-1.17,2.55-1.72,1.09-.71,2.19-1.42,3.43-1.85.38-.14.39-.02.18.29-.22.3-.59.9-1.17,1.36-1.08.74-2.14,1.5-3.17,2.27-1,.77-2.1,1.59-2.76,2.39-.12.12-.11.21-.16.31-.04.13-.08.34-.12.5-.07.35-.1.76-.15,1.15-.06.79-.09,1.6-.13,2.4-.09,1.76-.24,3.54-.3,5.31l-.1,3.28c-.04,1.66-.06,3.33.03,4.97.07,1.28.24,2.52.4,3.77l.11.82c.12,1.03.08,1.36-.23,1.63-.07.06-.13.14-.2.18-.23.14-.51-.25-.71-1.01-.59-2.25-.91-4.66-1.1-7.08-.13-1.8-.24-3.61-.21-5.42h.05Z"/><path class="cls-5" d="M102.89,118.63c1.21-1.16,2.47-2.11,3.79-2.99.48-.32.92-.68,1.41-.98,1.72-1.05,3.47-2.04,5.26-2.94.79-.4,1.59-.81,2.38-1.21.99-.55,2.09-.94,3.25-1.12.37-.04.33.05.09.27-.24.22-.63.66-1.14,1.06-.44.37-.92.65-1.41.94l-1.44.89c-.48.29-.96.59-1.45.89-.5.28-1,.53-1.51.8-1.22.63-2.35,1.5-3.48,2.3-1.24.89-2.49,1.78-3.63,2.76-.68.6-1.38,1.26-1.75,1.93-.05.12-.1.24-.11.31-.03.1-.02.34-.03.5l-.04,1.08c-.02.72-.04,1.44-.04,2.15,0,1.11.13,2.2.2,3.3.02.24.05.48.05.72.03.9-.15,1.19-.64,1.4-.11.05-.22.11-.33.14-.37.1-.69-.26-.83-.93-.33-1.99-.36-4.1-.35-6.22l.02-1.18v-.59s.02-.3.02-.3v-.15s.05-.29.05-.29c.17-.76.47-1.19.75-1.57.28-.39.58-.71.87-1.02l.04.03Z"/><path class="cls-5" d="M287.69,132.83c-.42.33-.83.68-1.22,1.04-.15.13-.26.29-.41.42-.52.46-1.04.93-1.55,1.42-.23.21-.44.44-.65.67-.14.14-.24.31-.4.44-.18.11-.33.24-.56.29-.15.03-.13.03-.14-.12-.03-.16-.08-.46-.02-.71.37-.74.86-1.37,1.51-1.89.38-.31.67-.74,1.01-1.11.38-.4.77-.79,1.17-1.18.25-.23.5-.47.74-.7.37-.36.77-.69,1.14-1.05.29-.28.52-.62.79-.92.06-.07.11-.15.18-.21.25-.22.4-.21.7.1.07.07.14.13.19.2.19.23.26.55.13.74-.37.61-.86,1.07-1.39,1.55-.4.34-.8.69-1.21,1.03l-.03-.02Z"/><path class="cls-5" d="M452.22,281.12c.69-.28,1.4-.52,2.12-.76.26-.09.49-.24.76-.32.93-.29,1.87-.58,2.8-.86.41-.13.81-.3,1.2-.47.51-.2,1.02-.45,1.66-.27.21.09.21.17.16.47-.03.15-.07.33-.13.54-.05.22-.14.39-.27.47-.44.36-.93.54-1.44.73-.5.19-1.02.35-1.56.48-.65.15-1.23.54-1.84.82-.68.3-1.36.61-2.06.88-.43.17-.86.35-1.29.52-.65.28-1.31.52-1.93.84-.48.25-.91.6-1.37.9-.1.07-.19.15-.3.21-.41.18-.62.04-.9-.39-.06-.1-.13-.19-.18-.28-.17-.3-.15-.73.07-1.02.69-.75,1.56-1.18,2.45-1.63.66-.32,1.35-.61,2.04-.91l.02.05Z"/><path class="cls-5" d="M314.56,463.86c.23-.86.5-1.71.83-2.56.33-.85.67-1.7,1.24-2.55.24-.3.46-.66.78-.92.16-.13.32-.28.48-.39l.48-.28c1.15-.57,2.27-.82,3.39-1.06,1.12-.22,2.23-.38,3.34-.46.99-.07,1.97-.15,2.95-.22l.95-.06c.32,0,.64.01.95.03.32.05.64.02.95.15.32.14.62.28.92.43.37.18.31.14-.03.25-.17.05-.41.18-.69.4-.14.1-.29.24-.45.32-.16.06-.32.11-.49.14-1.2.28-2.41.34-3.62.53-.61.07-1.21.18-1.81.24-.61.05-1.22.1-1.83.15-1.44.14-2.96.7-3.96,1.33-.49.31-.91.91-1.28,1.64-.37.7-.65,1.48-.9,2.27-.29.98-.55,1.98-.72,2.99-.27,1.54-.45,3.11-.42,4.66.02,1.21.25,2.37.51,3.5.06.25.16.48.21.73.22.92.25,1.2-.23,1.59-.1.08-.18.18-.27.25-.28.21-.83-.04-1.15-.78-.92-2.18-1.1-4.65-.99-7.04.09-1.78.38-3.55.79-5.3h.05Z"/><path class="cls-5" d="M344.07,417.93c.11-.31.25-.62.42-.93l.29-.47c.13-.17.32-.34.48-.5.16-.19.33-.29.51-.38.17-.09.36-.21.51-.26.31-.1.65-.24.94-.28.44-.1.84-.22,1.25-.25,1.45-.14,2.8.17,4.13.34.59.1,1.18.16,1.76.23.75.06,1.48.3,2.2.55.22.08.19.16-.01.31-.21.14-.59.42-1.03.56-.78.27-1.53.32-2.27.38-.74.08-1.48-.02-2.21-.09-.88-.08-1.78.05-2.6.15-.46.05-.87.14-1.23.25-.33.16-.4.16-.65.57-.24.43-.4.97-.49,1.54-.14.87-.15,1.81-.11,2.75.02.74.24,1.47.15,2.26,0,.17-.02.35-.06.53-.16.67-.4.88-.8.87-.09,0-.17,0-.25,0-.24-.06-.41-.35-.51-.73-.07-.28-.17-.58-.29-.88-.12-.3-.24-.61-.29-.93-.12-.64-.3-1.33-.31-2.06-.04-1.08.02-2.27.4-3.55l.06.02Z"/><path class="cls-5" d="M383.92,419.92c.08-.31.18-.59.36-1,.11-.19.23-.39.38-.56l.49-.45c.54-.3.84-.39,1.19-.5.33-.1.61-.23.93-.29,1.09-.19,2.14-.24,3.19-.24.46-.01.92-.07,1.37-.12.58-.08,1.18-.04,1.78.23.19.08.16.17.02.37-.15.16-.38.63-.69.79l-.4.22-.2.11-.21.05c-.28.06-.55.12-.83.17-.55.1-1.11.18-1.68.2-.69-.02-1.35.26-1.97.45-.21.06-.4.13-.59.19l-.41.17c-.13.06-.21.13-.29.31-.15.31-.27.76-.34,1.21-.11.7-.21,1.43-.24,2.18-.01.29.01.58.02.89,0,.3-.04.61-.1.92-.04.14-.05.29-.11.43-.29.52-.6.62-.94.5-.08-.03-.16-.05-.23-.09-.22-.14-.31-.41-.43-.7-.17-.44-.24-.86-.38-1.35-.02-.47-.02-.97-.01-1.5.03-.8.08-1.6.28-2.58h.06Z"/><path class="cls-5" d="M343.64,230.87l-13.19,49s-13.26,80.79-14.25,91.8c-.99,11.01-2.12,37.15-.43,38.32s35.67,6.14,48.43,6.56c12.76.42,43.96,1.28,50.89-.17,6.93-1.45,8.17-2.58,8.17-2.58l-7.9-95.1-5.36-71.31-35.02-6.96-31.34-9.57Z"/><path class="cls-4" d="M377.52,77.34s1.86,2.57,4.75.95c2.88-1.62,9.72-2.11,13.78.53,4.06,2.65,13.39,17.02,15.43,21.67,2.04,4.64,7.17,19.47,4.77,28.78-2.4,9.3-5.78,13.61-.79,15.52,4.99,1.91,24.32,4.08,27.29,7.93,0,0,5.34-6.53,7.59-15.7,2.26-9.17,2.8-21.03-3.03-33.46-5.83-12.42-20.51-32.49-43.72-36.32-8.54-1.41-16.97,1.68-19.36,3.51-2.39,1.82-6.71,6.58-6.71,6.58Z"/><path class="cls-4" d="M380.6,142.53s-3.2.36-6.24,5.79c-3.05,5.44-1.75,10.58-.28,14.27,1.47,3.68,6.78,7.67,12.78,8.88,6.01,1.21,26.23-2.5,31.79.27,5.56,2.77,18.03,6.27,19.28,8.59,1.25,2.32,5,12.68,5,12.68,0,0,5.06-7.48,5.64-14.59.7-8.59.79-22.68-19.38-29.01-4.81-1.51-29.74-4.68-34.44-3.98-4.71.71-14.15-2.9-14.15-2.9Z"/><path class="cls-4" d="M423.49,174.21c-1.92.72-7.5,10.87-10.2,20.28-2.55,8.9-2.66,17.56-.92,20.36,1.18,1.9-1.89-2.08-7.26-1.24s-13.38,3.95-15.69,3.11c-2.31-.85-4.75-5.9-4.68-8.38.07-2.48,1.89-17.63,1.89-17.63l4.13-10.38,4.41-8.37s20.86.49,22.57.81,5.75,1.45,5.75,1.45Z"/><path class="cls-5" d="M375.69,91.72c-1.84-5.85,1.07-9.62,1.07-9.62,0,0,5-4.85,9.94-5s5.87,1.5,5.87,1.5c0,0-6.73,3.26-9.06,5.17-2.33,1.91-7.83,7.95-7.83,7.95Z"/><path class="cls-5" d="M418.66,208.9c-.19.94-.38,1.89-.74,2.88-.13.36-.26.77-.46,1.1-.37.59-.85,1.15-1.44,1.54-.59.4-1.25.65-1.9.78-.58.11-1.15.19-1.72.16-.36-.02-.72-.05-1.07-.12-.17-.04-.34-.09-.51-.14-.17-.04-.31-.22-.46-.32-.18-.16-.14-.18.07-.3.11-.06.26-.17.44-.3.17-.1.34-.15.52-.15,1.28-.07,2.36-.22,3.32-.71.59-.3.97-.92,1.27-1.56.3-.69.5-1.58.64-2.46l.24-1.67c.11-.85.24-1.72.31-2.59.06-.67.01-1.35.07-2.04,0-.15.01-.31.04-.46.12-.56.33-.72.78-.7.1,0,.21,0,.31.01.33.05.55.35.59.72.12,1.14.06,2.31,0,3.55-.07.91-.11,1.85-.27,2.79h-.05Z"/><path class="cls-5" d="M428.69,176.58c.51-.15,1.02-.33,1.69-.31.76.03,1.18.21,1.66.39.34.14.7.24,1.01.43,1.12.66,1.97,1.59,2.65,2.57.29.45.57.89.82,1.34.31.57.7,1.14.54,1.89-.07.24-.08.21-.33.13-.3-.06-.75-.18-1.02-.42-.74-.96-1.49-1.72-2.13-2.66-.42-.55-1.08-.84-1.68-1.1-.34-.14-.68-.27-1.04-.34-.29-.07-.51-.06-.89,0-.43.08-.89.25-1.33.46-.67.33-1.34.74-1.9,1.26-.43.41-.75.91-1.07,1.38-.07.1-.13.22-.2.32-.28.36-.45.4-.94.21-.11-.04-.22-.08-.33-.13-.35-.16-.51-.52-.38-.94.2-.61.51-1.17.88-1.69.4-.49.87-.94,1.37-1.34.76-.6,1.6-1.09,2.58-1.49l.02.05Z"/><path class="cls-5" d="M416.09,173.41c-1.53-.25-3.07-.45-4.62-.59l-1.7-.11c-2-.16-4.01-.24-6.02-.28-.89-.01-1.79.02-2.68.06-1.14.08-2.27.17-3.43.1-.36-.07-.32-.09-.04-.28.28-.17.82-.46,1.47-.63,2.33-.32,4.69-.56,7.06-.39,1.42.09,2.89.05,4.34.12,1.59.09,3.18.25,4.77.47.98.13,1.95.3,2.91.47,1.47.27,2.92.65,4.35,1.06,1.11.34,2.21.65,3.29,1.16.23.12.47.23.7.35.84.53,1.01.88.9,1.28-.03.1-.04.2-.09.28-.15.27-.61.23-1.13-.09-1.61-.9-3.55-1.53-5.54-2.05-.73-.21-1.5-.34-2.25-.52-.77-.13-1.53-.29-2.3-.4v-.03Z"/><path class="cls-5" d="M417.6,143.94c1.28.24,2.59.44,3.91.61.48.06.97.07,1.46.14,1.71.24,3.44.56,5.15.97.76.18,1.54.34,2.29.59.47.22.97.35,1.41.65.22.15.46.25.64.46.16.23.32.45.46.68.12.33.14.24-.19.22-.16,0-.39,0-.65.02-.15.02-.28.03-.41.05-.13,0-.26-.02-.38-.05-1.73-.35-3.51-.8-5.45-1.22-1.15-.26-2.39-.29-3.6-.41-1.33-.14-2.68-.3-4.03-.5-.83-.12-1.66-.27-2.5-.42-1.26-.27-2.52-.6-3.75-1.1-.87-.36-1.68-.37-2.62-.37-.21,0-.43.02-.68-.03-.45-.08-.94-.28-1.15-.66-.18-.4-.06-.7.13-.86.09-.08.17-.16.25-.19.14-.06.31-.01.49-.03.04,0,.1-.03.13-.05,0,0-.02.01-.03.02,0,0,.03-.02.04-.04.01-.01.02-.03.03-.05.01-.02.07-.09.1-.13.04-.08.02-.06.07-.08.16-.06.63-.13,1.07-.12.46,0,.97.03,1.49.14.5.08,1.09.31,1.51.47.38.12.71.29,1.12.39,1.14.37,2.42.62,3.7.84v.05Z"/><path class="cls-5" d="M379.26,78.61c.96-.52,1.99-.91,3.02-1.23.38-.1.76-.24,1.14-.33,1.37-.25,2.77-.35,4.14-.18.3.04.61.08.91.11l.9.17c.39.05.75.21,1.13.32.37.14.67.43.99.64.19.15.13.19-.11.23-.24.03-.66.11-1.07.11-1.4-.31-2.8-.29-4.24-.29-.87,0-1.76.23-2.62.49-.95.25-1.87.63-2.77,1.05-.55.27-1.09.56-1.6.91-.77.52-1.53,1.09-2.14,1.78-.5.52-.82,1.16-1.2,1.76-.08.13-.13.28-.21.41-.29.49-.48.59-.92.49-.1-.02-.2-.04-.3-.07-.32-.11-.42-.46-.27-.91.41-1.38,1.4-2.57,2.49-3.57.41-.38.84-.73,1.3-1.04.44-.34.93-.61,1.41-.89l.02.03Z"/><path class="cls-5" d="M412.36,134.17c.33-.69.73-1.36.99-2.09.31-.71.6-1.44.82-2.2.18-.55.3-1.11.42-1.67.12-.49.26-.98.36-1.48l.28-1.51c.15-1.01.36-2.03.41-3.05.07-.91.06-1.83.04-2.74-.06-1.17-.15-2.34-.29-3.51-.03-.37.02-.34.18-.05.15.28.51.8.76,1.46.19.59.39,1.2.53,1.81.13.61.26,1.23.35,1.85.03.62.05,1.25.06,1.88-.03.63-.08,1.25-.14,1.88-.11.75-.24,1.5-.32,2.27-.11.76-.25,1.53-.4,2.28-.43,1.64-.93,3.27-1.66,4.8l-.69,1.41-.81,1.35c-.39.69-.94,1.29-1.4,1.93-.52.6-1.09,1.17-1.63,1.74l-1.4,1.21c-.5.36-1.03.69-1.55,1.02-.23.16-.46.28-.73.37-.97.34-1.34.29-1.65-.06-.07-.08-.16-.15-.21-.24-.17-.29.11-.7.66-1.09.86-.49,1.6-1.15,2.36-1.75.35-.35.68-.71,1.07-1.01.35-.34.67-.73,1.02-1.08.27-.25.48-.56.71-.86l.68-.9c.38-.66.82-1.29,1.15-1.98l.05.02Z"/><path class="cls-5" d="M434.81,140.59c.49-.96.91-1.97,1.27-2.99.13-.37.18-.77.3-1.15.39-1.34.79-2.71.92-4.11.1-.62.01-1.25,0-1.86-.05-.39-.09-.79-.14-1.18-.05-.39-.12-.77-.14-1.18,0-.25.23-.3.54-.17.31.13.72.46.92.94.61,1.71.62,3.55.29,5.28-.19,1.04-.29,2.12-.55,3.16-.28,1.14-.67,2.25-1.09,3.34-.28.66-.55,1.33-.87,1.97-.47.98-.99,1.94-1.55,2.88-.2.37-.4.74-.6,1.12-.19.38-.4.76-.65,1.12-.11.16-.2.33-.31.49-.48.56-.8.58-1.31.23-.11-.08-.23-.15-.33-.23-.31-.27-.43-.81-.23-1.2.6-1.2,1.26-2.39,1.97-3.63.53-.91,1.06-1.86,1.5-2.85l.05.02Z"/><path class="cls-5" d="M404.92,176.94c-.43.68-.82,1.41-1.14,2.18-.12.28-.19.57-.3.85-.42.99-.78,2.01-1.05,3.06-.11.47-.19.94-.24,1.41-.05.3,0,.61-.1.91-.13.3-.22.6-.33.91-.08.19-.18.17-.36.01-.18-.16-.5-.47-.72-.86-.34-1.37-.05-2.71.42-3.96.29-.75.39-1.57.64-2.35.28-.85.61-1.68.99-2.5.24-.5.49-.99.78-1.47.41-.74.92-1.42,1.42-2.11.4-.53.73-1.13,1.24-1.65.11-.11.2-.25.33-.35.52-.33.8-.24,1.13.21.08.1.16.2.22.31.21.37.19.8.04,1.1-.51.8-1.1,1.46-1.69,2.31-.42.63-.86,1.29-1.23,2.01l-.05-.02Z"/><path class="cls-5" d="M413.13,176.13c-.46.57-.86,1.23-1.21,1.91-.14.25-.18.53-.31.79-.22.45-.39.92-.61,1.39-.18.48-.36.96-.48,1.46-.14.44-.15.89-.23,1.34-.06.58-.1,1.15-.19,1.74-.04.18-.17.18-.35.04-.17-.14-.44-.43-.53-.79-.35-1.27-.26-2.58.12-3.81.22-.73.32-1.53.59-2.27.28-.82.67-1.6,1.09-2.36.29-.45.55-.92.9-1.35.24-.33.5-.65.81-.94.28-.31.62-.56.93-.84.51-.41,1.01-.88,1.66-1.17.14-.07.27-.16.43-.18.58-.09.79.04.93.55.03.12.07.23.09.34.06.39-.11.76-.35.95-.7.61-1.28.98-1.9,1.62-.41.51-.96.96-1.35,1.59l-.05-.03Z"/><path class="cls-5" d="M348.71,454.02c6.96-.04,13.91-.02,20.87.04,2.54.02,5.08-.04,7.61,0,8.95.21,17.88.47,26.86,1.26,1.25.13,2.5.27,3.77.46.63.09,1.27.21,1.93.35.35.09.63.15,1.08.32.22.08.41.21.62.32.17.15.37.28.51.47l.42.62c.12.17.24.35.32.53.18.37.4.72.54,1.1.32.74.56,1.49.78,2.24.33,1.29.57,2.59.73,3.9.12,1.3.17,2.61.14,3.9,0,.65-.05,1.29-.08,1.94-.08.64-.15,1.28-.26,1.92-.1.64-.21,1.27-.34,1.9-.12.63-.36,1.25-.53,1.86-.53,1.53-.5,1.3-.65-.07-.2-1.38-.77-3.86-.98-6.66-.07-2.08-.37-4.12-.69-6.07-.16-.99-.43-1.91-.72-2.8-.18-.41-.32-.87-.53-1.24-.1-.19-.2-.39-.3-.57l-.17-.25c-.07-.09-.02-.04-.03-.07-.02-.01.01-.01-.04-.03-.22-.07-.53-.15-.85-.21-.64-.13-1.35-.23-2.07-.32-1.43-.18-2.91-.29-4.38-.44-2.96-.28-5.96-.5-8.96-.72-6.18-.45-12.65-.36-19-.43-6.98-.07-13.97-.1-20.96-.06-4.3.03-8.61.06-12.9.16-6.51.15-13.06.27-19.47.79-.73.06-1.46.14-2.17.23-.35.05-.72.1-1.02.15-.19.05-.4.05-.54.2-.07.1-.16.18-.2.29l-.16.36c-.11.37-.25.71-.32,1.12-.1.39-.17.79-.23,1.21-.07.41-.12.83-.16,1.25-.17,1.68-.22,3.39-.2,5.11.02,1.07.08,2.12.14,3.2.23,4,.31,5.23-.34,6.22-.14.23-.27.52-.43.67-.5.53-1.43-1.07-1.9-4.13-.4-2.71-.61-5.47-.57-8.31,0-1.42.09-2.86.28-4.35.1-.74.24-1.51.46-2.32l.2-.63c.06-.2.15-.42.28-.66.29-.69.77-1.15,1.22-1.66.39-.2.76-.46,1.2-.55.22-.05.44-.11.67-.15l.45-.07c.51-.08,1-.13,1.48-.19.96-.1,1.92-.18,2.87-.26,1.9-.14,3.8-.25,5.7-.35,7.02-.34,14.05-.47,21.07-.59v.08Z"/><path class="cls-5" d="M377.32,443.84c-1.29,1.46-2.57,2.91-3.79,4.38-.61.74-1.21,1.48-1.76,2.23-.27.38-.55.75-.78,1.13-.12.19-.23.38-.32.57-.1.16-.21.44-.23.44-.07.13-.15.31-.03.43.06.07.14.13.22.18.05,0,.14.05.22.1.11.03.23.05.34.09.77.21,1.89.09,2.98-.16,1.1-.26,2.23-.65,3.33-1.13,2.21-.94,4.37-2.15,6.44-3.48,1.83-1.19,3.59-2.54,5.24-3.95,1.05-.92,2.07-1.87,3.1-2.8,1.04-.94,1.93-1.92,3.23-2.68.63-.61.56-.56.39.24-.1.81-.16,2.69-1.34,3.96-3.87,4.69-8.82,8.13-14.33,10.7-1.67.74-3.38,1.49-5.27,2.03-.96.25-1.94.48-3.05.47-.55-.01-1.13-.04-1.72-.23-.3-.07-.58-.2-.88-.35-.34-.13-.6-.41-.88-.64-.33-.24-.55-.56-.8-.87l-.14-.24-.03-.06s0-.05,0-.07l-.05-.13c-.09-.17-.09-.35-.13-.53-.03-.36.04-.73.14-1.09.12-.35.24-.72.43-1.04.15-.28.27-.47.41-.69.55-.85,1.1-1.63,1.68-2.38,1.15-1.5,2.36-2.92,3.57-4.32l4.79-5.46c1.17-1.38,2.4-2.78,3.41-4.2.84-1.29,1.19-3.07,1.3-4.81.15-2.74-.22-5.46-.56-8.19-.09-.6-.18-1.19-.26-1.8-.3-2.26-.14-3.03.51-3.6.15-.13.29-.29.44-.38.48-.27,1.1.59,1.49,2.24.57,2.46,1.02,5.04,1.24,7.73.12,2.7.18,5.5-.85,8.55l-.35.85c-.15.29-.33.58-.49.86-.35.57-.63.89-.96,1.33-.63.81-1.28,1.58-1.92,2.34l-3.88,4.48-.06-.04Z"/><path class="cls-5" d="M338.25,443.41c-1.27,1.52-2.52,3.04-3.73,4.58-1.17,1.54-2.43,3.1-3.16,4.69-.07.13-.13.3-.17.38l-.05.13c-.02.08-.04.17,0,.26.05.07.1.14.17.19.04.06.18.09.36.19.67.26,1.78.26,2.88.03,1.11-.22,2.26-.61,3.38-1.07,2.26-.93,4.46-2.15,6.57-3.49,1.87-1.21,3.66-2.57,5.34-4,.54-.46,1.07-.94,1.58-1.42l1.57-1.42c1.06-.95,1.97-1.95,3.29-2.73.64-.62.56-.57.39.24-.11.82-.19,2.72-1.39,4.01-3.95,4.75-8.99,8.26-14.64,10.82-1.71.73-3.45,1.5-5.42,1.98-.97.25-2.04.4-3.2.31-.29-.02-.58-.05-.89-.14-.3-.07-.6-.15-.9-.32l-.46-.23c-.15-.11-.29-.24-.44-.35l-.43-.36c-.13-.13-.24-.28-.35-.43-.54-.62-.67-1.49-.45-2.27.1-.38.25-.82.42-1.13.13-.27.26-.51.4-.75.56-.94,1.15-1.78,1.74-2.62,1.19-1.67,2.46-3.24,3.72-4.8l4.69-5.71,1.72-2.18c.26-.36.6-.75.76-1.08.1-.17.21-.33.3-.52l.24-.58c.61-1.6.86-3.43.99-5.23.18-2.82-.04-5.61-.26-8.41-.06-.62-.12-1.22-.18-1.84-.08-1.15-.11-1.91-.02-2.46.11-.55.31-.88.64-1.16.15-.13.29-.3.44-.38.47-.28,1.11.62,1.44,2.34.91,5.11,1.39,10.54.18,16.33-.29,1.09-.57,2.19-1.3,3.37l-.26.43-.24.32-.47.63-.95,1.21-3.81,4.69-.06-.04Z"/><path class="cls-5" d="M355.09,443.07c.09-1.71.25-3.42.36-5.13.04-.62,0-1.25.05-1.87.18-2.2.36-4.4.59-6.59.1-.97.09-1.96.13-2.92.05-.62.03-1.25.13-1.87.09-.62.33-1.24.53-1.86.14-.39.07-.34.19,0,.06.16.19.4.38.68.2.28.41.62.52.98.35,1.27.47,2.54.47,3.82,0,1.27,0,2.55-.17,3.83-.21,1.53-.1,3.13-.15,4.69l-.23,5.17-.17,3.18c-.07,1.61-.17,3.22-.15,4.81.01,1.24.19,2.46.29,3.68.02.27.08.53.04.81-.06,1.01-.37,1.33-.91,1.54-.13.05-.25.11-.37.14-.39.09-.78-.32-1.07-1.06-.42-1.1-.45-2.22-.55-3.37-.08-1.14-.09-2.3-.09-3.46,0-1.72.07-3.45.11-5.18h.07Z"/><path class="cls-5" d="M394.3,442.56c.09-1.71.25-3.42.36-5.13.04-.62,0-1.25.05-1.87.18-2.2.36-4.4.59-6.59.1-.97.09-1.96.13-2.92.05-.62.03-1.25.13-1.87.09-.62.33-1.24.53-1.86.14-.39.07-.33.19,0,.06.16.19.4.38.68.2.28.41.62.52.98.35,1.27.47,2.54.47,3.82,0,1.27,0,2.55-.17,3.83-.21,1.53-.1,3.13-.15,4.69l-.23,5.17-.17,3.18c-.07,1.61-.17,3.22-.15,4.81.01,1.24.19,2.46.29,3.68.02.27.08.53.04.81-.06,1.01-.37,1.33-.91,1.54-.13.05-.25.11-.37.14-.39.09-.78-.32-1.07-1.06-.41-1.1-.45-2.22-.55-3.37-.08-1.14-.09-2.3-.09-3.46,0-1.72.07-3.45.11-5.18h.07Z"/><path class="cls-5" d="M316.67,406.02c.04.34.09.67.15.99.05.33.12.63.2.92.06.32.17.52.24.76.04.07.08.13.09.17.03.02.02.02.05.05.16.15.76.47,1.34.67.58.23,1.24.43,1.9.61,2.67.72,5.52,1.19,8.36,1.61,5.71.82,11.5,1.36,17.29,1.82,11.6.89,23.25,1.37,34.89,1.61,8.5.19,17,.15,25.45-.11,2.56-.07,5.11-.23,7.65-.38,1.26-.08,2.53-.19,3.75-.34.61-.08,1.21-.17,1.78-.29.27-.06.57-.12.78-.2.12-.03.18-.06.27-.11.08-.07.12-.19.14-.29,0-.01,0-.04.03-.13.02-.07.03-.16.04-.24l.08-.51c.08-.72.15-1.46.17-2.21.05-1.51.04-3.05.02-4.59-.06-3.08-.2-6.17-.37-9.27-.34-6.19-.8-12.39-1.29-18.58-.98-12.39-2.1-24.77-3.23-37.15-1.26-13.27-2.52-26.61-3.77-39.77-.77-8.46-1.63-16.94-2.22-25.43-.54-8.5-.96-17.02-.92-25.53.07-2.66.2-3.8.29-3.73.11.08.21,1.38.48,3.61.27,2.25.66,5.41,1.12,9.21.49,3.82,1.05,8.29,1.55,13.15,1.6,17.26,3.2,34.52,4.8,51.81,1.6,17.3,3.22,34.64,4.54,52.09.48,6.35.96,12.77,1.36,19.26.19,3.25.38,6.5.47,9.79.05,1.64.07,3.29.03,4.97-.02.84-.05,1.68-.12,2.55-.01.22-.05.45-.08.67-.03.24-.05.41-.13.76-.05.36-.18.66-.33.96-.12.31-.34.57-.55.83-.34.27-.74.45-1.13.65-.1.05-.2.07-.29.11l-.23.08c-.15.06-.29.09-.44.13-.58.16-1.12.27-1.67.37-1.09.21-2.16.35-3.23.47-2.14.26-4.26.42-6.38.52-4.24.22-8.47.31-12.67.35-11.8.1-23.59-.24-35.37-.86-5.89-.31-11.77-.71-17.65-1.22-5.88-.52-11.76-1.13-17.62-2.1-1.8-.3-3.61-.65-5.41-1.09-.9-.22-1.8-.48-2.71-.79-.91-.35-1.81-.65-2.79-1.44-.5-.46-.86-1.1-1.01-1.58-.2-.51-.3-.99-.41-1.48-.18-.95-.3-1.89-.38-2.82-.15-1.86-.19-3.69-.2-5.52.02-7.31.58-14.55,1.22-21.77,2.04-21.88,5.25-43.7,8.78-65.2,2.79-16.71,5.67-33.06,9.34-49.43.81-3.6,1.62-7.13,2.55-10.74,3.48-13.38,5.41-17.47,7.19-19.96.42-.56.93-1.32,1.24-1.61,1.1-.96-.66,4.32-3.27,13.99-3.88,14.35-6.97,29.38-9.88,44.64-2.88,15.27-5.49,30.83-7.78,46.46-1.69,11.61-3.23,23.27-4.45,34.96-.61,5.84-1.14,11.69-1.51,17.54-.18,2.92-.32,5.84-.37,8.75-.04,2.89-.04,5.82.31,8.55l-.07.04Z"/><path class="cls-5" d="M448.6,302.29c.69-1.41,1.39-2.8,1.48-4l.07-1.25.03-.62c0-.12.01-.11.02-.17.01-.17.05-.42-.11-.57-.06-.05-.14-.07-.21-.07-.07.04-.11.11-.16.16-.11.14-.14.2-.31.39-.9,1.08-1.86,2.16-3.09,3.09-1.21.86-2.89,1.85-5.05.84-.27-.16-.53-.34-.72-.59-.18-.25-.31-.55-.36-.86-.13-.59.03-1.35.17-1.74.3-.9.72-1.65,1.16-2.38,1.03-1.72,2.19-3.31,3.3-4.86.72-.98,1.23-1.96,1.63-2.98.4-1.01.71-2.09.85-3.31.18-.77.17-.69.6-.08.21.31.47.77.72,1.39.11.31.25.66.3,1.05.04.38.04.79-.02,1.21-.05.36-.12.73-.23,1.08-.13.34-.27.67-.43.99-.31.64-.69,1.24-1.06,1.78-.73,1.04-1.43,2.02-2.13,2.99-.71.96-1.4,1.92-1.94,2.88-.14.24-.25.47-.36.7-.05.11-.1.22-.13.32-.05.11-.07.21-.08.2-.05.09-.07.26.05.34.02.02.04.03.06.04l.06.04s.03.01.09.03c.11,0,.21.03.33.01.23-.01.49-.08.75-.2.53-.23,1.08-.65,1.59-1.14.51-.49.99-1.04,1.46-1.63l.35-.44.42-.56c.4-.51.78-1.08,1.19-1.54.47-.53.88-.59,1.32-.75.55-.05,1.17.16,1.65.47.95.67,1.16,1.99,1.17,3.37v.5s-.01.33-.01.33l-.02.64c-.02.44-.01.8-.05,1.35-.1,1.01-.38,1.93-.71,2.79-.41,1.06-.96,2.01-1.5,2.93l-.41.69-.36.57c-.15.24-.28.47-.41.72-.1.2-.2.4-.26.62-.02.11-.03.23.03.33.06.09.19.11.29.15.6.21,1.24-.15,1.75-.53l.21-.17c.1-.09.2-.18.3-.28.2-.18.38-.39.57-.59.37-.41.7-.85,1-1.3,1.21-1.95,1.8-4.26,1.96-6.48.03-.5.03-.98.03-1.48,0-1.86.05-2.47.78-2.97.15-.11.29-.26.44-.33.45-.25,1.16.49,1.38,2.05.35,2.28.2,4.84-.68,7.2-.2.59-.46,1.17-.73,1.73-.14.28-.29.55-.43.83-.17.29-.34.59-.53.86-.37.55-.77,1.06-1.22,1.54-.22.24-.45.48-.69.71l-.37.34c-.06.06-.13.11-.2.16l-.34.27c-.99.67-2.02,1.21-2.96,1.37-.94.16-1.73-.03-2.52-.37l-.45-.33c-.12-.14-.26-.29-.36-.45-.22-.3-.24-.63-.32-.93-.05-.32-.03-.69.07-1.1.13-.42.27-.85.44-1.31.18-.45.38-.96.6-1.39l.45-.9c.25-.48.49-.94.72-1.41l.07.03Z"/><path class="cls-5" d="M453.27,309.54s.01.03.09.01l.42-.09c.3-.12.62-.21.92-.38.63-.3,1.23-.73,1.79-1.21.41-.35.74-.79,1.12-1.19,1.3-1.46,2.33-3.14,2.78-5.09.22-.89.3-1.81.42-2.71.06-.58.09-1.16.11-1.74-.02-.57.14-1.17.1-1.76,0-.37.05-.36.31-.1.13.13.31.33.51.59.11.13.21.27.31.43.06.08.09.16.15.25l.08.27c.16.65.27,1.3.34,1.96.07.65.13,1.31.03,1.95-.07.65-.17,1.27-.33,1.93-.17.69-.39,1.36-.73,1.97-.79,1.44-1.58,2.9-2.7,4.11-1.22,1.32-2.7,2.45-4.52,3.06-.48.17-1.42.33-2.1.25-.35-.06-.72-.08-1.02-.23l-.47-.19c-.14-.09-.27-.17-.38-.3-.38-.36-.41-.93-.29-1.38.12-.48.39-.96.71-1.41.15-.23.34-.46.49-.65l.38-.46.74-.9c.74-.93,1.34-1.94,1.79-2.91.1-.21.16-.43.24-.64.32-.74.52-.85,1.13-1,.13-.03.25-.09.36-.11.32-.12.87.4.79,1.34-.17,1.34-.82,2.4-1.45,3.38-.65.98-1.38,1.86-2.02,2.69l-.08.1h0s0,0,0,0c0,0-.02,0-.04.02-.02.03,0,.06.04.08v.06Z"/><path class="cls-5" d="M458.78,310.18s-.04.03.15-.03l.41-.19c.27-.15.55-.31.82-.52.54-.4,1.07-.88,1.52-1.43.34-.4.59-.86.89-1.3.25-.39.5-.79.71-1.2.21-.4.36-.78.49-1.22.26-.87.39-1.83.42-2.82.03-.88-.07-1.77-.19-2.65-.08-1.14-.35-2.28-.08-3.49.14-.38.17-.33.47-.06.16.13.33.33.55.56.23.23.43.51.51.83.18.57.35,1.14.51,1.73.14.59.2,1.2.27,1.81.12,1.23.12,2.52-.14,3.82-.16.77-.4,1.6-.72,2.37-.3.73-.66,1.45-1.09,2.11-.97,1.43-2.17,2.74-3.77,3.65-.26.14-.47.26-.81.38-.37.17-.71.22-1.07.29-.36.09-.7.03-1.04.05-.32-.08-.67-.09-.95-.24-.23-.09-.45-.18-.63-.33-.19-.13-.39-.26-.51-.46-.27-.42-.21-.91-.07-1.33.14-.43.41-.87.72-1.29.3-.4.71-.88.9-1.12.74-.89,1.36-1.84,1.92-2.76l.34-.61c.11-.18.2-.32.3-.44.1-.1.24-.16.34-.21.23-.09.46-.11.76-.08.14.01.27,0,.4.03.39.05.63.6.52,1.45-.39,1.11-1,2.08-1.65,2.96-.33.44-.67.86-.99,1.26l-.24.29h0s0,0,0,0c0-.02-.1.09.02.1v.06Z"/><path class="cls-5" d="M470.42,300.5s0-.02,0-.03c0-.01.03,0-.05-.12l-.33-.55c-.22-.37-.47-.74-.71-1.11-.5-.74-1.02-1.48-1.56-2.22-.39-.54-.85-1.03-1.25-1.59-.68-.99-1.39-1.97-1.98-3.15-.5-1.08-1.02-2.17-1.49-3.29-.43-.99-.85-2-1.16-3.04-.19-.67-.42-1.34-.46-2.05-.04-.71.1-1.43.3-2.11.13-.42.09-.36.25-.01.08.17.22.42.45.69.22.27.48.58.65.9.08.15.18.29.24.43.04.15.1.29.16.44.1.29.23.58.35.87.26.57.53,1.14.83,1.7.57,1.18,1.14,2.36,1.72,3.56.37.77.7,1.37,1.19,2.04.5.66,1.01,1.32,1.51,1.97,1.1,1.48,2.23,2.97,3.26,4.59l.23.38.12.2c.05.1.12.19.16.29.2.38.35.77.51,1.14.26.74.4,1.42.28,2.06-.08.41-.37.81-.75,1.02-.76.31-1.53.13-2.37-.29-.41-.2-.82-.45-1.22-.72l-.3-.21-.22-.16-.42-.32c-1.08-.85-2.15-1.67-3.13-2.64-.22-.21-.44-.42-.64-.65-.37-.44-.58-.77-.63-1.06-.03-.3.07-.55.26-.8.08-.11.15-.23.23-.31.14-.14.33-.15.61-.1.28.04.57.18.83.45.79.76,1.63,1.54,2.49,2.31.43.38.87.76,1.31,1.11l.33.26c.1.07.27.21.23.17h0s.01.03.01.01c.08.06.09,0,.09-.04l.07-.02Z"/><path class="cls-5" d="M453.94,222.31c2.09,6.41,4.05,12.87,5.84,19.38.67,2.37,1.36,4.74,1.97,7.12,1.02,4.22,1.99,8.46,2.79,12.73.4,2.14.78,4.28,1.09,6.43.36,2.14.62,4.31.88,6.47.03.21.1.73.11,1.12.07.17,0,.32.01.48,0,.16,0,.31-.09.46-.15.28-.4.48-.66.68-.55.37-1.24.69-1.57.85-.84.39-1.67.74-2.5,1.09-1.67.68-3.32,1.35-4.99,1.95-4.61,1.69-9.24,3.36-14.04,4.42-1.54.2-1.36.06-.26-.72.55-.4,1.35-.88,2.32-1.45.49-.28,1.02-.57,1.59-.87.29-.15.58-.3.88-.45.31-.13.63-.26.95-.4,2.91-1.16,5.81-2.34,8.68-3.56,1.44-.59,2.89-1.17,4.3-1.78.7-.31,1.4-.62,2.05-.94l.15-.07s.02,0,.03,0h.04s.03-.02.04-.03c0,0-.01-.01-.02-.02h0s0-.02,0-.02h0s0,0,0,0h0s0,0,0,0c.03,0-.07,0,.07,0l-.03-.04s-.02.01-.03-.14l-.09-.68-.17-1.36c-.12-.91-.2-1.82-.35-2.73-.28-1.81-.51-3.64-.81-5.47-.89-5.91-2.5-11.94-4.04-17.87-1.7-6.52-3.57-13.01-5.59-19.45-1.25-3.96-2.54-7.92-3.89-11.85-2.04-5.96-4.16-11.93-6.4-17.77-1.78-4.52-3.5-9.02-5.7-13.14-.5-.9-1.02-1.75-1.58-2.6-1.02-1.58-1.8-2.51-2.31-3.22-.24-.36-.44-.64-.57-.93-.12-.29-.2-.55-.26-.82-.05-.24-.15-.52-.16-.71,0-.32.37-.31,1.12-.02.73.3,1.74,1.01,2.79,2.15,3.14,3.41,4.99,7.7,6.73,11.85,1.69,4.17,3.34,8.4,4.94,12.68,2.38,6.35,4.64,12.78,6.8,19.23l-.07.03Z"/><path class="cls-5" d="M413.9,217.02c-1.02-.01-1.78-.21-2.52-.37l-2.13-.49c-1.38-.29-2.75-.51-4.14-.58-2.78-.15-5.59.18-8.38.8-2.06.44-4.02,1.16-6.34,1.55-.52.08-1.07.13-1.69.1-.32-.03-.62-.04-.99-.17-.34-.07-.7-.27-1.03-.49-.31-.23-.6-.55-.8-.86l-.25-.48-.11-.24-.06-.17c-.17-.46-.33-.95-.46-1.42-.56-1.91-.87-3.84-1.1-5.77-.38-3.88-.19-7.77.43-11.57.5-3.39,1.46-6.69,2.52-9.9.82-2.01,1.49-4.09,2.57-5.99l.79-1.43c.29-.46.47-.98.91-1.35.75-.82,1.37-1.7,2.03-2.56.78-1.09.7-.92.29.15-.2.53-.43,1.33-.67,2.3-.13.48-.12,1.07-.28,1.61-.17.53-.33,1.1-.54,1.66-.19.5-.36,1.01-.57,1.5-.21.49-.47.95-.65,1.45l-1.14,2.97c-.39.99-.65,2.01-.98,3.02-.34,1-.6,2.02-.86,3.05-1.06,4.09-1.62,8.31-1.58,12.56.06,2.54.41,5.14,1.17,7.6.09.31.19.61.3.91.05.15.11.3.17.46.06.14.1.16.13.26.16.25.3.33.78.4.45.06,1.06-.03,1.67-.14.62-.12,1.25-.27,1.9-.43,2.84-.72,5.82-1.51,8.88-1.73,3.04-.29,6.17-.04,9.13.6.9.19,1.8.41,2.63.55.85.15,1.53.12,1.96-.18.44-.3.8-1.03,1.04-1.82.25-.79.4-1.66.53-2.54.38-2.67.57-5.45.92-8.21.33-2.76.77-5.52,1.37-8.23.94-4.21,2.23-8.33,4.3-12.16.44-.85.92-1.66,1.43-2.48,2.09-2.92,3.11-3.57,4.13-3.65.23-.02.48-.09.65-.07.28.04.25.38.02,1.01-.1.32-.3.67-.55,1.07-.23.42-.52.89-.86,1.4-.95,1.55-1.89,3.12-2.72,4.77-.81,1.66-1.53,3.37-2.15,5.14-1.25,3.54-2.06,7.3-2.59,11.16-.4,2.87-.65,5.77-1.02,8.77-.2,1.51-.38,3.02-.87,4.68-.27.82-.55,1.71-1.33,2.62-.21.22-.45.44-.69.64-.27.17-.56.35-.85.47-.61.23-1.2.32-1.72.32v-.07Z"/><path class="cls-5" d="M404.89,172.75c-4.88.07-9.81.38-14.82.31-1.9-.05-3.77-.18-5.62-.58-1.62-.37-3.23-.86-4.77-1.54-.39-.17-.76-.38-1.14-.56-.38-.18-.75-.39-1.1-.63l-1.07-.69-1-.81c-2.68-2.17-4.35-5.44-4.94-8.72-.62-2.93-.3-6.04.72-8.82.66-1.78,1.58-3.5,2.87-4.91,1.24-1.44,2.83-2.6,4.65-3.12,1.16-.27.9-.38.27.39-.33.37-.65,1.06-1.09,1.74-.2.36-.38.79-.63,1.15-.24.37-.52.72-.81,1.09-.51.65-.95,1.35-1.38,2.04-.22.34-.43.69-.6,1.06-.2.35-.36.73-.52,1.1-.63,1.49-.99,3.09-1.07,4.7-.06.81,0,1.61.09,2.41l.23,1.21.11.61c.04.2.13.39.19.58l.38,1.16c.17.37.36.72.54,1.09.09.18.17.37.28.55l.35.5c.25.33.43.71.72,1,1.25,1.54,3.01,2.73,4.96,3.56,1.95.83,4.09,1.32,6.22,1.62,1.18.16,2.36.25,3.56.25,1.22,0,2.45,0,3.68-.03,2.46-.06,4.94-.16,7.43-.25,3.06-.11,6.14-.17,9.23-.07,4.69.12,9.39.87,13.88,2.19,3.49,1.03,6.87,2.42,9.9,4.5.67.45,1.31.91,1.95,1.42,2.3,1.97,2.74,2.89,2.63,3.82-.03.22-.03.46-.1.63-.12.29-.47.29-.97.04-.49-.25-1.15-.73-1.94-1.38-2.34-1.93-4.92-3.6-7.76-4.85-2.82-1.28-5.89-2.14-9.06-2.76-4.66-.93-9.52-1.06-14.44-.93v-.07Z"/><path class="cls-5" d="M421.99,145.14c5.84.91,11.64,2.27,17.14,4.83,1.98.96,3.93,2.03,5.7,3.37,3.1,2.35,5.85,5.28,7.67,8.78.92,1.74,1.61,3.59,2.06,5.5.4,1.88.67,3.8.73,5.73.08,3.42-.39,6.89-1.58,10.07-.74,2.05-1.7,4.01-2.86,5.84l-.9,1.35-.98,1.29c-.33.43-.7.82-1.05,1.23-.35.41-.8.73-1.19,1.09-1.03.87-1.08.56-.69-.57.1-.3.22-.64.35-1.01.09-.42.31-.79.5-1.23.22-.42.44-.88.69-1.35.26-.47.55-.95.84-1.45,2.19-3.49,3.64-7.34,4.11-11.32.24-1.99.23-4.02,0-6.04-.1-1.01-.3-2.02-.5-3.03l-.38-1.46-.49-1.43c-.87-2.26-2.28-4.37-4-6.21-1.72-1.85-3.79-3.39-5.94-4.73-4.76-2.92-10.33-4.57-15.95-5.7-3.47-.68-7-1.14-10.55-1.4-5.38-.39-10.79-.4-16.16.05-4.19.25-8.45.63-12.76-.54-.47-.15-.93-.28-1.39-.44-.45-.18-.91-.36-1.36-.58-.41-.23-.78-.44-1.12-.63-.33-.21-.59-.46-.84-.66-.51-.4-.84-.81-1.11-1.14-.56-.64-.65-1.22-.68-1.7-.01-.22-.06-.47-.04-.61.04-.25.36-.16.96.09.6.24,1.34.78,2.36,1.3,1.49.79,3.04,1.45,4.75,1.79,1.69.36,3.48.51,5.31.52,3.68.05,7.52-.44,11.56-.58,5.93-.19,11.89.11,17.8.91v.07Z"/><path class="cls-5" d="M373.83,136.64c-2.11-2.28-3.81-4.87-5.14-7.65-1.32-2.81-2.13-5.83-2.44-8.87-.26-2.21-.34-4.45-.13-6.65.74-7.78,3.75-15.12,8.14-21.38,1.96-2.77,4.18-5.4,6.67-7.7,1.62-1.45,3.35-2.8,5.21-3.95l1.42-.82,1.51-.65c.5-.22,1.03-.37,1.54-.56.52-.18,1.1-.17,1.64-.27,1.36-.17,1.16-.14.24.59-.23.19-.5.42-.79.72-.07.09-.15.15-.21.27-.08.06-.16.14-.25.21-.17.14-.35.29-.53.45-.75.58-1.54,1.39-2.53,1.98-6.87,4.5-12.38,11.07-16.05,18.69-2.19,4.56-3.33,9.84-3.4,14.97-.15,5.66,1.42,11.27,4.73,15.91,1.02,1.41,2.11,2.78,3.39,3.96.61.63,1.31,1.15,1.97,1.72.71.5,1.4,1.04,2.16,1.47,2.25,1.38,4.72,2.44,7.3,3.12,2.58.67,5.25.99,7.9.97,4.13-.05,8.16-.95,11.83-2.54.81-.35,1.56-.76,2.34-1.16,1.44-.76,2.29-1.37,2.94-1.73.64-.38,1.09-.53,1.54-.61.21-.03.46-.11.63-.11.29.01.28.34-.02.98-.3.62-.96,1.51-2.01,2.35-1.55,1.27-3.31,2.29-5.18,3.05-1.86.77-3.82,1.34-5.82,1.74-4,.78-8.22.88-12.34.17-6.11-1-12.07-3.99-16.35-8.6l.04-.05Z"/><path class="cls-5" d="M425.02,257.59c-1.3-3.87-2.55-7.75-3.75-11.64-.44-1.42-.95-2.82-1.38-4.24l-1.62-5.58-.73-2.59-.29-1.19-.24-.98-.12-.52-.03-.13s0-.05-.02-.06c-.02,0-.02.03-.03.04-.03.06-.05.12-.07.19-.14.44-.25,1-.36,1.56-.11.68-.23,1.37-.34,2.04-.25,1.45-.5,2.91-.76,4.36-.14.72-.24,1.45-.43,2.17-.19.71-.38,1.43-.58,2.15-.34.88-.37.77-.65-.05-.15-.41-.3-.99-.46-1.69-.07-.35-.17-.73-.2-1.13-.02-.4-.01-.81.03-1.24.12-1.34.26-2.68.42-4.01.03-.33.1-.66.15-1l.21-1.24c.22-1.3.45-2.65.71-3.94.13-.64.27-1.27.42-1.85.15-.58.36-.87.54-1.1.37-.51.7-.48.97-.53.07,0,.13-.04.22-.04.14,0,.13.01.2.02.11.03.25.02.4.11.18.16.35.22.53.49l.58,1.26c.34,1.28.69,2.57,1.04,3.87.32,1.14.65,2.29.98,3.45.27.88.55,1.77.82,2.66.58,1.77,1.16,3.56,1.73,5.32l3.76,11.68c.79,2.39,1.59,4.78,2.43,7.15,1.27,3.59,2.56,7.2,4.03,10.67,1.15,2.7,2.46,5.27,3.84,7.78.3.56.63,1.07.95,1.62.58,1.01.96,1.65,1.15,2.14.17.53.17.87.09,1.28-.04.18-.04.39-.08.53-.08.24-.34.24-.82.03-.51-.21-1.08-.71-1.63-1.45-1.63-2.21-2.91-4.61-4.11-7.09-1.19-2.48-2.27-5.03-3.3-7.61-1.53-3.83-2.91-7.72-4.28-11.6l.06-.03Z"/><path class="cls-5" d="M259.28,122.61c.03.63-.1,1.09-.3,1.43-.15.33-.68.64-1.18.75-1.02.22-2.08-.12-3.06-.9l-.54-.44-.5-.53c-.17-.17-.35-.36-.48-.55l-.28-.41c-.58-.95-1.02-1.94-1.36-2.98-.16-.53-.31-1.05-.38-1.63-.06-.27-.04-.6-.05-.9.02-.28.04-.54.08-.81.12-.95.31-1.88.6-2.78.39-1.13.89-2.29,1.89-3.03.37-.18.36-.11.42.3.03.2.05.46.06.76.03.3.01.61-.09.89-.17.5-.29,1.01-.4,1.51-.12.5-.21,1-.27,1.5-.06.5-.09,1.01-.1,1.51,0,.38.05.83.13,1.35.11.61.36,1.22.67,1.8.16.28.32.57.51.84.09.14.18.27.27.4l.14.19.06.09c.14.22.33.47.62.66.14.09.31.16.5.17.08-.02.21.02.25-.05.03-.07.03-.15.04-.22,0-.19-.03-.39-.06-.61l-.05-.34-.1-.5c-.15-.72-.29-1.46-.39-2.22-.08-.74-.22-1.59.03-2.48.26-1.1.6-2.42,1.45-3.44.18-.22.35-.44.56-.63.77-.69,1.14-.71,1.64-.33.11.09.23.16.33.26.31.32.22.86-.17,1.33-.59.73-.98,1.38-1.2,2.11-.12.37-.22.8-.32,1.28l-.04.18s.02.03,0,.05v.17c0,.15.03.35.05.56.09.64.25,1.37.43,2.1.08.39.6,2.41.71,3.65l-.07-.03Z"/><path class="cls-5" d="M262.73,126.34c-.86.1-1.81-.11-2.47-.62-.2-.17-.41-.28-.55-.47-.49-.66-.77-1.34-.87-2.03-.05-.3-.14-.59-.13-.89,0-.38-.04-.77.14-1.15.06-.11.1-.07.17.04.06.1.22.25.31.42.08.15.15.3.29.43.13.13.26.25.33.39.14.28.35.5.4.81.1.36.41.58.65.77.16.1.23.18.3.23.08.06.18.12.3.14.14.04.32.07.47.01.14-.19.21-.38.19-.73-.02-.33-.19-.66-.3-1-.01-.07-.05-.15-.05-.22,0-.28.15-.39.7-.46.13-.01.25-.03.38-.04.42,0,.78.07.94.27.12.15.23.3.31.47.06.16.1.33.12.5.02.17.03.35.03.53v.14c0,.06-.01.15-.03.23l-.04.48c-.1.46-.23.89-.49,1.22-.26.36-.7.45-1.09.59l-.02-.05Z"/><path class="cls-5" d="M342.35,229.6c2.74,1.17,5.76,2.07,8.75,2.94,3,.85,6.04,1.64,9.09,2.39,2.23.55,4.47,1,6.71,1.53,7.87,1.87,15.77,3.67,23.68,5.46,3.52.77,7.05,1.54,10.54,2.3,2.24.5,4.49.98,6.73,1.55,2.25.5,4.44,1.41,6.45,2.69.61.45.84.67.81.67-.03.01-.34-.17-.96-.23-.62-.06-1.51-.1-2.6,0-.54.03-1.1-.02-1.71-.05-.3-.01-.6-.05-.93-.05-.31-.07-.62-.13-.94-.2-4.5-1.08-9.08-1.97-13.64-3.02-4.56-1.05-9.13-2.11-13.72-3.26-5.48-1.37-11.26-2.46-16.89-3.77-6.19-1.46-12.38-2.96-18.49-4.93-1.25-.41-2.5-.85-3.73-1.37-.62-.26-1.24-.54-1.85-.87-.33-.18-.56-.31-.98-.61-.18-.16-.38-.3-.55-.47-.15-.18-.32-.34-.45-.54-.19-.43-.15-.89-.07-1.37l.16-.66.13-.49.56-1.91c1.77-5.7,3.87-11.28,6.09-16.75,1.73-4.25,3.45-8.42,5.53-12.49.46-.9.9-1.78,1.4-2.66,1.95-3.23,2.86-4.1,3.9-4.33.23-.06.49-.17.67-.17.58,0,.11,1.5-1.17,3.84-3.75,6.99-7.17,14.67-10.15,22.59-.9,2.37-1.76,4.77-2.53,7.18-.39,1.21-.77,2.42-1.12,3.63l-.5,1.8-.14.53s-.02.03,0,.04c-.35-.17.98.64,1.97,1.01l-.02.07Z"/><path class="cls-5" d="M366.11,478.76l-15.99-.12-5.83.06-20.57-.09c-3.04.02-6.1.04-9.12.09-1.94.02-3.88.11-5.83.08l-2.92-.1c-.49-.02-.97-.05-1.46-.09-.49-.05-.97-.19-1.46-.32-1.2-.43-1.04-.2-.01-.56,1.03-.49,2.9-1.07,5.13-1.24,3.95-.25,7.9-.31,11.87-.42,3.96-.05,7.94.01,11.94.1,4.78.12,9.75-.09,14.63-.12l16.12-.03c3.31.02,6.62.03,9.92.05,5.01.04,10.05.08,15.02.12,3.87,0,7.66-.11,11.51-.09.85.01,1.68,0,2.53.02,3.17.12,4.19.45,4.77,1.26.14.18.32.37.39.54.24.56-1.09,1.01-3.35.97-6.76.06-13.95.08-21.16.03-5.36-.02-10.75-.05-16.12-.07v-.07Z"/><path class="cls-5" d="M145.21,41.33c12.85,0,25.7-.04,38.54-.14,4.69-.07,9.38-.14,14.06-.21,16.53-.09,33.04-.28,49.6-.1,1.84.03,3.68.07,5.54.15l1.4.08.71.05.8.08c.67.11,1.42.18,1.81.74.39.5.62,1.27.76,1.82.43,1.95.54,3.79.67,5.65.1,1.85.15,3.69.18,5.52.06,4.7.02,9.39-.1,14.08l-.11,3.51-.22,3.51c-.06,1.17-.18,2.34-.3,3.5l-.17,1.75-.09.87-.04.44c-.03.07.05.15-.07.22l-.06.22c-.42,1.44-.57,2.07-.59,2.03-.03-.04.01-.76-.3-2-.51-2.48-1.35-7.06-1.29-12.43.09-4.76.16-9.52.12-14.25-.02-2.36-.07-4.73-.2-7.05-.06-1.16-.14-2.31-.28-3.41-.07-.54-.16-1.08-.27-1.53,0-.03,0-.05-.02-.07h-.03s-.05-.02-.12-.03l-.2-.02-.41-.04c-.56-.05-1.14-.08-1.72-.11-1.17-.06-2.35-.1-3.53-.13-2.38-.04-4.76-.09-7.15-.13-4.79-.05-9.58-.09-14.39-.14-11.5-.1-23.48.26-35.25.38-12.94.14-25.9.24-38.85.29-7.97,0-15.95.02-23.91.03-12.07,0-24.2-.13-36.18-.24-9.32-.08-18.45-.05-27.67-.21-2.03-.04-4.02-.05-6.06-.11-7.58-.26-9.99-.63-11.57-1.57-.36-.22-.84-.44-1.04-.64-.69-.71,2.42-1.06,7.96-1,16.44.16,33.76.33,51.15.5,12.92.08,25.91.12,38.87.06l.02.08Z"/><path class="cls-5" d="M51.48,198.75l.08.02.4.09.85.16c.58.1,1.19.18,1.79.26,1.22.15,2.46.27,3.7.38,2.49.21,5.01.36,7.53.49,5.04.25,10.1.43,15.16.57,10.12.27,20.26.4,30.4.46,7.4.05,14.8-.04,22.19-.04,26.07-.02,52.15-.23,78.22-.79,11.56-.26,23.2-.64,34.64-1.29,1.84-.1,3.67-.21,5.5-.35.91-.07,1.82-.15,2.72-.25.4-.05.5-.06.71-.11.08-.03.22-.02.25-.12l.02-.3.11-1.58c.05-.68.09-1.37.12-2.05l.18-4.13c.08-2.76.18-5.52.29-8.29.22-5.53.34-11.06.83-16.59.43-2.3.56-3.29.55-3.22,0,.07-.06,1.19.28,3.14.58,3.9,1.43,11.07,1.45,19.6,0,2.3-.07,4.6-.13,6.91l-.14,3.47-.1,1.75-.06.94-.15,1.64-.42.93-.1.23c.11.11-.16-.12-.14-.08l-.02.03-.03.06-.07.11c-.1.14-.18.29-.33.38-.59.34-1.45.48-2.16.57l-.8.1-.62.07-1.22.12c-1.62.14-3.22.25-4.83.36-3.21.21-6.41.33-9.61.46-6.4.25-12.8.43-19.21.58-12.81.3-25.65.46-38.53.51-18.17.07-37.09.44-55.69.45-10.22,0-20.45-.05-30.68-.2-10.23-.17-20.46-.36-30.7-.94-3.15-.19-6.3-.4-9.48-.79-.8-.1-1.59-.21-2.4-.37l-.61-.13c-.22-.05-.37-.08-.69-.17-.56-.15-1.15-.36-1.57-.72-.46-.37-.53-.98-.66-1.54-.09-.68-.1-.98-.14-1.4l-.14-2.38c-.27-6.32-.41-12.6-.55-18.89-.39-19.05-.54-38.19-.8-57.1-.25-14.7-.5-29.11-.75-43.64-.05-3.2-.1-6.33-.15-9.56-.1-11.96.09-15.77.93-18.34.18-.58.36-1.36.54-1.7.59-1.15,1.18,3.73,1.38,12.48.66,25.97.97,53.35,1.35,80.84.16,10.21.32,20.43.48,30.67l.35,15.34c.07,2.55.16,5.11.3,7.64.07,1.27.14,2.54.24,3.78l.12,1.35s.02.06.06.07l-.03.07Z"/><path class="cls-5" d="M109.95,145.14c3.22,1.33,6.45,2.64,9.69,3.89,1.61.62,3.26,1.25,4.82,1.75l.34.1s.09.03.13,0c-.03.02.48-.22.85-.39l2.34-1.14c2.27-1.13,4.5-2.36,6.76-3.51,1.99-1.02,3.98-2.05,5.93-3.12.48-.27.97-.54,1.42-.81l.32-.19c.1-.04.1-.15.11-.23l.02-.16.03-.4.04-.83.07-1.67c.16-4.47.24-8.96.3-13.44v-2.98c-.01-.97-.03-2.04-.08-2.9,0-.12-.02-.24-.05-.36-.08-.08-.19-.14-.29-.21l-1.19-.73c-.85-.5-1.71-.99-2.56-1.49-4.37-2.57-8.88-4.94-13.13-7.75-1.27-.98-1.04-.97.35-.72.7.12,1.64.38,2.76.73,1.13.34,2.4.84,3.7,1.51,2.32,1.19,4.62,2.39,6.92,3.62,1.15.61,2.27,1.28,3.41,1.94l.86.52.24.15c.14.07.25.19.38.28.23.2.53.36.7.61l.14.17c-.02.1.03.15.05.23l.14.43c.04.15.11.29.13.44l.03.48c.03.38.04.69.05,1.03.16,5.28.07,10.46-.17,15.72-.07,1.57-.13,3.16-.2,4.76l-.07,1.35c-.02.34-.11.65-.18.96-.02.16-.13.29-.23.41-.1.12-.19.25-.34.34-.23.2-.57.42-.79.56l-.54.33-1.06.62c-2.82,1.61-5.66,3.15-8.51,4.63l-4.72,2.4-2.39,1.18-.34.16c-.16.07-.32.15-.48.22-.32.16-.68.11-1.03.1-.79-.14-1.11-.28-1.57-.41-3.42-1.13-6.67-2.42-9.97-3.69l-6.05-2.4-3.02-1.23-.75-.31c-.32-.14-.75-.29-1.07-.48-.17-.09-.33-.19-.47-.3-.08-.16-.14-.34-.2-.5-.05-.18-.11-.36-.14-.55l-.06-.6-.09-1.32-.07-1.24-.12-2.47-.21-4.93c-.14-3.28-.28-6.56-.41-9.81-.06-1.27-.12-2.53-.17-3.79l-.02-.53c-.01-.23,0-.46,0-.68.01-.23.02-.45.1-.65.16-.16.29-.33.46-.47.16-.15.31-.31.52-.42l.53-.33.83-.48c2.21-1.24,4.42-2.42,6.68-3.54.99-.5,1.96-1,2.98-1.46,3.78-1.72,5.14-1.98,6.23-1.59.25.09.55.16.72.28.55.43-.86,1.36-3.53,2.67-1.98.98-3.99,2-6,3.05-2.01,1.05-4.06,2.12-5.98,3.28l-.36.22-.26.16s-.01.02-.02.03c0,0,0,.02,0,.03,0,.01,0,0,0,.03l.02.43c.05,1.16.11,2.33.16,3.49.12,2.35.24,4.7.35,7.06.19,3.5.38,7.01.56,10.52l.09,1.3.05.64s0,.02,0,.03c0,.02,0,.03.01.03h0s0,0,0,0h0s.08.03.08.03l.61.25,4.88,1.98-.02.07Z"/><path class="cls-5" d="M123.28,80.42c.59-.24,1.18-.5,1.76-.79.21-.11.38-.27.59-.38.76-.37,1.54-.74,2.29-1.11.34-.17.64-.39.94-.6.4-.26.85-.46,1.36-.57.16-.03.23.11.25.35.01.24.02.64-.12.9-.13.22-.25.47-.39.66-.17.17-.34.33-.52.49-.36.31-.75.6-1.19.82-.55.24-.95.71-1.44,1.06-.54.38-1.1.74-1.67,1.09-.36.21-.71.42-1.06.63-.54.32-1.12.58-1.64.93-.41.27-.73.68-1.12,1.01-.08.08-.16.17-.25.23-.36.21-.57.07-.93-.59-.08-.15-.17-.3-.25-.45-.26-.52-.3-1.03-.15-1.31.48-.78,1.15-1.17,1.86-1.58.53-.29,1.08-.58,1.66-.85l.04.05Z"/><path class="cls-5" d="M136.97,64.55c-2.07.46-3.8,2.16-4.36,4.2s.17,4.23,1.77,5.58c1.7,1.43,3.98,1.76,5.97.7,1.83-.98,3.1-3.05,2.98-5.14-.14-2.47-1.82-4.59-4.14-5.4-.64-.22-1.37.25-1.54.87-.19.69.23,1.31.87,1.54-.03,0,.35.14.2.07-.12-.05.11.06.13.07.17.09.32.19.48.29.02.01.19.14.05.03.07.05.13.11.19.16.16.14.29.29.44.44.16.17.08.09.04.04.06.08.12.17.18.26.1.16.2.32.28.49.04.07.07.15.11.22-.02-.06-.06-.18.01.05.06.2.11.39.16.6.06.23.02.1.01.03.01.08.02.16.02.25.01.19,0,.37,0,.56-.01.23.07-.28-.01.09-.02.08-.03.16-.05.24s-.04.16-.07.23c0,0-.14.36-.05.16-.06.15-.14.29-.22.43-.04.07-.08.14-.13.21.02-.02-.22.3-.12.17s-.16.18-.14.15c-.06.06-.11.12-.17.18s-.12.11-.18.17c-.26.24.16-.09-.13.11-.13.09-.27.18-.41.26-.07.04-.14.07-.22.11-.34.17.12-.04-.09.04-.17.06-.35.1-.52.15-.04.01-.24.04-.03.01-.12.02-.24.02-.36.02-.08,0-.49-.03-.27,0-.16-.02-.32-.06-.47-.1-.1-.03-.19-.06-.29-.09-.19-.07.15.07-.03-.01s-.36-.18-.53-.29c-.08-.05-.17-.11-.25-.17.05.04.14.13-.03-.03-.12-.11-.24-.22-.35-.34-.05-.06-.11-.12-.16-.18.13.16-.03-.04-.06-.09-.11-.17-.22-.34-.31-.52-.02-.05-.12-.29-.05-.09-.03-.07-.06-.15-.08-.23-.05-.15-.08-.31-.12-.47-.05-.24-.01-.08,0-.03,0-.1-.01-.2-.02-.31,0-.08,0-.16,0-.25,0-.06,0-.12.01-.18-.02.11-.02.12,0,.03.03-.2.08-.4.15-.59.03-.08.05-.16.08-.23.03-.08.03-.08,0,.02.03-.06.05-.11.08-.17.21-.41.37-.63.58-.85.14-.15.29-.29.45-.42s-.13.09.04-.03c.1-.07.2-.14.31-.2.07-.04.14-.08.22-.12.05-.03.11-.06.17-.08-.09.04-.1.04-.01,0,.21-.08.43-.14.65-.19.66-.15,1.05-.91.87-1.54-.19-.68-.88-1.02-1.54-.87h0Z"/><path class="cls-5" d="M147.69,65.39c-.1,2.99,0,5.99.31,8.97.07.67.53,1.25,1.25,1.25.62,0,1.32-.57,1.25-1.25-.31-2.98-.41-5.97-.31-8.97.02-.68-.59-1.25-1.25-1.25-.7,0-1.23.57-1.25,1.25h0Z"/><path class="cls-5" d="M149.51,70.83c1.77.16,3.56.01,5.29-.39.64-.15,1.07-.91.87-1.54-.22-.67-.85-1.03-1.54-.87-.4.09-.8.17-1.2.23-.06,0-.12.02-.19.03l.15-.02c-.11.02-.22.03-.33.04-.2.02-.41.04-.61.05-.82.05-1.63.04-2.45-.03-.65-.06-1.28.62-1.25,1.25.03.73.55,1.19,1.25,1.25h0Z"/><path class="cls-5" d="M154.22,65.02c-.28,2.92-.32,5.85-.12,8.77.05.67.54,1.25,1.25,1.25.64,0,1.3-.57,1.25-1.25-.2-2.92-.16-5.85.12-8.77.07-.67-.62-1.25-1.25-1.25-.73,0-1.18.58-1.25,1.25h0Z"/><path class="cls-5" d="M194.16,150.75c-2.12.47-3.9,2.22-4.47,4.31s.18,4.33,1.82,5.71c1.74,1.46,4.08,1.8,6.11.72,1.87-1,3.18-3.12,3.05-5.26-.15-2.53-1.87-4.7-4.24-5.53-.64-.22-1.37.25-1.54.87-.19.69.23,1.31.87,1.54,1.19.42,2.04,1.51,2.37,2.82.06.24.02.11.02.05.01.08.02.17.02.25.01.19,0,.38,0,.58-.02.23.07-.27-.01.11-.02.08-.03.16-.05.25s-.04.16-.07.24c0,0-.14.36-.05.17-.12.28-.37.69-.49.84.1-.12-.17.19-.15.16-.06.06-.12.12-.18.18s-.12.11-.18.17c-.26.25.15-.09-.14.12-.14.09-.28.19-.42.27-.07.04-.15.08-.22.11-.35.18.11-.03-.1.04-.18.06-.36.1-.54.15-.03,0-.24.04-.04.02-.12.02-.25.02-.38.02-.08,0-.17,0-.25,0-.03,0-.25-.02-.04,0-.16-.02-.33-.06-.48-.1-.1-.03-.2-.06-.29-.1-.2-.07.14.07-.04-.02s-.37-.19-.54-.3c-.09-.06-.17-.11-.26-.18.05.04.13.12-.04-.04-.12-.12-.24-.23-.36-.35-.06-.06-.11-.12-.17-.19.12.15-.04-.06-.07-.1-.12-.17-.22-.35-.32-.54-.02-.04-.12-.29-.05-.1-.03-.08-.06-.16-.08-.23-.05-.16-.09-.32-.12-.48-.05-.25-.01-.1,0-.04,0-.11-.01-.21-.02-.32,0-.08,0-.17,0-.25,0-.06,0-.13.01-.19-.02.1-.02.11,0,.02.03-.21.09-.41.15-.61.03-.08.05-.16.08-.24.03-.08.03-.08,0,0,.03-.06.05-.11.08-.17.1-.19.21-.37.33-.55.01-.02.17-.23.09-.13-.04.05.15-.17.19-.21.34-.36.47-.46.84-.68.07-.04.15-.08.22-.12.06-.03.11-.06.17-.08-.09.03-.09.03,0,0,.22-.09.44-.15.67-.2.66-.15,1.05-.91.87-1.54-.19-.68-.88-1.02-1.54-.87h0Z"/><path class="cls-5" d="M172.22,152.23c-.1,3.09,0,6.18.32,9.25.07.67.53,1.25,1.25,1.25.62,0,1.32-.57,1.25-1.25-.32-3.07-.42-6.16-.32-9.25.02-.68-.59-1.25-1.25-1.25-.7,0-1.23.57-1.25,1.25h0Z"/><path class="cls-5" d="M174.05,157.79c1.82.16,3.67.01,5.45-.4.64-.15,1.07-.91.87-1.54-.22-.67-.85-1.03-1.54-.87-.41.09-.82.18-1.24.24-.06,0-.13.02-.19.03l.14-.02c-.11.02-.23.03-.34.04-.21.02-.42.04-.63.05-.84.06-1.69.04-2.53-.03-.65-.06-1.28.62-1.25,1.25.03.73.55,1.19,1.25,1.25h0Z"/><path class="cls-5" d="M178.95,151.84c-.29,3.01-.33,6.03-.13,9.05.05.67.54,1.25,1.25,1.25.64,0,1.3-.57,1.25-1.25-.21-3.01-.16-6.04.13-9.05.07-.67-.62-1.25-1.25-1.25-.73,0-1.18.58-1.25,1.25h0Z"/><path class="cls-5" d="M185.05,160.96c.27-.05-.26,0,.01,0,.08,0,.15,0,.23,0s.15,0,.22,0c.25.01-.26-.06-.02,0,.12.03.26.1.39.12-.24-.04-.15-.07-.04,0,.04.02.26.17.09.05-.16-.12,0,0,.02.03.1.1.07.17-.02-.05.02.05.06.1.09.14.11.18-.07-.26-.03-.06.03.14-.02.17,0-.07,0,.05,0,.12,0,.18,0,.22.08-.27,0-.05,0,.04-.02.09-.04.13-.03.09-.03.09,0,0l.03-.07s-.04.08-.06.11c-.07.15-.11.02.07-.07-.04.02-.19.17-.21.21.08-.16.21-.14.06-.06-.05.03-.09.06-.14.08-.11.06-.23.12-.34.17-.39.18-.81.33-1.17.58-.61.42-1.01.99-1.06,1.74-.04.53.1,1.13.41,1.56.64.9,1.74,1.13,2.79,1.05.53-.04,1.07-.13,1.59-.24.19-.04.37-.08.56-.12.14-.03.73-.12.19-.05.58-.07,1.15-.46,1.12-1.12-.02-.55-.5-1.2-1.12-1.12-.39.05-.77.13-1.16.21-.17.04-.34.07-.52.1-.1.02-.2.04-.3.05-.05,0-.1.01-.15.02-.19.03.33-.04.04,0-.2.02-.4.04-.61.04-.08,0-.16,0-.24,0-.05,0-.09,0-.14-.01-.19,0,.33.07.07,0-.09-.02-.17-.04-.25-.06-.12-.03-.14-.11.11.05-.03-.02-.08-.04-.11-.06-.03-.02-.07-.05-.1-.06.24.09.2.18.1.08-.02-.02-.04-.04-.06-.06-.12-.1.16.28.05.07-.02-.03-.04-.09-.06-.11.16.18.08.25.05.1-.01-.05-.02-.09-.03-.14-.06-.19.02.3.01.09,0-.06,0-.11,0-.17,0-.21.07,0-.02.1,0,0,.04-.12.04-.14-.09.2-.11.24-.06.14.01-.03.03-.05.05-.08-.03.17-.19.21-.07.1.03-.03.06-.05.08-.08.13-.14-.24.15-.07.06.04-.03.08-.06.13-.08.2-.12.42-.22.63-.31.47-.21.93-.42,1.32-.77.52-.46.82-1.19.82-1.89,0-.87-.5-1.62-1.22-2.07-.78-.48-1.7-.52-2.58-.37-.58.1-.96.84-.79,1.38.2.63.76.89,1.38.79h0Z"/><path class="cls-5" d="M413.08,109.37c-1.47-4.8-3.48-9.46-6.05-13.79-.98-1.55-2-3.08-3.11-4.53-.9-1.35-1.97-2.54-2.98-3.8-.53-.6-1.11-1.16-1.66-1.75l-.84-.87-.9-.79c-.61-.51-1.18-1.1-1.83-1.55l-1.95-1.4c-1.37-.8-2.74-1.65-4.23-2.17-1.32-.61-2.54-.91-3.91-.84-1.33.06-2.66.43-3.86,1.03-1.54.79-2.87,1.96-3.93,3.35-.54.69-1.06,1.41-1.5,2.18-.25.37-.42.79-.63,1.19-.22.39-.5.78-.69,1.2-.56,1.03-.57.9-.63-.16-.2-1.08-.15-3.17,1.04-5.29,1.11-1.81,2.7-3.38,4.6-4.48,1.89-1.11,4.1-1.76,6.38-1.7.57,0,1.14.09,1.71.17l.85.2c.28.07.5.17.75.26.96.38,1.97.69,2.86,1.2.89.51,1.81.98,2.65,1.54l2.45,1.81c3.71,3.08,7.14,6.69,9.88,10.7,2.99,4.41,5.37,9.18,7.2,14.15.5,1.55,1.11,3.06,1.5,4.64l.65,2.35c.19.79.35,1.59.52,2.38.12.6.27,1.2.37,1.81l.27,1.83.26,1.83.14,1.85c.28,2.44.18,5-.2,7.44-.59,3.81-1.83,7.51-3.96,10.79-.22.37-.47.71-.72,1.06-.24.35-.5.7-.79,1.02-1.03,1.25-1.91,1.89-2.56,2.27-.65.38-1.17.41-1.65.32-.22-.05-.48-.07-.65-.16-.58-.33.19-1.36,1.53-2.94,4.05-4.67,6.45-11.07,6.22-17.53-.2-4.94-1.14-9.97-2.67-14.78l.07-.03Z"/><path class="cls-5" d="M446.89,93.21c-3.96-6.95-9.07-13.33-15.5-18.08-2.34-1.74-4.89-3.15-7.48-4.43-4.62-2.19-9.6-3.66-14.73-4.24-5.13-.55-10.35-.54-15.29.89-4.38,1.23-8.54,3.39-11.88,6.37-2.15,1.9-3.97,4.18-5.25,6.74-.27.66-.56,1.31-.85,1.96-.26.66-.42,1.36-.64,2.05l-.15.52-.08.53-.17,1.07c-.03.36-.19.71-.21,1.07-.05.36-.06.72-.12,1.09-.3,1.84-.19,1.62-.6.05-.11-.42-.24-.9-.39-1.45-.14-.57-.11-1.21-.16-1.94-.07-.73.06-1.49.17-2.32.07-.41.11-.85.22-1.27.13-.42.27-.85.42-1.29,1.14-3.08,3.05-5.82,5.33-8.12.59-.55,1.17-1.13,1.79-1.65.64-.49,1.27-1,1.93-1.48,1.37-.86,2.75-1.7,4.22-2.36,2.91-1.36,5.99-2.32,9.14-2.87,1.59-.21,3.17-.43,4.77-.45.8-.05,1.59-.03,2.38,0l2.36.09c3.76.29,7.57.86,11.31,1.87,3.73,1.01,7.38,2.47,10.73,4.39,7.39,4.22,13.44,10.4,18.14,17.32,2.89,4.28,5.3,8.86,7.3,13.59,1.5,3.59,2.77,7.28,3.75,11.06,1.01,3.77,1.56,7.66,1.83,11.52.36,5.99-.01,12.08-2.21,17.81-.21.64-.51,1.24-.78,1.85l-.42.92c-.17.29-.34.59-.5.89-1.25,2.21-2.41,3.46-3.28,4.25-.42.41-.82.66-1.18.83-.36.17-.68.27-1,.32-.29.04-.63.13-.84.1-.36-.06-.26-.52.21-1.26.49-.72,1.27-1.78,2.23-3.15,2.86-4.09,4.37-9.11,4.94-14.29.56-5.19.18-10.65-.84-15.9-1.66-7.82-4.65-15.53-8.64-22.55l.05-.04Z"/><path class="cls-5" d="M317.88,196.65c-5.17-2.4-9.85-5.5-14.3-8.83-1.62-1.22-3.26-2.42-4.82-3.71-5.46-4.59-10.54-9.59-15.34-14.83-2.11-2.34-4.23-4.7-6.24-7.09-2.6-3.06-4.96-6.37-6.78-9.97-.53-1.14-.44-1,.36-.27.83.71,2.37,1.98,3.95,3.64l2.05,2.24c.34.37.68.74,1.04,1.1l.97,1.15c1.31,1.53,2.65,3.04,4.01,4.53,2.74,2.97,5.47,5.96,8.3,8.89,3.38,3.52,7.31,6.75,11.22,9.83,4.3,3.37,8.79,6.53,13.59,9.09,2.95,1.55,6.02,2.94,9.21,3.69,1.21.27,2.43.5,3.64.54l.91.04.9-.06c.59,0,1.23-.14,1.85-.22,2.5-.38,4.97-.98,7.37-1.74,3.74-1.2,7.23-2.87,10.64-4.7.75-.42,1.47-.82,2.23-1.24,1.4-.77,2.32-1.26,3.05-1.48.74-.19,1.25-.17,1.74-.01.23.07.49.11.66.2.28.16.19.51-.19,1.03-.38.52-1.05,1.24-2.08,1.87-6,3.91-13.05,6.99-20.63,8.59-1.43.29-2.78.53-4.33.67l-1.19.07-1.16-.05c-.78,0-1.52-.16-2.28-.25-2.99-.48-5.75-1.5-8.39-2.66l.02-.07Z"/><path class="cls-5" d="M258.63,106.75c-1.35-.2-2.74-.32-4.03-.27-.33,0-.64.04-.93.08l-.4.06-.11.02c-.11.02-.21.12-.2.24-.01.06.02.12.05.17.07.03-.06-.01.06.07l.3.21c.45.28,1.02.54,1.63.76,1.22.42,2.6.74,3.88.9l.51.07c.17.04.35.08.49.12.31.08.58.17.85.26.54.18,1.05.38,1.56.58.51.21,1.01.42,1.53.66.26.12.51.25.8.42.31.19.58.38.82.59,1.08.92,1.87,1.88,2.61,3.06.51.86.92,1.8.94,2.67.03.44-.06.85-.24,1.24l-.16.28c-.06.09-.16.15-.23.23-.12.19-.32.28-.49.39-.77.4-1.85.41-2.89.18l-.37-.08-.26-.06-.48-.12-.93-.26c-.61-.18-1.23-.33-1.8-.45-.32-.07-.5-.12-.79-.13-.13,0-.27,0-.37.1-.08.1-.17.21-.18.34-.05.27.11.51.29.71.1.1.18.18.32.29l.1.07.18.11.37.23c.51.3,1.03.61,1.58.9,1.42.77,2.93,1.44,4.42,2.26.75.42,1.5.86,2.24,1.46.36.29.76.72,1.04,1.16.21.35.42.66.65.98,1.15,1.63,2.56,3.07,4.15,4.14.4.25.81.52,1.24.71l.63.32.66.25c.43.2.9.24,1.36.38.46.04.94.38,1.44.39,1.26.22,1.17.2.08.75-.27.16-.62.31-1.04.5-.43.31-.93.28-1.48.33-1.1.07-2.48-.12-3.7-.81-2.2-1.17-3.93-2.86-5.38-4.7-.36-.47-.7-.94-1.02-1.43l-.21-.32s-.02-.04-.08-.09c-.07-.08-.2-.2-.35-.32-.61-.49-1.51-.99-2.41-1.47l-2.81-1.52c-.96-.55-1.97-1.04-2.92-1.83l-.18-.14-.26-.22c-.17-.16-.36-.3-.52-.48-.35-.34-.65-.69-.91-1.06-.48-.73-.69-1.53-.55-2.33.09-.39.22-.79.47-1.12.21-.35.51-.63.84-.8.64-.35,1.55-.38,2.49-.24.44.07.93.17,1.21.23l.79.19c.52.13,1.04.22,1.54.32,1.3.22,1.25.26,1.67.22.3-.06.25-.42.15-.63-.05-.12-.11-.22-.18-.34-.17-.26-.38-.57-.6-.84-.44-.55-.94-1.08-1.44-1.49-.27-.21-.44-.33-.77-.5-.32-.16-.66-.33-1-.48-.63-.29-1.28-.56-1.92-.79-.32-.11-.64-.22-.92-.3l-.18-.04c-.05,0-.05-.01-.17-.03l-.59-.08c-1.53-.24-2.99-.6-4.48-1.17-.74-.31-1.48-.64-2.21-1.21-.14-.16-.44-.4-.57-.63l-.41-.72c-.15-.52-.26-1.07-.12-1.59.24-1.1,1.28-1.78,2.35-2,.86-.19,1.6-.22,2.38-.24,1.88,0,3.71.21,5.52.56,1.81.35,3.62.92,5.3,1.73,2.56,1.24,4.75,3.09,6.66,5.06,1.93,1.95,3.65,4.1,5.51,5.95,2.93,2.91,6.18,5.4,9.32,8.14.69.61,1.38,1.19,2.05,1.83,2.48,2.41,3.06,3.43,3.05,4.39,0,.22.03.47-.02.63-.17.54-1.31-.29-3.09-1.94-2.67-2.45-5.63-4.77-8.58-7.27-1.48-1.25-2.96-2.55-4.38-3.98-1.44-1.44-2.71-2.94-4.01-4.35-1.93-2.1-3.89-4.06-6.16-5.45-2.26-1.41-4.82-2.19-7.58-2.56v-.06Z"/><path class="cls-5" d="M238.93,101.73l-9.85-6.96c-1.2-.84-2.45-1.61-3.64-2.46-4.22-2.98-8.41-5.99-12.69-8.86-1.9-1.28-3.86-2.48-5.79-3.68-1.24-.77-2.53-1.46-3.74-2.28-1.2-.83-2.4-1.67-3.49-2.69-.61-.76-.52-.67.36-.65.87.04,2.46.15,4.03.82,5.38,2.7,10.32,6.1,15.16,9.7,2.9,2.16,6.09,4.12,9.13,6.21l9.97,6.93,6.15,4.24c3.12,2.12,6.24,4.26,9.41,6.24,2.47,1.53,4.99,2.87,7.51,4.25.56.3,1.1.59,1.66.9,2.05,1.17,2.59,1.72,2.62,2.68,0,.21.05.44.02.63-.1.62-1.21.6-2.79-.15-4.7-2.2-9.37-5.04-13.95-8.01-3.41-2.2-6.76-4.51-10.12-6.8l.04-.06Z"/><path class="cls-5" d="M321.5,161.47c-4.52-3.79-8.7-7.86-12.84-11.96-1.5-1.5-3.06-2.94-4.54-4.45-2.62-2.66-5.2-5.35-7.84-7.94-1.33-1.27-2.68-2.56-4.06-3.64-.16-.13-.37-.28-.48-.36-.07-.06-.16-.12-.25-.17-.09-.06-.18-.1-.28-.12-.1-.01-.18.08-.27.13l-.28.2-.54.42-1.09.86c-2.57,2.06-5.09,4.24-7.59,6.37-3.17,2.79-6.45,5.52-10.27,7.5-1.2.61-1.1.43-.43-.53.33-.48.77-1.2,1.34-2.01.28-.41.59-.85.93-1.3.17-.23.36-.44.52-.7.21-.2.42-.4.64-.61l2.37-2.17c.79-.73,1.63-1.39,2.44-2.09l4.94-4.15,2.51-2.06,1.28-1.02.65-.51.83-.61c.2-.15.42-.28.62-.41.21-.13.44-.18.65-.25.42-.17.92-.09,1.36.09l.67.25c.22.1.43.24.64.39l.47.34.34.28c.91.76,1.69,1.54,2.48,2.32,3.68,3.77,7.59,7.48,11.35,11.23,4.13,4.11,8.28,8.2,12.63,12.04,2.69,2.34,5.43,4.65,8.37,6.56,1.11.75,2.26,1.38,3.43,1.95.59.24,1.18.51,1.78.66l.45.13.47.07.94.14c2.54.27,5.19-.25,7.7-1,3.92-1.23,7.52-3.19,11.04-5.28.77-.48,1.52-.95,2.29-1.43.72-.44,1.33-.8,1.84-1.08.52-.28.97-.46,1.34-.6.75-.28,1.28-.29,1.78-.18.23.05.5.06.66.14.52.22-.33,1.46-2.35,3.01-3.06,2.17-6.39,4.2-10,5.91-3.62,1.67-7.52,3.12-11.88,3.42-.8.07-1.64,0-2.46,0l-1.26-.18c-.42-.06-.84-.12-1.26-.26-1.7-.47-3.12-1.2-4.46-1.98-2.69-1.57-5.07-3.41-7.38-5.29l.04-.06Z"/><path class="cls-5" d="M113.63,113.79c-3.34,1.62-6.68,3.22-10.08,4.77l-1.29.58-.72.31c-.19.09-.38.16-.59.19-.2.05-.39.1-.59.13-.39.04-.79-.15-1.18-.28l-.73-.3-1.29-.54-5.11-2.2-7.45-3.22-3.27-1.47-1.64-.78-.83-.42c-.43-.23-.9-.48-1.2-.84-.19-.16-.27-.39-.34-.62-.1-.22-.1-.48-.14-.72-.02-.12-.04-.25-.04-.37l-.02-.25-.03-.46-.09-1.81-.11-3.59c-.1-4.78-.13-9.54-.07-14.32l.05-2.39c.01-.4.03-.8.05-1.22.01-.29.06-.59.09-.88l.15-.4.04-.1s.03-.02,0-.06l.03-.04.13-.16c.19-.17.38-.3.57-.45l.28-.22.21-.15.83-.58,1.65-1.12c1.11-.73,2.21-1.47,3.31-2.2,2.26-1.48,4.57-2.9,6.93-4.25l1.78-.99,1.85-.88,1.88-.82c.65-.24,1.31-.43,1.97-.61,1.69-.38,1.46-.28.34.68-1.09,1.03-2.98,2.93-5.55,4.6-2.39,1.45-4.73,3.01-7.08,4.53l-3.54,2.28-2.95,1.96s-.02.02-.03.04l-.03.3-.03.47-.08,1.96-.1,3.98c-.04,2.67-.07,5.34-.11,8.02-.02,1.65,0,3.32.05,4.99.02.84.06,1.67.11,2.5l.09,1.23.03.28c.02.06,0,.15.07.18.02.04,1,.53,1.71.87l2.3,1.07c1.54.7,3.09,1.4,4.65,2.06,3.41,1.47,6.84,2.93,10.28,4.34l1.25.5c.09.03.17.07.26.1.09-.01.18-.05.26-.09l.56-.25.63-.29,1.25-.59,5.01-2.45,6.14-3.09,3.04-1.58,1.5-.8.53-.3c.12-.09.3-.13.31-.3.02-.12.03-.21.05-.35l.04-.51.06-1.28.07-2.59c.04-1.73.05-3.46.05-5.2,0-3.46-.04-6.93-.21-10.35-.04-.66-.08-1.32-.14-1.97l-.04-.36c-.01-.09-.03-.18-.05-.27-.03-.19-.24-.26-.37-.38l-.74-.51-.82-.55-1.66-1.08c-2.22-1.44-4.45-2.87-6.66-4.36-.97-.66-1.94-1.28-2.9-1.98-3.56-2.61-4.51-3.77-4.59-5.09-.02-.29-.1-.63-.05-.85.16-.73,1.8,0,4.36,1.8,3.84,2.65,7.91,5.26,12.02,8l1.55,1.05.78.54.4.28c.08.06.11.07.22.17l.34.3c.44.4.96.77,1.1,1.37.14.26.16.57.21.87.05.3.07.64.08.76.06.67.09,1.31.13,1.94.13,2.54.16,5.05.18,7.58.02,3.75,0,7.48-.17,11.3-.03.51-.04.9-.1,1.53-.04.41-.08.83-.2,1.28-.18.39-.3.83-.66,1.09-.32.29-.72.5-1.07.75l-.27.18-.16.08-.32.17-1.27.66-5.04,2.53-.04-.06Z"/><path class="cls-5" d="M445.91,133.14c.21-.93.43-1.86.57-2.81.18-.94.29-1.9.38-2.85.09-.7.05-1.4.09-2.1.12-2.47.15-4.97-.18-7.44-.09-1.11-.41-2.18-.62-3.26-.17-.69-.39-1.36-.49-2.06-.16-.69-.3-1.39-.44-2.1-.08-.44,0-.42.27-.11.26.3.79.86,1.24,1.59.75,1.33,1.19,2.78,1.48,4.25.29,1.47.5,2.97.54,4.48.09,1.8.22,3.67.15,5.51-.03,1.01-.15,2.02-.23,3.02-.16,1-.26,2-.46,2.99l-.37,1.83-.46,1.8c-.2.92-.54,1.8-.81,2.7-.31.89-.62,1.77-.93,2.65-.27.67-.51,1.35-.74,2.03-.24.68-.54,1.33-.83,2-.13.29-.24.59-.4.86-.61,1.03-.96,1.26-1.52,1.2-.13-.01-.27-.01-.38-.05-.38-.11-.43-.7-.17-1.5.8-2.36,1.86-4.66,2.69-7.1.33-.9.58-1.82.89-2.73.23-.93.52-1.85.7-2.8h.05Z"/><path class="cls-5" d="M367.8,211.38c.37-1.08.77-2.15,1.22-3.2.15-.39.26-.79.43-1.17.6-1.34,1.25-2.64,1.9-3.94.28-.58.53-1.17.77-1.76.37-.73.64-1.51,1.29-2.11.19-.19.33-.08.48.22.07.15.15.36.22.59.08.24.11.49.04.71l-.33,1.19c-.13.39-.29.76-.45,1.14-.32.75-.67,1.49-1.05,2.22-.47.88-.69,1.89-1.01,2.84l-1.04,3.16c-.21.65-.41,1.3-.59,1.96-.27,1-.54,2.01-.69,3.02-.05.4-.07.8-.07,1.19,0,.4.02.8-.04,1.19-.02.17-.02.34-.04.52-.11.64-.31.82-.87.89-.13.02-.26.04-.38.05-.42.01-.74-.3-.86-.81-.45-1.53-.2-3.06.13-4.58.24-1.13.57-2.24.9-3.34h.06Z"/><polygon class="cls-2" points="99.45 74.66 115.54 85.33 115.54 106.14 99.66 113.49 82.66 105.41 82.66 85.33 99.45 74.66"/><path class="cls-5" d="M372.57,103.48c-.13-.52-.1-.84-.09-1.17.02-.31.07-.61.13-.89.12-.56.28-1.1.48-1.62.14-.38.26-.79.49-1.18.31-.59,1.33-1.69,2.37-1.44.28,0,.39.04.57.06l.49.07c.33.05.66.09.99.16.59.09,1.2.23,1.78.46.37.15.73.31,1.05.55.31.24.56.56.76.9.12.21.06.23-.18.23-.23-.02-.75.12-1.12.07-.66-.13-1.23-.21-1.85-.2-.6-.1-1.28-.16-2.01-.27-.27-.03-.3-.06-.4-.07-.07,0-.14.02-.2.06-.07.05-.31.42-.46.73-.37.74-.66,1.67-.74,2.49,0,.12-.01.24,0,.32.02.13-.02.06.03.18.02.04.03.06.04.08,0,.02,0,.01,0,.01.02-.03-.06.1-.06.09-.09.17,0,.1-.06-.09.05.04.43-.26.65-.57.24-.32.45-.7.61-1.1.24-.62.28-1.3.27-1.91,0-.14-.03-.26-.03-.39-.04-.46.11-.55.64-.78l.35-.16c.37-.17.86.03,1.02.59.39,1.61-.05,3.11-.82,4.53-.33.53-.63,1.06-1.48,1.62-.21.13-.53.27-.92.33-.41.05-.92-.04-1.27-.27-.36-.22-.56-.47-.72-.69-.13-.2-.24-.4-.34-.72l.05-.02Z"/><path class="cls-5" d="M386.28,106.29c-.13-.52-.1-.84-.09-1.17.02-.31.07-.61.13-.89.12-.56.28-1.1.48-1.62.14-.38.26-.79.49-1.18.31-.59,1.33-1.69,2.37-1.44.29,0,.39.04.57.06l.49.07c.33.05.66.09.99.16.59.09,1.2.23,1.78.46.37.15.73.31,1.05.55.31.24.56.56.76.9.12.21.06.23-.18.23-.23-.02-.75.12-1.12.07-.66-.13-1.23-.21-1.85-.2-.6-.1-1.28-.16-2.01-.27-.27-.03-.3-.06-.4-.07-.07,0-.14.02-.2.06-.07.05-.31.42-.46.73-.37.74-.66,1.67-.74,2.49,0,.12-.01.24,0,.32.02.13-.02.06.03.18.02.04.03.06.04.08,0,.02,0,.01,0,.01.02-.03-.06.1-.06.09-.09.17,0,.1-.06-.09.05.04.43-.26.65-.57.24-.32.45-.7.61-1.1.24-.62.28-1.3.27-1.91,0-.14-.03-.26-.03-.39-.04-.46.11-.55.64-.78l.35-.16c.37-.17.86.03,1.02.59.39,1.61-.05,3.11-.82,4.53-.33.53-.63,1.06-1.48,1.62-.21.13-.53.27-.92.33-.41.05-.92-.04-1.27-.27-.36-.22-.56-.47-.72-.69-.13-.2-.24-.4-.34-.72l.05-.02Z"/><path class="cls-5" d="M390.32,96.62c.07-.04.42-.2.18-.1.15-.06.3-.12.45-.16.27-.09.54-.15.82-.2.03,0,.25-.04.1-.02-.18.03.12-.01.15-.01.14-.01.28-.02.42-.02.3,0,.6.02.9.04.19.01-.2-.04-.02,0,.07.01.14.02.21.04.14.03.28.06.42.09.29.08.58.17.86.28-.23-.09.11.06.18.1.13.06.25.13.37.21.14.08.27.17.4.26.02.01.2.15.09.06-.13-.1.12.11.12.1.5.42,1.29.52,1.77,0,.43-.47.53-1.31,0-1.77-2.41-2.06-5.86-2.49-8.69-1.05-.58.3-.8,1.17-.45,1.71.38.6,1.09.77,1.71.45h0Z"/><path class="cls-5" d="M381.99,128.33c2.9.77,6.1-1.04,6.94-3.91.18-.63-.22-1.39-.87-1.54s-1.34.2-1.54.87c-.04.13-.08.25-.13.38-.04.12.13-.29,0-.03-.03.05-.05.11-.08.16-.06.12-.13.23-.21.34-.03.04-.09.1-.1.15.12-.15.14-.18.08-.11-.02.03-.05.06-.07.08-.17.2-.37.39-.57.56-.17.14.18-.13.05-.04-.06.04-.12.09-.18.13-.11.07-.22.15-.34.21-.11.06-.22.11-.32.17-.22.11.25-.09.03-.01-.07.03-.14.05-.2.08-.11.04-.23.07-.35.1-.13.03-.3.04-.43.09.08-.03.3-.03.08-.01-.06,0-.12.01-.18.01-.13,0-.27,0-.4,0-.06,0-.12,0-.18-.01-.05,0-.1,0-.14-.01l.19.02c-.14-.04-.29-.06-.43-.09-.63-.17-1.39.21-1.54.87s.2,1.36.87,1.54h0Z"/></svg>