<?xml version="1.0" encoding="UTF-8"?><svg id="Layer_1" xmlns="http://www.w3.org/2000/svg" width="520" height="520" viewBox="0 0 520 520"><defs><style>.cls-1{opacity:.45;}.cls-2{opacity:.5;}.cls-3{fill:#231f20;stroke-width:0px;}</style></defs><path class="cls-3" d="M299.69,439.86c1.44-.35,2.7-.38,3.97-.37.46,0,.92-.04,1.37-.02,1.61.09,3.19.18,4.76.31.7.05,1.4.04,2.09.02.88-.05,1.77.02,2.65-.05.28,0,.26.05.06.21-.2.16-.6.48-1.11.67-.9.36-1.84.5-2.76.6-.92.1-1.84.18-2.76.09-1.1-.08-2.24.06-3.34.13-1.21.08-2.42.11-3.56.3-.72.11-1.31.3-1.74.64-.69.59-1.17,1.62-1.41,2.66-.19.82-.16,1.67-.15,2.51-.01.18.02.37,0,.55-.05.69-.19.91-.71,1.06-.12.03-.23.08-.35.1-.39.07-.71-.23-.87-.78-.1-.41-.2-.83-.24-1.27-.04-.43-.03-.87,0-1.32.06-.9.22-1.83.6-2.75.28-.68.65-1.37,1.24-2.01.53-.64,1.56-1.18,2.23-1.34l.02.05Z"/><path class="cls-3" d="M192.33,330.64c.52.38,1.07,1.08,1.31,1.64.26.59.43,1.18.51,1.75.08.42.15.81.17,1.21,0,1.41-.32,2.71-.54,3.99-.1.57-.18,1.13-.25,1.69-.1.72-.26,1.43-.44,2.14-.06.22-.12.19-.22-.01-.09-.2-.26-.57-.33-.99-.05-.38-.1-.75-.13-1.13,0-.37,0-.74,0-1.11,0-.73.04-1.46.1-2.17.08-.86-.1-1.74-.2-2.54-.12-.87-.4-1.74-.85-2.25-.28-.31-.77-.6-1.28-.82-.79-.33-1.64-.67-2.53-.83-.69-.14-1.41-.06-2.11-.15-.15-.02-.31-.01-.46-.04-.57-.11-.73-.29-.77-.86,0-.13-.03-.26-.02-.38,0-.42.3-.73.75-.83,1.36-.35,2.73-.18,4.15.18,1.06.25,2.1.67,3.18,1.46l-.03.05Z"/><path class="cls-3" d="M281.01,230.91s-1.77,4.13-5.42,12.79c-3.64,8.66-8.92,43.28-9.44,46.39s-8.35,25.94-9.7,27.14-21.63,1.25-22.47,1.31-35.91,2.41-35.91,2.41c0,0-4.04,22.12-4.66,25.19s-1.15,24.12-1.15,24.12l15.21.95s33.08,1.56,39.25,0c6.17-1.56,31.54-4.49,31.54-4.49,0,0,16.9-7.6,18.61-9.07,1.71-1.47,8.85-13.17,8.85-13.17l7.64-39.83,2.91-12.24s1.96-2.29,2.12.82c.2,3.95-2.2,30.01-3.88,36.41-1.5,5.72-4.15,23.33-9.19,28.77-9.1,9.82-18.64,11.37-19.55,13.73-1.8,4.64-1.76,21.98-1.76,21.98,0,0-.21,37.5,1.54,40.34,1.76,2.83,19.49,4.09,24.21,4.66,4.72.57,39.08-2.79,41.95-5.12,2.87-2.33-.67-24.05-.67-24.05,0,0-6.04-68.06-5.83-70.32s3.45-49.13,3.45-49.13l2.38-33.04s1.79-21.42-.99-24.66c-1.79-2.09-28.54,3.26-31.5,3.24s-27.23-1.24-27.23-1.24l-10.32-3.87Z"/><path class="cls-3" d="M428.37,165.11c-.3-.26-.61-.52-.91-.78-.12-.09-.23-.17-.35-.26-.4-.33-.79-.66-1.23-.87-.2-.09-.41-.15-.61-.19-.27-.04-.53-.03-.81.05-.09.02-.1-.02-.06-.11.04-.09.15-.25.33-.34.33-.14.7-.2,1.04-.14.34.07.65.2.93.37.33.21.68.35,1.01.54.36.21.7.45,1.03.7.2.16.41.31.61.46.31.23.6.48.92.69.24.17.53.26.79.4.06.03.12.06.17.09.19.14.2.25.07.52l-.1.18c-.12.19-.31.29-.5.24-.57-.1-.99-.45-1.42-.78-.31-.25-.62-.51-.93-.77v-.02Z"/><path class="cls-3" d="M392.17,180.39c0-.39-.04-.78-.13-1.08-.02-.12-.08-.2-.12-.32-.13-.41-.48-.82-.93-1.05-.2-.11-.42-.15-.64-.15-.28,0-.55.07-.85.16-.09.02-.16-.06-.15-.22,0-.15.07-.4.28-.54.72-.46,1.75-.48,2.43.02.4.29.88.53,1.21.97.38.48.47,1.04.57,1.52.05.31.08.61.11.91.04.45.02.9.06,1.35.04.35.16.69.18,1.06,0,.08.03.16.02.24-.03.3-.19.39-.66.34-.11-.01-.22-.02-.32-.03-.36-.06-.63-.23-.73-.4-.14-.27-.24-.53-.31-.79-.04-.26-.04-.53-.04-.8,0-.4,0-.81-.03-1.19h.04Z"/><path class="cls-3" d="M362.68,204.42c.27-.11.53-.2.8-.28.1-.03.18-.08.28-.11.35-.07.69-.13,1.04-.15.15,0,.3-.02.45-.03.19-.02.38-.03.57.02.06.02.05.09.01.18-.04.09-.12.21-.21.25-.34.14-.62.37-.97.37-.21.02-.39.15-.58.24-.21.1-.42.2-.62.32-.12.07-.25.15-.36.23-.17.13-.35.26-.48.44-.11.13-.15.31-.21.46-.01.03-.03.07-.05.1-.08.1-.18.08-.44-.06l-.18-.09c-.19-.11-.31-.27-.32-.42-.02-.23.04-.43.13-.61.08-.18.22-.33.38-.44.23-.18.49-.32.75-.45l.02.02Z"/><path class="cls-3" d="M363.25,208.55c.17.78.34,1.56.5,2.34.06.28.17.55.23.84.21,1,.32,2.04.5,3.05.08.45.19.89.31,1.33.09.57.28,1.14.13,1.77-.07.2-.16.19-.4.08-.28-.1-.63-.3-.79-.6l-.39-.8c-.11-.27-.17-.55-.25-.83-.14-.56-.26-1.14-.34-1.73-.1-.7-.37-1.39-.54-2.09-.19-.77-.37-1.55-.56-2.32-.12-.48-.23-.95-.36-1.42-.2-.71-.38-1.44-.64-2.12-.2-.53-.51-1.02-.79-1.5-.06-.11-.14-.21-.19-.31-.21-.4-.07-.53.29-.85l.25-.22c.28-.24.67-.19.98.12.73.88,1.1,1.89,1.44,2.93.25.77.44,1.55.65,2.33h-.04Z"/><path class="cls-3" d="M357.7,204.11c-.3-.42-.68-.77-1.18-1.02-.18-.09-.38-.13-.58-.2-.7-.25-1.51-.41-2.32-.43-.36-.02-.71-.04-1.07-.06-.46-.02-.92-.04-1.39-.11-.15-.02-.13-.07-.02-.15.12-.07.33-.2.6-.27.47-.1.95-.21,1.43-.28.48-.07.97-.06,1.45,0,.58.09,1.21.07,1.83.22.68.16,1.36.49,1.91.95.35.28.63.62.87.98.36.54.62,1.12.87,1.68.18.44.39.86.54,1.3.03.1.08.19.1.29.1.37.05.51-.16.65-.05.03-.09.07-.14.1-.16.09-.36-.01-.53-.24-.46-.7-.99-1.38-1.33-2.05-.27-.5-.57-.94-.92-1.31l.03-.03Z"/><path class="cls-3" d="M299.34,107.01s-12.81,4.19-20.29-7.53c-7.12-11.15,1.17-24.39,4.15-26.16,2.98-1.78,10.75-6.9,10.75-6.9,0,0,6.03-4.93,5.87-7.11s6.67-14.36,6.67-14.36c0,0,5.81-5.67,8.76-6.66s11.35-2.6,15.04-1.47c4.62,1.41,14.61,7.52,15.78,8.83,1.17,1.32,7.1-.74,9.66-1.35,2.57-.61,11.36-.67,13,.79,1.65,1.46,5.88,7.39,6.31,9.79.42,2.4.56,10.87,2.82,13.41s11.87,12.49,12.71,14.4c.84,1.91,2.33,4.42,1.47,8.66-3.11,15.34-22.71,22.95-23.42,20.4l.56-4.78-1-14.96s-7.69-6.56-7.97-10.16-4.13-10.87-4.96-10.72-8.13.92-8.36,1.45-3.62,2.51-4.47,1.95-4.17-5.13-4.17-5.13c0,0-6.4,1.92-8.37,4.59s-10.39,14.37-12.26,15.71c-1.87,1.34-8.52,3.34-9.17,3.19s-4.85-5.82-6.26-5.61-8.34,2.28-8.83,4.07-.92,3.77-.84,5.18c.08,1.41,1.19,5.4,1.91,6.21.72.81,4.9,4.28,4.9,4.28Z"/><path class="cls-3" d="M315.56,464.29c-12.58.16-25.16.25-37.74.28-4.59.01-9.18.13-13.76.1-16.18-.11-32.35-.39-48.53-1.03-7.18-.29-14.4-.56-21.54-1.09-2.29-.17-4.6-.38-6.91-.66-2.32-.3-4.61-.6-7.05-1.41-.3-.1-.61-.21-.95-.39-.33-.16-.66-.32-.92-.5-.55-.35-1.04-.71-1.53-1.09-.95-.77-1.87-1.55-2.66-2.47-.81-.89-1.57-1.84-2.25-2.84-.68-1.01-1.14-2.18-1.56-3.34-.49-1.48-.37-2.21-.18-2.2.24-.01.62.66,1.46,1.54.81.92,2.27,1.87,3.8,3.07.78.6,1.66,1.19,2.55,1.83.87.65,1.82,1.35,2.7,1.9.21.15.34.18.49.25.11.07.36.14.57.22.4.16.94.27,1.42.41,1.03.24,2.12.44,3.22.61,2.22.34,4.5.59,6.78.81,4.58.43,9.21.72,13.85.98,9.29.5,18.63.85,28.02,1.22,11.23.43,22.94.23,34.44.2,12.65-.03,25.31-.11,37.96-.29,7.79-.11,15.58-.23,23.36-.41,11.79-.28,23.64-.55,35.33-1.09,4.54-.21,9.04-.49,13.52-.82,2.23-.18,4.47-.36,6.7-.54l3.33-.31c1.11-.13,2.2-.2,3.1-.46,1.74-.43,3.34-1.17,4.89-2.11,1.43-.87,2.52-1.77,3.41-2.55.89-.78,1.57-1.46,2.16-2,.59-.55,1.07-.97,1.53-1.3.47-.32.92-.54,1.36-.72.42-.16.86-.45,1.18-.52.53-.12.61.58.17,1.99-.22.71-.63,1.55-1.24,2.47-.6.94-1.41,1.96-2.46,3-3.08,3.09-7.23,5.45-11.96,6.08-4.25.51-8.36.78-12.57,1.07-8.39.53-16.89.9-25.41,1.21-12.66.45-25.37.72-38.07.97l-.02-.1Z"/><path class="cls-3" d="M312.89,457.46c4.26.47,8.6.6,12.9.42,1.57-.07,3.12-.3,4.66-.47,1.36-.16,2.7-.38,3.98-.69,1.27-.29,2.53-.77,3.32-1.29.07-.06.15-.12.23-.17.07-.05.07-.12.13-.16.08-.11.1-.25.09-.39-.01-.14-.06-.26-.12-.39-.11-.22-.26-.44-.44-.66-.76-.87-1.94-1.56-3.15-2.13-2.18-1.01-4.61-1.63-7.02-2.09-1.55-.3-3.12-.48-4.69-.7l-2.35-.33c-.78-.13-1.57-.14-2.34-.5-.48-.36-.7-.5-.68-.53.02-.04.26-.04.69-.37.87-.65,2.52-1.15,4.42-1.06,1.69.07,3.35.36,5.01.65,1.66.3,3.32.7,4.96,1.21,1.64.52,3.28,1.15,4.88,2.1.8.48,1.58,1.06,2.31,1.83.18.21.36.39.53.63.18.25.3.41.49.8.21.36.26.7.38,1.05.05.35.06.72.1,1.07-.01.21-.09.42-.13.63l-.07.31c-.05.09-.12.18-.18.27-.26.35-.44.74-.71.99-.52.56-1.06.9-1.6,1.17-1.07.55-2.12.92-3.16,1.21-2.08.6-4.16.96-6.23,1.19-4.54.48-9.07.44-13.57.12-2.77-.21-5.54-.53-8.29-1.05-2.08-.39-4.16-.91-6.19-1.68-.51-.21-1-.39-1.52-.67l-.79-.46c-.25-.18-.47-.39-.7-.58-.88-.83-1.56-1.84-1.98-2.89-.7-1.63-1.03-3.3-1.22-4.95-.19-1.65-.24-3.3-.15-4.93.03-.72.06-1.43.14-2.15.36-2.66.77-3.45,1.79-3.8.22-.08.43-.21.61-.24.57-.12,1.08,1.07.91,2.91-.15,2.74-.25,5.55.07,8.18.17,1.31.44,2.57.89,3.61.46,1.05,1.07,1.78,1.81,2.18l.21.12c.08.04.21.09.32.14l.67.28c.48.16.93.34,1.43.48.97.31,1.99.55,3.02.77,2.07.44,4.2.74,6.35.94v.09Z"/><path class="cls-3" d="M170.55,344.83c-1.31,4.26-2.33,8.66-2.89,13.07-.19,1.61-.24,3.23-.27,4.81-.02,1.26.03,2.52.25,3.65.06.27.11.57.2.8l.12.37.15.3c.04.12.1.17.15.24.05.07.09.15.13.17.08.09.19.1.29.17.27.07.82-.04,1.37-.35.55-.31,1.11-.78,1.63-1.3,1.03-1.07,1.96-2.33,2.8-3.65,1.37-2.14,2.47-4.49,3.45-6.84.64-1.51,1.17-3.06,1.75-4.6l.9-2.29.43-1.15c.15-.38.34-.75.5-1.14.42-.95.48-.82.66.12.24.95.42,2.72.01,4.65-.1.42-.18.86-.3,1.27l-.4,1.24c-.28.82-.57,1.64-.88,2.45-.61,1.63-1.35,3.21-2.14,4.77-.8,1.56-1.69,3.09-2.73,4.56-1.06,1.46-2.21,2.91-3.94,4.08-.89.56-2.06,1.14-3.6.9-.33-.1-.66-.21-.97-.35-.28-.19-.58-.39-.82-.62-.2-.24-.41-.47-.57-.72l-.39-.72c-.4-.95-.62-1.86-.75-2.75-.27-1.79-.28-3.51-.19-5.21.29-4.73,1.18-9.32,2.33-13.84.72-2.78,1.57-5.52,2.6-8.22.8-2.04,1.67-4.06,2.95-5.96.34-.47.66-.95,1.14-1.37.23-.21.44-.45.7-.62l.77-.49c.51-.34,1.08-.5,1.61-.75.55-.15,1.11-.34,1.66-.45,1.73-.38,3.43-.49,5.11-.54,1.69-.05,3.36,0,5.02.13.73.05,1.45.09,2.18.17,2.7.34,3.47.66,3.93,1.61.11.21.26.41.32.6.22.6-1.02,1.17-3,1.02-2.92-.15-5.85-.4-8.72-.36-1.42.04-2.85.1-4.13.39-1.28.27-2.43.72-3.13,1.37-.12.13-.26.22-.39.37l-.41.54c-.27.4-.54.82-.79,1.28-.5.91-.98,1.88-1.4,2.9-.86,2.02-1.59,4.14-2.22,6.3l-.07-.02Z"/><path class="cls-3" d="M348.83,433.15c.44-.17.86-.36,1.26-.56.19-.1.39-.2.57-.31.16-.08.42-.28.36-.22.04-.06.04-.03.07-.2.07-.34.11-.8.14-1.23.06-.91.01-1.87-.04-2.84-.11-1.94-.29-3.91-.49-5.87-.41-3.94-.89-7.9-1.37-11.85-.97-7.92-1.94-15.85-2.76-23.8-.64-6.19-1.29-12.38-1.71-18.59-.74-10.95-1.09-21.94-.66-32.94.57-10.98,1.36-21.85,2.11-32.78.67-9.68,1.33-19.42,2-29.03.42-6.17.85-12.35,1.27-18.53l.64-9.25c.11-1.54.24-3.08.32-4.62.03-.77.15-1.54.2-2.3.08-.77.09-1.53.21-2.3.2-1.91.31-2.75.38-2.7.08.05.17.99.49,2.62.63,3.27,1.29,9.37.86,16.5-.62,12.65-1.64,25.22-2.57,37.84-.92,12.61-1.83,25.25-2.76,37.95-1.2,15.11-.32,30.93,1.01,46.4.73,8.51,1.68,17.01,2.71,25.51,1,8.51,2.21,16.98,2.97,25.58.11,1.34.19,2.68.21,4.05.01.69.02,1.38-.05,2.11-.01.18-.04.38-.07.56-.03.19-.1.48-.15.71-.14.49-.4.93-.78,1.26-.34.28-.52.42-.76.57-.23.16-.46.3-.7.43-.47.27-.94.51-1.42.73-.96.43-1.93.79-2.9,1.11-1.95.59-3.92,1.04-5.89,1.41-3.94.73-7.9,1.18-11.86,1.52-8.01.65-16.06.8-24.09.54-4.02-.14-8.02-.39-12.03-.91-2.01-.29-3.99-.56-6.05-1.28-.26-.09-.52-.21-.79-.34-.32-.16-.62-.36-.87-.6-.14-.11-.24-.26-.33-.41-.09-.15-.2-.29-.27-.46-.13-.34-.25-.6-.31-.86-.32-1.06-.46-2.05-.62-3.06-.44-3.12-.65-6.19-.84-9.26-.18-3.07-.3-6.12-.39-9.17-.18-6.1-.24-12.18-.16-18.29.04-2.69.06-5.32.16-8.04.42-10.06,1.01-13.25,2.08-15.31.25-.47.51-1.09.74-1.36.79-.88.86,3.22.61,10.52-.35,10.83-.43,21.99-.13,33.27.2,5.61.42,11.34,1.15,16.81.09.68.21,1.35.34,1.96.06.32.14.62.22.87.04.14.08.28.11.35.04.1.01.06.02.07h0c-.06-.03.07.04.17.08.1.05.22.09.35.14.52.18,1.15.34,1.79.48,2.6.54,5.44.81,8.25,1.02,8.39.6,16.93.61,25.4.18,4.24-.23,8.46-.58,12.63-1.16,4.14-.57,8.32-1.41,11.95-2.76l.05.07Z"/><path class="cls-3" d="M227.95,373.11c-9.75.16-19.49.04-29.25-.47l-3.67-.24c-.66-.05-1.05-.07-2.3-.21-.26-.05-.53-.09-.78-.15l-.62-.35c-.11-.04-.17-.14-.33-.15l-.21-.31c-.16-.19-.22-.45-.33-.67-.25-.43-.25-1.02-.34-1.54-.1-.63-.06-.82-.09-1.18-.02-.65-.02-1.28-.01-1.91.02-1.25.08-2.49.14-3.71.29-4.91.78-9.76,1.33-14.6.84-7.07,1.68-14.11,3.09-21.16.21-1.04.44-2.08.72-3.14.14-.54.28-1.06.49-1.63.08-.23.23-.69.48-1.07.2-.4.49-.74.79-1.06l.81-.43c.26-.11.67-.22.85-.28.42-.11.8-.17,1.2-.25.38-.05.75-.12,1.13-.18l1.11-.13c1.47-.17,2.92-.26,4.36-.33,2.88-.14,5.75-.21,8.61-.28,5.72-.14,11.43-.24,17.11-.47,5.68-.27,11.38-.55,16.89-1.46,1.37-.23,2.73-.52,4.01-.9.31-.1.64-.19.95-.31l.89-.36.78-.43.68-.55c.88-.81,1.66-1.89,2.3-3.07.33-.59.65-1.18.92-1.82.29-.62.57-1.25.81-1.91.99-2.51,1.8-5.13,2.49-7.78.71-2.65,1.33-5.34,1.9-8.04,1.15-5.4,2.12-10.83,3.09-16.24,1.24-6.95,2.42-13.93,3.94-20.88.38-1.74.78-3.47,1.22-5.2.45-1.72.95-3.44,1.48-5.14,1.1-3.39,2.25-6.83,4.22-9.89.64-.93,1.21-1.53,1.56-1.91.35-.38.51-.54.53-.49.02.05-.11.31-.33.78-.22.46-.53,1.14-.77,2.05-.03.11-.07.23-.1.35.02.15-.06.24-.09.37-.09.24-.16.5-.23.77-.15.54-.31,1.11-.48,1.73-.14.63-.29,1.3-.48,1.98-.18.69-.33,1.44-.51,2.2-.34,1.54-.7,3.21-1.05,5-.19.89-.37,1.81-.54,2.76-.21.94-.42,1.9-.64,2.88-3.11,13.95-4.98,28.25-8.16,42.47-.81,3.56-1.7,7.12-2.88,10.66-.29.89-.6,1.77-.95,2.65-.32.88-.72,1.76-1.12,2.63-.87,1.74-1.75,3.5-3.31,5.1-.34.41-.87.76-1.3,1.13-.45.38-.98.6-1.48.89-.48.2-.98.42-1.46.59-.48.15-.95.31-1.43.45-1.89.52-3.73.83-5.58,1.1-3.69.51-7.35.79-11.01.97-6.4.31-12.86.44-19.35.61-3.24.09-6.5.18-9.73.33-1.61.08-3.23.18-4.82.3-.79.06-1.58.13-2.33.24-.39.05-.72.14-1.07.2l-.29.08c-.06.01-.12.05-.18.08-.08.05-.12.15-.16.23-.02.04-.03.08-.07.18l-.13.36c-.16.52-.31,1.07-.45,1.63-.28,1.12-.52,2.28-.75,3.44-.45,2.32-.84,4.67-1.21,7.02-.75,4.8-1.39,9.63-1.95,14.47-.54,4.83-1.04,9.69-1.26,14.51-.06,1.2-.07,2.4-.05,3.57l.03.77c.01.12.02.24.04.36.02.12.04.26.13.33.12.03.24.04.36.06l1.41.12,1.81.12,3.64.2c4.86.23,9.74.35,14.61.4,12,.11,24.02-.21,35.95-1.25,9.03-.82,18.08-1.99,26.85-4.15,4.37-1.11,8.69-2.46,12.71-4.37,3.96-1.92,7.81-4.43,9.85-8.18,1.63-2.94,2.69-6.26,3.6-9.57.9-3.33,1.62-6.71,2.26-10.1,1.27-6.79,2.27-13.62,3.27-20.5.44-3.03.84-6,1.32-9.05,1.78-11.33,2.87-14.91,4.34-17.09.34-.5.71-1.16.98-1.43.92-.87.27,3.7-.97,11.94-1.85,12.23-3.24,24.94-5.79,37.76-.65,3.21-1.38,6.42-2.29,9.64-.92,3.21-1.98,6.43-3.66,9.6-.85,1.58-2.04,3.19-3.36,4.44-1.32,1.28-2.76,2.36-4.25,3.31-2.99,1.87-6.15,3.25-9.35,4.4-9.54,3.32-19.38,4.88-29.19,6.02-9.83,1.1-19.69,1.62-29.53,1.83l-.03-.08Z"/><path class="cls-3" d="M433.17,161.45c1.87,1.31,3.34,2.87,4.7,4.53.49.61,1.01,1.19,1.44,1.84.75,1.16,1.47,2.34,1.94,3.71.22.71.47,1.32.39,2.46-.05.49-.26.96-.63,1.29-.39.31-.88.39-1.38.39-.42-.01-.91-.11-1.24-.29-.33-.15-.62-.35-.88-.56-.53-.41-.94-.9-1.28-1.4-.45-.64-.84-1.3-1.19-1.97-.32-.69-.52-1.43-.83-2.1-.23-.39-.14-.39.15-.11.28.28.97.73,1.63,1.32.51.57.97,1.14,1.47,1.63.24.25.5.47.74.68.22.22.45.41.66.55.11.05.21.14.3.16.1.04.06.05.08.06.03.02.07.05.13.05.06,0,.11-.04.14-.1.02-.03.03-.07.04-.11-.03-.14-.03-.28-.08-.43-.39-1.5-1.51-3.07-2.57-4.48-1.19-1.57-2.53-3.07-4.04-4.3-.93-.75-1.94-1.42-2.99-1.76-.23-.08-.29-.1-.44-.09-.15,0-.37.03-.59.07-.44.07-.9.18-1.35.3-.91.23-1.82.51-2.72.81-1.4.47-2.71,1.1-4.09,1.62-.31.1-.6.22-.92.3-1.17.33-1.62.21-1.99-.13-.09-.08-.19-.15-.25-.23-.2-.27.18-.69.94-1.2.58-.34,1.16-.67,1.74-1.01.61-.28,1.23-.55,1.87-.8,1.27-.51,2.58-.99,3.93-1.41.5-.16,1.02-.31,1.55-.45.28-.07.53-.14.84-.19.3-.06.57-.12,1.09-.13.25.02.52.02.74.08l.51.15c.3.11.6.22.88.36.56.26,1.07.56,1.55.88l-.03.05Z"/><path class="cls-3" d="M395.24,179.35c-.23.67-.45,1.35-.59,2.05-.06.26-.03.52-.09.77-.16.9-.43,1.84-.48,2.78-.05.42.04.83.02,1.25.02.53.04,1.07-.03,1.63-.03.18-.16.18-.37.08-.2-.1-.54-.31-.71-.61-.67-1.04-.84-2.22-.72-3.39.06-.7-.06-1.42,0-2.13.06-.78.18-1.56.33-2.32.09-.47.2-.94.31-1.41.17-.71.43-1.39.58-2.09.13-.54.1-1.12.18-1.69.02-.12.01-.25.05-.37.14-.44.36-.51,1.05-.34.15.04.31.07.46.12.49.15.87.5.92.84.2,1.04-.06,1.91-.26,2.83-.16.68-.37,1.34-.57,2.02h-.06Z"/><path class="cls-3" d="M409.35,203.1c1.12-.88,2.09-2,2.2-2.86.09-.4-.09-.89-.11-.89-.03-.06-.09-.09-.15-.09-.03,0-.06,0-.1,0h-.02s-.11.03-.11.03l-.23.07c-1.34.45-2.99,1.17-4.62,1.65-1.65.51-3.36.85-5.06,1.05-2.48.28-5,.38-7.51.04-.55-.07-1.1-.17-1.66-.29-.1-.02-.35-.08-.57-.14-.22-.06-.44-.1-.65-.18-.43-.13-.78-.32-1.07-.62-.57-.64-.64-1.54-.5-2.43.03-.22.07-.45.12-.66l.11-.42.24-.81c.33-1.04.68-2.03.97-2.99l.18-.64c.03-.11.05-.19.07-.29.03-.18.07-.38-.01-.57-.09-.19-.32-.22-.5-.16-.19.05-.36.16-.53.27-.04.02-.29.22-.47.36l-.56.49c-.37.33-.74.69-1.11,1.05-1.46,1.45-2.86,3.02-4.31,4.56-1.29,1.37-2.58,2.76-4.06,4.04-.76.63-1.5,1.27-2.57,1.72-1.1.42-2.05.52-3.01.63-2.46.24-4.87.26-7.27.19-2.4-.13-4.79-.43-7.14-.95-1.46-.47-1.25-.41.03-.76.64-.18,1.55-.38,2.64-.64,1.09-.23,2.35-.39,3.7-.48,2.39-.02,4.8.02,7.09-.19.57-.04,1.13-.11,1.65-.2.25-.05.53-.09.73-.15l.32-.08c.07-.03.13-.06.2-.08.7-.35,1.65-1.05,2.48-1.79,1.72-1.51,3.38-3.28,5.09-5.02.86-.88,1.73-1.76,2.64-2.63.46-.43.93-.86,1.43-1.28.25-.21.51-.42.79-.62.11-.09.41-.29.61-.43.22-.16.45-.28.68-.4.27-.17.55-.24.82-.35.27-.06.54-.13.8-.13.53-.04,1.06.09,1.51.4.9.67,1.05,1.81.88,3.04-.04.31-.09.61-.16.9-.06.31-.1.42-.15.64l-.32,1.12-.64,2.14c-.1.35-.18.69-.25,1.01-.03.15-.05.25-.05.38,0,.12.03.26.15.3.12.03.23.06.35.09,1.32.27,2.79.43,4.21.48,3.15.1,6.33-.29,9.33-1.26.76-.25,1.5-.52,2.27-.81l1.18-.44c.43-.15.79-.29,1.39-.41.64-.14,1.3-.09,1.87.17.59.27.96.83,1.25,1.39.51,1.11.49,2.23.15,3.23-.43,1.21-1.18,2.12-1.97,2.89-.8.77-1.66,1.42-2.54,1.99-1.77,1.15-3.64,2.06-5.53,2.89-5.75,2.44-11.79,4.02-17.81,5.25-4.7.86-9.19,1.85-13.74,2.95-1,.25-1.97.5-2.97.75-3.72.91-4.9,1.1-5.89.63-.23-.1-.51-.18-.66-.3-.52-.37.86-1.38,3.61-2.2,4.06-1.23,8.27-2.22,12.57-3.1,2.14-.45,4.36-.81,6.46-1.22,2.12-.42,4.25-.9,6.35-1.47,3.12-.84,6.21-1.82,9.2-2.99,2.96-1.19,5.91-2.57,8.23-4.41l.05.05Z"/><path class="cls-3" d="M345.09,210.95c.13,1.1.34,2.2.59,3.31.1.4.26.78.36,1.18.33,1.43.6,2.91,1,4.34.18.63.38,1.27.58,1.89.31.78.47,1.62.58,2.48.03.27-.06.27-.29.12-.22-.15-.65-.42-.98-.81-.3-.34-.52-.71-.73-1.09-.22-.37-.43-.75-.63-1.13-.37-.77-.66-1.59-.9-2.43-.27-1.01-.82-1.96-1.13-2.99-.37-1.12-.67-2.28-.94-3.43-.16-.72-.3-1.44-.43-2.16-.19-1.1-.28-2.21-.45-3.3-.13-.85-.39-1.67-.56-2.52-.04-.19-.1-.37-.12-.56-.01-.7.18-.93.94-1.08.17-.03.33-.08.49-.1.51-.06,1.07.21,1.27.69.6,1.41.71,2.86.94,4.31.15,1.08.29,2.17.48,3.26l-.07.02Z"/><path class="cls-3" d="M353.23,133.35c-.78.88-8.02,6.14-17.37,4.98-8.11-1.01-14.66-7.02-20.86-7.05-6.61-.03-8.77,3.51-13.22,6.29-4.18,2.61.98-3.3.98-3.3l6.6-4.45s5.49-5.42,8.97-2.66c3.48,2.76,6.78,5.02,8.46,5.69,1.68.67,9.78,2.63,10.69,2.68.91.05,15.75-2.18,15.75-2.18Z"/><path class="cls-3" d="M262.01,214.59c1.51,3.12,3.77,5.87,6.49,8.14,2.73,2.29,5.93,4.03,9.26,5.49,1.66.76,3.4,1.34,5.14,1.94,1.77.51,3.52,1.08,5.34,1.46,3.59.89,7.27,1.45,10.97,1.91,5.4.63,10.86.8,16.32.82,9.62.01,19.27-.77,28.8-2.23,4.76-.74,9.51-1.64,14.12-2.91,1.15-.33,2.29-.67,3.4-1.06.53-.16,1.25-.47,1.35-.51l.19-.07c.07-.02.13-.05.14-.13.02-.13.01-.27,0-.4l-.02-.2-.05-.4-.13-.87c-.09-.58-.2-1.17-.31-1.76-.23-1.18-.47-2.36-.74-3.54-.69-3.12-1.47-6.23-2.31-9.32-.42-1.54-.85-3.08-1.32-4.6-.23-.76-.47-1.51-.73-2.25l-.2-.54-.11-.28c-.04-.09-.08-.17-.13-.25-.07-.07-.18-.04-.27-.05-.14,0-.77-.09-1.29-.08-.54,0-1.06-.02-1.6,0-1.08.04-2.15.07-3.23.15-2.72.17-5.45.45-8.2.7-2.74.23-5.5.44-8.27.57-2.76.14-5.55.19-8.33.06-1.39-.12-2.78-.19-4.16-.41-1.38-.16-2.75-.53-4.1-.84-3.31-1.1-2.83-.89.04-.57.73.03,1.61.04,2.61.04,1.01-.11,2.13-.07,3.36-.17,1.23-.1,2.56-.22,3.98-.35,1.42-.1,2.91-.2,4.47-.31,4.13-.27,8.25-.82,12.43-1.16,2.09-.18,4.18-.37,6.31-.49,1.06-.08,2.15-.09,3.22-.13l1.66.02c.27,0,.55.01.85.04l1.39.13.55.21c.08.06.21.02.24.15.09.05.19.08.26.15.3.26.5.63.68,1.02.41.95.48,1.23.64,1.69.29.87.56,1.73.81,2.59.51,1.71.98,3.43,1.43,5.15.9,3.44,1.75,6.88,2.48,10.39.18.88.36,1.76.52,2.65l.23,1.36c.07.5.13.78.2,1.76.04.82,0,1.64-.57,2.15l-.44.33-.22.16-.29.12-1.03.42c-.87.35-1.74.61-2.6.92-3.48,1.09-6.98,1.9-10.51,2.58-6.72,1.29-13.62,2.23-20.6,2.81-6.97.59-14.02.87-21.01.58-3.84-.11-7.68-.47-11.5-.92-3.82-.5-7.63-1.18-11.39-2.11-3.75-.98-7.45-2.19-11.01-3.8-3.53-1.67-6.92-3.73-9.86-6.39-3.63-3.26-6.41-7.5-7.81-12.25-1.22-4.79-1-9.75-.09-14.44,1.46-7.12,4.33-13.81,7.74-20.09,1.69-3.16,3.61-6.18,5.55-9.17,2.01-2.95,4.06-5.85,6.26-8.63,6.79-8.67,14.23-16.6,22.69-23.53,1.87-1.51,3.72-2.98,5.72-4.37,3.71-2.57,6.31-4.05,8.23-4.91.97-.41,1.74-.72,2.41-.91.68-.18,1.23-.27,1.75-.31.47-.03,1.06-.13,1.35-.09,1,.17-2.14,1.98-7.53,5.45-7.98,5.2-15.4,11.71-22.26,18.9-6.84,7.21-13.14,15.17-18.39,23.75-3.86,6.38-7.24,13.11-9.29,20.18-1.03,3.52-1.72,7.13-1.78,10.69-.05,3.57.54,7.03,2.13,10.12l-.06.05Z"/><g class="cls-2"><path class="cls-3" d="M354.77,490.17c-.99-.72-1.8-1.65-2.6-2.53-.74-.95-1.41-1.94-1.87-3.04-.36-.78-.7-1.56-.9-2.38-.6-2.9-.26-5.9.93-8.49.51-1.16,1.17-2.25,1.95-3.22.53-.61,1.12-1.15,1.76-1.62.71-.38,1.47-.66,2.29-.71.51-.03.48.08.32.59-.15.53-.36,1.48-.67,2.22-.07.17-.21.23-.3.37l-.28.37c-.2.24-.37.48-.52.74-.35.48-.71.93-1,1.44-.6,1-1.05,2.12-1.36,3.36-.4,1.5.02,3.15.52,4.6.58,1.58,1.5,3.06,2.89,4.13.84.65,1.78,1.21,2.83,1.51.38.14.79.23,1.19.32.39.13.81.19,1.22.27.82.14,1.67.17,2.51.08,1.31-.15,2.51-.76,3.7-1.25.26-.11.5-.27.77-.35.25-.07.47-.13.66-.14.2,0,.39.07.55.15.34.17.62.46.95.92.15.21.31.4.44.6.41.66.26,1.52-.43,2.37-.53.56-1.18.93-1.83,1.32-.32.2-.68.36-1.03.51-.35.16-.72.3-1.1.4-1.53.34-3.15.52-4.81.33-1.22-.12-2.47-.33-3.61-.88-1.14-.55-2.22-1.18-3.23-1.91l.05-.09Z"/></g><g class="cls-2"><path class="cls-3" d="M209.73,490.22c-2.02-1.43-3.9-3.35-4.82-5.76-.15-.43-.34-.84-.45-1.26-.14-.42-.25-.85-.3-1.28-.4-3.04.2-6.1,1.71-8.63.67-1.11,1.4-2.2,2.32-3.1.29-.29.61-.56.94-.8.33-.24.64-.51,1.01-.69.75-.34,1.55-.55,2.39-.55.52,0,.48.11.28.61-.19.53-.51,1.45-.91,2.19-.48.48-.91.94-1.3,1.43-.17.27-.43.44-.61.68l-.58.71c-.73.98-1.3,2.09-1.74,3.33-.51,1.5-.28,3.24.16,4.75.11.43.26.82.42,1.22.21.35.34.74.61,1.07.45.7,1.09,1.31,1.8,1.83.9.62,1.93,1.11,3.02,1.42.84.2,1.68.4,2.55.54.87.13,1.75.16,2.62.06.34-.05.67-.1,1-.18.33-.1.65-.21.96-.33.63-.24,1.24-.49,1.85-.75.27-.12.51-.29.78-.38.26-.07.48-.12.67-.14.2,0,.39.06.56.13.34.16.64.44.98.89.16.2.33.39.46.59.44.65.3,1.52-.41,2.41-1.14,1.08-2.57,1.85-4.12,2.3-1.56.42-3.23.47-4.89.37-1.23-.14-2.49-.26-3.65-.81-.59-.23-1.16-.5-1.72-.82-.56-.29-1.11-.61-1.64-.95l.05-.09Z"/></g><path class="cls-3" d="M335.86,492.37c-.49.06-.89-.24-1.25-.74-.11-.12-.09-.31.05-.46l.21-.22c.07-.04.14-.07.21-.11.15-.08.29-.15.42-.21.09-.02.81-.29,1.63-.35.82-.11,1.72-.24,2.19-.3.9-.14,1.79-.19,2.68-.21,1.81-.03,3.62.02,5.43.03.4,0,.8.04,1.2.11,1.37.24,2.74.27,4.12.23.23,0,.46.01.68-.09.37-.17,4.07-.17,4.55-.11,1.19.19,2.37.28,3.54.38.17.02.34-.04.5.08.37.28.72.19,1.08.18.48-.04.97,0,1.42.01.2,0,.46.1.59.14.14.05.42.28.36.39-.12.26.12.29.28.37.04.03.1.07.11.12,0,0-.07.11-.16.2-.08.08-.24.22-.39.31-.31.22-.72.44-1.12.65-.81.38-1.67.62-1.83.64-.02,0-.32.04-.76.1-.44.05-1.02.11-1.61.16-1.17.09-2.39.19-2.65.21-.26.03-.52-.04-.78-.08-.13,0-3.62.19-3.76.19-.72-.04-1.45.06-2.16-.22-.14-.05-.29-.04-.43-.04-1.24.02-2.47-.11-3.71-.21-.63-.05-1.26-.03-1.89-.05-.11,0-.23-.05-.34-.07-.14-.03-.29-.07-.43-.07-1.49.02-2.98-.27-4.47-.23-.34,0-1.97-.37-2.37-.35-.11,0-.35-.1-.58-.2-.23-.12-.46-.23-.56-.21Z"/><path class="cls-3" d="M191.18,492.37c-.49.06-.89-.24-1.25-.74-.11-.12-.09-.31.05-.46l.21-.22c.07-.04.14-.07.21-.11.15-.08.29-.15.42-.21.09-.02.81-.29,1.63-.35.82-.11,1.72-.24,2.19-.3.9-.14,1.79-.19,2.68-.21,1.81-.03,3.62.02,5.43.03.4,0,.8.04,1.2.11,1.37.24,2.74.27,4.12.23.23,0,.46.01.68-.09.37-.17,4.07-.17,4.55-.11,1.19.19,2.37.28,3.54.38.17.02.34-.04.5.08.37.28.72.19,1.08.18.48-.04.97,0,1.42.01.2,0,.46.1.59.14.14.05.42.28.36.39-.12.26.12.29.28.37.04.03.1.07.11.12,0,0-.07.11-.16.2-.08.08-.24.22-.39.31-.31.22-.72.44-1.12.65-.81.38-1.67.62-1.83.64-.02,0-.32.04-.76.1-.44.05-1.02.11-1.61.16-1.17.09-2.39.19-2.65.21-.26.03-.52-.04-.78-.08-.13,0-3.62.19-3.76.19-.72-.04-1.45.06-2.16-.22-.14-.05-.29-.04-.43-.04-1.24.02-2.47-.11-3.71-.21-.63-.05-1.26-.03-1.89-.05-.11,0-.23-.05-.34-.07-.14-.03-.29-.07-.43-.07-1.49.02-2.98-.27-4.47-.23-.34,0-1.97-.37-2.37-.35-.11,0-.35-.1-.58-.2-.23-.12-.46-.23-.56-.21Z"/><path class="cls-3" d="M223.89,473.52c-2.19-2.83-5.93-4.35-9.56-4.11-.65.11-1.33.14-1.94.4l-.94.3c-.29.15-.59.29-.89.42-2.1.98-3.84,2.71-4.85,4.91-.48,1.1-.88,2.27-1.05,3.52-.27,1.23-.26,2.38-.01,3.59.4,2.13,1.65,4.1,3.19,5.66,1,1.01,2.18,1.83,3.45,2.47.33.13.64.32.96.48.32.16.66.28,1,.42.33.16.69.22,1.04.35.35.13.7.26,1.07.36.92.3.82.25,0,.5-.82.35-2.52.77-4.49.34-1.69-.5-3.25-1.38-4.64-2.48-.34-.29-.68-.57-1.01-.88-.31-.32-.63-.64-.92-.98l-.79-1.1c-.24-.38-.46-.78-.69-1.17-.84-1.6-1.38-3.41-1.48-5.28-.05-.93.02-1.9.23-2.73.18-.86.31-1.72.67-2.54.19-.49.37-.99.56-1.49l.76-1.43c.22-.49.55-.92.88-1.36.34-.42.6-.92,1.02-1.28,1.45-1.66,3.41-2.83,5.44-3.54,4.55-1.58,9.65-.46,13.34,2.33.54.47,1.1.91,1.6,1.42.46.54.93,1.08,1.38,1.62.82,1.13,1.52,2.37,2.04,3.69.78,2,1.11,4.23.79,6.38-.3,2.16-1.15,4.16-2.37,5.93-.97,1.36-2.19,2.56-3.63,3.46-1.43.9-3.05,1.5-4.71,1.78-.73.13-1.46.21-2.21.21-1.39-.03-2.29-.26-2.87-.56-.58-.29-.84-.71-.97-1.23-.06-.24-.15-.49-.15-.72.02-.79,1.11-1,2.72-1.01,2.4-.04,4.73-.55,6.58-1.72.92-.58,1.72-1.33,2.38-2.21.64-.89,1.17-1.95,1.5-3.03.49-1.61.51-3.3.07-4.97-.44-1.64-1.32-3.35-2.53-4.67l.06-.06Z"/><path class="cls-3" d="M368.96,473.61c-.52-.73-1.22-1.28-1.87-1.89l-1.12-.74c-.36-.27-.8-.4-1.2-.61-1.64-.72-3.47-1.08-5.29-.99-1.31.16-2.61.47-3.78,1.06-2.11.94-3.87,2.63-4.92,4.79-.34.5-.44,1.12-.67,1.68-.25.56-.32,1.18-.44,1.79l-.17.92c-.03.29-.03.57-.05.86-.04.29.04.58.05.87.01.29.07.58.15.87.44,2.1,1.86,3.96,3.37,5.57,1.02,1.01,2.18,1.88,3.42,2.6.61.38,1.23.76,1.88,1.06.33.15.65.32,1,.42.34.12.67.33,1.03.41.89.31.81.26-.02.5-.42.13-1.06.33-1.84.37-.38,0-.81,0-1.27-.03-.44-.07-.91-.14-1.39-.28-1.63-.6-3.08-1.54-4.43-2.62-.35-.26-.66-.56-.98-.86-.32-.29-.64-.6-.91-.94-.57-.66-1.07-1.4-1.53-2.17-.9-1.54-1.57-3.33-1.67-5.27,0-.49.01-.97.03-1.46.07-.45.16-.86.24-1.3l.27-1.28c.12-.42.3-.83.45-1.25.68-1.98,1.84-3.88,3.32-5.46,1.46-1.63,3.43-2.78,5.48-3.43,2.26-.7,4.68-.86,6.97-.37,2.29.47,4.44,1.47,6.27,2.89,2.25,1.78,3.92,4.12,4.94,6.75.76,2,1.05,4.22.73,6.36-.32,2.15-1.18,4.13-2.4,5.89-1.92,2.74-5,4.65-8.33,5.18-.73.13-1.45.21-2.2.21-1.38-.03-2.28-.26-2.85-.56-.58-.29-.84-.71-.97-1.23-.06-.24-.15-.49-.15-.72.02-.79,1.11-1,2.71-1.01,2.39-.03,4.71-.54,6.56-1.7.92-.58,1.73-1.31,2.38-2.19.64-.88,1.17-1.93,1.51-3.01.49-1.6.53-3.28.11-4.95-.42-1.64-1.28-3.34-2.47-4.67l.06-.06Z"/><path class="cls-3" d="M70.38,427.64c-.53,0-1.01-.07-1.45-.16-.44-.11-.85-.28-1.24-.39-.25-.07-.2-.15.1-.22.59-.16,1.18-.26,1.79-.33.18-.03,1.72-.12,3.46-.29,1.74-.1,3.67-.22,4.66-.28,1.9-.13,3.8-.21,5.71-.26,3.87-.17,7.73-.21,11.6-.29.86-.02,1.72,0,2.58.04,2.95.14,5.89.1,8.84-.03.49-.02.99-.01,1.47-.13.78-.19,8.78-.4,9.82-.33,2.6.14,5.16.27,7.74.4.37.02.76-.03,1.1.1.78.31,1.58.25,2.37.26,1.11.02,2.22.06,3.32.16.55.05,1.09.22,1.63.36.49.13.22.6.05.65-.5.15-.09.37-.05.56.02.07.04.15.01.2-.01.03-.42.1-1.03.2-.62.09-1.44.2-2.27.32-1.68.23-3.43.45-3.78.45-.17,0-9.43.37-10.48.41-.55.03-1.1-.03-1.66-.08-.26,0-7.68.25-7.97.26-1.54-.02-3.08.09-4.61-.16-.3-.05-.61-.03-.92-.03-2.64.05-5.29-.05-7.93-.11-1.35-.03-2.7,0-4.06-.02-.24,0-.49-.04-.73-.06-.31-.02-.61-.06-.92-.06-3.2-.07-6.4-.28-9.6-.32-.74-.02-4.25-.35-5.1-.43-.48-.04-2.02-.43-2.44-.42Z"/><path class="cls-3" d="M45.66,439.98c-.51.03-.97-.02-1.4-.09-.43-.09-.84-.21-1.21-.28-.24-.05-.21-.17.08-.24.56-.12,1.12-.31,1.7-.42.18-.02,1.65-.31,3.32-.5,1.67-.2,3.53-.42,4.48-.53.92-.11,1.83-.24,2.75-.29l2.75-.1,11.19-.3c.83-.02,1.66,0,2.48.03,2.84.15,5.68.1,8.52.03.47-.01.96,0,1.41-.11.75-.18,8.45-.27,9.44-.21,2.47.17,4.95.26,7.43.37.35.02.73-.03,1.05.09.75.28,1.51.21,2.28.21,1.06,0,2.12.02,3.18.09.53.03,1.05.19,1.57.3.47.11.24.55.07.6-.47.15-.08.35-.02.53.02.06.04.14.02.19-.01.03-.4.11-.99.22-.59.11-1.38.26-2.18.39-1.61.25-3.31.48-3.65.48-.16,0-9.09.38-10.11.43-.53.03-1.06-.03-1.6-.07-.25,0-7.39.26-7.67.27-1.48-.03-2.96.1-4.43-.17-.29-.05-.59-.04-.89-.03-2.54.03-5.08-.08-7.62-.14-1.3-.04-2.6,0-3.89,0-.23,0-.47-.04-.7-.05-.29-.02-.59-.05-.88-.05-1.54.02-3.07,0-4.61-.02h-2.3c-.77,0-1.53-.02-2.3-.03-.71-.01-4.09-.32-4.9-.29-.46.02-1.96-.35-2.36-.3Z"/><path class="cls-3" d="M64.79,450.89c-.82.09-1.5-.38-2.11-.52-.19-.06-.16-.17.07-.24.45-.12.91-.29,1.38-.47.14,0,1.34-.28,2.69-.41,1.35-.13,2.85-.28,3.62-.35,1.48-.16,2.96-.25,4.44-.32,3.01-.13,6.03-.18,9.04-.27.67-.02,1.34,0,2.01.04,2.29.14,4.59.11,6.89.01.38-.02.77,0,1.14-.11.61-.18,6.83-.31,7.64-.25,2.03.14,4.01.27,6.02.41.29.02.59-.02.85.1.61.29,1.23.23,1.85.25.86.02,1.72.06,2.58.15.43.04.85.21,1.27.34.38.12.18.56.05.61-.39.14-.07.35-.03.53.01.06.03.14.01.19-.04.11-4.97.92-5.51.92-.13,0-7.33.3-8.16.34-.43.03-.86-.04-1.29-.08-.21,0-5.97.21-6.2.21-1.2-.03-2.39.07-3.59-.17-.23-.05-.48-.03-.72-.03-2.05.04-4.11-.05-6.16-.1-1.05-.03-2.1,0-3.15,0-.19,0-.38-.03-.57-.05-.24-.02-.48-.05-.72-.05-2.48.05-4.97-.15-7.46-.09-.57,0-3.31-.27-3.97-.24-.37.03-1.58-.39-1.91-.35Z"/><path class="cls-3" d="M359.97,45.43c-2.86.15-5.72,1.19-9.01,2.04-.84.2-1.71.39-2.69.46l-.74.04c-.26,0-.53-.03-.79-.05-.55-.04-1.01-.13-1.49-.26-1.92-.5-3.58-1.6-4.88-2.72-.66-.55-1.28-1.15-1.85-1.67-.53-.49-1.1-.95-1.68-1.38-1.18-.85-2.47-1.56-3.83-2.12-2.72-1.13-5.72-1.67-8.71-1.66-1.09,0-2.19.08-3.27.24-1.08.22-2.16.42-3.23.66-1.02.37-2.08.66-3.07,1.08l-1.45.72-.73.35-.67.45c-3.2,2.02-5.76,4.97-7.61,8.44-.9,1.76-1.72,3.57-2.42,5.48-.74,1.9-1.35,3.85-2.22,5.86-.26.51-.49,1.02-.79,1.53-.36.49-.74,1.11-1.12,1.43l-1.13,1.15c-.39.37-.79.72-1.19,1.07-1.61,1.4-3.3,2.66-4.99,3.86-1.68,1.2-3.33,2.38-4.88,3.66-1.53,1.28-2.91,2.69-4.12,4.24-2.08,2.79-3.44,6.1-4.18,9.57-.78,3.41-.72,6.96.42,10.2.69,2.09,1.84,3.99,3.2,5.7,1.4,1.7,3.14,3.06,5,4.19,3.84,2.11,8.28,3.03,12.79,2.78,2.84.09,2.59.32.21,1.38-.3.14-.63.29-1.01.42-.37.1-.78.19-1.23.29-.89.19-1.91.41-3.04.4-2.28.21-5.02-.3-7.72-1.52l-1.76-.9c-.56-.35-1.1-.73-1.65-1.09-.56-.35-1.06-.79-1.55-1.22-.48-.45-1.03-.84-1.44-1.35-1.87-1.87-3.25-4.18-4.3-6.59-1.07-2.42-1.5-5.08-1.59-7.7,0-.66,0-1.32.03-1.97l.25-1.96c.06-.67.24-1.26.38-1.88.15-.61.28-1.23.45-1.84.74-2.44,1.73-4.83,3.1-7.04,1.4-2.19,3.16-4.13,5.06-5.79,3.82-3.33,8.03-5.62,11.38-8.72.51-.45.97-.95,1.46-1.43l.18-.18.11-.16.23-.32c.17-.18.31-.49.45-.77.59-1.11,1.06-2.51,1.56-3.85.96-2.75,1.96-5.62,3.36-8.36,1.4-2.74,3.25-5.35,5.59-7.49,1.13-1.12,2.5-1.95,3.81-2.82,1.42-.69,2.81-1.47,4.32-1.87,6.45-2.15,13.73-2.07,19.98.89,1.55.74,3.03,1.66,4.37,2.75,1.38,1.14,2.4,2.27,3.6,3.14,1.16.87,2.46,1.48,3.79,1.59,1.26.12,2.78-.26,4.3-.69,1.87-.53,3.82-1.17,5.87-1.54,2.04-.38,4.21-.51,6.34-.15,2.14.34,4.16,1.21,5.92,2.4,1.78,1.17,3.34,2.73,4.46,4.56.84,1.39,1.44,2.89,1.9,4.41.42,1.53.68,3.07.86,4.6.18,1.53.26,3.05.43,4.5.08.73.2,1.41.38,2.03l.39.94.19.47.27.45c1.39,2.42,3.6,4.43,5.79,6.48,2.19,2.05,4.43,4.21,6.18,6.81.72.98,1.25,2.09,1.8,3.17.41,1.15.93,2.27,1.13,3.48.63,2.37.59,4.82.47,7.21-.41,4.7-1.83,9.53-4.86,13.45-.64.88-1.39,1.65-2.13,2.43-.8.71-1.59,1.46-2.49,2.07-3.3,2.35-5.86,3.13-7.61,3.58-.89.19-1.61.3-2.21.32-.61-.01-1.11-.08-1.56-.19-.41-.1-.93-.16-1.17-.28-.42-.2.1-.61,1.32-1.24,1.22-.62,3.16-1.43,5.48-2.63,3.45-1.76,6.52-4.2,8.53-7.43,1.02-1.6,1.8-3.35,2.36-5.21.53-1.86.89-3.85,1.01-5.81.01-.97.16-1.95.01-2.9l-.11-1.43c-.09-.46-.2-.92-.3-1.38l-.15-.69c-.05-.23-.16-.44-.23-.67l-.48-1.33c-.46-.83-.81-1.71-1.39-2.5-.49-.82-1.15-1.58-1.75-2.36-.69-.75-1.35-1.5-2.11-2.23-1.47-1.48-3.1-2.89-4.71-4.53-.6-.6-1.19-1.26-1.76-1.92-.55-.73-1.14-1.39-1.6-2.24-.23-.42-.51-.79-.7-1.24l-.56-1.36c-.21-.43-.29-.98-.42-1.47-.07-.45-.16-.93-.2-1.35-.2-1.73-.28-3.3-.46-4.83-.18-1.52-.45-2.98-.88-4.35-.4-1.38-1.02-2.64-1.82-3.73-.37-.58-.87-1.04-1.32-1.55-.25-.23-.52-.44-.78-.66-.26-.23-.52-.44-.83-.61l-.88-.56c-.3-.18-.62-.3-.93-.46-.61-.34-1.28-.48-1.92-.72-1.32-.33-2.69-.46-4.11-.37l-.02-.08Z"/><path class="cls-3" d="M354.5,133.38c-2.71,1.71-5.79,2.84-8.92,3.36-3.14.55-6.31.44-9.37-.01-2.24-.36-4.46-.85-6.58-1.66-7.48-2.9-13.59-8.49-17.68-15.09-.92-1.46-1.77-2.97-2.52-4.53-.77-1.55-1.43-3.14-1.99-4.77-.18-.52-.36-1.04-.51-1.58-.16-.53-.31-1.06-.44-1.6-.14-.54-.23-1.08-.31-1.63-.1-.55-.16-1.1-.21-1.65-.23-2.2-.12-4.49.62-6.6.48-1.3.4-1.1.46.05,0,.29.06.64.14,1.03.02.1.03.2.07.31,0,.1.03.21.04.32.05.22.1.45.16.68.09.47.26.98.38,1.51.08.53.23,1.09.31,1.67.09.51.22,1.02.32,1.53l.41,1.51c.18.49.28,1,.43,1.51.16.5.3,1,.47,1.5.67,1.98,1.5,3.91,2.48,5.78,1.94,3.74,4.48,7.15,7.41,10.22,3.53,3.67,8.26,6.4,13.23,7.78,5.46,1.51,11.46,1.65,16.69-.53.8-.35,1.6-.69,2.34-1.15.78-.39,1.48-.92,2.21-1.41,1.39-1.06,2.73-2.22,3.87-3.56,3.54-4.02,6.01-9.05,7.45-14.24,1.1-4.05,1.59-8.19,1.59-12.29,0-.9-.07-1.78-.12-2.68-.23-3.33-.37-4.28-.02-5.19.08-.21.13-.47.22-.63.15-.26.45-.11.9.46.43.57.91,1.56,1.25,2.88.94,3.92.89,8.02.44,12.09-.2,2.05-.67,4.07-1.22,6.08-.54,2.01-1.27,3.98-2.09,5.92-2.48,5.7-6.35,11.14-11.85,14.66l-.05-.06Z"/><path class="cls-3" d="M301.36,177.57c.32-.39.65-.79.91-1.15l.27-.4s-.08-.02.17.03c.08.02.19.03.24.05.05.02.09.03.14.04.2.05.47,0,.48,0,.13-.07,0,0,.02.05-.07.13-.12.37-.07.54l.05-.62c.02.25.07.49.16.72.04.11.1.23.15.32l.04-.02s.06-.05.04-.04l-.06.05c-.09.08-.18.13-.27.21-.21.2-.42.38-.62.6-.42.43-.82.9-1.21,1.38-.51.64-.96,1.34-1.43,2.02-1.7,2.38-3.1,5-4.21,7.73-.26.6-.47,1.23-.64,1.86-.19.63-.36,1.26-.47,1.9-.41,1.63-.46,3.27-1.14,4.94-.08.53-.09.46-.16,0-.03-.23-.17-.55-.37-.95-.09-.2-.24-.43-.32-.66-.06-.24-.07-.48-.07-.74-.08-1.82.24-3.63.75-5.37.21-.88.57-1.72.86-2.57.36-.83.73-1.65,1.18-2.44,1.04-1.89,2.03-3.9,3.29-5.71.54-.76,1.11-1.51,1.72-2.24.32-.36.62-.72.98-1.06.18-.17.34-.35.57-.52l.33-.26c.21-.12.44-.23.67-.3l.08-.02h.09c.19.03.34.04.56.13.29.15.52.38.6.67.15.56,0,.76-.05.96-.14.38-.28.63-.43.89-.81,1.33-1.7,2.44-2.58,3.61-1.31,1.75-2.61,3.51-3.65,5.39-.41.73-.75,1.48-1.06,2.23-.34.74-.64,1.49-.93,2.24-.11.33-.23.66-.34,1-.44,1.24-.64,1.62-1.12,1.83-.11.05-.22.12-.32.14-.32.09-.54-.53-.46-1.61.14-1.59.51-3.2,1.05-4.77.66-1.51,1.47-2.95,2.34-4.33,1.31-2.04,2.76-3.99,4.18-5.81l.05.03Z"/><path class="cls-3" d="M345.55,180.08l-.37-2.32-.1-.52-.02-.07h0s0-.01,0,0l.11-.02c.14-.03.28-.08.42-.13s.27-.11.4-.18c.08-.05.12-.05.15-.05.04,0,.07-.02.09-.05,0-.01.01-.03.01-.05h0c0-.25,0,.31,0,.25h0s0,0,0,0c0,0,0-.03,0-.02.04.09.09.11.18.15.13.1.28.16.42.19.06,0,.2.07.3.09.02,0,0,0,0,.01-.01,0-.02.07-.03.12-.02.12-.03.28-.03.44,0,.49.1,1.04.15,1.59.09.97.22,1.97.37,2.97.12,1,.28,2.01.47,3,.16.89.42,1.75.65,2.61l.46,1.66.11.42.03.44c.02.29.04.59.09.88.04.36-.01.34-.28.12-.2-.16-.4-.32-.57-.47-.14-.12-.27-.22-.39-.32-.07-.06-.12-.12-.21-.18l-.12-.22c-1.11-2.16-1.76-4.46-2.16-6.84-.22-1.43-.6-2.88-.78-4.4-.04-.42-.08-.85-.07-1.31,0-.23.01-.47.05-.75.01-.13.06-.31.11-.48.04-.11.1-.23.16-.34.05-.11.24-.31.39-.42.17-.12.46-.21.72-.21.28-.01.72.23.85.5.05.09.03.06.04.08v.02s.03.05.03.05c.02.06.05.15.06.18.04.15.06.26.07.37l.08.63.13,1.21c.11.98.2,1.96.34,2.93.21,1.47.41,2.95.72,4.38.25,1.11.61,2.18.97,3.23.08.23.18.45.25.69.26.87.19,1.18-.17,1.52-.08.08-.16.17-.25.23-.29.21-.71-.06-1.09-.68-1-1.9-1.51-4.03-1.96-6.16-.34-1.58-.55-3.18-.85-4.75h.05Z"/><path class="cls-3" d="M397.39,172.78c2.28-.78,4.56-1.6,6.82-2.45,2.24-.88,4.54-1.77,6.65-2.75,2.17-1.01,4.38-2.13,6.74-3.04,2.35-.87,4.89-1.77,7.78-1.5,2.06.21,3.97,1.03,5.61,2.1,1.65,1.08,3.02,2.46,4.18,3.97.25.34.5.68.73,1.03.3.45.68,1.07.98,1.64.62,1.16,1.02,2.31,1.05,3.21,0,.45-.05.84-.23,1.22-.07.2-.27.38-.45.53-.21.11-.4.24-.64.27-.89.23-1.8.1-2.85-.34-.52-.25-1.06-.55-1.59-.93-.27-.17-.52-.39-.78-.59-.13-.1-.27-.2-.38-.3l-.25-.21c-.62-.53-1.2-1.08-1.76-1.6-.28-.26-.56-.52-.82-.73-.26-.18-.47-.34-.74-.47-.52-.25-1.13-.4-1.77-.43-1.29-.09-2.69.3-3.92.91-.63.29-1.25.62-1.73,1.08-.51.43-.89.96-1.07,1.46-.41.91.33,2.09,1.48,2.96,1.13.9,2.49,1.66,3.84,2.48,1.19.74,2.43,1.49,3.52,2.59,1.08,1.08,1.97,2.8,1.37,4.68-.18.49-.52.93-.98,1.18-.45.26-1.03.34-1.44.34-.85,0-1.57-.18-2.27-.36-1.4-.38-2.69-.87-3.98-1.31-1.66-.55-3.3-1.07-4.94-1.19-1.65-.14-3.33.08-5.09.32-.88.12-1.78.23-2.69.29-.92.01-1.84,0-2.76-.11-.92-.09-1.82-.26-2.71-.49-.89-.22-1.71-.63-2.54-.98-2-1.04-1.75-.78.1-.45.46.07,1.04.1,1.68.12.67-.09,1.36.06,2.14-.01.39,0,.79-.02,1.2-.07.41-.03.83-.07,1.27-.14.43-.05.88-.13,1.33-.22.46-.06.93-.11,1.41-.17,1.72-.22,3.56-.59,5.57-.6.99-.02,2.01.1,3,.27.98.19,1.9.45,2.79.74,1.77.57,3.47,1.26,5.05,1.69.39.11.77.19,1.1.22.16.02.31.02.42.02.08-.01.09,0,.09,0,.01,0,.03,0,.03-.02v-.04s.02-.19.02-.19c.02-.13,0-.25-.01-.37-.08-.94-1.31-2.07-2.72-2.98-1.42-.95-3.04-1.79-4.64-2.94-.8-.58-1.61-1.26-2.3-2.24-.34-.5-.62-1.11-.75-1.77-.07-.33-.08-.68-.04-1.04,0-.37.1-.69.21-1,.44-1.24,1.24-2.08,2.04-2.78.8-.71,1.69-1.28,2.65-1.67,1.15-.48,2.39-.75,3.68-.8,1.29-.04,2.68.19,3.91.9.29.19.63.38.86.58.25.2.46.39.68.58l1.24,1.11.61.53.4.33c.14.11.28.22.44.31.15.09.32.17.49.22.15.03.41.08.47-.11,0-.36-.19-.69-.35-1l-.14-.23c-.06-.09-.09-.15-.28-.41-.3-.42-.62-.83-.96-1.23-.67-.79-1.41-1.52-2.19-2.18-1.7-1.44-3.73-2.49-5.85-2.55-2.13-.07-4.44.62-6.63,1.55-2.21.92-4.36,2.04-6.63,3.08-2.29,1.02-4.55,1.9-6.83,2.84-5.61,2.26-11.28,4.42-17.11,6.12-3.42,1-6.88,1.9-10.43,2.49-1.78.29-3.57.51-5.41.52-1.83-.01-3.73-.14-5.61-1.18-.3-.22-.58-.47-.78-.78-.22-.28-.31-.53-.46-.8-.24-.52-.44-1.03-.6-1.54-.33-1.02-.6-2.03-.83-3.04-1.58-6.94-2.68-13.74-4.28-20.48-.35-1.48-.74-2.91-1.13-4.38-.71-2.73-1.27-4.48-1.67-5.7-.38-1.23-.61-1.93-.72-2.58-.07-.28-.2-.65-.21-.85-.04-.33.4-.11,1.14.72.73.83,1.65,2.3,2.47,4.3,1.15,2.69,1.95,5.5,2.68,8.34.72,2.84,1.36,5.72,1.97,8.61.61,2.89,1.19,5.8,1.83,8.68.32,1.44.66,2.86,1.06,4.23.2.68.42,1.34.66,1.92l.18.42.18.33c.14.21.07.11.08.15.07,0,.28.12.43.19l.59.18c.44.08.89.18,1.4.2,2.09.16,4.45-.14,6.75-.51,2.32-.4,4.66-.97,6.98-1.6,2.32-.63,4.64-1.34,6.94-2.1,2.32-.71,4.63-1.47,6.93-2.28l.04.06Z"/><path class="cls-3" d="M336.61,71.35c-.06,0-.11.02-.17.03-.02.01-.05.01-.07.02h-.04s-.11.08-.11.08c-.28.18-.57.3-.85.52-.57.39-1.14.84-1.7,1.32-1.13.96-2.21,2.07-3.26,3.2-2.11,2.28-4.09,4.75-6.09,7.24l-2.17,2.76c-.7.91-1.54,1.91-2.43,2.76-1.6,1.51-3.4,2.84-5.46,3.78-2.06.93-4.38,1.5-6.82,1.1-.32-.08-.63-.14-.95-.26-.32-.15-.64-.24-.94-.46-.62-.36-1.08-.92-1.44-1.42-.35-.51-.58-.96-.83-1.33-.23-.37-.47-.61-.72-.83-.53-.38-1.37-.54-2.26-.56-.79,0-1.62.25-2.37.69-1.33.78-2.35,2.17-2.94,3.69-.58,1.51-.55,3.14-.09,4.73.15.51.33,1.02.54,1.52.18.43.46.86.76,1.3.62.85,1.34,1.65,2.13,2.35.79.69,1.66,1.28,2.59,1.71.23.11.47.22.71.29.24.08.48.18.73.23.25.03.48.2.74.26.25.09.51.11.78.26.67.23,1.01.36,1,.46-.01.1-.33.21-.96.59-.62.3-1.66.81-2.9.66-1.25-.07-2.7-.55-3.97-1.46-1.12-.81-2.12-1.74-2.95-2.84-.41-.55-.79-1.12-1.13-1.78-.16-.28-.36-.77-.46-1.03-.12-.31-.22-.63-.32-.95-.4-1.29-.65-2.71-.57-4.18.07-1.47.53-2.92,1.16-4.18.63-1.24,1.51-2.44,2.67-3.37,1.15-.94,2.59-1.62,4.2-1.77.4-.04.81-.03,1.16,0,.36.03.72.04,1.11.14.75.11,1.6.46,2.32.97.74.54,1.22,1.25,1.56,1.82.34.57.58,1.04.81,1.31.27.34.56.53,1.05.67.46.15,1.1.17,1.7.15,1.23-.07,2.48-.46,3.65-1.08,2.36-1.21,4.39-3.18,6.16-5.29,2.01-2.45,3.98-5.02,6.06-7.51,2.09-2.49,4.23-4.97,6.81-7.15.8-.67,1.66-1.29,2.62-1.83.52-.33,1.3-.54,1.96-.54.69,0,1.37.15,1.99.48.31.17.6.37.86.62.21.21.4.41.57.62.35.41.66.82.97,1.21.59.78,1.18,1.52,1.76,1.92.67.57,1.9.19,3.13-.5,1.24-.67,2.49-1.6,4.03-2.24.77-.32,1.63-.56,2.55-.56.86.02,1.76.14,2.61.55.85.43,1.51,1.1,2.01,1.78.51.69.85,1.4,1.21,2.09,1.01,2.17,1.86,4.25,2.9,6.25,1.02,2,2.16,3.86,3.53,5.52.6.73,1.26,1.36,1.94,1.98,1.27,1.14,2.18,1.71,2.8,2.18.31.25.55.44.74.67.19.24.33.48.46.73.12.24.3.48.37.69.11.35-.23.56-1.04.63-.79.05-2.03-.23-3.38-1-4.03-2.35-6.62-6.38-8.53-10.31-.97-1.97-1.79-4.05-2.63-5.86-.42-.89-.87-1.68-1.29-2.1-.41-.4-.71-.51-1.44-.57-.28-.03-.43,0-.68.03-.22.03-.48.11-.74.21-.54.2-1.14.54-1.79.93-.65.39-1.34.85-2.16,1.29-.81.43-1.76.91-3.02,1.09-.31.05-.65.04-.98.05-.38-.03-.79-.08-1.16-.21-.74-.24-1.32-.62-1.76-.99-.88-.75-1.43-1.49-1.94-2.13l-.71-.9c-.21-.27-.47-.53-.6-.66-.09-.1-.36-.2-.58-.17v-.08Z"/><path class="cls-3" d="M446.52,183.56c-2.22,3.33-4.43,6.65-6.75,9.95-.59.83-1.16,1.64-1.81,2.49l-.24.32c-.1.13-.3.31-.44.46l-.47.47c-.17.14-.36.24-.51.4-.42.12-.83.26-1.28.29l-.91.07c-2.04.12-4.03.19-6.03.27-2.92.11-5.82.29-8.73.37l-15.39.32-7.69.14-3.85.07-.96.02h-.3c-.13,0-.25-.02-.38-.04-.15-.04-.3-.1-.44-.18-.29-.17-.52-.43-.63-.66-.08-.13-.1-.22-.13-.31-.03-.1-.06-.2-.07-.27-.09-.63,0-.99.05-1.38.06-.36.15-.73.23-1.01.14-.52.33-1.04.41-1.6.01-.14.02-.28-.03-.41-.07-.15-.24-.1-.37-.09-.27.05-.52.18-.76.32-.24.15-.46.31-.67.48l-.34.28-.62.54c-.83.73-1.65,1.5-2.49,2.28-.45.41-.91.83-1.42,1.25-.26.21-.52.41-.86.63-.19.09-.39.26-.62.29l-.34.09h-.02c0,.07,0,.1,0,.15v.26s-.03.53-.03.53l-.04,1.05c-.5-3.84-.14-1.06-.26-1.92h0s-.01,0-.01,0h-.02s-.04,0-.04,0h-.08s-.17,0-.17,0h-.22s-.43.02-.43.02l-.86.03-1.72.06c-1.15.04-2.3.02-3.45.02l-3.45-.06c-1.15-.1-2.3-.16-3.45-.3-1.81-.35-1.57-.33-.05-.89.76-.29,1.84-.63,3.14-1.04,1.3-.36,2.84-.63,4.5-.79,1.02-.09,2.04-.2,3.06-.23l1.53-.07.77-.03.38-.02c.05,0,.15-.01.17,0v.02s0,0,0,0h0s0,0,0,0h0s0,0,0,0h0c-.19-1.48.43,3.32-.44-3.32l.44,3.32s-.02,0,.02-.02c.02,0,.15-.12.22-.17.08-.06.17-.13.28-.22.4-.33.83-.73,1.27-1.14.88-.82,1.77-1.69,2.75-2.53.29-.25,1.52-1.27,2.42-1.82.48-.28.98-.63,1.43-.76l.69-.27c.23-.08.42-.07.63-.1.42-.08.8-.04,1.19-.02.37.11.71.2,1.07.48.64.57.84,1.08.95,1.94.09.85-.17,2.02-.5,3.16l-.42,1.55c-.07.26-.13.51-.16.71l-.03.21s0,0,0,0c-.17,0-.38.04-.5.04-.27.02-.56.09-.71.13-.38.11-.39.3-.34.12.02-.06.03-.13.03-.2v-.05s0-.01,0-.01c-.02-.57.04,1.26-.04-1.28h.01s.06,0,.06,0h.23s1.85-.02,1.85-.02c2.46-.01,4.93-.02,7.4-.03,7.14,0,14.56-.44,21.85-.7l6.01-.23,3-.14,1.49-.08,1.4-.09c.1,0,.2-.01.3-.03.09-.03.16-.11.22-.19l.1-.11.21-.28.43-.58c.58-.79,1.15-1.61,1.72-2.43l3.36-4.98c2.73-4.11,5.44-8.25,8.11-12.4,4.04-6.3,8.14-12.61,12.03-18.93,3.03-4.92,5.83-9.85,8.73-14.77.64-1.08,1.24-2.16,1.9-3.25,2.45-4.01,3.45-5.16,4.78-5.52.3-.08.64-.23.88-.23.82,0,.31,1.92-1.34,4.95-4.88,8.98-10.48,18.18-16.22,27.35-4.25,6.82-8.64,13.58-13.04,20.34l-.08-.04Z"/><g class="cls-1"><path class="cls-3" d="M351.8,208.66c.06.38.04.79-.15,1.18-.18.37-.45.63-.72.79-.2.12-.37.25-.59.29-.37.06-.74.02-1.07-.14-.33-.17-.57-.47-.67-.74-.09-.24-.15-.47-.11-.69.06-.27.14-.56.39-.69.08-.04.15.06.24.18.08.12.23.26.27.31.02.11.4.12.34.11-.07.01-.18.15-.14.09.05-.08,0-.26.02-.18.01.03.07.1.12.12.04.02-.01,0,.09.04-.02,0-.07-.01-.1,0-.1,0-.1.04-.01-.03.06-.04.11-.14.11-.16,0,0,0-.01,0,0h0s0,0,0,0v-.11s0,0,0,0h0s0,.03.04.06c.04.05.11.1.12.1.02,0-.05-.02-.13-.01-.03,0-.07.01-.1.02-.1.05-.02,0-.05.02-.08.13-.14.26-.21.4-.11.23-.22.43-.4.54-.17.12-.43.12-.66-.04-.33-.24-.55-.61-.63-.94-.06-.34-.03-.66.08-.97.11-.3.31-.6.64-.86.32-.26.83-.44,1.28-.43.6,0,1.16.3,1.46.64.33.34.49.71.58,1.1l-.06.02Z"/></g><path class="cls-3" d="M334.12,101.42c1.42,1.69,3.53,2.63,5.7,2.81,2.3.19,4.55-.68,6.24-2.22.55-.5.51-1.44,0-1.94-.55-.55-1.39-.5-1.94,0-.33.3-.51.44-.96.7-.18.11-.37.2-.57.29-.4.19.11-.04-.12.05-.11.04-.22.08-.33.11-.2.06-.4.12-.6.16-.11.02-.22.04-.34.07-.25.05.04,0-.11.01-.43.04-.85.05-1.28.01-.09,0-.18-.02-.27-.03.25.03-.05-.01-.1-.02-.2-.04-.39-.08-.59-.13-.21-.06-.42-.13-.63-.21-.08-.03-.17-.07-.04-.01-.1-.04-.2-.09-.3-.14-.2-.1-.39-.21-.58-.33-.09-.06-.18-.12-.28-.18-.07-.04-.15-.11-.04-.02-.35-.27-.66-.59-.95-.93-.48-.57-1.45-.49-1.94,0-.56.56-.48,1.38,0,1.94h0Z"/><path class="cls-3" d="M357.85,100.48c-.28.21-.57.4-.87.57-.16.09-.33.17-.49.25-.14.07-.07.02.03-.01-.08.03-.17.06-.25.09-.15.05-.3.1-.45.13-.08.02-.17.04-.25.05-.04,0-.27.04-.07.02.22-.03-.08,0-.13,0-.07,0-.14,0-.21,0-.17,0-.35,0-.52-.02s-.05-.01.05,0c-.09-.02-.18-.03-.26-.05-.16-.04-.32-.08-.48-.13-.07-.02-.14-.05-.21-.07-.34-.12.14.08-.04-.02-.16-.08-.32-.16-.48-.25-.18-.11-.36-.22-.54-.34-.07-.05-.15-.1-.22-.16.15.11-.05-.05-.1-.09-.37-.31-.71-.65-1.04-1.01-.49-.53-1.46-.53-1.94,0-.52.57-.52,1.38,0,1.94,1.38,1.5,3.09,2.68,5.16,2.9,1.69.18,3.37-.49,4.71-1.47.58-.42.92-1.21.49-1.88-.37-.57-1.26-.95-1.88-.49h0Z"/><path class="cls-3" d="M352.53,103.41c.19.65.4,1.3.65,1.94.09.23.25.43.34.66.32.83.65,1.67.99,2.5.15.37.4.68.59,1.02.26.43.64.76.53,1.49-.05.24-.07.23-.34.28-.29.06-.91.22-1.22.07-.96-.62-1.62-1.48-1.99-2.52-.19-.64-.66-1.13-.97-1.71-.34-.64-.64-1.3-.94-1.97-.17-.42-.35-.83-.52-1.25-.26-.63-.45-1.3-.73-1.94-.21-.5-.57-.97-.8-1.59-.05-.14-.11-.31-.11-.47,0-.16,0-.27.04-.39.05-.13.14-.23.23-.29.19-.13.44-.15.8-.09.16.03.33.06.48.11.51.18.97.48,1.2.5.62.33.81,1.03,1.14,1.8.23.58.45,1.19.68,1.82l-.06.03Z"/><path class="cls-3" d="M332.17,90.31c.24-.32-.23.25.04-.05.05-.06.11-.12.16-.18.15-.16.32-.32.49-.47.08-.07.16-.13.24-.2-.17.13-.12.09.03,0,.2-.13.39-.26.6-.37.19-.11.38-.21.58-.3.04-.02.38-.16.17-.08s.13-.05.17-.06c.44-.16.88-.28,1.34-.38.11-.02.22-.04.33-.06.31-.06-.18,0,.03,0,.22,0,.43-.04.65-.05.24,0,.47,0,.71,0,.11,0,.21.03.32.03.23,0-.38-.07,0,0s.8.18,1.2.32-.29-.16.06.03c.09.05.18.09.27.14s.17.1.26.15c.08.05.38.27.06.03.67.52,1.65.7,2.3,0,.53-.58.72-1.74,0-2.3-3.87-3.01-9.99-1.68-12.81,2.16-.5.69-.14,1.84.58,2.22.85.45,1.68.15,2.22-.58h0Z"/><path class="cls-3" d="M351.52,88.12c-.43.33-.03.03.08-.04.12-.08.24-.15.37-.22s.26-.14.39-.2c.06-.03.31-.13.05-.03s0,0,.05-.02c.28-.1.56-.19.84-.26.14-.03.3-.04.43-.08-.09.03-.41.04-.13.02.07,0,.14-.01.22-.02.24-.01.62-.07.85.02-.03,0-.41-.07-.18-.02.08.02.16.03.24.05.12.03.24.07.35.1.25.07-.04-.01-.12-.06.06.03.12.06.18.09.12.06.23.14.35.21.23.14-.05,0-.1-.08.04.05.11.09.15.14.11.11.21.22.31.35.24.3.78.48,1.15.48.4,0,.87-.18,1.15-.48s.5-.72.48-1.15c-.02-.46-.19-.79-.48-1.15-1.01-1.27-2.75-1.84-4.33-1.74-1.71.1-3.26.75-4.59,1.8-.3.24-.48.78-.48,1.15,0,.4.18.87.48,1.15s.72.5,1.15.48c.46-.02.79-.19,1.15-.48h0Z"/><path class="cls-3" d="M337.38,117.34c.34,1.73,1.66,3.2,3.15,4.07s3.54,1.29,5.24.62c.67-.26,1.21-.93.96-1.69-.21-.65-.97-1.24-1.69-.96-.16.06-.33.12-.5.16-.08.02-.17.04-.25.05-.26.06.31-.02.02,0-.16,0-.32.02-.48.02-.13,0-.36-.07-.48-.03.22.03.26.03.1.01l-.09-.02c-.09-.02-.17-.04-.26-.06-.17-.04-.34-.09-.51-.15-.03-.01-.25-.09-.25-.09,0,0,.31.14.04.01-.16-.08-.32-.16-.48-.25-.14-.08-.28-.17-.42-.26-.04-.03-.07-.05-.11-.08-.08-.06-.05-.03.1.08-.03,0-.18-.15-.21-.17-.26-.22-.47-.48-.7-.72-.12-.12.17.24.03.04-.05-.07-.1-.14-.14-.21-.09-.14-.17-.29-.25-.44-.02-.04-.04-.07-.05-.11-.04-.1-.02-.05.06.14,0-.07-.06-.16-.08-.23-.05-.15-.09-.31-.12-.47-.14-.71-1.02-1.18-1.69-.96-.75.24-1.11.93-.96,1.69h0Z"/><path class="cls-3" d="M384.74,37.15c-.09.2-.28.28-.52.31-.08,0-.21-.1-.19-.16.03-.13.06-.26.11-.38.02-.08.65-1.12.81-1.52.17-.37.37-.73.58-1.07.43-.7.86-1.41,1.32-2.1.1-.15.22-.3.35-.42.46-.42.83-.93,1.22-1.43.06-.08.14-.16.15-.29,0-.22,1.13-1.52,1.33-1.63.48-.3.98-.56,1.46-.84.07-.04.11-.12.23-.09.28.07.39-.07.53-.16.2-.13.41-.24.64-.33.11-.04.29-.02.44-.01.14,0,.31.29.3.34-.01.15.15.21.25.31.03.03.07.08.09.11.03.05-.49,1.43-.58,1.53-.02.02-1.25,1.41-1.41,1.6-.07.09-.19.12-.3.17-.05.02-1.05,1.15-1.1,1.18-.25.19-.42.46-.79.53-.07.02-.11.06-.16.11-.39.37-.85.68-1.28,1.02-.22.17-.41.38-.61.56-.04.03-.09.05-.13.08-.05.04-.11.07-.16.11-.47.46-.98.89-1.4,1.39-.11.11-.68.58-.77.73-.06.08-.36.25-.4.33Z"/><path class="cls-3" d="M389.03,40.91c-.15.09-.27-.13-.36-.51-.03-.12-.01-.48.03-.54.09-.1.17-.2.26-.28.05-.04.88-.29,1.17-.41.27-.11.55-.16.82-.19.55-.08,1.1-.14,1.65-.16.12,0,.24.01.36.06.41.16.83.16,1.25.1.07-.01.14,0,.21-.09.12-.15,1.25-.2,1.4-.12.36.17.72.31,1.08.46.05.02.11-.01.15.1.1.28.21.23.32.26.16.03.31.08.46.18.08.05.15.21.22.34.06.12.01.53-.02.57-.08.13-.03.33-.03.5,0,.06,0,.13,0,.18-.01.11-.94.77-1.03.76-.02,0-1.3.14-1.49.16-.08.02-.15-.05-.23-.1-.04-.02-1.09.09-1.13.08-.22-.05-.44.02-.64-.22-.04-.05-.09-.04-.13-.04-.37,0-.74-.12-1.11-.21-.19-.04-.38-.03-.57-.05-.03,0-.07-.04-.1-.06-.04-.02-.08-.06-.13-.06-.45-.05-.9-.22-1.35-.21-.1,0-.59-.27-.71-.26-.07,0-.28-.29-.34-.25Z"/></svg>