<svg width="839" height="256" viewBox="0 0 839 256" fill="none" xmlns="http://www.w3.org/2000/svg">
<path d="M838.647 91.4771H789.194V61.8053C789.194 55.918 787.898 51.4436 785.308 48.3823C782.953 45.0854 779.538 43.4369 775.064 43.4369C770.59 43.4369 767.057 45.0854 764.467 48.3823C762.112 51.4436 760.935 55.918 760.935 61.8053V78.4074C760.935 81.9397 761.288 85.1189 761.994 87.9448C762.701 90.5352 764.114 93.1256 766.233 95.716C768.353 98.0709 771.414 100.544 775.417 103.134C779.656 105.489 785.308 108.315 792.373 111.612L804.029 116.91C810.623 119.972 816.157 123.386 820.632 127.154C825.106 130.922 828.638 135.514 831.229 140.93C834.055 146.111 836.056 152.234 837.234 159.299C838.411 166.363 839 174.841 839 184.732V190.383C839 211.107 833.348 227.12 822.045 238.424C810.741 249.492 794.845 255.026 774.358 255.026C753.87 255.026 738.21 249.492 727.377 238.424C716.545 227.355 711.128 211.342 711.128 190.383V163.891H760.581V193.916C760.581 199.803 761.759 204.277 764.114 207.339C766.704 210.4 770.354 211.931 775.064 211.931C779.538 211.931 783.071 210.4 785.661 207.339C788.252 204.277 789.547 199.921 789.547 194.269V176.254C789.547 172.722 789.194 169.66 788.487 167.07C787.781 164.244 786.368 161.771 784.248 159.652C782.364 157.297 779.421 154.942 775.417 152.587C771.649 150.232 766.469 147.524 759.875 144.463L746.452 138.104C739.858 135.043 734.324 131.511 729.85 127.507C725.376 123.504 721.725 118.794 718.899 113.378C716.309 107.962 714.425 101.721 713.248 94.6563C712.07 87.356 711.482 78.8784 711.482 69.2232V64.9844C711.482 44.2612 716.898 28.3655 727.73 17.2974C738.563 6.22935 754.105 0.695312 774.358 0.695312C794.845 0.695312 810.623 6.3471 821.691 17.6507C832.995 28.7188 838.647 44.4967 838.647 64.9844V91.4771Z" fill="#080808"/>
<path d="M699.629 91.4771H650.176V61.8053C650.176 55.918 648.88 51.4436 646.29 48.3823C643.935 45.0854 640.521 43.4369 636.046 43.4369C631.572 43.4369 628.04 45.0854 625.449 48.3823C623.094 51.4436 621.917 55.918 621.917 61.8053V78.4074C621.917 81.9397 622.27 85.1189 622.977 87.9448C623.683 90.5352 625.096 93.1256 627.215 95.716C629.335 98.0709 632.396 100.544 636.399 103.134C640.638 105.489 646.29 108.315 653.355 111.612L665.012 116.91C671.605 119.972 677.139 123.386 681.614 127.154C686.088 130.922 689.62 135.514 692.211 140.93C695.037 146.111 697.038 152.234 698.216 159.299C699.393 166.363 699.982 174.841 699.982 184.732V190.383C699.982 211.107 694.33 227.12 683.027 238.424C671.723 249.492 655.827 255.026 635.34 255.026C614.852 255.026 599.192 249.492 588.359 238.424C577.527 227.355 572.11 211.342 572.11 190.383V163.891H621.564V193.916C621.564 199.803 622.741 204.277 625.096 207.339C627.686 210.4 631.336 211.931 636.046 211.931C640.521 211.931 644.053 210.4 646.643 207.339C649.234 204.277 650.529 199.921 650.529 194.269V176.254C650.529 172.722 650.176 169.66 649.469 167.07C648.763 164.244 647.35 161.771 645.23 159.652C643.346 157.297 640.403 154.942 636.399 152.587C632.632 150.232 627.451 147.524 620.857 144.463L607.434 138.104C600.84 135.043 595.306 131.511 590.832 127.507C586.358 123.504 582.707 118.794 579.882 113.378C577.291 107.962 575.407 101.721 574.23 94.6563C573.052 87.356 572.464 78.8784 572.464 69.2232V64.9844C572.464 44.2612 577.88 28.3655 588.713 17.2974C599.545 6.22935 615.088 0.695312 635.34 0.695312C655.827 0.695312 671.605 6.3471 682.673 17.6507C693.977 28.7188 699.629 44.4967 699.629 64.9844V91.4771Z" fill="#080808"/>
<path d="M464.348 4.22766H541.707L568.2 251.493H518.747L504.264 88.298H500.732L486.249 251.493H436.796L464.348 4.22766ZM524.399 190.03H479.538V147.289H524.399V190.03Z" fill="#080808"/>
<path d="M343.067 4.22766H392.52V208.398H433.142V251.493H343.067V4.22766Z" fill="#080808"/>
<path d="M253.149 61.8053V193.916C253.149 197.213 253.502 200.039 254.208 202.393C255.15 204.748 256.21 206.632 257.388 208.045C258.801 209.458 260.331 210.518 261.98 211.224C263.864 211.695 265.748 211.931 267.631 211.931C269.515 211.931 271.282 211.695 272.93 211.224C274.814 210.518 276.345 209.458 277.522 208.045C278.935 206.632 279.995 204.748 280.701 202.393C281.643 200.039 282.114 197.213 282.114 193.916V137.398H331.567V190.383C331.567 201.216 330.037 210.636 326.975 218.642C323.914 226.649 319.557 233.361 313.905 238.777C308.254 244.193 301.424 248.314 293.418 251.14C285.411 253.731 276.58 255.026 266.925 255.026C257.27 255.026 248.557 253.731 240.785 251.14C233.014 248.314 226.303 244.311 220.651 239.13C215.235 233.714 210.996 227.002 207.934 218.996C205.109 210.753 203.696 201.216 203.696 190.383V64.9844C203.696 54.1518 205.109 44.7322 207.934 36.7254C210.996 28.4833 215.235 21.7718 220.651 16.591C226.303 11.1747 233.014 7.17132 240.785 4.58091C248.557 1.99051 257.27 0.695312 266.925 0.695312C276.58 0.695312 285.411 2.10826 293.418 4.93416C301.424 7.52456 308.254 11.5279 313.905 16.9442C319.557 22.3605 323.914 29.072 326.975 37.0787C330.037 45.0854 331.567 54.3873 331.567 64.9844V117.97H282.114V61.8053C282.114 58.2729 281.643 55.3292 280.701 52.9743C279.995 50.6194 278.935 48.8532 277.522 47.6758C276.345 46.2629 274.814 45.2031 272.93 44.4967C271.282 43.7902 269.515 43.4369 267.631 43.4369C265.748 43.4369 263.864 43.7902 261.98 44.4967C260.331 45.2031 258.801 46.2629 257.388 47.6758C256.21 48.8532 255.15 50.6194 254.208 52.9743C253.502 55.3292 253.149 58.2729 253.149 61.8053Z" fill="#080808"/>
<path d="M142.473 4.22766H191.926V251.493H137.174L102.91 90.0642H100.084L111.035 251.493H61.5814V4.22766H116.333L151.657 166.717H154.483L142.473 4.22766Z" fill="#080808"/>
<path d="M0 65.9827H49.0606V251.493H0V65.9827Z" fill="#080808"/>
<path d="M0 4.65694H49.0606V53.7176H0V4.65694Z" fill="#080808"/>
</svg>
