<?xml version="1.0" encoding="UTF-8"?><svg id="Layer_1" xmlns="http://www.w3.org/2000/svg" width="520" height="520" viewBox="0 0 520 520"><defs><style>.cls-1{opacity:.2;}.cls-1,.cls-2{fill:#231f20;stroke-width:0px;}.cls-3{opacity:.25;}</style></defs><path class="cls-1" d="M372.38,336.8s-18.26,17.51-20.89,24.28-3,21.27-3,21.27l3,13.38s8.34,6.76,13.84,10.4,17.51,5.71,21.76,4.61c4.25-1.1,18.93-9.33,18.93-9.33l13.17-13.42s12.43-.59,15.38-3.4c2.94-2.81,3.32-13.01,3.32-13.01l-15.58-5.7s-5.51-8.75-4.56-11.95,2.82-4.14-5.65-5.65-14.97-11.48-14.97-11.48c0,0,4.43-1.88-4.98,0s-19.76,0-19.76,0Z"/><path class="cls-2" d="M371.14,363.06c.16-.23.33-.47.5-.7.08-.1.15-.2.23-.31.05-.06.1-.13.14-.19.02-.03.16-.2.04-.05-.13.17.04-.05.07-.09.04-.05.08-.1.12-.15.09-.11.18-.22.27-.33.18-.22.36-.44.55-.66.73-.86,1.5-1.68,2.3-2.47.51-.51.54-1.45,0-1.94s-1.4-.54-1.94,0c-1.71,1.68-3.26,3.53-4.64,5.5-.41.59-.13,1.55.49,1.88.7.37,1.44.14,1.88-.49h0Z"/><path class="cls-2" d="M385.41,372.14c.22-.33.46-.65.7-.96l-.29.38c.91-1.18,1.94-2.26,3.07-3.22.35-.3.55-.88.55-1.33s-.2-1.01-.55-1.33-.83-.57-1.33-.55-.93.21-1.33.55c-1.55,1.33-2.9,2.88-4.06,4.56-.26.38-.31,1.01-.19,1.44s.46.91.86,1.12c.44.23.96.35,1.44.19s.83-.44,1.12-.86h0Z"/><path class="cls-2" d="M41.49,268.88c-.35-.65-.6-1.35-.76-2.03-.05-.25-.12-.5-.15-.75-.1-.9-.1-1.77-.09-2.62,0-.38-.03-.76-.03-1.13-.02-.48-.02-.96,0-1.44,0-.3.15.08.22.62.05.48.1.96.16,1.45.06.48.19.96.26,1.43.1.57.31,1.14.52,1.67.24.59.44,1.17.76,1.7.19.33.41.64.66.93.36.44.78.86,1.27,1.14.39.21.82.29,1.23.33.09.01.18,0,.27.01.33.04.42.12.48.52.01.09.04.18.04.27.03.3-.15.54-.49.6-1.02.13-2.1-.29-2.9-.94-.62-.47-1.11-1.07-1.47-1.73l.03-.02Z"/><path class="cls-2" d="M412.1,416.63c-.99-.42-6.92-5.59-15.08-4.67-5.92.66-16.69,3.69-25.44,1.74-8.39-1.86-14.95-9.33-14.95-9.33l2.59-.89,8.63,5.2s10.94,2.98,13.2,2.8c2.25-.18,11.99-2.41,11.99-2.41l8.19-2.93,6.88,2.33,4.78,4.09-.78,4.06Z"/><path class="cls-2" d="M355.37,400.77c-1.46,1.08-22.05,1.35-31.45-8.64-8.26-8.78-12.93-31.29-12.93-31.29,0,0,8.66,1.43,16.79-5.99,8.13-7.42,18.35-20.7,18.35-20.7,0,0,6.15-10.93,13.18-15.76,7.03-4.83,25.95-11.08,31.89-9.7,5.94,1.38,19.16,11.08,19.16,11.08l4.2,7.64s6.84-7.33,16.17-6.55c9.33.78,18.21,2.59,22.54,8.59,4.33,6,11.33,14.81,10.77,28.09s-2.16,25.83-2.2,28.99c-.05,3.16,3.84,19.26,5.88,19.6,2.04.34,7.37,7.56,7.37,7.56,0,0-30.16,20.89-59.83,2.93-9.22-5.58-15.12-10.34-15.12-10.34l12.74-10.56s1.35,6.51,5.19,7.12c3.83.61,2.78,2.08,7.37-.31,3.08-1.6,3.87-8.62,3.87-8.62l-2.25-5.47s6.02-.19,7.5-3.86c1.48-3.67-.28-11.67-1.7-12.29s-13.38-.22-15.94-3.56c-2.57-3.34-1.25-12.39-1.25-12.39l2.1-5.15s-7.65,2.74-12.45,0c-4.8-2.74-8.29-12.34-8.29-12.34,0,0,2.28-.18-7.42,1.18-9.7,1.36-18.32,0-18.32,0,0,0-9.36,6.42-12.87,11.81-3.5,5.4-9.04,19.18-9.26,20.44-.22,1.26.03,14.23.03,14.23l6.17,14.23Z"/><path class="cls-2" d="M46.38,245.02c.64,1.14.77,2.07.95,2.96.06.32.19.61.23.92.15,1.09.26,2.14.6,3.06.07.21.17.4.28.56.1.18.24.31.37.45.32.36.64.61,1.15.93.16.11.16.26-.02.48-.09.11-.23.25-.43.38-.2.16-.45.22-.7.19-.47-.03-.88-.22-1.3-.42-.37-.24-.64-.58-.86-.89-.46-.64-.72-1.31-.87-1.98-.18-.8-.57-1.5-.83-2.2-.28-.77-.52-1.54-.82-2.13-.22-.37-.31-.56-.71-.88-.51-.43-1.01-.76-1.61-.76-.46,0-.93.27-1.38.51-.1.05-.19.14-.31.14-.42,0-.63-.21-.95-1l-.21-.51c-.2-.55-.17-1.18.16-1.58.47-.67,1.15-.88,1.93-1.06.78-.15,1.72.03,2.56.38.62.27,1.16.64,1.59,1.03.21.19.41.39.59.58.18.19.46.54.66.81l-.06.05Z"/><path class="cls-2" d="M53.87,250.17s.71-3.19,1.62-3.32c1.55-.21,2.05,2.53,2.96,3.39.77.72.85-.35.85-.35,0,0-2.79-9.25-3.9-9.46s-1.12,2.12-1.47,2.47-1.06,5.65-1.06,5.65l.99,1.62Z"/><path class="cls-2" d="M98.55,189.71s7.58-3.6,12.33-2.86c6.3.99,11.48,7.2,21.69,7.2,11.44,0,18.64-7.48,19.91-8.75,1.27-1.27,6.2-7.48,6.2-7.48,0,0-8.22,7.55-11.1,8.72s-15.9,2.01-15.9,2.01l-15.44-3.05-6.23-3.69-10.95,4.76-.52,3.14Z"/><path class="cls-2" d="M157,123.56c7.02,0,15.59-6.47,17.65-16.9,0,0,1.92-9.1-1.8-17.54-3.71-8.44-15.89-15.76-22.63-13.24-6.74,2.52-14.33,7.44-14.33,7.44,0,0-6.63-11.07-17.83-10.24-11.21.83-24,7.03-26.7,9.72-2.69,2.69-8.23,15.5-8.23,15.5l-.31,10.17s-14.58-2.1-18.75.77c-4.16,2.87-15.84,16.35-15.38,19.45.45,3.11,1.87,17.33,1.86,19.54,0,2.21,4.22,8.22,5.78,10.66,4.28,6.68,22.42,12.97,33.98,7.92,0,0-10.63-3.39-10.63-8.23,0,0-.12-7.08,2.87-9.73,3-2.65,9.54.2,11.01,1.03,1.47.83,5.82,3.21,6.84,0,1.02-3.21,1.12-9.04,1.12-9.04l-2.13-10.28s12.61.81,16.9-2.78c4.29-3.59,12.5-15.93,12.5-15.93,0,0,8.83-1.61,13.24-.19,9.04,2.92,14.96,11.9,14.96,11.9Z"/><path class="cls-2" d="M41.85,267.16c.05.52.11,1.03.17,1.54l.1.74.02.15v.02s0,.05,0,.05c0,.07,0,.18.06.22.08.03.12.04.27.06,2.1.09,4.27.12,6.42.13,1.57.01,3.15-.06,4.72-.04,5.55.09,11.12.19,16.66.07l1.71-.06.46-.04c.08,0,.15-.02.22-.04.06-.04.04-.14.05-.21l-.02-.96c0-.6,0-1.2,0-1.8-.01-1.57-.04-3.16.03-4.75.03-.79.08-1.59.16-2.39.07-.8.18-1.6.4-2.39.29-1,.48-.79.77.06.34.86.86,2.36,1.03,4.15.13,1.47.3,2.93.41,4.41l.17,2.23.04.56c-.02.13.07.35.05.53v.56c.1.78-.11,1.41-.27,2.02-.09.13-.16.27-.29.37l-.04.04-.02.02h-.01s0,.02,0,.02h0s.11.12-.11-.11l-.11.07-.2.14c-.25.18-.6.36-.91.52l-1.21.18c-.18.04-.47.05-.57.06-.11.02-.22.01-.33.02-.88.04-1.76.07-2.64.08-1.75.03-3.5.02-5.25-.02-3.89-.1-7.92.21-11.9.27-2.19.04-4.37,0-6.57-.03l-1.65-.04-.83-.03-1.03-.05-.64-.04-.59-.12c-.38-.1-.78-.15-1.01-.52-.11-.16-.25-.29-.34-.47l-.25-.54c-.11-.41-.23-.8-.31-1.22l-.11-.64-.07-.52-.12-1.04c-.07-.69-.12-1.37-.17-2.05-.09-1.36-.16-2.71-.22-4.06-.17-4.09-.19-8.19-.19-12.26,0-1.2.01-2.38.02-3.56,0-.6.03-1.2.07-1.81.09-.77.2-1.76.65-2.46.41-.38.89-.62,1.49-.73.3-.06.59-.11.91-.15l.63-.09c.69-.1,1.36-.2,2.05-.26,2.56-.2,3.35-.03,3.97.79.14.18.32.36.42.54.34.6-.72,1.32-2.56,1.65-.96.17-1.92.35-2.89.52l-.72.12-.36.06-.09.02h-.01s-.02.02-.02.02c-.06.05-.11.06-.12.13,0,.06.02.11.03.15.02-.06,0,.22-.02.42l-.03.64c-.04.87-.05,1.78-.05,2.69-.01,1.83.01,3.71.06,5.58.1,4.28.25,8.65.73,12.85l-.09.02Z"/><path class="cls-2" d="M52.98,253.98c-.41.75-.94,1.3-1.59,1.63-.66.29-1.5.36-2.13.07-.65-.28-1.2-.87-1.66-1.56-.24-.34-.43-.72-.62-1.09-.14-.29-.22-.5-.33-.76-.28-.71-.59-1.4-.77-2.13-.32-1.28-.48-2.59-.47-3.91,0-1.32.15-2.65.53-3.94.35-1.1.66-2.13,1.08-3.17.52-1.3,1.11-2.75,2.47-3.58.45-.22.48-.05.51.44.06.54.15,1.31-.04,1.99-.16.62-.42,1.2-.59,1.84-.19.63-.34,1.27-.56,1.9l-.3.96c-.08.27-.16.55-.22.84-.13.58-.22,1.2-.28,1.83-.13,1.53.32,3.16.78,4.68.23.79.69,1.84.76,1.98.09.17.19.36.36.49.17.15.42.09.57-.04.2-.16.31-.41.42-.67.02-.07.05-.13.07-.21l.11-.38c.07-.27.13-.54.18-.82.31-1.69.53-3.47.71-5.24.14-1.38.13-2.77.39-4.21.06-.32.09-.64.19-.96.38-1.2.82-1.53,1.6-1.34.18.04.35.07.51.13.51.24.72.83.61,1.5-.31,2.07-.48,4.51-.77,7.05-.11.95-.22,1.91-.39,2.9-.08.5-.18,1-.29,1.52l-.09.4c-.03.12-.09.4-.17.61-.13.45-.3.87-.49,1.27l-.06-.04Z"/><path class="cls-2" d="M65.67,251.45c-.07.53-.17,1.06-.34,1.62-.13.47-.52,1.42-1.07,1.97-.56.58-1.31.92-2.09.93-.78,0-1.5-.37-2.02-.97-.21-.2-.37-.46-.55-.68-.14-.23-.23-.35-.33-.53-.19-.33-.36-.66-.5-.99-.95-2.35-1.41-4.67-2.09-6.94-.27-1.01-.67-1.99-.98-2.97-.49-1.23-.79-2.53-1.19-3.81-.12-.4-.04-.39.28-.16.31.23.94.66,1.46,1.3,1.76,2.32,2.43,5.04,3.19,7.66.43,1.57,1.13,3.15,1.82,4.5.09.18.21.37.29.51.05.08.08.14.14.21.1.14.26.27.44.24.18,0,.36-.1.47-.25.06-.08.11-.16.15-.25.05-.14.12-.33.16-.52.24-.95.28-2.05.23-3.14-.08-1.66-.3-3.35-.74-4.97-.35-1.26-.91-2.43-1.48-3.56-.12-.25-.28-.48-.4-.73-.45-.93-.43-1.27.18-1.83.14-.13.26-.27.41-.38.47-.37,1.17-.2,1.66.51,1.46,2.11,2.23,4.65,2.69,7.23.32,1.94.48,3.9.28,6.02h-.07Z"/><path class="cls-2" d="M73.8,103.77c-.62-.5-1.3-.96-2.06-1.31-.27-.15-.57-.2-.86-.31-1.01-.44-2.13-.73-3.29-.83-.51-.07-1.04-.05-1.55,0-.67.01-1.3.22-2.01.07-.22-.04-.23-.21-.1-.48.13-.26.39-.7.78-.82,1.36-.45,2.84-.85,4.34-.54.88.15,1.83.14,2.74.34,1,.23,1.96.65,2.84,1.19.55.31,1.05.7,1.54,1.07.74.58,1.38,1.27,2.05,1.89.51.49,1.13.87,1.68,1.34.12.1.27.18.37.3.39.42.34.7-.28,1.28-.14.13-.27.27-.42.39-.5.41-1.07.55-1.43.34-1.1-.6-1.83-1.45-2.6-2.23-.57-.58-1.14-1.15-1.79-1.62l.03-.06Z"/><path class="cls-2" d="M77.15,101.76c-.27-.97-.44-1.97-.55-2.97-.02-.37-.15-.72-.14-1.09,0-1.31.28-2.58.66-3.76.19-.52.28-1.05.45-1.56.15-.67.53-1.27,1.03-1.77.16-.15.42,0,.69.31.26.3.6.77.62,1.13,0,.16,0,.32.01.48l.02.24-.04.22c-.05.29-.13.57-.17.85-.12.56-.22,1.11-.41,1.68-.08.34-.12.7-.1,1.05.05.35.08.71.14,1.06.08.78.25,1.57.48,2.36.16.48.31.97.54,1.44.32.71.67,1.44,1.16,2.07.4.48.9.87,1.36,1.3.1.1.22.17.31.28.3.42.2.69-.37,1.26-.13.13-.25.27-.39.39-.45.41-1,.55-1.43.39-.64-.24-1.15-.61-1.65-1.03-.49-.42-.79-1-1.13-1.55-.47-.86-.86-1.78-1.17-2.75l.07-.03Z"/><path class="cls-2" d="M91.68,151.25c-.73-.47-1.45-.89-2.11-1.17-.64-.27-1.36-.45-2.08-.52-1.45-.14-2.92.19-4.07.97-.85.58-1.46,1.47-1.92,2.37-.41.8-.64,1.71-.66,2.68,0,.96.18,1.97.52,2.93.67,1.96,2.09,3.68,3.8,4.87,1.55,1,3.52,1.43,5.41,1.28,1.22-.09,2.44-.31,3.59-.72,1.17-.41,2.2-.96,3.36-1.57.68-.43.7-.4.59.46-.08.41-.17,1.1-.56,1.77-.19.32-.4.7-.7,1.01-.3.3-.65.59-1.05.81-1.4.81-2.93,1.41-4.55,1.64-1.62.17-3.3.06-4.92-.4-1.61-.44-3.18-1.28-4.44-2.37-1.25-1.11-2.24-2.44-2.95-3.9-.84-1.75-1.45-3.66-1.52-5.7-.06-2.04.53-4.2,1.78-5.86,1.34-1.83,3.43-3.12,5.61-3.53,2.18-.43,4.4-.15,6.38.76,2.32,1.04,4.12,2.93,5.76,3.01.62.06,1.34-.11,2.01-.39.18-.07.36-.24.54-.46.17-.24.33-.54.44-.89.49-1.39.54-3.12.43-4.77-.09-1.29-.32-2.57-.63-3.83-.29-1.26-.66-2.49-1.06-3.7-.18-.53-.4-1.04-.58-1.56-.34-.97-.56-1.58-.57-2.07.02-.51.2-.89.48-1.32.12-.19.21-.42.32-.57.2-.27.52-.29,1.05-.07.52.22,1.13.73,1.54,1.52,1.28,2.3,2.1,4.76,2.66,7.35.24,1.3.4,2.63.47,4,.06,1.37.04,2.78-.21,4.29-.2,1.11-.48,2.33-1.4,3.66-.47.65-1.22,1.35-2.14,1.72l-.88.3c-.32.08-.64.16-.97.22-1.34.24-2.99-.01-4.1-.58-1.14-.55-1.96-1.11-2.71-1.58l.04-.08Z"/><path class="cls-2" d="M92.12,79.14c3.4-2.68,7.25-4.69,11.29-6.04l1.1-.39,1.13-.33c.75-.22,1.51-.45,2.28-.55,2.72-.5,5.48-.6,8.19-.39,2.72.21,5.41.72,7.99,1.59,2.28.79,4.53,1.75,6.6,3.05,1.31.85,2.56,1.86,3.57,3.11.25.31.48.64.71.97.23.33.38.71.56,1.07.17.37.37.71.49,1.09.11.39.15.8.22,1.19.13.99-.15.89-.93.38-.82-.52-2.06-1.3-3.16-2.25-.25-.21-.46-.45-.69-.68-.25-.21-.52-.41-.77-.61-.5-.42-1.06-.77-1.59-1.17-1.08-.77-2.28-1.4-3.53-1.97-2.51-1.12-5.25-1.87-8.08-2.33-3.4-.6-7.06-.17-10.45.68-3.75.95-7.41,2.54-10.67,4.72-1.97,1.39-3.86,2.93-5.47,4.74-2.47,2.7-4.48,5.89-5.63,9.36-.9,2.7-1.14,5.5-1.18,8.26.03.61.08,1.21.09,1.82-.03,1.14.09,1.88-.08,2.43-.18.55-.45.88-.87,1.18-.19.14-.37.31-.55.4-.31.15-.62,0-.93-.41-.31-.41-.65-1.1-.8-2.01-.15-.67-.18-1.36-.24-2.06-.04-.69-.12-1.4-.11-2.11.07-1.41.08-2.86.38-4.29.19-1.45.62-2.85,1.04-4.27.22-.7.53-1.38.8-2.07.14-.34.28-.69.43-1.03l.51-.99c2.02-3.93,4.92-7.37,8.29-10.15l.06.06Z"/><path class="cls-2" d="M92.42,193.82l-1.69,1.23-1.64,1.3c-1.11.85-2.15,1.79-3.2,2.72-.78.66-1.43,1.46-2.19,2.16-2.6,2.5-5.28,5-7.66,7.76-1.08,1.2-2.09,2.49-3.08,3.76-1.24,1.66-2.39,3.38-4,4.79-.53.42-.52.33-.45-.29.03-.64.16-1.78.66-2.91,1.07-1.86,2.22-3.68,3.46-5.44.59-.9,1.31-1.71,1.99-2.54.69-.83,1.43-1.63,2.18-2.4,1.79-1.88,3.49-3.98,5.39-5.84,1.02-1.05,2.14-2,3.2-2.99,1.11-.95,2.22-1.9,3.37-2.82l2.15-1.64c.72-.55,1.47-1.04,2.2-1.57,2.23-1.58,4.63-2.92,6.97-4.29.93-.5,1.84-1.02,2.74-1.57.9-.54,1.85-1,2.79-1.49.42-.21.81-.46,1.26-.61,1.64-.61,2.25-.55,2.87.28.14.19.31.37.41.57.36.68-.11,1.5-1.16,2.07-3.12,1.72-6.4,3.27-9.58,5.21-1.18.71-2.35,1.46-3.52,2.21-1.13.81-2.32,1.54-3.41,2.42l-.06-.07Z"/><path class="cls-2" d="M174.07,185.62c1.38,1.15,2.75,2.35,4.11,3.56.5.44,1.04.83,1.52,1.29,1.7,1.63,3.25,3.44,4.66,5.35.31.43.63.85.95,1.26.31.43.62.85.92,1.28.41.53.7,1.15,1.03,1.74.07.15.16.3.22.46,0,.19,0,.38.04.55.08.33.16.66.23,1,.08.42-.15.45-.6.28-.46-.17-1.11-.53-1.83-.93l-1.19-1.43c-.39-.48-.72-.99-1.11-1.48-.78-.98-1.56-1.96-2.36-2.96-.98-1.2-2.24-2.21-3.47-3.23-1.32-1.16-2.69-2.28-4.08-3.4-.87-.68-1.72-1.37-2.61-2.02-1.33-1-2.66-2.03-4.05-2.95-1.07-.72-2.28-1.22-3.38-1.89-.24-.15-.5-.27-.73-.43-.8-.69-.92-1.11-.64-1.86.06-.17.11-.35.19-.51.26-.52.91-.67,1.71-.47,2.33.64,4.23,2.07,6.2,3.46,1.45,1.05,2.87,2.17,4.3,3.29l-.05.07Z"/><path class="cls-2" d="M72.32,249.48c-.17.94-.39,1.88-.78,2.84-.1.24-.2.48-.33.72-.15.34-.4.65-.6.97-.25.28-.48.58-.77.78-.27.24-.6.35-.91.52-.17.06-.34.08-.52.11-.18.03-.35.07-.53.04-1.15-.05-2.1-.86-2.68-1.95-.29-.57-.37-.81-.49-1.16-.11-.33-.2-.66-.28-.98-.17-.64-.29-1.27-.41-1.9l-.68-3.7c-.21-1.08-.52-2.13-.85-3.13-.43-1.28-.96-2.54-1.69-3.29-.26-.18-.31-.39.19-.57.24-.08.64-.09,1.08.04.22.07.44.16.65.29.17.14.38.31.51.51,1.01,1.38,1.6,2.77,1.99,4.21.41,1.42.71,2.84.96,4.25.15.84.38,1.67.68,2.46.14.39.32.76.47,1.12l.14.29c.03.06.07.13.11.19.11.2.36.35.59.24.22-.08.38-.27.52-.52.24-.46.42-1.01.57-1.58.26-1.07.4-2.2.43-3.35.03-1.73-.1-3.51-.58-5.17-.38-1.28-1.04-2.44-1.79-3.42-.16-.22-.36-.4-.52-.61-.63-.74-.71-1.02-.36-1.78.08-.17.14-.35.24-.51.28-.54,1.04-.62,1.83.02,1.14.93,2.01,2.18,2.61,3.49.61,1.32.99,2.72,1.23,4.14.34,2.1.36,4.23.07,6.39h-.07Z"/><path class="cls-2" d="M102.66,259.06c-1.22-.08-2.44-.16-3.67-.19-.45-.01-.89.06-1.34.04-1.58-.04-3.19-.26-4.79-.35-.71-.05-1.42,0-2.12-.03-.9-.03-1.83.11-2.72-.47-.28-.11-.23-.2.01-.41.12-.12.29-.2.49-.51.2-.22.43-.34.68-.44.88-.19,1.77-.44,2.66-.52.9-.08,1.81-.13,2.73-.07,1.1.04,2.24-.15,3.36-.2,1.24-.04,2.49-.05,3.73-.06l2.31.02c1.17,0,2.34.07,3.51.03.91-.03,1.8-.25,2.75-.32.21-.02.41-.07.62-.06.8.03,1.01.36,1.02,1.24,0,.2.01.4,0,.6-.06.67-.45,1.19-.94,1.36-1.47.41-3.02.45-4.63.46-1.21,0-2.42-.01-3.64-.02v-.08Z"/><path class="cls-2" d="M129.67,311.1l-.02-5.75c0-.7-.11-1.4-.11-2.1l-.02-3.72c.01-1.24.03-2.49.01-3.73-.01-1.1-.09-2.2-.18-3.29-.02-.7-.06-1.4-.06-2.11.05-.71.21-1.42.32-2.13.09-.44.12-.39.33-.03.18.36.7,1,1.07,1.78.21.7.34,1.4.51,2.1.14.7.21,1.41.29,2.12.16,1.42.27,2.85.29,4.29,0,1.73.29,3.5.43,5.27.13,1.94.25,3.88.3,5.83l.08,3.6c.05,1.82.02,3.64.11,5.45.08,1.4.25,2.78.31,4.19.01.31.06.61.05.92-.06,1.16-.33,1.51-1.09,1.71-.17.05-.33.11-.49.13-.5.08-1.04-.42-1.24-1.24-.28-1.22-.47-2.46-.63-3.71-.1-.63-.11-1.26-.14-1.9-.02-.64-.04-1.28-.07-1.92-.05-1.91-.1-3.83-.15-5.75h.08Z"/><path class="cls-2" d="M144.58,383.7c-2.88-.1-5.76-.15-8.65-.18h-.8c-.45,0-.94.04-1.36-.02-.4-.09-.84-.14-1.21-.26l-.27-.1c-.04-.09-.12-.16-.17-.24-.11-.16-.22-.3-.32-.49-.34-.6-.41-1.57-.53-2.21l-.17-1.41c-.1-.94-.18-1.87-.25-2.81-.14-1.87-.26-3.73-.34-5.6-.04-1.66-.14-3.32-.22-4.97-.06-1.06-.07-2.13-.01-3.2.03-.53.08-1.07.15-1.61.03-.13.02-.27.09-.4l.22-.39c.15-.26.31-.51.43-.77.31-.63.25-.54.47.03.11.29.42.7.87,1.19.23.24.24.49.35.76.09.27.15.55.18.84.28,2.07.43,4.15.58,6.25.2,2.09.2,4.22.22,6.36,0,1.28.14,2.58.32,3.87l.14.96.1.62c.05.18.03.51.3.45l.36.03,1.04.02,2.17.04,4.35.06,5.36.05c2.71,0,5.43.08,8.12.03,2.09-.04,4.15-.26,6.23-.38.46-.02.91-.07,1.37-.08,1.72,0,2.27.24,2.57,1.22.07.21.17.41.2.6.12.6-.61,1.33-1.83,1.42-3.65.45-7.51.49-11.4.49-2.89-.03-5.8-.06-8.7-.09v-.08Z"/><path class="cls-2" d="M201.74,342.69c-3.11-.03-6.23-.04-9.34,0-.57.01-1.13.05-1.69.08l-.41.02h-.1s-.21,0-.21,0c-.06,0-.13-.01-.2-.01-.13.02-.08.19-.12.3l-.03.2s-.01.05-.01.12v.35s-.09,2.84-.09,2.84c-.06,1.9-.07,3.8-.17,5.7-.1,1.79-.12,3.59-.17,5.37-.02,1.14-.08,2.29-.19,3.44-.06.57-.13,1.15-.22,1.72l-.15.86c-.06.28-.17.56-.26.84-.27.69-.38.57-.66-.06-.33-.64-.79-1.75-.89-3.04-.22-2.29-.35-4.58-.46-6.89-.05-1.15-.13-2.31-.11-3.47.03-1.16.08-2.32.15-3.49.06-1.07.06-2.17.04-3.27l-.02-.83c-.02-.43-.03-.92-.03-1.37-.01-.46.03-.92.19-1.26l.22-.5c.04-.08.07-.16.11-.25l.02-.03c-.06-.08,0-.03-.01-.05l.05-.04.11-.08c.45-.15.96-.27,1.43-.4.48-.12,1.1-.11,1.62-.15,3.18-.12,6.34-.08,9.5-.08l5.83.04c2.94.02,5.9.08,8.82.05,2.27-.04,4.51-.23,6.78-.31.5-.02.99-.05,1.5-.04,1.87.02,2.49.37,2.78,1.32.07.22.16.44.19.66.09.73-.72,1.26-2.02,1.35-3.94.37-8.11.41-12.32.41-3.13,0-6.27,0-9.42.04v-.09Z"/><path class="cls-2" d="M326.61,213.16l4.8.19c.58.02,1.17-.06,1.75-.04,2.06.11,4.12.2,6.19.35.91.05,1.83,0,2.74-.04.58-.05,1.16-.06,1.75-.05.59.07,1.18.25,1.76.43.37.13.33.41.04.84-.29.41-.83,1.12-1.49,1.46-1.17.37-2.36.4-3.55.45-1.19.02-2.38.03-3.59-.16-1.44-.21-2.92,0-4.39,0l-4.84-.07-3-.06c-1.52-.02-3.04-.15-4.56-.17-1.18-.02-2.35.12-3.54.11-.26,0-.52.03-.79,0-.49-.05-.8-.13-1-.33-.19-.23-.27-.53-.31-.94-.02-.18-.05-.36-.04-.53,0-.28.12-.52.33-.76.21-.23.51-.45.84-.48,2.02-.31,4.06-.32,6.16-.33,1.56-.03,3.14.03,4.74.04v.08Z"/><path class="cls-2" d="M366.51,196.46l-2.94-3.5c-.36-.42-.78-.79-1.14-1.22l-1.84-2.31-1.76-2.38c-.52-.7-1.11-1.34-1.64-2.03-.34-.44-.7-.86-1.03-1.31-.3-.48-.53-1-.77-1.53-.13-.34.06-.43.49-.4.42.04,1.15.12,1.73.45.45.34.88.71,1.3,1.08.42.37.87.72,1.21,1.15.74.83,1.45,1.69,2.11,2.61.77,1.12,1.82,2.06,2.75,3.08l3.04,3.41,1.89,2.1c.96,1.05,1.9,2.14,2.91,3.12.79.77,1.7,1.4,2.54,2.11.19.16.39.28.57.46.64.64.7.98.17,1.71-.11.16-.21.32-.32.46-.36.44-1.11.62-1.66.25-1.71-1.03-3.16-2.42-4.59-3.88-1.06-1.08-2.09-2.22-3.11-3.35l.05-.06Z"/><path class="cls-2" d="M380.18,192.23c.98-1.27,1.95-2.58,2.89-3.92.34-.48.59-1.03.94-1.52,1.31-1.67,2.62-3.35,3.93-5.02.59-.74,1.11-1.53,1.63-2.3.34-.49.64-1.01,1.03-1.47.38-.47.8-.91,1.23-1.35.27-.27.41-.12.47.29.05.41.1,1.12-.11,1.79-.38,1.19-.93,2.26-1.44,3.37-.53,1.1-1.1,2.17-1.87,3.13-.91,1.16-1.46,2.61-2.28,3.88-.9,1.39-1.86,2.76-2.82,4.12l-1.81,2.5c-.9,1.27-1.93,2.46-2.83,3.73-.71.97-1.27,2.04-1.96,3.04-.15.22-.27.46-.46.65-.67.73-1.12.75-1.84.37-.16-.09-.33-.16-.47-.26-.24-.16-.38-.4-.45-.7-.07-.3-.07-.67.07-1,.37-1.04.92-1.92,1.48-2.82.56-.9,1.17-1.77,1.78-2.66.89-1.32,1.88-2.6,2.81-3.93l.08.05Z"/><path class="cls-2" d="M408.63,149.05c.07-1.32.12-2.65.14-3.98,0-.49-.07-.97-.06-1.46.09-1.72.22-3.46.29-5.18.04-.77-.03-1.53,0-2.3.02-.98-.1-1.96.32-2.94.11-.3.36-.26.71,0,.18.13.39.31.61.52.23.22.41.47.45.74.16.98.42,1.94.43,2.93.02.98,0,1.97-.1,2.97-.12,1.2.13,2.42.16,3.65.03,1.34.02,2.7.01,4.05l-.04,2.51c0,1.27-.1,2.54-.08,3.8,0,.98.19,1.96.23,2.95,0,.22.06.44.04.66-.05.82-.29,1.05-1.13,1.11-.19.01-.38.04-.57.03-.64-.02-1.13-.4-1.25-.97-.4-1.69-.35-3.39-.32-5.14.01-1.3.09-2.62.09-3.95h.07Z"/><path class="cls-2" d="M405.44,352.74c-.84-.45-1.67-.94-2.46-1.48-.75-.6-1.55-1.12-2.21-1.83-.5-.49-1.07-.89-1.48-1.48-.8-.95-1.39-2.05-1.93-3.14l-.59-1.74c-.16-.58-.23-1.2-.35-1.78-.13-.52-.12-1.06-.17-1.58-.01-.53-.15-1.05-.05-1.57.08-.67.09-1.34.22-1.99,0-.17.22-.3.32-.45l.22-.45c.15-.29.29-.58.45-.88.2-.36.22-.29.31.08.05.19.13.45.23.76.06.18.11.34.16.49.04.17.1.35.28.55.18,1.23.16,2.34.33,3.46.01.57.18,1.1.3,1.66.07.27.08.56.19.83.1.27.19.54.27.81.17.68.59,1.27.96,1.87.39.6.95,1.09,1.39,1.66,1.15,1.09,2.37,2.19,3.84,2.92l.66.37c.22.12.46.2.7.3.47.19.93.41,1.42.57,1.47.45,3.01.85,4.56.86.6-.02,1.2-.02,1.78-.12l1.73-.35c.25-.04.49-.17.74-.22.93-.23,1.27-.04,1.67.73.09.18.2.35.27.53.25.59-.04,1.22-.8,1.56-1.11.55-2.34.79-3.61.98-.63.07-1.28.06-1.92.05-.65,0-1.29-.09-1.93-.2-.48-.08-.96-.14-1.42-.25l-1.4-.4c-.94-.23-1.81-.69-2.71-1.04l.03-.07Z"/><path class="cls-2" d="M462.81,397.5c-.76-2.42-1.3-4.92-1.52-7.47-.1-1.27-.17-2.55-.12-3.84.02-1.3.12-2.44.2-3.66.33-4.82.83-9.57,1.06-14.28.17-3.44.07-6.86-.14-10.26-.36-5.98-1.56-11.91-3.83-17.43-2.25-5.48-5.62-10.64-10.39-14.06-4.21-2.99-9.55-4.51-14.74-4.44-3.35,0-6.68.69-9.83,1.81-1.59.54-3.12,1.22-4.63,1.96-1.47.81-2.92,1.67-4.39,2.55-1.9,1.04-1.72.88-.69-.76.24-.44.59-.9,1.02-1.44.39-.58.93-1.11,1.55-1.67.62-.57,1.31-1.16,2.12-1.68.79-.57,1.69-1.05,2.66-1.52,6.93-3,15.06-3.5,22.33-.92,1.82.61,3.56,1.46,5.24,2.47,1.62,1.08,3.17,2.26,4.51,3.63,2.72,2.71,4.87,5.87,6.54,9.21,1.96,4.02,3.48,8.29,4.49,12.7,1.01,4.41,1.52,8.95,1.61,13.4.11,4.91-.24,9.79-.62,14.6-.19,2.41-.38,4.8-.53,7.19l-.1,1.79c-.03.59-.02,1.15-.04,1.73.02,1.15.08,2.3.24,3.44.72,5.65,2.96,11.14,6.32,15.78l.98,1.3,1.05,1.24c.35.41.75.78,1.12,1.18.19.19.37.4.57.57l.7.63c.6.55,1.28,1.07,1.9,1.57l.95.76c.14.13.36.25.42.38l-.52.34-3.9,2.57c-3.74,2.48-7.5,5.01-11.46,7.21-3.07,1.72-6.26,3.23-9.65,4.29-3.37,1.07-7,1.62-10.58,1.44-1.58-.07-3.11-.2-4.66-.47-2.88-.49-4.68-1.07-5.9-1.6-1.22-.51-1.86-1.01-2.33-1.59-.22-.26-.52-.53-.63-.75-.39-.71,2.06-.74,6.06-.03,2.95.55,5.91.95,8.84.92,2.92-.05,5.81-.53,8.65-1.45,5.7-1.81,11.07-5.17,16.42-8.72l2.99-2,.7-.47h0s.01,0,.01,0c0,0,.02,0-.01-.03l-.64-.58-.68-.7c-.46-.46-.91-.93-1.32-1.43-3.43-3.9-5.92-8.5-7.5-13.39l.08-.04Z"/><path class="cls-2" d="M347.39,413.38c-1.52,1.17-3.02,2.41-4.43,3.75-.53.48-.96,1.04-1.47,1.54-1.82,1.73-3.57,3.55-5.27,5.43-.76.83-1.43,1.74-2.09,2.64-.42.58-.79,1.2-1.26,1.75-.23.28-.46.56-.7.82-.23.27-.59.47-.91.68-.49.21-.53.1-.68-.47-.08-.29-.15-.67-.22-1.12-.03-.42.06-.83.24-1.22.67-1.35,1.56-2.54,2.43-3.76.89-1.2,1.85-2.36,2.97-3.39,1.31-1.26,2.41-2.78,3.68-4.12,1.4-1.47,2.88-2.88,4.42-4.22l1.43-1.22,1.47-1.18c.73-.61,1.52-1.14,2.28-1.72.78-.55,1.57-1.07,2.32-1.64.61-.41,1.18-.86,1.75-1.33.58-.45,1.17-.89,1.77-1.32.26-.19.51-.41.8-.56,1.06-.61,1.54-.52,2.16.23.14.17.3.33.42.51.39.58.24,1.4-.39,1.96-1.89,1.66-3.98,3.02-6.04,4.56-.77.56-1.54,1.13-2.32,1.68-.75.6-1.54,1.15-2.28,1.78l-.06-.06Z"/><path class="cls-2" d="M420.96,421.54c1.1,1.33,2.21,2.65,3.23,4.04.52.69,1.05,1.37,1.55,2.07l1.47,2.12c.74,1.02,1.47,2.04,2.14,3.1,2.31,3.78,4.3,7.74,5.99,11.8.41.89.77,1.8,1.14,2.7.37.9.76,1.8,1.08,2.71.41,1.17.83,2.35,1.24,3.52.16.6.28,1.22.4,1.83l.17.92c.05.31.03.64.05.95,0,.8-.13.72-.69.21-.63-.5-1.58-1.44-2.16-2.71l-1.46-3.39c-.46-1.14-1.06-2.22-1.48-3.37-.44-1.15-.98-2.25-1.47-3.38-.47-1.14-1.01-2.25-1.53-3.38-.32-.67-.63-1.36-1.01-2.01-.38-.65-.78-1.3-1.18-1.95-.78-1.31-1.69-2.55-2.51-3.83-.9-1.41-1.92-2.74-2.87-4.12-1.04-1.31-2.02-2.68-3.11-3.96l-2-2.37-2.11-2.28c-1.06-1.16-2.21-2.23-3.32-3.35-1.14-1.08-2.32-2.12-3.51-3.13-.95-.75-1.93-1.46-2.9-2.15-.99-.67-2.01-1.3-3.01-1.96-.44-.29-.89-.54-1.34-.83-1.65-1.07-2.01-1.64-1.83-2.67.03-.22.04-.46.09-.64.16-.58,1.26-.75,2.59-.06,3.94,2.02,7.69,4.85,11.13,8.01,1.3,1.15,2.51,2.41,3.75,3.63,1.18,1.29,2.4,2.53,3.53,3.86l-.06.06Z"/><path class="cls-2" d="M287.18,243.41c.01,1.87.04,3.75.12,5.64.03.69.15,1.37.16,2.06l.07,3.67-.06,3.69c0,1.09,0,2.19-.01,3.27-.02.7.01,1.4-.1,2.09-.16.7-.42,1.38-.54,2.07-.11.43-.15.36-.29,0-.1-.25-.21-.52-.31-.76-.15-.31-.37-.68-.53-1.07-.07-.17-.16-.35-.21-.52l-.08-.52-.15-1.03c-.11-.69-.22-1.37-.3-2.06-.1-1.38-.17-2.76-.16-4.17.03-1.69-.25-3.43-.38-5.16-.13-1.9-.25-3.81-.33-5.73l-.13-3.54c-.06-1.79-.03-3.6-.09-5.38-.01-.69-.07-1.38-.14-2.07l-.15-2.08c-.02-.31-.05-.61-.04-.92.03-1.15.32-1.49,1.29-1.63.18-.04.35-.09.48-.11.23-.03.42.08.78.32.39.24.53.56.61.97.18,1.19.33,2.41.38,3.63.11,1.23.1,2.46.12,3.71.01,1.85.02,3.73.09,5.61h-.08Z"/><path class="cls-2" d="M255.72,289.09c-.11,2.3-.17,4.63-.19,6.96,0,.85.08,1.7.07,2.55-.08,3.02-.16,6.04-.23,9.05-.06,1.34-.04,2.69-.04,4.03.01,1.71.14,3.46-.59,5.15-.43.5-.47.42-.99-.07-.51-.49-1.19-1.33-1.3-2.29-.19-3.39-.31-6.82.03-10.32.18-2.09-.05-4.26-.08-6.41-.03-2.36-.02-4.72.01-7.1l.07-3.08.26-1.12c.22-.34.6-.48.97-.62.71-.22,1.65-.27,2.26-.29.57-.02,1.13-.02,1.69-.02,1.11,0,2.21,0,3.31.01,1.7-.02,3.37-.21,5.05-.32.37-.02.73-.08,1.1-.09,1.37-.03,1.79.18,2.09,1.1.07.2.15.4.19.59.14.62-.44,1.3-1.46,1.46-3.03.55-6.18.53-9.28.55l-1.45.02-1.25.03c-.08-.01-.11-.05-.14,0v.02s-.02-.06-.02.19h-.08Z"/><path class="cls-2" d="M165.3,79.11c4.13,2.73,7.69,6.29,10.16,10.53.93,1.52,1.78,3.1,2.43,4.77,2.24,5.91,2.44,12.51.52,18.38-.84,2.61-2.04,5.14-3.76,7.3-2.11,2.82-5.38,4.93-8.86,5.35-1.09.12-.96-.13-.22-.77.73-.67,2.01-1.65,3.41-2.69,1.28-.88,2.36-1.98,3.34-3.16.95-1.21,1.72-2.57,2.36-4,.59-1.45,1.11-2.95,1.41-4.53.19-.78.28-1.58.43-2.37.08-.8.2-1.6.23-2.42.28-3.91-.97-7.89-2.73-11.45-.98-1.96-2.21-3.81-3.58-5.54-1.37-1.73-2.93-3.33-4.67-4.71-2.13-1.71-4.5-3.15-7.04-4.16-3.82-1.56-8.09-2.01-12.09-1.08-3.11.7-5.88,2.31-8.17,4.33-.48.48-.97.92-1.41,1.44-1.7,1.84-2.2,2.44-3.28,2.44-.24,0-.51.05-.72,0-.36-.06-.5-.39-.44-.97.06-.58.35-1.39.96-2.29,1.75-2.71,4.38-4.94,7.39-6.52,3.03-1.53,6.48-2.43,9.95-2.43,2.57-.03,5.19.38,7.62,1.2,2.41.78,4.7,1.89,6.82,3.24l-.04.08Z"/><path class="cls-2" d="M50.31,153.53c-1.36-2.83-2.32-5.85-2.9-8.93-.58-3.08-.8-6.22-.59-9.34.11-1.13.2-2.27.36-3.4.23-1.12.34-2.26.7-3.35,1.08-3.88,2.85-7.53,5.15-10.77,1.14-1.63,2.44-3.13,3.79-4.57l2.12-2.06,1.2-.98c.41-.31.84-.58,1.26-.87,3.06-1.92,6.47-3.13,9.96-3.69,2.24-.36,4.55-.47,6.83-.11.57.08,1.14.18,1.7.34.56.16,1.14.24,1.65.57.53.25,1.04.52,1.52.86.47.34,1,.58,1.36,1.09.43.65.59.92.53.98-.06.06-.39-.07-1.05-.04-.65.02-1.51.03-2.48.1-1.01.16-2.02.18-3.09-.01-3.82-.45-7.91-.06-11.6,1.35-1.84.7-3.58,1.63-5.05,2.82-.76.62-1.52,1.4-2.3,2.08-.75.73-1.43,1.52-2.16,2.28-3.28,3.82-5.47,8.76-6.37,13.81-.52,2.77-.72,5.62-.49,8.46.24,2.83.83,5.65,1.75,8.36,1.15,3.33,2.82,6.5,4.94,9.33.78,1.09,1.69,2.08,2.58,3.09.96.94,1.9,1.91,2.96,2.73,2.07,1.71,4.35,3.18,6.8,4.23,3.78,1.7,7.86,2.43,11.89,2.39.89-.04,1.76-.07,2.65-.12,3.31-.25,4.35-.35,5.27.56.21.19.47.37.61.57.48.63-.8,1.61-3.45,2.14-3.91.74-8.14.68-12.27-.24-4.13-.91-8.14-2.7-11.67-5.15-2.62-1.82-5.02-3.98-7.06-6.43-2.04-2.45-3.77-5.15-5.16-8.01l.08-.05Z"/><path class="cls-2" d="M160.57,126.34c2.03,4.96,3.34,10.1,4.2,15.31.81,5.21,1.18,10.51.8,15.81-.26,3.85-.8,7.73-1.98,11.47-1.04,3.28-2.46,6.49-4.47,9.35-1.98,2.87-4.5,5.38-7.38,7.33-2.88,1.94-6.07,3.43-9.43,4.2l-1.25.34c-.42.09-.85.13-1.27.2l-2.55.37-2.57.09c-.43,0-.86.05-1.28.02l-1.28-.09c-6.04-.37-11.99-2.03-17.3-4.77-3.44-1.71-6.68-3.87-9.5-6.53-.75-.62-1.36-1.38-2-2.12l-.94-1.11-.83-1.21c-.27-.41-.55-.8-.81-1.21-.25-.41-.43-.88-.64-1.32-.41-.89-.85-1.75-1.05-2.71-.53-2.37-.38-2.01.8-.37,1.15,1.66,3.65,4.19,6.62,6.94,2.6,2.5,5.58,4.66,8.78,6.41.82.41,1.6.89,2.44,1.25l2.52,1.09c1.73.6,3.44,1.24,5.23,1.63,3.54.84,7.2,1.35,10.82,1.05,3.61-.26,7.18-1.06,10.5-2.6,3.94-1.84,7.44-4.8,9.93-8.55,2.46-3.77,4.08-8.12,4.95-12.61.96-4.94,1.19-10.05.82-15.12-.34-5.08-1.27-10.13-2.66-15.03-.89-3.01-1.96-5.96-3.32-8.76-.35-.69-.71-1.38-1.09-2.05-.41-.64-.77-1.34-1.23-1.93-.84-1.26-1.87-2.39-2.98-3.12-.37-.28-.99-.55-1.5-.82-.53-.27-1.07-.52-1.61-.77-1.08-.49-2.17-.96-3.28-1.37-2.21-.84-4.49-1.45-6.81-1.86-2.32-.4-4.67-.56-7.01-.46-.29,0-.58.03-.88.05l-.71.05c-.38-.03-.6.3-.78.6-.53.89-1.06,2.04-1.6,3.11-1.68,3.38-3.69,6.71-6.44,9.45-2.72,2.76-6.16,4.83-9.87,6.06-1.64.5-3.27.97-4.98,1.17-.79.13-1.52.16-2.18.2-.67.05-1.27.06-1.82.03-.55-.01-1.05-.03-1.5-.06-.45-.05-.85-.11-1.21-.17-1.45-.22-2.23-.66-2.84-1.2-.27-.24-.64-.49-.78-.72-.24-.38.27-.65,1.37-.82.55-.09,1.25-.12,2.07-.2.82-.05,1.78-.09,2.84-.18,3.14-.21,6.26-.78,9.14-1.91,2.89-1.11,5.5-2.83,7.69-5.05,2.2-2.22,3.94-4.92,5.45-7.92l1.18-2.34.34-.63.19-.33.1-.17.17-.26c.45-.69,1.06-1.37,1.86-1.65l.15-.05h.04c-.03-.12.01-.05.02-.07l.08-.02.31-.07c.2-.06.42-.07.63-.09l.87-.07c.46-.04.93-.07,1.39-.07.93-.04,1.86-.02,2.79.02,5.54.24,10.95,1.84,15.83,4.16.61.29,1.21.59,1.81.89l.45.23.22.12.28.17c.37.23.73.47,1.09.72.57.53,1.23,1.05,1.67,1.62l.73.85.63.87c1.65,2.34,2.85,4.79,3.91,7.29l-.07.04Z"/><path class="cls-2" d="M76.48,247.91c.06-.01.11-.06.17-.13,0,.09.11-.33.17-.57.06-.28.12-.57.16-.87.18-1.19.21-2.48.15-3.75-.05-.93-.23-1.85-.35-2.77-.22-1.61-.59-3.24-1.25-4.56-.17-.32-.35-.62-.55-.86-.23-.28-.52-.61-.81-.88-.57-.59-1.22-1.1-1.89-1.58-1.21-.83-2.59-1.45-4-1.79-1.83-.44-3.68-.36-5.53.06-.6.09-.62-.06-.25-.56.33-.56,1.23-1.32,2.51-1.56,2.25-.42,4.57-.06,6.65.74,1.04.41,2.04.92,2.97,1.54.46.32.91.65,1.34,1.02.22.18.42.37.63.57l.3.29c.11.1.22.26.33.38.97,1.29,1.48,2.57,1.94,3.85.45,1.29.78,2.59.97,3.9.2,1.44.27,2.89.22,4.35-.03.73-.08,1.46-.19,2.2-.06.37-.12.74-.21,1.12-.04.2-.08.35-.15.59-.07.28-.16.52-.26.76-.43,1.13-1.14,2.07-2.18,2.41-.59.2-1.26.1-1.79-.19-.55-.27-1.02-.72-1.43-1.24-.14-.19-.29-.37-.41-.57-.14-.2-.25-.4-.33-.53-.17-.3-.33-.61-.48-.91-.3-.61-.56-1.22-.81-1.83-.5-1.22-.94-2.44-1.4-3.63-.66-1.81-1.76-3.16-3.1-4.42-.3-.27-.6-.54-.91-.81-1.13-1.05-1.38-1.54-1.04-2.41.07-.2.12-.41.22-.58.3-.57,1.19-.58,2.21.12,1.5,1.01,3.03,2.33,4.21,4.13.58.86,1.07,1.91,1.41,2.79.33.84.67,1.68,1,2.52.46,1.12.94,2.23,1.47,3.17l.1.17c.04.06.07.12.06.11v.02s0,.02,0,.04c0,.03.03.07.07.07.01,0,.02,0,.03,0l.04.1Z"/><g class="cls-3"><path class="cls-2" d="M136.03,354.34c1.4.03,2.81.03,4.19-.01.7-.02,1.38-.06,2.06-.11.33-.03.67-.06.98-.1l.46-.07.16-.02c.05,0,.1-.02.15-.05.08-.06.12-.16.15-.26l.05-.19.12-.49c.34-1.58.48-3.45.64-5.27.15-1.84.29-3.7.47-5.57.15-1.66.28-3.33.5-5,.16-1.06.24-2.16.61-3.21.17-.52.37-1.04.61-1.55.11-.25.25-.5.39-.74.14-.24.44-.42.63-.63.52-.51.62-.33.84.37.07.33.46.9.52,1.38.12.51.2,1.06.15,1.61-.51,3.89-.84,7.98-1.33,12.27-.16,1.28-.2,2.6-.25,3.96-.03.68-.06,1.37-.13,2.08-.04.36-.07.72-.15,1.1-.03.19-.07.37-.12.58-.06.26-.14.53-.24.78-.23.68-.63,1.27-1.18,1.7-.43.26-.89.44-1.38.56-.12.04-.24.07-.35.09l-.26.05c-.17.04-.33.06-.5.08-.66.11-1.3.17-1.93.23-1.27.11-2.52.18-3.78.22-1.81.06-3.62.07-5.42.03-2.73-.06-5.47-.28-8.18-.47-2.11-.15-4.21-.15-6.35-.47-.47-.06-.94-.11-1.41-.24-.87-.24-1.44-.49-1.77-.83-.32-.37-.42-.76-.43-1.21,0-.21-.03-.42,0-.59.05-.3.28-.5.66-.65.37-.14.9-.32,1.46-.23,3.44.21,7.14.5,10.92.62,2.8.1,5.64.11,8.46.13v.1Z"/></g><path class="cls-2" d="M112.55,342.26c.05-2.89.16-5.76.29-8.64l.02-.79v-.75c0-.52-.01-1.06.02-1.62.08-.98.15-1.97.52-3.13.2-.64.64-1.41,1.25-1.84.56-.43,1.06-.65,1.56-.86,1.96-.74,3.82-1.05,5.71-1.31,1.67-.19,3.34-.37,5.01-.48,1.07-.09,2.16-.06,3.25.07,1.09.23,2.17.69,3.15,1.39.3.24.37.43.3.48-.07.07-.27.04-.57.08-.3.03-.71.13-1.18.32-.48.19-1.01.47-1.56.65-.49.12-.97.11-1.47.2-.25.03-.49.06-.74.11l-.75.03c-1,.05-2,.14-3.01.24-2,.25-4.05.39-5.97.76-.56.11-1.11.28-1.53.49-.11.05-.18.1-.27.15-.03.04-.09.05-.12.1-.09.09-.1.12-.17.33-.28.9-.3,2.23-.35,3.49-.12,2.92-.27,5.75-.34,8.64-.04,1.77-.08,3.54-.06,5.3.02,1.33.03,2.67.1,4,.07,1.32.17,2.66.45,3.84.37,1.7,2.09,2.28,3.97,2.53.41.06.83.08,1.26.13.8.1,1.35.18,1.72.38.37.22.56.5.7.88.06.17.15.35.18.51.05.28-.12.5-.44.69-.33.19-.83.38-1.46.37-.94.02-1.92,0-2.97-.16-1.04-.17-2.18-.46-3.32-1.17-1.13-.71-2.16-2.06-2.45-3.42-.28-1.14-.41-2.15-.51-3.16-.29-2.99-.3-5.9-.33-8.82h.08Z"/><path class="cls-2" d="M125.79,360.02c-1.66-.05-3.31-.11-4.98-.2l-2.51-.11-1.27-.08-.64-.05-.99-.09c-.74-.08-1.52-.17-2.07-.51l-.39-.26c-.06-.05-.14-.09-.19-.14-.02-.04-.09-.04-.06-.11l-.05-.11-.39-.87c-.17-.27-.15-.68-.2-1.04-.04-.36-.08-.73-.1-1.1l-.08-1.25c-.09-1.66-.12-3.31-.17-4.96-.07-2.41-.23-4.81-.27-7.21l-.08-8.78-.05-4.4v-2.46s.01-.88.01-.88l.13-.81c.05-.26.16-.46.24-.7.09-.19.13-.48.31-.61.43-.14.87-.26,1.3-.4l1.52-.14c.58-.06.82-.05,1.17-.07l.99-.04,3.94-.12c3.76-.07,7.53-.23,11.25-.4,2.39-.1,4.78-.28,7.18-.32,1.2,0,2.4,0,3.6.03,1.2.01,2.4.16,3.6.25,1.5.15,1.31.57.08,1.22-.62.33-1.5.73-2.57,1.16-1.07.39-2.33.7-3.7.86l-1.69.19-1.69.1-3.38.2c-2.25.11-4.51.23-6.76.34-2.26.1-4.51.2-6.77.26l-3.38.05c-.53,0-1.3.03-1.2,0-.1-.02-.22-.04-.36-.05-.11.07-.1.24-.16.41-.02-.03-.04.47-.06.81l-.04,1.1c-.02.74-.03,1.48-.05,2.23-.03,1.49.03,3,.07,4.5.11,3.01.22,6.05.33,9.05l.34,9.9.03.88c0,.16.01.33.03.5.07.15.29.13.44.17.19.03.27.04.6.08,1.6.16,3.24.28,4.89.34,4.05.15,8.12.21,12.18.18,2.68-.02,5.37-.06,8.04-.17,1.33-.06,2.67-.13,3.98-.25.77-.08,1.01-.1,1.41-.17.17-.05.41-.05.51-.22,0-.19-.01-.39.02-.57v-.34s-.02-.18-.02-.18v-.3s0-1.18,0-1.18c.02-4.77-.18-9.44-.29-14.15-.02-1.04-.08-2.05-.09-3.1-.01-3.88.24-5.11,1.28-5.93.23-.19.45-.43.67-.54.72-.36,1.43,1.23,1.59,4.07.23,3.56.35,7.19.41,10.88.01,1.84.03,3.7.04,5.57,0,.93,0,1.87-.01,2.81v1.41s-.02.35-.02.35v.52s-.07,1.4-.07,1.4c.09.12.02.18,0,.25l-.07.21-.14.42c-.1.27-.16.58-.29.82-.37.49-.85.8-1.46,1.02-.61.22-1.3.33-1.99.42l-.76.09-.55.05c-3.44.29-6.76.36-10.12.4-3.35.03-6.69.01-10.03-.05v-.09Z"/><path class="cls-2" d="M177.98,393.99c-2-.22-4-.46-6.04-1-.75-.22-1.52-.37-2.37-1-.12-.11-.26-.24-.38-.38l-.28-.47c-.48-1.29-.68-2.41-.87-3.62-.18-1.18-.3-2.36-.38-3.54-.06-1.14-.12-2.28-.18-3.41-.03-.72-.07-1.45-.03-2.17.01-.36.03-.72.06-1.09.01-.36.19-.72.26-1.08.14-.45.08-.39.23,0,.08.19.22.46.43.78.16.32.26.7.33,1.11.41,2.9.69,5.75.94,8.62.12,1.23.46,2.57.9,3.6.05.08.05.11.19.2.11.08.29.17.47.25.77.33,1.73.54,2.67.7.95.17,1.92.29,2.9.39,1.2.12,2.42.21,3.63.27,1.84.09,3.7.16,5.53.12,1.43-.04,2.82-.21,4.23-.35.31-.03.61-.08.92-.1,1.16-.09,1.53.1,1.8.66.06.13.14.26.18.39.13.44-.34.83-1.19,1.01-2.53.45-5.21.52-7.91.48-2.01-.03-4.02-.15-6.04-.31v-.05Z"/><path class="cls-2" d="M180.66,391.78c2.67.02,5.34.05,8,0,1.33-.02,2.66-.05,3.98-.11l.49-.02c.1,0,.09,0,.14,0h.23c.22.06.2-.14.21-.28v-.17s0-.57,0-.57l-.02-1.46c-.02-.97-.04-1.95-.03-2.93l.05-10.35.03-5.18.02-2.59v-.64s.02-.31.02-.31c.02-.07-.04-.08-.09-.09l-.15-.02c-.17-.02-.35-.04-.53-.06l-.89-.06c-.76-.04-1.52-.07-2.28-.09-1.52-.04-3.04-.04-4.55-.02-3.88,0-7.76.24-11.6.31-1.19.04-1.14-.43-.19-1.15.47-.35,1.18-.76,2.05-1.14.87-.36,1.92-.63,3.06-.76,2.02-.21,4.04-.36,6.06-.46,2.02-.08,4.04-.05,6.07,0l1.52.06.84.04c.48.02.97.05,1.44.1.49.02.92.16,1.18.43l.35.41.16.19h.01c.53-.46.15-.12.27-.22h0s.02.03.02.03l.04.05.08.1c.45.56.36,1.65.39,2.56v1s.01.75.01.75v1.51c-.02,1-.02,2.01-.06,3.02-.16,4.82.12,9.82.13,14.75v2.04c-.03.47.04,1.91-.1,2.88-.06.24-.23.41-.34.57l-.18.24-.05.06-.03.03h0s0,.01,0,.01c-.04-.04.36.34.19.18h-.02s-.16.07-.16.07l-.63.26-.31.13-.41.04-1.63.14-1.03.06c-2.73.16-5.45.23-8.17.28-3.35.06-6.69.02-10.03-.02l-3.81-.09-2.07-.09c-.46-.03-.91-.05-1.34-.12-.42-.08-.76-.25-1.11-.38-.23-.05-.22-.29-.29-.46l-.13-.59c-.1-.38-.07-.87-.11-1.3,0-.22-.03-.44-.03-.67v-.52s0-.95,0-.95c0-1.26.02-2.52.03-3.78.03-3.9-.11-7.73-.07-11.61,0-.85-.01-1.69.03-2.56.18-3.2.55-4.26,1.67-4.79.24-.12.48-.29.69-.34.68-.15,1.23,1.15,1.21,3.41.03,3.41.06,6.91.09,10.45,0,3.47.02,6.98.02,10.5,0,0,0,0,0,.01h0s-.03,0,.09,0l.49.02.99.03,2,.05c2.68.05,5.38.06,8.07.04v.09Z"/><path class="cls-2" d="M276.56,293.86c-1.09-.2-2.18-.45-3.27-.76-1.1-.37-2.19-.63-3.34-1.59-.03-.03-.07-.05-.1-.09-.52-.51-.65-.97-.82-1.37-.16-.42-.25-.81-.33-1.21-.48-2.89-.47-5.65-.54-8.44,0-1.23,0-2.47,0-3.69l-.02-2.35c.03-.78.13-1.57.19-2.35.04-.49.09-.43.25-.02.14.41.49,1.16.71,2.05.22,1.59.38,3.19.53,4.77l.11,1.19.02,1.19c0,.79.02,1.59.03,2.39.03,1.89.3,3.91.79,5.62.11.37.3.73.37.82.47.35,1.19.71,1.96.93.77.25,1.58.44,2.4.59,1.28.26,2.59.43,3.9.59,1.99.22,4,.39,6,.48,1.55.06,3.08-.03,4.63-.06.34,0,.67-.03,1.02-.03.32,0,.58.02.8.05.22.04.39.14.54.21.29.16.45.35.57.6.05.11.13.22.16.33.1.33-.44.65-1.37.9-2.75.27-5.67.26-8.61.09-2.18-.17-4.38-.44-6.58-.81v-.05Z"/><path class="cls-2" d="M281.45,292.04c2.35.04,4.7.08,7.03.02,1.17-.03,2.33-.08,3.48-.15l1.72-.14.72-.07h.2c.06-.02.13-.03.2-.04.05-.03.02-.12.04-.18v-.17s0-.35,0-.35l-.07-1.44c-.05-.96-.11-1.93-.14-2.9l-.63-19.52v-.26s0-.1-.02-.13c-.04-.02-.08-.03-.13-.04l-.26-.05-.65-.09c-.74-.1-1.49-.18-2.24-.25-1.5-.14-3-.24-4.49-.3-3.83-.21-7.67-.16-11.46-.11-1.17.04-1.12-.4-.17-1.08.48-.33,1.18-.71,2.06-1.05.88-.32,1.93-.56,3.07-.63,2.75-.16,5.5-.23,8.23-.07,1.37.08,2.73.19,4.1.33l1.03.12,1.56.21.48.08.44.13c.18.01.22.17.31.27l.24.31.11.14.06.07v.02s.02,0,.02,0c.1-.08-.22.2.23-.19h0s.03.04.03.04c.08.09.14.2.21.31.11.24.2.53.22.85l.1,1.69.04.95.07,1.9c.04,1.27.08,2.54.09,3.81.03,4.78.48,9.72.67,14.61l.09,2.85c0,.36.02.73.01,1.08,0,.18-.02.35-.04.52-.03.16-.16.26-.23.38l-.23.33-.03.04-.02.02h0s0,.01,0,.01c.35.29.09.08.17.15h0s0,0,0,0l-.1.05-.21.1c-.28.13-.54.27-.84.38l-1.08.18-.54.09-.38.05-1.38.16c-.92.09-1.83.16-2.74.22-1.82.11-3.64.17-5.45.2-3.33.06-6.65-.04-9.97-.17-1.26-.05-2.51-.12-3.78-.2l-2.04-.16c-.45-.05-.91-.08-1.31-.19-.2-.06-.39-.12-.56-.2-.16-.09-.39-.12-.49-.28-.13-.37-.2-.77-.27-1.17l-.07-1.33v-1.95c-.02-1.25-.02-2.5-.02-3.74-.03-3.86-.23-7.64-.35-11.46-.03-.84-.08-1.66-.09-2.51-.02-3.14.19-4.13,1.16-4.8.21-.15.41-.35.6-.44.6-.3,1.34.99,1.49,3.29.56,6.81.58,14.03.68,21.16,0,.24,0,.14,0,.16h0s0,0,0,0c0,0,0,0,0,.01l1.58.11,1.98.11c2.64.13,5.3.2,7.96.21v.09Z"/><g class="cls-3"><path class="cls-2" d="M379.46,222.14c1.16-.03,2.32-.04,3.47-.15l1.72-.15c.13,0,.24,0,.37,0,.05-.22.07-.07.1-1.28.03-1.17-.06-2.35-.06-3.52.01-1.69-.07-3.37-.1-5.04-.02-.84-.07-1.67-.14-2.48-.04-.4-.09-.81-.16-1.19l-.12-.56c-.04-.2-.06-.22-.1-.34-.07-.18-.24-.2-.44-.29-.33-.12-.69-.24-1.06-.35-1.74-.51-3.59-.81-5.4-1.14-1.16-.2-2.33-.4-3.5-.6-1.17-.17-2.32-.45-3.48-.8-.72-.21-.63-.19.01-.37.32-.08.79-.25,1.35-.39.28-.07.59-.16.91-.2.32-.03.66-.04,1-.02,2.01.11,4.02.18,6.01.52,1,.16,1.99.34,3,.57.51.12,1.01.24,1.54.4l.41.13c.22.07.44.16.65.26.43.18.76.51.99.88l.24.54.12.27c.03.08.04.13.06.19l.19.74c.08.48.18.95.24,1.41.42,3.03.7,6.07.77,9.11.02.84.02,1.67.01,2.51v.63c-.02.28,0,.67-.06.97-.05.31-.06.65-.14.94-.09.27-.17.54-.28.81-.25.12-.51.23-.78.35-.28.1-.61.16-.91.22l-.91.13-.62.07-2.47.26c-2.03.22-4.07.4-6.11.51-3.09.15-6.2.14-9.29.11-2.4-.04-4.78.04-7.25-.29-.54-.08-1.09-.13-1.64-.28-2.05-.6-2.65-1.32-2.51-2.32.03-.23.04-.47.12-.67.13-.33.45-.51.84-.59.38-.06.87-.05,1.47.06,1.79.3,3.8.46,5.86.54,2.07.09,4.2.12,6.36.09,3.2-.02,6.44-.21,9.69-.28v.08Z"/></g><path class="cls-2" d="M367.83,226.23c-2.12-.16-4.24-.35-6.38-.63-.78-.1-1.57-.15-2.35-.33-.34-.06-.7-.16-1.04-.25-.35-.09-.7-.18-1.06-.32l-.54-.19c-.19-.08-.39-.2-.58-.3-.19-.1-.38-.2-.58-.42l-.28-.29c-.08-.1-.12-.19-.19-.29-.48-.78-.64-1.5-.79-2.21-.14-.71-.22-1.41-.28-2.1-.1-1.23-.22-2.44-.27-3.65-.02-1.55-.16-3.08.18-4.63.08-.48.05-.42.21-.03.08.2.22.48.41.81.09.17.21.35.29.55.06.2.12.41.16.63.27,1.55.58,3.09.72,4.61.19,1.5.41,3.04.78,4.3.06.17.12.38.2.49l.11.2s.07.05.09.09c.2.14.55.3.98.4.82.23,1.78.34,2.7.48,2.04.31,4.15.52,6.25.69,1.3.1,2.6.19,3.9.25,1.97.1,3.96.2,5.92.19,1.53,0,3.02-.15,4.54-.23.33-.02.66-.06.99-.06.31,0,.57,0,.79.02.22.04.39.14.53.22.29.16.45.35.58.59.06.11.14.21.17.31.11.3-.4.65-1.31,1-2.7.38-5.55.43-8.42.39-2.13-.03-4.27-.13-6.41-.23v-.06Z"/><path class="cls-2" d="M390.69,215.64l.03,4.43v2.23c0,.24-.01,1.06-.08,1.68-.04.32-.02.68-.1.95l-.22.83-.18.25c-.18-.02-.2.1-.31.14l-.53.35c-.41.21-.98.23-1.52.27-1.3.07-1.68.06-2.33.07l-3.63.03c-1.96,0-3.91.1-5.87.09-6.9-.05-13.76-.27-20.69-.5-.68-.02-1.5,0-2.1-.2-.29-.12-.42-.35-.7-.5l-.24-.9-.06-1.19-.02-.83-.04-1.57c-.03-1.05-.06-2.09-.08-3.14-.05-1.95-.11-3.91-.1-5.86,0-.98.07-1.96.14-2.93l.12-1.46c0-.24.11-.49.16-.73.08-.24.1-.49.23-.73.26-.6.38-.86.44-.84.06.02.1.32.37.83.24.52.74,1.25.94,2.13.26.88.48,1.91.56,3.02l.2,6.36.11,3.19.06,1.6v.4s.02.2.02.2c0,.07,0,.15,0,.13-.02.01-.02.02-.02.04-.06.08.01.09.08.12l1.29.11c.45.03.91.03,1.37.05,1.84.06,3.68.11,5.52.17,4.78.15,9.76-.06,14.65-.14l5.4-.1,2.69-.08.7-.02h.28s.09-.02.14-.03c.06,0,.03-.08.05-.11l.03-.54v-.38s.02-.66.02-.66l.02-2.66c0-3.31,0-6.62-.1-9.92l-.07-1.95-.04-.72c-.02-.17-.01-.35-.06-.53-.02-.13-.2-.13-.3-.17-.12-.03-.25-.05-.37-.07-.17-.03-.69-.09-1.14-.13-.91-.09-1.83-.15-2.75-.21-1.84-.11-3.68-.19-5.51-.23-3.86-.11-7.66.03-11.47.14-.84.03-1.66.09-2.51.1-1.57.02-2.6,0-3.32-.17-.73-.21-1.15-.5-1.5-.91-.16-.19-.37-.36-.46-.54-.16-.3.08-.57.65-.87.57-.3,1.47-.61,2.64-.7,3.45-.33,6.99-.46,10.58-.47,1.79,0,3.6.02,5.42.08,1.81.09,3.64.21,5.47.36.98.08,1.95.17,2.95.29l.75.09.46.05c.24.02.48.07.71.1.48.06.94.17,1.34.35.35.23.67.47.99.73.24.73.58,1.41.59,2.31l.1,1.55.12,2.63.16,5.22h-.08Z"/><path class="cls-2" d="M352.32,178.69c.13-.09.29-.19.46-.28.04-.02.05.02.15-.11.1-.11.2-.32.29-.52.18-.43.33-.95.44-1.48.09-.43.1-.88.17-1.32.22-1.57.5-3.2.6-4.84.05-.73.04-1.46.02-2.19-.06-.93.05-1.87.39-2.82.1-.3.06-.25.18-.01.06.12.18.29.34.5.1.12.19.23.26.33.05.06.08.12.15.18.02.07.04.13.06.2l.21.71.1.36.03.36c.04.48.07.96.09,1.44.04.97.02,1.94-.09,2.92-.11,1.17-.08,2.4-.25,3.61-.1.67-.22,1.34-.42,2.02-.22.68-.41,1.38-1.05,2.11-.18.19-.39.34-.61.46-.17.07-.37.24-.65.45-.14.11-.29.22-.48.33-.09.05-.2.11-.3.15l-.24.09c-1.25.48-2.55.58-3.77.7-.95.09-1.87.26-2.76.4-.2.03-.38.08-.58.1-.72.07-.94-.04-1.19-.59-.05-.13-.12-.25-.16-.38-.15-.42.12-.85.69-1.06,1.71-.65,3.48-.58,5-.8.57-.08,1.1-.18,1.6-.34.24-.08.54-.19.55-.2.12-.06.34-.27.71-.55l.04.04Z"/><path class="cls-2" d="M357.82,173.4l-.1,3.21-.07,1.61-.14,2.22c-.07.97-.26,1.85-.86,2.31l-2.46.49c-.22.03-.47,0-.71.01h-.53s-.8-.01-.8-.01l-1.6-.02c-1.55-.02-3.1.06-4.65.02l-8.21-.25-4.12-.16c-.36-.02-.62-.02-1.23-.08l-.78-.07c-.25-.04-.46-.13-.7-.19-.5-.08-.76-.53-.93-.96-.16-.45-.23-1-.28-1.49-.05-.48-.06-.77-.08-1.08l-.04-.93-.06-1.84c-.03-1.22-.06-2.44-.09-3.65.08-3.1-.13-6.24.85-9.31.32-.95.39-.81.74.03.43.84,1.19,2.35,1.33,4.11l.27,4.68c.07,1.56.07,3.12.13,4.66.02.77.05,1.54.1,2.28v.26s0,.07,0,.07c0,.06-.01.05-.01.08,0,.04-.03.11,0,.15.03.03.07.05.12.07l.04.02s0,.01.13.02l.58.05,2.35.18c3.78.28,7.73.03,11.61.01l3.2-.02h1.6s.72-.01.72-.01h.31s.32.02.32.02h.17c.07,0,.05-.08.07-.12.04-.2.06-.42.08-.64v-.19s.03-.39.03-.39l.03-.79.05-1.59c.08-2.62.13-5.25.14-7.87.01-1.81.02-3.62.03-5.42v-.42c-.02-.06.05-.17-.04-.19-.07-.02-.14-.03-.2-.03-.28-.03-.56-.05-.84-.06l-1.31-.03h-1.48c-3.06.01-6.08.25-9.11.42-.67.04-1.32.11-2,.12-2.5.06-3.29-.17-3.84-1.19-.12-.22-.29-.44-.36-.66-.24-.7.77-1.44,2.61-1.65,2.72-.35,5.52-.55,8.36-.65,1.42-.04,2.85-.1,4.3-.05l2.18.06,1.63.08c.7.05,1.43.1,2.01.31.21.08.41.17.52.35l.15.27.08.14v.02s.02,0,.02,0c.34-.32.09-.09.17-.16h0s.02.03.02.03l.05.05c.12.13.24.26.33.46.11.16.17.4.22.64.09.48.04,1.05.05,1.58v1.4s.03,3.22.03,3.22l-.03,6.45h-.09Z"/><g class="cls-3"><path class="cls-2" d="M402.27,179.85c-1.97-.26-3.96-.62-5.96-1.38-.36-.14-.74-.32-1.11-.47-.15-.04-.48-.28-.7-.45-.27-.19-.42-.39-.56-.58-.29-.36-.45-.69-.61-1.03-.18-.34-.26-.66-.38-.99-.2-.65-.36-1.28-.47-1.91-.24-1.26-.4-2.5-.52-3.74-.13-1.09-.21-2.19-.29-3.27-.07-1.39-.3-2.79.17-4.2.12-.43.15-.37.33,0,.1.18.24.43.45.73.09.15.22.31.3.48.06.17.12.36.16.55.26,1.37.56,2.72.85,4.07.25,1.35.42,2.71.65,4.05.13.8.37,1.59.69,2.3.28.71.78,1.37.96,1.47.62.32,1.48.64,2.34.83.86.22,1.77.36,2.68.46,1.13.14,2.28.21,3.43.25,1.75.03,3.52.06,5.26-.1,1.36-.12,2.67-.46,4-.73.29-.06.58-.15.87-.19,1.1-.18,1.48.03,1.8.86.07.19.16.37.21.56.17.62-.23,1.24-1.02,1.52-2.37.81-4.96,1.12-7.59,1.23-1.96.1-3.94-.05-5.94-.23v-.08Z"/></g><path class="cls-2" d="M398.55,181.26c-1.72-.28-3.64-.63-5.32-1.94-.59-.48-1.16-1.08-1.48-1.8-.57-1.3-.52-2.49-.57-3.54-.03-1.08-.03-2.16-.03-3.24,0-.96-.02-1.91-.03-2.86,0-.61,0-1.22.04-1.82.02-.3.04-.61.07-.91.01-.3.21-.6.3-.9.16-.37.13-.32.29,0,.08.16.23.39.44.67.16.28.22.59.26.94.26,2.43.39,4.83.47,7.28.05,1.49.25,2.99.96,3.78.74.96,2.21,1.47,3.76,1.7.95.15,1.97.21,3,.3,1.55.13,3.11.29,4.65.34,1.2.04,2.38-.07,3.57-.12.26-.01.52,0,.78.02.97.12,1.27.32,1.45.88.04.13.1.25.12.38.07.41-.34.75-1.07.94-.54.11-1.09.31-1.63.33-.55.04-1.1.07-1.65.08-1.11.02-2.23-.01-3.35-.06-1.68-.09-3.3-.18-5.04-.37v-.06Z"/><path class="cls-2" d="M403.92,178.99l5.87.08h5.19s.2.02.2.02c.06-.04.06-.11.08-.17.02-.1.03-.17.04-.31l.06-1.18.09-2.41c.12-2.44.19-4.91.24-7.38l.06-3.7v-1.85s0-.9,0-.9v-.41s.01-.29.01-.29c0-.05.01-.1-.01-.14-.04-.02-.09-.03-.13-.03-.18-.03-.37-.05-.56-.07l-.26-.02-.47-.02-.95-.04-1.92-.04c-1.28-.01-2.56,0-3.83.01-1.63.02-3.27.04-4.9.06-1.63.02-3.27-.04-4.9-.49-1.02-.26-.89-.43-.04-.96.43-.25,1.03-.7,1.77-1.01.37-.16.77-.36,1.2-.47.43-.09.88-.15,1.35-.17,2.62-.12,5.23-.19,7.86-.12,1.31.03,2.63.07,3.95.13l1,.06c.53.03,1.24.06,1.81.14.31.02.56.14.78.26l.44.55.05.07v.02c.11-.09-.21.21.24-.21h0s0,.01,0,.01l.03.03.1.13c.06.11.13.19.17.32.1.23.15.52.17.81l.03,1.93-.02,1.11-.07,2.22c-.17,4.05.04,8.24-.15,12.42l-.07,1.21-.05.61c-.02.27-.06.63-.1.94-.08.64-.22,1.27-.52,1.72-.07.12-.16.22-.27.32-.12.07-.27.08-.4.13l-.81.22-2.76.06-2.22.02h-4.44c-2.79-.04-5.59-.08-8.38-.12l-3.18-.08-3.33-.14c-.36-.03-.76-.03-1.11-.09-.19-.01-.35-.06-.5-.13l-.44-.17c-.08-.02-.13-.08-.23-.09-.03-.07-.07-.13-.09-.21l-.1-.49c-.04-.35-.08-.71-.1-1.06.03-1.16.06-2.32.09-3.47.06-3.27,0-6.48.09-9.72.02-.71.01-1.41.06-2.13.08-1.33.2-2.21.42-2.81.25-.6.55-.92.96-1.17.18-.11.37-.26.54-.32.29-.09.51.14.7.64.18.5.36,1.27.34,2.23.02,2.86,0,5.8-.05,8.77-.02,1.49-.05,2.99-.07,4.49-.03.75.03,1.5.04,2.25.02.36.01.26.02.27h0s1.21.05,1.21.05l3.37.09c2.25.05,4.51.09,6.77.1v.08Z"/><path class="cls-2" d="M355.84,324.78c-1.6,1.77-3.11,3.64-4.57,5.59-1.45,1.96-2.87,3.98-4.3,6.01-1.44,2.04-2.92,4.08-4.46,6.08-1.58,1.98-3.21,3.93-4.98,5.77-2.56,2.65-5.18,5.28-8.18,7.53-2.63,1.99-5.53,3.72-8.69,4.93-1.59.57-3.22,1.06-4.9,1.37-2.14.43-2.3.13-2.77.32l.16.85.46,2.19c.33,1.56.66,3.11,1.02,4.64.71,3.08,1.56,6.08,2.7,8.96,1.01,2.56,2.3,5,3.82,7.3.76,1.15,1.58,2.27,2.42,3.35.85,1.03,1.74,2.04,2.75,2.93,2.53,2.34,5.48,4.27,8.59,5.93,3.15,1.57,6.29,3.26,9.47,5.04,1.99,1.09,1.76.88-.18.65-.97-.12-2.38-.21-4.12-.32-.87-.06-1.75-.3-2.71-.53-.48-.11-.96-.27-1.46-.4-.48-.19-.97-.38-1.46-.62-1.74-.8-3.45-1.69-5.11-2.7-1.65-1.02-3.3-2.11-4.79-3.43-1.48-1.32-2.88-2.79-4.1-4.39-1.14-1.55-2.26-3.12-3.24-4.81-2.01-3.32-3.54-6.97-4.62-10.65-1.11-3.68-1.81-7.38-2.52-11.03-.3-1.55-.61-3.12-.91-4.68l-.27-1.37,1.38-.07,1.37-.07c.45-.03,1.03.06,1.5.03l.66-.04h.39c.26-.01.52-.06.78-.09.52-.07,1.05-.11,1.56-.24,1.04-.19,2.05-.56,3.05-.94,4.01-1.59,7.61-4.27,10.91-7.23,3.64-3.29,6.98-6.88,9.93-10.83,2.98-3.92,5.66-8.15,8.7-12.21,3.7-5.01,8.17-9.66,13.48-13.09,3.99-2.61,8.37-4.67,12.99-5.92,4.61-1.29,9.46-1.69,14.21-1.17,3.69.46,7.25,1.46,10.62,2.93,3.35,1.52,6.52,3.56,9.15,6.24,1.18,1.16,2.22,2.41,3.18,3.78,1.73,2.58,2.43,4.54,2.78,5.92.15.7.23,1.26.23,1.74-.04.49-.15.9-.28,1.26-.12.33-.21.74-.34.95-.23.34-.62-.04-1.2-.94-.58-.9-1.23-2.35-2.18-4.13-1.44-2.61-3.31-5-5.54-7.01-2.26-1.99-4.85-3.65-7.69-4.87-2.84-1.21-5.87-2.09-8.93-2.48-3.08-.38-6.23-.26-9.33.25-4.61.78-9.12,2.45-13.24,4.82-2.07,1.17-4.03,2.54-5.9,4-1.83,1.52-3.57,3.15-5.18,4.93l-.07-.05Z"/><path class="cls-2" d="M423.66,369.17c1.43.13,3.11-.08,5.08,0,.98.07,2.03.18,3.04.53.99.38,1.96.76,2.82,1.47l.48.35c.15.13.29.28.43.42.28.29.58.57.82.89.23.33.45.67.66,1.01.21.34.32.73.47,1.09l.18.49.1.5c.06.33.13.67.18,1,.02.66.1,1.32.01,1.95-.06,1.29-.42,2.48-.82,3.64-.93,2.25-2.24,4.4-4.57,5.78-1.87.98-3.88,1.7-6.02,1.86-1.36.11-2.78.04-4.1-.4-.66-.23-1.29-.52-1.87-.89-.3-.17-.56-.39-.8-.65-.24-.24-.48-.49-.68-.76-.52-.67-.21-.8.61-.83.4,0,.97-.05,1.57-.1.31-.04.58,0,.87.03.29,0,.57.07.86.12,1.98.49,4.06.47,6.1-.28.51-.18,1.01-.38,1.5-.63.12-.06.26-.12.35-.18l.26-.17c.18-.09.35-.23.53-.39.71-.62,1.39-1.47,1.92-2.43,1.31-2.3,1.36-5.45.06-7.31-.68-1.06-1.86-1.78-3.19-2.25-1.32-.44-2.9-.37-4.66-.32-1.08.03-2.22.04-3.39-.12-1.17-.14-2.33-.53-3.39-1.04-.4-.2-.8-.4-1.16-.65-.37-.24-.74-.48-1.07-.76-.34-.28-.68-.51-1.01-.89l-.49-.52c-.15-.18-.27-.39-.4-.58-1.05-1.59-1.4-3.42-1.47-5.13-.09-2.67.33-5.21,1.03-7.66.16-.54.3-1.07.5-1.6.36-.98.77-1.56,1.11-1.93.18-.18.36-.31.55-.39.22-.07.44-.1.65-.12.19-.02.38-.07.51-.06.38-.02.76,1.08.41,2.45-.46,2.07-.94,4.15-1.13,6.2-.1,1.02-.11,2.01-.12,2.96.05.93.21,1.79.48,2.5.14.23.2.52.38.71.07.1.14.21.21.32l.27.27c.12.18.45.41.72.63.27.24.56.4.85.59,1.15.74,2.34,1.08,3.76,1.17v.09Z"/><path class="cls-2" d="M352.25,389.52c1.15,3.57,2.97,6.93,5.49,9.73,2.49,2.82,5.58,5.16,9.01,6.9,2.5,1.27,5.2,2.15,7.92,2.81,2.4.57,4.88.93,7.24.82l3.73-.38c1.24-.15,2.44-.5,3.67-.74,4.85-1.22,9.45-3.44,13.51-6.47,3.61-2.68,6.73-6.05,9.42-9.63,1.78-2.28,3.29-4.77,4.77-7.26.72-1.26,1.46-2.52,2.14-3.81.36-.63.69-1.28,1.02-1.93.16-.33.37-.63.55-.95.21-.31.31-.66.59-.94.6-.74.87-1.06.91-1.01.05.05-.09.47-.13,1.3-.04,1.66-.61,4.6-2.1,7.75-2.69,5.52-6.17,10.78-10.67,15.17-4.42,4.44-9.93,7.95-15.97,9.9-3.58,1.28-7.41,1.84-11.25,2.25-4.04.22-7.9-.49-11.58-1.67-4.03-1.33-7.86-3.3-11.23-5.93-3.37-2.62-6.18-5.97-8.19-9.74-1.23-2.32-2.14-4.8-2.74-7.33-.6-2.54-.89-5.12-.97-7.7-.06-3.91.39-7.86,1.49-11.59,1.07-3.74,2.56-7.32,4.31-10.73,1.44-2.61,2.89-5.19,4.64-7.58.82-1.23,1.78-2.36,2.69-3.53.46-.58.99-1.11,1.48-1.67.5-.55.99-1.11,1.55-1.61.48-.46.95-.91,1.42-1.37.49-.44,1.02-.85,1.54-1.27,1.97-1.54,3.51-2.29,4.68-2.59,1.11-.4,1.93-.21,2.52,0,.28.1.61.17.77.28.27.19-.04.53-.72,1.06-.68.49-1.75,1.18-3.07,2.13l-1.48,1.06-1.41,1.21c-.48.38-.93.83-1.37,1.28-.44.45-.91.87-1.34,1.33-.83.97-1.74,1.86-2.51,2.9l-1.2,1.51c-.39.52-.75,1.06-1.13,1.58-2.97,4.24-5.53,8.91-7.2,13.86-1.3,3.65-2.1,7.47-2.21,11.27-.18,3.83.33,7.71,1.47,11.3l-.08.04Z"/><path class="cls-2" d="M387.42,342.34c-1.02.11-2.04.24-3.06.23-.51.01-1.02.03-1.53.03l-1.52-.07c-.74-.01-1.48-.02-2.22-.14-1.3-.14-2.57-.49-3.83-.79-1.24-.41-2.48-.79-3.66-1.35-.53-.22-1.06-.44-1.56-.73-.51-.26-1.02-.53-1.53-.79-.62-.4-1.25-.79-1.86-1.21-.56-.48-1.04-1.08-1.49-1.66-.27-.37.04-.58.61-.65.57-.05,1.42-.05,2.07.31.58.33,1.16.65,1.72.99.58.32,1.2.56,1.79.87,1.22.52,2.43,1.13,3.74,1.59,1.55.62,3.3.71,4.99.86.93.08,1.87.07,2.81.11.94-.07,1.88-.05,2.82-.18l1.73-.22c.57-.1,1.14-.24,1.7-.37,1.72-.39,3.39-1,4.94-1.79.59-.34,1.12-.74,1.66-1.14.53-.39.97-.9,1.46-1.33.21-.2.41-.4.59-.62.71-.79,1.18-.76,1.92-.37.17.09.36.17.52.28.53.35.56,1.05.06,1.85-1.64,2.21-4.15,3.81-6.79,4.79-.98.38-1.99.65-3,.95-1.02.2-2.03.49-3.06.61l-.02-.07Z"/><path class="cls-2" d="M425.32,404.83c-.78.29-1.59.42-2.38.5-.39,0-.8.03-1.17,0l-1.1-.08c-1.46-.18-2.97-.59-4.33-1.39-.98-.59-1.94-1.33-2.6-2.31-1.17-1.73-1.54-3.83-1.29-5.72.27-1.9,1.08-3.64,2.24-5.06,1.02-1.27,2.36-2.28,3.84-2.9.96-.37,1.97-.65,2.99-.67,1.02.07,2.01.26,2.92.64.57.22.43.38-.1.58-.76.28-1.57.58-2.37.87-.21.04-.4.13-.59.2-.19.05-.39.07-.58.14-.38.12-.75.24-1.09.41-.7.33-1.33.76-1.88,1.27-1.12,1.02-1.96,2.38-2.41,3.9-.25.91-.27,1.9-.04,2.81.24.91.7,1.72,1.35,2.35.71.7,1.65,1.22,2.71,1.51,1.04.28,2.31.42,3.36.3,1.33-.14,2.59-.71,3.53-1.69,1.43-1.46,2.21-3.73,1.95-5.84-.19-1.64-1.16-3.04-2.33-3.7-.26-.15-.54-.25-.82-.34-1.02-.38-1.39-.57-1.63-1.49-.06-.21-.14-.41-.18-.62-.06-.34.06-.64.39-.87.33-.24.87-.38,1.58-.33,1.05.09,2.13.52,3.06,1.19.93.67,1.69,1.59,2.21,2.59,1.04,2.02,1.22,4.3.82,6.42-.3,1.58-.98,3.1-1.99,4.42-1.03,1.3-2.44,2.39-4.03,2.96l-.03-.07Z"/><g class="cls-3"><path class="cls-2" d="M111.98,257.03c-.09-3.51-.15-6.95.18-10.58.03-.35.06-.59.13-1.08.09-.51.24-1.02.43-1.5.32-.46.71-.88,1.2-1.17.24-.15.49-.29.76-.39.23-.1.41-.16.61-.21,1.29-.38,2.44-.51,3.6-.62,1.15-.1,2.28-.17,3.4-.19,2.25-.05,4.47-.04,6.68-.06,1.97.01,3.93-.19,5.86-.23,1.24-.04,2.48-.18,3.71-.2.62.01,1.24-.02,1.87.04.63.07,1.26.13,1.9.15.8.06.71.08.11.48-.3.21-.72.52-1.25.92-.26.19-.55.43-.87.61-.32.16-.66.31-1.02.42-5.14,1.41-10.31,1.16-15.41,1.11-1.52-.02-3.07.07-4.58.23-.75.09-1.49.21-2.18.36-.34.08-.66.17-.95.26-.16.07-.18.06-.25.1-.06.03-.12.06-.17.1-.05.03-.09.08-.12.12-.03.06-.05.13-.07.19-.02.07-.02.11-.06.32-.05.36-.1.74-.14,1.14-.08.78-.12,1.59-.16,2.39-.07,1.62-.1,3.25-.09,4.88.02,2.11.08,4.23.22,6.35.21,3.2.49,6.42,1.08,9.53.46,2.41,1.19,4.74,2.12,6.86.22.45.44.9.69,1.3.42.81.72,1.14.84,1.51.12.29.1.63.13,1.02,0,.19.08.4.1.59.03.31-.16.53-.76.54-.32.02-.59-.11-1-.27-.36-.17-.69-.47-1.01-.8-.92-1.02-1.49-2.12-1.99-3.24-.51-1.12-.89-2.26-1.23-3.41-.66-2.3-1.1-4.66-1.45-7.02-.51-3.5-.77-7.03-.95-10.55h.08Z"/></g><path class="cls-2" d="M111.98,277.3c-.54-1.68-.59-3.23-.7-4.62l-.3-4.21c-.08-1.03-.24-2.04-.3-3.07-.18-3.63-.18-7.29-.21-10.93,0-1.62-.06-3.24-.08-4.84.05-2.06,0-4.14.5-6.17.15-.63.35-.53.65.02.3.56.81,1.56.89,2.72.08,1.03.18,2.06.28,3.09.08,1.03.11,2.06.16,3.09.1,2.06.2,4.14.24,6.23.03,2.51.52,5.08.71,7.64l.35,4.23c.13,1.4.2,2.87.38,4.15.22,1.61.73,3,1.87,3.82.85.65,2.02,1.02,3.24,1.26,1.22.23,2.56.35,3.86.47,2.03.18,4.04.17,6.06.24.44.01.88.02,1.32.07.83.07,1.36.21,1.72.45.36.22.56.49.7.86.06.17.15.34.18.49.11.52-.62.93-1.86,1.15-1.83.17-3.68.13-5.56.02-1.89-.11-3.74-.27-5.7-.49-1.48-.19-3.13-.45-4.81-1.33-.83-.44-1.65-1.05-2.29-1.83-.65-.78-1.09-1.66-1.38-2.5l.07-.03Z"/><path class="cls-2" d="M128.53,283.95l-7.84.04-3.93-.02-1.98-.03-1.56-.05-.8-.17c-.26-.06-.47-.15-.72-.23-.31-.36-.64-.68-.78-1.2-.14-.5-.23-1.08-.29-1.61l-.07-.63-.04-.48-.07-.95c-.09-1.27-.16-2.52-.22-3.77-.14-2.83-.33-5.64-.4-8.45-.13-4.96-.2-9.92-.25-14.88l-.04-7.45v-1.31c0-.24.03-.48.05-.71.05-.22.09-.43.14-.63.3-.79,1.3-1.01,2.23-1.14l.71-.09.52-.05.95-.07,1.88-.1c4.43-.16,8.85-.23,13.22-.32,5.61-.13,11.24-.29,16.84.57,1.75.31,1.51.37.03.82-1.48.48-4.2,1.46-7.42,1.7-5.71.34-11.42.32-17.11.49l-4.26.13c-1.41.03-2.84.05-4.18.14-.09,0-.2-.04-.3.01-.01.04-.02.09-.04.14l-.02.08s0,0,0,.09v.27c-.04,1.43-.08,2.87-.11,4.3-.16,6.89.22,14.06.45,21.09.07,2.1.16,4.21.27,6.3.05,1.05.12,2.09.2,3.13l.11,1.27c.04.19,0,.45.15.58.17.03.34.03.52.04h.43s.65.01.65.01h2.64s5.29-.09,5.29-.09c4.77-.09,9.54-.2,14.31-.36,3.61-.13,7.23-.25,10.82-.45l1.34-.08.78-.06c.12-.02.27,0,.36-.09.08-.1.1-.23.13-.36.05-.25.08-.5.1-.76.13-1.71.14-3.52.13-5.3-.05-5.55-.48-11-.87-16.49-.09-1.21-.18-2.39-.28-3.61-.27-4.52-.11-5.97.82-7,.21-.23.42-.54.63-.68.73-.48,1.47,1.33,1.87,4.65.59,4.92,1,9.99,1.26,15.15.12,2.58.23,5.18.22,7.82,0,1.32-.02,2.64-.08,4l-.05,1.03c-.03.38-.03.56-.12,1.33l-.15.95c-.06.31-.16.6-.24.89-.12.26-.27.51-.44.73l-.27.32c-.03.07-.13.08-.11.2l-.15.13c-.71.36-1.61.64-2.59.67-.22.02-.52.05-.68.05l-.37.02-.74.04-2.94.13-5.85.19c-3.9.08-7.79.16-11.69.24v-.08Z"/><path class="cls-2" d="M122.92,263.94c3.22,0,3.22-5,0-5s-3.22,5,0,5h0Z"/><path class="cls-2" d="M133.09,263.94c3.22,0,3.22-5,0-5s-3.22,5,0,5h0Z"/><path class="cls-2" d="M142.91,263.94c3.22,0,3.22-5,0-5s-3.22,5,0,5h0Z"/><g class="cls-3"><path class="cls-2" d="M251.16,350.88c-1.59-.06-3.19-.16-4.8-.3-.82-.1-1.61-.15-2.45-.3-.43-.08-.81-.1-1.27-.23l-.66-.17-.33-.09-.41-.17c-.96-.27-1.68-1.14-2.03-2.01-.3-.7-.44-1.3-.57-1.92-.38-2.15-.47-4.17-.57-6.22l-.2-6.08c-.06-1.79-.16-3.58-.3-5.34-.11-1.13-.21-2.26-.32-3.38-.06-1.13.01-2.27.11-3.42.06-.72.1-.65.49-.11.26.35.56.74.86,1.14.33.48.63,1.07.85,1.72.79,4.69,1.04,9.33,1.09,14,.02,1.39.14,2.81.34,4.2.2,1.38.46,2.8.83,3.94l.14.36c.03.06.05.12.09.18.1.13.18.12.41.24l.98.23,1.1.17c1.49.19,3.05.29,4.6.35,1.92.07,3.85.1,5.78.07,2.92-.05,5.87-.12,8.76-.4,2.25-.23,4.43-.66,6.61-1.1.48-.09.94-.22,1.43-.31,1.8-.3,2.38-.2,2.93.66.12.19.28.38.37.58.3.68-.35,1.38-1.69,1.8-3.97,1.16-8.24,1.6-12.53,1.84-3.19.18-6.4.19-9.61.14v-.08Z"/></g><path class="cls-2" d="M269.03,348.18l.47-.14.38-.16c.31-.1.4-.22.5-.23.02,0,.03-.02.05-.03,0-.02,0-.01.06-.07.07-.16.16-.31.23-.53.16-.41.28-.9.4-1.4.23-1,.39-2.06.52-3.13.13-1.05.14-2.12.23-3.18.28-3.76.49-7.58.44-11.39-.04-1.69-.12-3.39-.25-5.06-.08-1.07-.2-2.14-.31-3.21-.15-1.06-.11-2.15-.24-3.22-.06-.67.08-.63.45-.12.19.25.43.62.7,1.08.24.46.61,1,.72,1.63.52,2.2.91,4.42,1.19,6.65.19,2.24.26,4.48.2,6.74-.07,2.7.08,5.5-.07,8.28-.08,1.47-.21,2.94-.43,4.42-.11.74-.25,1.49-.45,2.26-.11.39-.21.77-.39,1.19-.13.38-.46.95-.84,1.33l-.41.3c-1.05.71-1.99.93-2.95,1.2-.95.24-1.89.41-2.83.56-2.85.42-5.7.54-8.52.62-2.19.04-4.36.19-6.56.04-.49-.05-.96-.04-1.45-.12-1.82-.27-2.35-.75-2.52-1.55-.04-.19-.1-.38-.1-.55,0-.59.81-.88,2.03-.86,3.66.03,7.53.09,11.42-.15,1.44-.09,2.88-.21,4.3-.4,1.42-.18,2.82-.45,4.04-.83l.03.07Z"/><path class="cls-2" d="M276.35,338.6c.01,1.96,0,3.92-.02,5.88l-.04,2.95-.04,1.92c0,.45-.03.89-.08,1.3l-.39,1.01c-.4.28-.86.44-1.34.68-.57.11-1.21.17-1.84.18l-1.29.02h-1.06s-4.24,0-4.24,0c-2.46,0-4.91.07-7.37.03-4.33-.06-8.65-.16-12.98-.28l-3.25-.1-1.63-.05-.82-.03-1.1-.06c-.44,0-.81-.11-1.18-.21-.17-.06-.34-.11-.51-.18l-.13-.05-.07-.13-.12-.25c-.38-.59-.36-1.58-.45-2.32-.07-1.1-.11-2.19-.14-3.28-.08-3.84-.16-7.71-.24-11.52,0-4.89-.16-9.81.63-14.7.31-1.52.18-1.32.46-.03.13.64.52,1.56.71,2.66.24,1.1.49,2.4.65,3.8l.5,7.47c.14,2.49.18,4.98.27,7.47l.13,3.73.08,3.7.02.45c0,.12,0,.07,0,.12v.14c-.05.14.1.11.19.15.03,0,.04.01.1.02l.46.03.93.06,1.87.11c5.99.29,12.26.09,18.4.07l6.48-.04,3.23-.05,1.15-.02h.33s.17-.01.17-.01c.06,0,.12,0,.11-.08.02-.24.03-.49.04-.74v-1.72s0-3.66,0-3.66c-.02-4.16-.04-8.32-.15-12.47-.07-2.44-.14-4.89-.26-7.33-.06-1.22-.14-2.43-.25-3.62-.07-.7-.09-.9-.16-1.28-.04-.16-.05-.36-.18-.48l-.52-.02c-1.29-.02-2.55-.03-3.82-.05-4.87-.03-9.65.15-14.48.15-1.06,0-2.11.03-3.18,0-3.99-.13-5.26-.48-6.03-1.48-.18-.23-.41-.46-.5-.68-.31-.75,1.33-1.18,4.21-1.22,3.9-.05,7.89-.09,11.93-.14,2.03,0,4.07,0,6.13,0,1.03,0,2.06,0,3.09.01,1.34.02,2.67.03,4.01.05.63.26,1.35.33,1.83.88.45.5.68,1.27.82,2.08.06.4.14.86.18,1.22l.07.67.12,1.31.17,2.59c.1,1.72.17,3.42.22,5.13.11,3.41.18,6.82.24,10.22h-.09Z"/><path class="cls-2" d="M246.3,335.76c3.22,0,3.22-5,0-5s-3.22,5,0,5h0Z"/><path class="cls-2" d="M255.46,335.76c3.22,0,3.22-5,0-5s-3.22,5,0,5h0Z"/><path class="cls-2" d="M264.28,335.76c3.22,0,3.22-5,0-5s-3.22,5,0,5h0Z"/><g class="cls-3"><path class="cls-2" d="M272.26,223.61c-.47-3.89-.69-7.69-.57-11.62.03-.72.04-1.44.1-2.19.02-.37.07-.76.12-1.15.07-.41.11-.75.33-1.39.17-.5.42-.96.76-1.36.35-.38.8-.66,1.25-.92.52-.25.76-.33,1.14-.46.33-.1.67-.21.99-.28,1.3-.32,2.54-.51,3.79-.66,2.48-.31,4.95-.4,7.4-.45,2.18-.05,4.36-.11,6.52-.16,2.76.1,5.62,0,8.28,1.3.8.48.67.45-.11.76-.39.17-.93.4-1.57.72-.63.26-1.35.46-2.12.55-1.36.08-2.72.15-4.09.26-1.36.07-2.73.05-4.1.09-2.74.06-5.48.17-8.22.28-1.63.06-3.3.3-4.81.72-.37.1-.73.23-1.04.35-.09.03-.15.07-.21.1-.03.02-.06.02-.09.04-.06.04-.12.07-.17.12-.1.1-.14.24-.18.37-.07.26-.13.67-.19,1.04-.22,1.7-.24,3.59-.23,5.43.02,1.86.11,3.73.26,5.58.1,1.14.21,2.28.38,3.4.08.55.18,1.11.3,1.61.06.2.07.3.14.45.06.15.21.2.32.3.12.12.58.27.9.43.38.13.78.25,1.17.38.82.21,1.64.41,2.5.56,1.7.31,3.43.52,5.17.64,2.7.2,5.36.1,8.04.02.59-.01,1.17-.07,1.76-.07,2.2.06,2.9.31,3.37,1.15.11.19.25.38.31.57.21.63-.7,1.18-2.34,1.43-2.44.37-4.94.4-7.49.38-2.55-.03-5.14-.18-7.78-.5-1.97-.27-3.9-.53-6.08-1.33l-.88-.37c-.16-.05-.36-.21-.54-.34l-.56-.41c-.81-.47-1.19-1.41-1.42-2.27-.29-1.12-.45-2.08-.6-3.08l.09-.02Z"/></g><path class="cls-2" d="M293.02,228.71c2.71-.05,5.43-.2,8.16-.3,1-.04,1.99-.17,2.99-.21l2.63-.09c.83-.04,1.62-.11,2.32-.31.7-.2,1.25-.52,1.66-1.01.42-.49.69-1.22.87-2.03.3-1.47.53-3.05.75-4.56.14-.98.21-1.97.36-2.95l.27-1.48c.02-.25.12-.49.22-.74.08-.25.07-.49.11-.74.07-.62.06-.54.12,0,.05.26,0,.63.29,1.1.18.46.28,1,.38,1.58.09.52.13,1.04.13,1.55l.03,1.55c0,1.03-.01,2.07-.07,3.11-.13,1.02-.2,2.04-.56,3.25-.19.59-.46,1.22-.88,1.79-.42.58-.98,1.05-1.58,1.37-1.43.76-2.85.94-4.16,1.09-1.29.13-2.51.26-3.77.37-2.75.23-5.51.39-8.28.5-1.71.07-3.41.12-5.12.15-2.59.05-5.2,0-7.78-.11-2.01-.1-4-.04-6.03-.32-.45-.04-.89-.1-1.34-.19-.82-.19-1.35-.42-1.68-.7-.33-.26-.46-.57-.51-.96-.02-.18-.06-.36-.05-.53.04-.53.84-.83,1.94-.7,1.69.06,3.36.3,5.12.37,1.75.09,3.53.18,5.34.19,2.68.03,5.41.01,8.14-.11v.07Z"/><path class="cls-2" d="M272.49,216.81c0,3.35.03,6.72.23,9.99l.1,1.21.03.28v.05s.01.12.01.12c.02.07,0,.2.09.21l.24.03,2.44.09,2.52.07c2.45.06,4.91,0,7.36.05,4.33.08,8.66.14,12.98.15,4.31-.02,8.68.02,12.88-.33.23-.02.4-.04.59-.07.09-.02.19-.03.28-.06.04-.02.09-.03.12-.07.02-.04.02-.09.02-.14l.03-.55.02-.99.04-2.3c.02-1.53.03-3.06.05-4.58.09-4.91.26-9.85,1.18-14.72.37-.75.52-1.07.55-1.04.04.02.02.4.31,1.06.49,1.32,1.08,3.72,1.26,6.54.21,2.9.18,5.79.17,8.69l-.14,4.35-.08,2.18c-.02.41,0,.58-.07,1.43l-.1,1.03c-.03.35-.14.62-.21.93-.05.09-.11.17-.17.25l-.04.06s.03.05-.07,0l-.03.03-.11.12c-.16.15-.26.34-.48.43-.37.24-.86.35-1.35.45-.51.08-.99.14-1.43.18l-.83.05c-1.1.05-2.17.1-3.24.12-2.14.04-4.27.03-6.41,0-6.07-.11-12.36.08-18.54,0l-5.1-.08-2.56-.06-1.28-.04-.66-.02c-.34,0-.69-.04-1.01-.09-.33-.04-.63-.13-.89-.24-.14-.04-.24-.12-.42-.14-.1-.11-.21-.22-.26-.36-.15-.26-.25-.56-.37-.85-.08-.32-.14-.65-.2-.98l-.07-.51-.04-.36-.06-.66-.09-1.3c-.1-1.73-.14-3.43-.18-5.14-.07-4.2-.04-8.39.03-12.59l.05-2.39.06-1.53c.05-.26.08-.55.16-.78.08-.24.17-.43.23-.69.11-.05.21-.1.32-.14l.4-.07c.27-.05.53-.1.8-.14l1.48-.09c.79-.04,1.59-.09,2.38-.11,3.17-.12,6.34-.23,9.49-.34,4.89-.15,9.69-.47,14.57-.52,1.07-.02,2.13-.05,3.21-.01,4.03.12,5.32.51,6.05,1.55.17.22.4.45.48.65.14.34-.21.6-.95.8-.37.11-.83.16-1.38.18-.55.02-1.19.05-1.9.03-4.24-.09-8.64-.08-13.1-.05-2.23,0-4.48.08-6.74.16-2.26.09-4.53.15-6.8.3-1.68.13-3.37.29-5.05.37l-.61.04h0s-.01,0-.02,0c0,0,0,0,0,.01h0s0,.12,0,.12l-.02.63c-.07,3.37-.09,6.77-.06,10.15h-.08Z"/><path class="cls-2" d="M283.44,220.2c3.22,0,3.22-5,0-5s-3.22,5,0,5h0Z"/><path class="cls-2" d="M292.61,220.2c3.22,0,3.22-5,0-5s-3.22,5,0,5h0Z"/><path class="cls-2" d="M301.43,220.2c3.22,0,3.22-5,0-5s-3.22,5,0,5h0Z"/><g class="cls-3"><path class="cls-2" d="M411.61,128.37c2.84-.01,5.69-.08,8.51-.27,1.03-.08,2.04-.25,3.06-.33,1.78-.14,3.62-.31,5.15-.71.15-.05.38-.1.48-.16.08-.02.15-.05.23-.11.06-.06.12-.13.18-.21.02-.06.09-.15.15-.35.25-.68.36-1.57.45-2.44.14-1.56.05-3.19-.07-4.79-.04-1.04-.08-2.08-.12-3.12,0-.52.07-1.06.12-1.59.06-.53.13-1.06.27-1.6.17-.67.29-.58.68-.05.4.53,1.19,1.48,1.63,2.65.27,1.05.44,2.11.63,3.19.15,1.08.16,2.18.17,3.29,0,1.12-.03,2.25-.21,3.45-.09.6-.21,1.22-.43,1.89-.04.16-.13.34-.22.55-.11.23-.19.48-.34.66l-.43.57c-.14.19-.35.31-.53.46-.2.17-.51.31-.74.42-.24.12-.4.15-.6.23-.4.15-.73.22-1.09.33-.7.18-1.38.33-2.06.48-1.35.28-2.69.51-4.03.66-2.94.3-5.86.4-8.78.48-1.8.05-3.59.06-5.38.08-2.72,0-5.44-.02-8.14-.03-2.1.02-4.16.21-6.27.23-.47,0-.92.04-1.4.01-1.75-.09-2.31-.49-2.51-1.5-.05-.23-.12-.46-.12-.69,0-.75.74-1.26,1.93-1.35,3.57-.28,7.38-.31,11.22-.33,2.85-.02,5.73-.01,8.59-.11v.09Z"/></g><path class="cls-2" d="M423.07,129.75c1.93-.08,3.9-.2,5.66-.57.32-.07.64-.16.88-.27.11-.05.31-.1.34-.15.05-.04.11-.06.17-.08l.09-.08.16-.24c.12-.15.21-.45.32-.67.18-.53.34-1.11.46-1.7.24-1.2.37-2.45.44-3.7.08-1.11.04-2.24-.01-3.35-.06-1.43-.33-2.82-.22-4.28.01-.45.1-.42.38-.09.14.17.34.41.56.71.1.15.24.31.33.5.08.18.14.38.19.59.65,2.95,1.04,5.96.64,9.04-.12.92-.22,1.87-.42,2.88l-.21.78c-.09.27-.22.56-.35.84-.2.29-.44.65-.73.85-.15.1-.3.2-.46.29-.16.11-.3.17-.42.2-1.16.47-2.15.58-3.19.77-1.02.14-2.04.24-3.06.32-1.25.09-2.49.14-3.73.19-1.88.08-3.76.05-5.63.1-1.45.02-2.87.16-4.32.19-.32.01-.63,0-.95-.03-1.19-.11-1.57-.38-1.74-.98-.04-.14-.1-.28-.12-.41-.05-.45.46-.78,1.3-.9,1.26-.24,2.53-.34,3.83-.43,1.3-.09,2.61-.16,3.93-.17,1.96-.05,3.93-.08,5.88-.21v.07Z"/><path class="cls-2" d="M435.07,122.9l-.04,3.53c0,1.3-.03,1.87.08,4.51-.05.35-.07.75-.15,1.07l-.22.37-.11.18-.03.05v.02s-.02.01-.02.01h0c.28.25-.38-.32-.32-.26h0s-.07.09-.07.09l-.54.65c-.11.11-.29.15-.44.23-.16.06-.38.05-.56.08-.39.04-.79.05-1.19.07l-1.1.03h-1.33s-5.28.03-5.28.03c-2.15,0-4.3.09-6.45.06-7.57-.07-15.14-.22-22.72-.43-1.72-.05-3.45-.1-5.18-.15-.58-.04-1.29-.04-1.81-.22-.25-.12-.48-.21-.71-.36-.15-.23-.18-.51-.27-.77l-.13-.89c-.02-.3-.01-.6-.02-.9v-1.38c.11-4.31.45-8.58,1.17-12.82.26-1.32.43-1.14.8,0,.41,1.14,1.01,3.26,1.17,5.73.07,1.1.12,2.19.14,3.28.02,1.09.1,2.18.09,3.25l-.04,1.6v.15s-.01.01-.02.02c0,.02,0,.02,0,.03.02,0-.02,0,.07.02h.05s.19.02.19.02l.4.02c4.35.16,8.7.31,13.08.47,5.26.22,10.73,0,16.11-.08l7.22-.12,3.48-.09h.75s.19-.03.19-.03c.09,0,.03-.1.05-.15v-.37c0-.11,0-.23,0-.35v-.63s-.05-1.66-.05-1.66c-.03-1.84-.04-3.67-.04-5.49v-5.24c-.03-.34.04-.75-.09-1.06-.34-.06-.71-.09-1.12-.12l-1.91-.13-2.06-.12c-2.75-.15-5.5-.25-8.23-.29-4.25-.07-8.42.14-12.61.33-.92.04-1.82.12-2.75.15-3.44,0-4.52-.22-5.31-1.22-.18-.22-.41-.43-.52-.63-.37-.66,1.02-1.5,3.58-1.85,1.9-.31,3.82-.44,5.76-.54,1.94-.1,3.9-.16,5.87-.18,3.94-.04,7.94.05,11.94.21l4.47.22,1.12.07.56.04.42.04.52.05,1.04.11.52.05c.16.04.3.11.45.16.56.26,1.29.3,1.47.92.84.75.74,2.47.77,3.88v2.29s-.03,4.45-.03,4.45h-.09Z"/><path class="cls-2" d="M402.31,125c3.22,0,3.22-5,0-5s-3.22,5,0,5h0Z"/><path class="cls-2" d="M411.48,125c3.22,0,3.22-5,0-5s-3.22,5,0,5h0Z"/><path class="cls-2" d="M420.3,125c3.22,0,3.22-5,0-5s-3.22,5,0,5h0Z"/><path class="cls-2" d="M117.74,146.97c2.26,1.75,5.09,2.81,7.98,2.73s5.53-1.41,6.54-4.2c.65-1.79.36-3.85-.17-5.63-.25-.84-1.14-1.37-2-1.13s-1.38,1.15-1.13,2c.11.38.21.75.29,1.14.02.07.1.59.08.42s.03.28.03.38c.02.31.02.62,0,.92,0,.14-.12.57,0,.13-.04.14-.05.28-.08.42s-.07.26-.11.39c-.11.38.08-.1-.02.07-.12.22-.25.43-.38.65s.25-.27,0,0c-.07.08-.14.16-.22.23-.05.05-.2.24-.27.24,0,0,.35-.24.11-.09-.06.04-.12.09-.19.13-.2.13-.4.22-.61.33-.24.13.33-.11,0,0-.14.05-.27.09-.41.13-.24.07-.48.11-.72.16-.36.08.28-.02-.02,0-.15.01-.31.03-.46.04-.55.03-1.09,0-1.64-.05-.29-.03.07,0,.11.02-.07-.01-.14-.02-.22-.03-.13-.02-.25-.04-.38-.07-.29-.06-.58-.13-.86-.21-.32-.09-.64-.2-.95-.32-.05-.02-.1-.04-.16-.06-.36-.13.32.16-.02,0-.13-.07-.27-.12-.4-.19-.3-.15-.59-.31-.87-.48-.12-.08-.25-.15-.37-.24-.09-.06-.57-.42-.19-.13-.69-.54-1.62-.68-2.3,0-.56.56-.7,1.76,0,2.3h0Z"/><path class="cls-2" d="M145.14,135.62c.03.14.06.27.09.41s.05.4.02.1c.03.29.05.58.04.88,0,.12-.01.24-.02.36-.01.32.06-.28,0,.02-.05.23-.1.46-.17.69-.06.18-.14.33,0,.05-.05.09-.09.19-.14.28s-.1.18-.15.26c-.04.06-.25.38-.1.17s-.05.06-.09.11c-.07.07-.14.15-.21.22-.08.08-.17.15-.26.24-.18.18.27-.17-.03.02-.17.11-.34.22-.52.32-.09.05-.18.09-.27.14-.33.16.21-.06-.04.02-.45.14-.88.26-1.34.34.26-.05.21-.03,0,0-.11,0-.22.02-.33.02-.26.01-.53,0-.79-.01-.11,0-.23-.02-.34-.03-.32-.03.29.06-.03,0-.25-.05-.5-.1-.75-.16-.29-.08-.57-.18-.86-.28-.26-.09.22.11-.12-.05-.13-.06-.26-.12-.39-.19-.28-.14-.55-.31-.81-.48-.12-.08-.24-.17-.36-.26.28.21-.09-.08-.17-.15-.66-.57-1.65-.65-2.3,0-.59.59-.67,1.72,0,2.3,2,1.73,4.67,2.8,7.35,2.53s4.95-1.54,5.98-3.99c.64-1.51.61-3.15.24-4.72-.2-.85-1.18-1.36-2-1.13-.87.24-1.34,1.14-1.13,2h0Z"/><path class="cls-2" d="M115.78,135.37c.3-.34.63-.66.97-.95.07-.06.15-.13.22-.19,0,0,.34-.28.18-.15s.16-.12.19-.14c.11-.08.21-.15.32-.23.89-.62,1.84-1.15,2.84-1.59-.17.08-.05.02.05-.02.13-.05.26-.1.4-.15.26-.1.53-.19.8-.27.5-.15,1.01-.26,1.52-.35-.35.06.01,0,.09,0,.13-.01.26-.02.39-.03.26-.01.51-.02.77,0,.1,0,.2.01.3.02.44.03-.18-.07.05,0,.25.08.52.12.77.2.87.28,1.95-.33,2.15-1.22.22-.96-.29-1.85-1.22-2.15-2.38-.76-5.01-.22-7.25.72s-4.39,2.24-6.01,4.05c-.63.7-.69,1.78,0,2.47.64.64,1.84.71,2.47,0h0Z"/><path class="cls-2" d="M133.27,166.05c1.56,1.59,3.68,2.69,5.94,2.73s4.35-1.04,5.63-2.86c.49-.7.15-1.84-.58-2.22-.83-.44-1.7-.16-2.22.58-.1.14-.08.09.02-.01-.06.06-.11.13-.17.2-.07.08-.15.16-.23.23-.03.02-.24.22-.09.08s-.07.05-.1.07c-.07.05-.15.1-.22.14-.17.1-.35.19-.52.28.12-.06.19-.07.02-.01-.08.03-.17.06-.25.09-.19.06-.38.11-.58.15-.04,0-.33.05-.11.02s-.08,0-.11,0c-.2.01-.4.02-.6,0-.09,0-.18-.01-.28-.02-.17-.01-.14-.03,0,0-.19-.04-.37-.07-.56-.12-.21-.05-.41-.14-.61-.2-.23-.07.21.11,0,0-.09-.04-.17-.08-.26-.12-.37-.18-.71-.4-1.04-.63-.11-.08-.14-.11-.01,0-.09-.08-.18-.15-.27-.23-.16-.14-.32-.29-.47-.45-.6-.61-1.71-.64-2.3,0s-.64,1.65,0,2.3h0Z"/><path class="cls-2" d="M137.71,126.64c-1.75.85-2.56,3.14-2.62,5.6,0,.91.15,1.81.3,2.73.26,1.63.62,3.24,1.26,4.82.63,1.6,1.38,3.15,2.31,4.6.82,1.29,1.79,2.5,2.84,3.62.67.73,1.4,1.4,2.09,2.14.66.76,1.37,1.48,1.92,2.37.34.55.17.61-.45.49-.64-.1-1.72-.37-2.7-1.04-1.68-1.24-3.22-2.73-4.66-4.36-1.42-1.66-2.53-3.58-3.38-5.58-1.01-2.35-2.17-4.97-2.42-7.69-.16-1.49-.18-3.03.15-4.58.31-1.53.95-3.09,2.07-4.32,1.39-1.54,3.38-2.28,5.23-2.54l1.06-.06c.37,0,.65-.07,1.12-.02.84.11,1.64.36,2.36,1.07.34.36.65.93.63,1.54,0,.58-.29,1.18-.67,1.52-.38.36-.82.57-1.26.69-.45.13-.93.12-1.3.08-.61-.06-1.12-.2-1.56-.26-.43-.06-.79-.04-1.18.03-.77.14-1.48.53-2.08,1.02-.25.23-.47.48-.68.75-.74.98-.92,1.27-1.78,1.39-.19.03-.39.1-.58.11-.32.03-.56-.14-.7-.54-.14-.4-.12-1.03.18-1.74.88-2.1,2.93-3.78,5.52-4.11.63-.07,1.37-.05,1.94.06.56.09.97.18,1.22.19.1,0,.24,0,.2,0,0,0,0-.01,0,0,0-.02,0,.03.05.12.07.17.22.4.38.54.06.06.15.11.18.13l.04.02-.12-.02c.29.04.13-.07-.24.25-.07.07-.17.16-.25.26l-.12.14h0s-.05-.04-.1-.06c-.1-.04-.24-.08-.36-.1-.03,0-.03,0-.1,0h-.22s-.43.04-.43.04c-1.19,0-2.22.33-3.06.81l-.04-.06Z"/><path class="cls-2" d="M367.56,360.79c.16-1.08.56-1.81.98-2.49.43-.67.92-1.25,1.48-1.79.43-.41.75-.8,1.47-1.19.55-.32,1.18-.4,1.78-.4l.44.06c.11.02.21.04.31.07.19.06.4.11.58.18.37.13.71.29,1.04.46.65.34,1.25.73,1.82,1.15.63.49,1.26.96,1.87,1.47.38.33.82.64,1.1,1.09.13.24.31.43.37.72.03.14.05.29.07.43.01.15-.19.42-.22.57-.15.42-.08.32-.5.26-.17-.05-.81.14-1.11.13-.18.01-.38.04-.52.04-.14-.02-.26-.05-.35-.11-.35-.18-.62-.44-.9-.71-.29-.26-.59-.52-.9-.77-.63-.48-1.23-1.05-1.87-1.55-.21-.16-.43-.29-.66-.38-.12-.05-.22-.07-.34-.1-.06-.02-.11-.03-.16-.03-.02,0-.03,0-.04,0-.09,0-.17.01-.25.05l-.11.06-.21.14c-.78.53-1.61,1.47-2,2.36-.14.28-.18.53-.22.73,0,.18.01.24.07.33h0s0,0,0,0h0s0,0,0,0c-.12.16.27-.35-.27.35h0s0-.01,0-.01l.02-.03s.01-.03.01-.05c-.03.03.05-.2.04-.32-.05,0,.06-.02.12-.02.17-.04.4-.15.63-.27.46-.26.93-.6,1.36-.98.68-.59,1.21-1.34,1.83-2.04.14-.15.25-.33.41-.47.57-.54.95-.56,1.53-.03.13.12.27.23.38.36.36.45.45,1.01.17,1.46-.85,1.37-2,2.65-3.6,3.84l-.48.33-.57.33c-.25.11-.44.21-.76.31-.17.05-.34.09-.52.13-.16.04-.5.04-.75.03-.14-.02-.24,0-.42-.06-.17-.05-.35-.11-.51-.19-.16-.08-.33-.18-.47-.27l-.22-.21c-.29-.29-.55-.6-.71-.97-.08-.18-.17-.37-.22-.55-.04-.17-.07-.34-.09-.51-.07-.37-.03-.62-.01-.92h.08Z"/><path class="cls-2" d="M380.9,369.34c.29-1,.96-2.04,1.83-2.88.22-.25.38-.38.52-.49.15-.13.3-.25.46-.37.31-.24.64-.46,1-.67.27-.15.51-.31.85-.47.16-.1.37-.16.58-.21.2-.06.4-.11.62-.11.14,0,.27-.02.41,0,.38.05.68.1.91.19.25.08.5.16.72.27.46.19.86.42,1.24.66.76.48,1.46,1.01,2.1,1.57.6.53,1.21,1.05,1.81,1.57.37.35.8.66,1.09,1.12.14.24.31.43.37.73.02.14.05.29.07.44.01.15-.19.43-.21.58-.15.43-.07.32-.5.27-.18-.06-.81.14-1.11.12-.18,0-.39.04-.53.03-.14-.02-.27-.06-.36-.12-.36-.2-.66-.49-.95-.79l-.94-.87c-.65-.56-1.26-1.21-1.9-1.82-.3-.28-.65-.5-.99-.65-.17-.07-.35-.15-.51-.18-.16-.06-.34-.07-.36-.08-.08,0-.17,0-.25.03-.29.07-.86.39-1.29.72-.55.43-.64.49-.89.75-.24.28-.58.69-.48,1.14.03.16.14.28.26.37.39.34.99.23,1.44-.06.12-.07.22-.16.32-.26.06-.05.06-.08.14-.15.08-.07.16-.16.23-.23.31-.31.6-.67.91-1.01.14-.15.25-.32.41-.47.57-.54.93-.58,1.54-.06.14.12.28.22.4.35.38.43.48,1,.18,1.47-.44.71-1,1.43-1.73,2.09-.09.08-.18.17-.29.25-.16.12-.36.28-.53.39-.36.22-.73.47-1.11.64-.77.34-1.54.49-2.26.47-.82-.03-1.52-.38-2.19-.82-.1-.12-.25-.2-.32-.35l-.33-.36c-.17-.26-.33-.56-.41-.86-.21-.59-.16-1.23-.02-1.86h.08Z"/><path class="cls-2" d="M388.63,350.4c-.77-1.37-1.73-2.68-2.97-3.65-1.61-1.26-3.45-1.92-5.49-2.03-.98-.05-1.92.9-1.88,1.88.05,1.06.82,1.82,1.88,1.88.2.01.46-.01.66.06-.11-.04-.45-.07-.13-.01.1.02.2.04.3.06.35.08.7.18,1.04.3.29.11-.04-.04-.14-.06.09.03.17.08.26.12.17.08.33.17.49.26.13.08.26.16.38.24.07.05.15.1.22.16.29.2-.36-.3-.1-.08.5.42.95.88,1.37,1.39.22.27-.28-.38-.08-.1.05.07.1.14.16.22.09.12.17.24.25.37.19.3.38.6.55.91.48.85,1.72,1.22,2.57.67s1.19-1.65.67-2.57h0Z"/><path class="cls-2" d="M393.47,358.68c.17-.05.34-.07.51-.11-.65.15-.1.02.12.02.18,0,.36.03.54.03-.1,0-.49-.09-.18-.02.09.02.19.04.28.06.19.04.37.1.56.16.08.03.15.06.23.08.34.12-.38-.18-.08-.03.38.18.75.37,1.1.61.09.06.18.12.27.18.14.1.28.33-.03-.03.13.15.32.26.47.39.32.29.63.61.91.94.05.06.1.12.15.18l-.15-.2c.06.1.14.19.21.28.14.19.26.39.39.59s.24.41.35.63c.04.09.09.18.13.27.2.43-.12-.3.03.05.19.47.41.85.86,1.12.4.24.99.33,1.44.19.88-.28,1.7-1.33,1.31-2.31-.91-2.26-2.38-4.19-4.43-5.54-1.72-1.14-3.94-1.75-5.97-1.17-.94.27-1.62,1.34-1.31,2.31s1.3,1.6,2.31,1.31h0Z"/><path class="cls-2" d="M365.87,386c.89,1.74,2.77,2.81,4.6,3.3,1.95.53,4.14.54,6.07-.1.87-.29,1.52-1.22,1.22-2.15-.28-.86-1.22-1.53-2.15-1.22-.37.12-.75.22-1.14.29-.16.03-.43-.01,0,0-.08,0-.16.02-.24.03-.2.02-.4.03-.6.03-.41,0-.81-.01-1.21-.05s.4.07-.01,0c-.08-.01-.16-.03-.24-.04-.21-.04-.43-.09-.64-.14-.19-.05-.37-.1-.56-.16-.09-.03-.18-.06-.27-.1-.07-.03-.37-.08-.11-.04.23.04-.01,0-.1-.05s-.16-.08-.25-.12c-.16-.08-.31-.17-.46-.27-.07-.05-.14-.1-.22-.15-.25-.17.22.2.07.05-.12-.12-.25-.22-.37-.34-.06-.06-.11-.12-.16-.18-.2-.22.17.26.07.09-.09-.15-.19-.29-.27-.45-.42-.82-1.63-1.12-2.39-.63-.83.54-1.07,1.52-.63,2.39h0Z"/><path class="cls-2" d="M375.95,366.87c-.82.6-1.64,1.2-2.43,1.85-.29.23-.52.53-.81.77-1.04.82-2.09,1.65-3.13,2.47-.46.37-.86.81-1.25,1.24-.28.26-.53.53-.82.78-.31.22-.69.39-1.06.56-.24.09-.38-.07-.48-.44-.09-.35-.24-.99-.13-1.48.16-.37.37-.71.56-1.05.21-.33.49-.6.74-.89.53-.56,1.1-1.09,1.74-1.56.79-.53,1.38-1.31,2.08-1.96.78-.71,1.59-1.39,2.41-2.06l1.52-1.23c.76-.62,1.57-1.2,2.29-1.86.56-.51,1-1.15,1.52-1.72.11-.13.21-.27.33-.38.46-.43.8-.31,1.37.27.13.13.27.26.4.4.41.47.53,1.05.32,1.51-.69,1.23-1.69,2.11-2.74,2.96-.79.63-1.59,1.25-2.38,1.88l-.05-.05Z"/><path class="cls-2" d="M183.99,73.64c-.09.3-.48.14-1.02-.28-.17-.13-.55-.65-.55-.77,0-.23,0-.45.03-.64.03-.11.83-1.23,1.05-1.65.23-.4.51-.72.82-1.03.62-.62,1.16-1.31,1.78-1.93.13-.14.3-.25.48-.34.63-.3,1.1-.78,1.5-1.33.07-.09.16-.16.14-.32-.02-.26,1.12-1.64,1.34-1.76.54-.31,1.1-.6,1.62-.94.08-.05.1-.14.26-.11.38.06.45-.11.59-.24.19-.17.39-.34.63-.48.12-.07.34-.06.53-.08.17-.02.51.3.53.36.05.18.28.23.45.33.06.03.13.08.17.11.08.07-.09,1.84-.19,1.98,0,.02-.28.54-.56,1.09-.27.56-.63,1.08-.69,1.2-.06.13-.21.18-.34.25-.05.04-1.05,1.58-1.12,1.63-.28.25-.46.61-.94.67-.09.01-.14.08-.18.14-.42.5-.96.87-1.48,1.26-.26.2-.49.45-.74.66-.05.04-.12.04-.18.07-.07.03-.16.05-.22.1-.58.52-1.29.89-1.83,1.45-.13.13-1.01.39-1.15.54-.08.09-.66-.05-.7.07Z"/><path class="cls-2" d="M190.08,78.71c-.12.18-.33-.07-.59-.56-.08-.16-.21-.67-.18-.75.05-.17.11-.33.17-.46.04-.07.84-.62,1.1-.84.26-.21.53-.33.82-.44l1.71-.68c.13-.05.26-.07.41-.05.49.05.94-.09,1.36-.3.07-.04.15-.04.19-.18.07-.22,1.26-.66,1.44-.62.43.06.88.18,1.33.27.06.01.11-.04.2.08.2.29.31.21.44.21.18,0,.36.01.56.08.1.03.22.19.34.31.11.11.18.57.17.63-.04.16.08.36.13.55.02.06.04.15.05.2.02.11-.73,1.21-.83,1.25-.01,0-.34.19-.7.39-.34.22-.74.32-.81.38-.08.05-.18-.01-.28-.04-.04-.01-1.13.45-1.18.45-.25,0-.46.16-.76-.06-.06-.04-.1-.02-.15,0-.4.12-.83.09-1.26.1-.22,0-.42.08-.63.11-.04,0-.08-.02-.13-.03-.05-.01-.11-.04-.16-.02-.49.12-1.02.09-1.48.28-.11.04-.72-.11-.84-.05-.07.03-.4-.28-.45-.2Z"/><path class="cls-2" d="M188.53,85.84c-.21-.06-.17-.36-.02-.75.05-.13.31-.4.39-.41.16-.01.32-.03.47-.02.08.01,1.16.44,1.57.54.39.1.68.32.99.52l1.84,1.23c.14.09.25.21.34.35.31.48.75.83,1.25,1.11.08.05.15.12.3.08.27-.08,1.43.89,1.52,1.08.22.49.49.91.74,1.37.03.07.12.08.07.23-.12.36.03.42.12.54.13.17.24.36.32.59.04.11-.02.33-.05.52-.03.17-.4.52-.47.54-.18.06-.28.29-.42.46-.05.06-.11.13-.15.17-.09.08-1.62,0-1.71-.09-.01,0-.38-.26-.77-.53-.39-.26-.8-.54-.89-.58-.1-.05-.12-.18-.16-.29-.03-.04-1.22-.81-1.23-.88-.17-.24-.45-.37-.46-.79,0-.08-.05-.11-.1-.15-.37-.33-.64-.78-.94-1.19-.15-.21-.35-.37-.52-.56-.03-.03-.04-.1-.06-.14-.03-.06-.04-.12-.09-.16-.43-.43-.78-.94-1.24-1.33-.1-.1-.37-.8-.49-.89-.07-.06-.06-.51-.15-.53Z"/><path class="cls-2" d="M462.61,320.47c-.01.26-.22.43-.5.56-.09.04-.3-.02-.32-.1-.04-.16-.08-.32-.11-.48,0-.2.01-1.57.01-2.09-.01-.5.02-.99.1-1.47.15-.97.28-1.96.47-2.93.04-.22.11-.43.21-.62.34-.67.54-1.39.74-2.12.03-.12.09-.24.02-.39-.12-.26.56-2.2.75-2.4.46-.51.81-1.07,1.29-1.56.06-.07.07-.18.24-.19.4-.02.44-.22.55-.39.15-.24.34-.45.61-.62.12-.09.39-.1.59-.14.19-.04.53.22.56.29.07.18.31.19.48.27.06.03.13.06.18.09.05.03.17.54.23,1.02.03.47.04.95,0,1.02,0,.05-.79,2.12-.85,2.36-.03.13-.16.22-.27.31-.05.04-.6,1.73-.63,1.79-.2.31-.23.69-.66.92-.08.05-.11.12-.14.18-.26.58-.65,1.11-.99,1.66-.17.28-.28.59-.43.89-.03.05-.08.1-.12.15-.05.06-.1.12-.13.19-.31.71-.7,1.4-.94,2.14-.07.17-.55.92-.6,1.12-.04.11-.36.42-.35.53Z"/><path class="cls-2" d="M470.03,322.33c-.05.24-.36.07-.83-.35-.15-.13-.49-.62-.5-.72-.01-.19-.03-.38,0-.54.01-.09.64-.93.84-1.24.19-.3.44-.52.7-.72l1.56-1.28c.12-.09.25-.16.4-.2.52-.15.94-.45,1.31-.8.06-.06.14-.1.14-.23,0-.22,1.1-1.08,1.29-1.12.48-.1.91-.26,1.36-.4.07-.02.1-.09.22-.02.29.17.37.05.5,0,.18-.08.36-.15.58-.18.11-.01.28.07.44.13.14.05.37.45.37.5.01.17.2.3.31.45.04.05.09.12.12.16.06.1-.36,1.39-.46,1.47-.01.04-1.2,1.13-1.32,1.28-.06.08-.18.08-.29.09-.05.01-.96.93-1.01.96-.24.12-.39.36-.76.3-.07-.01-.11.03-.15.06-.35.29-.79.47-1.2.68-.21.11-.38.27-.58.4-.03.02-.09.02-.14.03-.06.01-.12.02-.16.05-.44.34-.97.54-1.36.94-.09.09-.76.21-.85.32-.06.06-.52-.12-.54-.02Z"/><path class="cls-2" d="M469.38,329.75c-.2.09-.35-.15-.46-.55-.04-.13,0-.51.06-.56.12-.1.24-.2.35-.27.07-.04,1.16-.21,1.53-.29.36-.08.72-.1,1.07-.1l2.16-.03c.16,0,.32.02.47.07.53.19,1.08.24,1.63.22.09,0,.18.02.28-.06.16-.13,1.64-.06,1.82.02.52.2.93.36,1.39.54.07.03.14,0,.19.11.12.26.27.23.42.27.2.05.4.1.6.2.1.05.18.2.27.32.08.11,0,.47-.03.5-.1.11-.04.28-.05.44,0,.05,0,.12-.01.16-.02.09-1.24.64-1.37.63-.03,0-1.72.08-1.96.09-.1.01-.2-.05-.3-.1-.05-.02-1.43.04-1.48.02-.28-.06-.57,0-.84-.24-.05-.05-.11-.04-.17-.04-.49,0-.97-.17-1.45-.29-.25-.06-.5-.07-.74-.11-.04,0-.09-.04-.13-.06-.05-.02-.11-.06-.17-.06-.59-.07-1.17-.25-1.76-.26-.14,0-.76-.29-.92-.29-.09,0-.35-.31-.43-.27Z"/></svg>