<?xml version="1.0" encoding="UTF-8"?><svg id="Layer_1" xmlns="http://www.w3.org/2000/svg" width="520" height="520" viewBox="0 0 520 520"><defs><style>.cls-1,.cls-2,.cls-3{fill:#231f20;}.cls-4{fill:#242021;}.cls-5{opacity:.25;}.cls-2{opacity:.15;}.cls-3{opacity:.35;}</style></defs><path class="cls-1" d="M247.47,414.85c-6.08,1.58-22.85,3.89-19.63,8.08,3.22,4.19,16.31,13.74,16.31,13.74l3.32-.58v-21.24Z"/><path class="cls-1" d="M354.48,412.26c-1.21.45-2.42.88-3.59,1.38-.42.19-.87.35-1.31.5-1.57.51-3.16.91-4.76,1.26-.71.15-1.42.31-2.13.46-.9.19-1.81.37-2.73.52-.57.1.12-.21,1.15-.47,1.83-.44,3.65-.9,5.48-1.4,1.09-.29,2.2-.69,3.27-1.12,1.17-.48,2.31-1.08,3.45-1.62.71-.33,1.41-.68,2.11-1.04,1.06-.54,2.14-1.07,3.2-1.59.82-.42,1.59-.89,2.39-1.33.17-.1.34-.21.53-.28.68-.31.95-.31,1.21-.14.06.04.13.07.17.11.14.13-.04.45-.48.79-1.32,1.01-2.86,1.76-4.38,2.55-1.17.51-2.37.98-3.57,1.46v-.02Z"/><path class="cls-1" d="M357.16,403.78s9.28.13,7.67,2.82-24.19,9.52-24.19,9.52c0,0,15.03-6.23,15.41-8.16s1.11-4.19,1.11-4.19Z"/><path class="cls-1" d="M392.68,468.22c-2.12-.6-4.26-1.17-6.41-1.66l-2.36-.5c-2.77-.66-5.55-1.27-8.37-1.73-1.25-.2-2.51-.39-3.75-.55-1.61-.07-3.18-.71-4.8-.83-.5-.06-.43-.1,0-.13.29-.02.6-.03.89-.05.37-.04.81-.16,1.29-.23,3.37-.49,6.68.01,9.97.68,1.97.4,4.04.65,6.05,1.03,2.21.43,4.4.99,6.58,1.55,1.34.35,2.68.73,4.01,1.1,2.01.6,4.03,1.2,6.03,1.79,1.55.46,3.12.77,4.67,1.18.34.08.69.14,1.01.29.62.24,1,.46,1.23.71.24.23.35.45.4.72.02.12.07.25.07.35,0,.34-.61.47-1.61.43-1.46-.12-2.82-.6-4.24-1.01-1.4-.44-2.83-.86-4.26-1.28-2.13-.63-4.26-1.26-6.42-1.82v-.05Z"/><path class="cls-1" d="M98.35,416.7c.48.36.81.58,1.37.81.54.22,1.19.41,1.9.63.52.16,1.1.27,1.67.56,1.01.47,1.98,1.42,2.44,2.36.5.94.75,1.81,1.05,2.64.26.75.59,1.49.87,2.26.18.49.31,1.02.39,1.55.02.55-.11,1.11-.26,1.64-.12.33-.23.27-.51.03-.25-.25-.84-.65-1.25-1.07-.23-.4-.43-.81-.64-1.22l-.52-1.31c-.37-.87-.74-1.91-1.02-2.71-.38-1.03-1.04-1.37-2.04-1.67-1.09-.37-2.56-.48-4.09-1.15-.93-.41-1.62-.98-2.3-1.39-.89-.6-2.05-.93-3.27-1.05-.94-.09-1.89.09-2.79.24-.2.03-.39.08-.59.08-.36.01-.59-.01-.78-.17-.1-.1-.17-.2-.25-.33-.08-.14-.15-.31-.22-.47l-.19-.38c-.08-.19-.06-.38.05-.72.1-.37.34-.62.66-.77.95-.48,1.95-.64,2.95-.68,1.01-.04,2.02.05,3.08.26.78.17,1.6.38,2.51.86.74.4,1.32.81,1.82,1.1l-.04.07Z"/><path class="cls-1" d="M103.77,424.86c-.87-1.39-1.97-2.54-3.34-3.33-.5-.28-1.06-.48-1.62-.68-.5-.17-1.01-.32-1.54-.46-.53-.14-1.04-.23-1.66-.43-1.11-.4-2.09-.91-3.1-1.38-.89-.41-1.8-.78-2.71-1.06-.59-.18-1.18-.28-1.76-.44-.58-.14-1.18-.25-1.78-.17-.38.03-.36-.02-.06-.21.29-.21.92-.52,1.73-.61.71-.08,1.4.06,2.03.26.65.18,1.27.41,1.88.66,1.21.49,2.37,1.08,3.51,1.58.34.15.68.27,1.01.35l1.17.23c.79.16,1.6.34,2.39.63.86.32,1.7.77,2.43,1.34.73.58,1.35,1.27,1.88,2.01.66.92,1.17,1.85,1.7,2.79.79,1.42,1.59,2.84,2.37,4.24.61,1.09,1.26,2.12,1.92,3.15l.45.67c.56.83.64,1.16.66,1.43,0,.06.01.14,0,.18-.02.14-.39-.09-.94-.63-.76-.84-1.47-1.76-2.15-2.7-.67-.95-1.36-1.91-1.9-2.95-.83-1.52-1.66-3.05-2.61-4.46l.03-.02Z"/><path class="cls-1" d="M113.25,436.39c-.36-.39-7.66,2.16-6.2,4.16,2.04,2.79,16.78,1.79,16.78,1.79l-7.19-3.28-3.39-2.67Z"/><path class="cls-1" d="M125.9,393.47c-1.38-.11-2.78-.2-4.17-.19-.51-.02-1.01.06-1.52.06-1.79.01-3.6.08-5.39.3-.8.09-1.58.27-2.35.45-.5.12-.98.3-1.48.38-.5.11-1,.19-1.55.15-.34-.02-.36-.26-.19-.66.09-.2.22-.44.4-.69.18-.23.42-.43.7-.55,1.01-.42,2.08-.57,3.14-.76,1.07-.17,2.15-.28,3.24-.29,1.3-.03,2.63-.24,3.95-.3,1.45-.06,2.91-.01,4.36.07.89.05,1.78.13,2.67.21,1.35.12,2.68.33,4.01.48,1.03.13,2.06.16,3.09.28.23.02.45.03.68.07.84.15,1.07.34,1.13.91.01.13.04.26.03.38-.02.41-.43.68-1.04.67-1.82-.04-3.66-.31-5.53-.51-1.38-.16-2.78-.31-4.18-.39v-.05Z"/><path class="cls-1" d="M101.5,402.36c.56.96.93,1.94,1.24,2.9.11.35.26.68.35,1.03.31,1.24.59,2.48.73,3.74.08.55.16,1.1.23,1.65.1.7.16,1.41.15,2.12,0,.22-.05.2-.15.02-.09-.17-.27-.49-.4-.88-.42-1.37-.99-2.66-1.31-4.03-.17-.83-.57-1.62-.9-2.41-.36-.87-.74-1.71-1.21-2.47-.29-.47-.62-.91-1-1.29-.57-.58-1.23-1.03-2-1.22-.59-.16-1.2-.05-1.69.13-.11.04-.21.08-.32.11-.39.1-.56.03-.93-.4-.08-.1-.18-.19-.26-.28-.27-.31-.25-.78.2-1.15.64-.56,1.54-.8,2.38-.78.85.01,1.7.23,2.42.67,1.11.64,1.89,1.59,2.49,2.52l-.04.03Z"/><circle class="cls-3" cx="313.52" cy="368.78" r="5.16"/><path class="cls-1" d="M225.43,420.34c-.06-.83.04-1.71.36-2.5.35-.78.86-1.42,1.41-1.95.41-.37.81-.75,1.26-1.01,1.61-.93,3.28-1.44,4.97-1.75.74-.14,1.48-.28,2.22-.42.94-.2,1.9-.24,2.86-.18.3.02.27.15.04.35-.23.19-.65.5-1.15.69-.9.35-1.8.56-2.69.85-.89.27-1.75.58-2.65.8-1.07.29-2.05.89-2.86,1.54-.93.69-1.53,1.59-1.67,2.62-.08.64.04,1.33.29,2.01.4,1.02,1.03,2.03,1.83,2.88.61.67,1.36,1.19,2.08,1.73l.49.34c.59.45.66.74.44,1.26-.05.12-.09.25-.15.36-.21.37-.67.45-1.21.19-1.54-.81-2.94-2.04-4.11-3.59-.85-1.15-1.6-2.53-1.83-4.2h.05Z"/><path class="cls-1" d="M356.16,403.68c-.42,1.21-.94,2.41-1.58,3.59-.31.59-.71,1.16-1.11,1.72-.47.54-.93,1.11-1.48,1.54-.79.65-1.61,1.21-2.48,1.63-1.54.73-3.06,1.2-4.54,1.72-1.48.53-2.99,1-4.48,1.51-1.32.45-2.63.96-3.92,1.47-.83.33-1.68.59-2.54.86-.85.27-1.72.51-2.61.68-.56.11-.49.08-.1-.23.38-.3,1.03-1.02,1.93-1.54.79-.46,1.58-.96,2.39-1.38l2.5-1.1c1.68-.71,3.37-1.41,5.12-1.97,2.09-.69,4.24-1.53,5.98-2.58.48-.29.93-.61,1.34-.97.42-.35.71-.78,1.07-1.19.61-.93,1.17-1.95,1.59-3.07.56-1.35.96-2.78,1.33-4.22.53-2.19.95-4.45,1.18-6.7.15-1.75.15-3.48.18-5.21,0-.38-.02-.76,0-1.14.04-1.42.28-1.85.91-2.16.15-.07.29-.16.44-.2.48-.14.91.46,1.08,1.55.2,1.61.28,3.25.26,4.92-.07,1.67-.28,3.35-.56,5.03-.41,2.49-1,4.98-1.82,7.45l-.06-.02Z"/><path class="cls-1" d="M310.89,373.91c-1.05-.56-1.94-1.47-2.48-2.49-.2-.37-.42-.73-.54-1.13-.2-.71-.27-1.45-.18-2.16.12-.72.36-1.39.7-1.98.3-.52.61-1.03,1.03-1.43.52-.53,1.16-.96,1.89-1.09.23-.04.25.13.18.39-.08.25-.19.65-.39.92-.68,1-1.06,1.94-1.3,2.93-.14.61.04,1.3.31,1.89.29.67.72,1.26,1.35,1.69.38.27.81.49,1.29.61.72.21,1.53.29,2.32.19.62-.08,1.2-.38,1.78-.6.13-.05.25-.11.39-.15.5-.14.7-.02.98.56.06.13.14.26.19.39.18.45.08.9-.28,1.17-1.06.83-2.43,1.11-3.9,1.13-1.09-.02-2.26-.24-3.36-.78l.02-.06Z"/><path class="cls-1" d="M389.25,172.45s11.57,5.51,13.86,2.84-3.23-7.08-3.23-7.08c0,0-6.91-6.54-9.37-3.22-2.45,3.32-1.26,7.46-1.26,7.46Z"/><path class="cls-1" d="M375.52,155.53c-1.55-.41-11-1.72-9.73,2.29,0,0,4.98,6.23,7.08,2.97,2.77-4.31,2.66-5.26,2.66-5.26Z"/><path class="cls-2" d="M371.71,162.83l6.96-13.36s2.07-4.21,1.51-8.99c-.56-4.79-5.35-15.26-5.35-15.26,0,0-3.43-7.17-.75-6.72s9.47,8.17,9.47,8.17c0,0,3.15,6.08,5.91-3.26,2.77-9.33,7.03-25.45,9.32-23.88,2.29,1.56,0,11.16,0,11.16l-1.88,14.12,3.45-2.62s9.95-19.77,11.83-19.22c1.87.55-.58,11.34-.58,11.34l-5.33,11.7s13.88-13.84,15.3-12.35-.71,5.83-.71,5.83l-9.5,13s0,2.85,2.71,2.02c2.7-.83,8.82-2.52,9.21-.66.39,1.86-8.84,8.66-9.88,8.85-1.04.19-17.41,12.49-17.41,12.49l-8.04,16.73-16.24-9.08Z"/><path class="cls-1" d="M381.62,168.8c-.93-.44-1.81-.97-2.65-1.5-.31-.19-.64-.34-.93-.55-1.03-.75-2.02-1.53-2.95-2.37-.42-.36-.86-.69-1.29-1.02-.56-.41-1.14-.8-1.5-1.48-.12-.21-.08-.21.16-.23.12,0,.29-.03.51-.06.2-.01.41,0,.61.07.67.27,1.26.66,1.87,1.01.59.37,1.19.73,1.72,1.19.64.55,1.44.89,2.18,1.29.81.44,1.63.87,2.48,1.22.52.22,1.04.45,1.58.62.81.26,1.65.5,2.49.55.66.04,1.3-.11,1.92-.25.14-.03.27-.06.41-.07.51-.02.69.1.9.66.05.12.1.24.14.36.12.39-.05.83-.47,1.06-.63.37-1.33.52-2.04.56-.71.05-1.43-.02-2.13-.14-1.05-.17-2.05-.5-3.02-.88l.02-.06Z"/><path class="cls-1" d="M118.01,165.99s13.13-6.45,17.37-3.66c5.13,3.39-11.3,10.4-12.68,8.86s-4.69-5.21-4.69-5.21Z"/><path class="cls-1" d="M109.93,179.01s-8.21,5.8-12.24,6.64c-4.03.85-6.37-1.34-4.74-3.28,1.63-1.94,10.78-10.41,12.78-7.47,2.01,2.94,4.19,4.11,4.19,4.11Z"/><path class="cls-2" d="M109.93,181.72s-4.96-9.65-9.09-12.54-25.33-10.59-27.46-11.48c-2.13-.89-11.69-4.87-5.76-5.75,5.93-.88,15.53.01,15.53.01l-7.06-9.27s-12.91-4.86-11.46-8.18c1.46-3.32,9.88,2.2,9.88,2.2l12.52,8.82-6.18-9.12s-11.67-9.7-8.95-11.99,13.4,6.73,13.4,6.73c0,0,10.54,11.29,9,6.68-1.54-4.61-7.08-18.11-7.08-18.11,0,0,2.97-1.39,5.73,3.1,2.75,4.49,11.35,18.62,11.35,18.62,0,0,4.97-8.06,8.01-9.8,3.04-1.74,7.22-4.15,7.27-.83.05,3.33-5.77,15.02-5.77,15.02l-1.28,12.61,5.5,7.54,6.04,6.71-14.13,9.02Z"/><path class="cls-1" d="M117.3,178.89c-.92.43-1.89.83-2.93,1.11-.38.11-.75.24-1.16.28-1.41.14-2.93-.13-4.14-.76-.55-.28-1.08-.58-1.55-.98-.29-.26-.62-.52-.81-.88-.16-.38-.26-.79-.25-1.19,0-.25.17-.25.46-.16.28.1.77.19,1.09.3.06.04.15.05.2.08.05.04.08.09.14.13.1.08.19.16.3.23.2.15.43.28.67.4.47.24.99.43,1.54.59.65.2,1.4-.04,2.11-.26.79-.21,1.62-.49,2.44-.89.5-.24,1-.5,1.5-.8.75-.45,1.54-.89,2.29-1.41.59-.39,1.09-.95,1.73-1.32.14-.09.27-.19.42-.26.57-.25.84-.12,1.16.51.07.14.15.28.22.43.2.5.13.99-.14,1.28-.76.92-1.67,1.49-2.72,2.16-.77.49-1.62.98-2.52,1.46l-.04-.06Z"/><path class="cls-1" d="M111.3,177.14c.75.14,1.65.04,2.55-.21.33-.08.64-.25.98-.33,1.21-.35,2.43-.82,3.63-1.34.53-.23,1.06-.48,1.59-.72.68-.3,1.37-.62,2.12-.73.46-.09.05.63-.64,1.06-1.28.69-2.49,1.55-3.87,2.19-.83.38-1.62.93-2.51,1.34-.98.4-2.06.71-3.2.77-.35.04-.71-.02-1.07-.04-.4-.07-.78-.18-1.1-.34-1-.47-1.72-1.16-2.48-1.77-.58-.49-1.2-.89-1.79-1.33-.13-.1-.27-.18-.39-.28-.43-.4-.44-.63-.13-1.14.07-.12.13-.24.21-.35.26-.37.71-.47,1.13-.26,1.24.64,2.18,1.57,3.1,2.35.34.29.67.56.99.76.15.09.31.18.44.23.13.05.21.09.43.1v.05Z"/><path class="cls-2" d="M231.95,189.47c-.56.85-16.15,24.85-17.96,38.96-1.81,14.12,4.39,27.57,7.48,30.85,3.09,3.28,13.82,11.88,25.13,13.1,11.32,1.22,22.71-5.43,22.71-5.43,0,0,7.8-3.79,12.89-13.39,5.08-9.6,15.81-9.04,16.09-15.53.28-6.49.28-17.51-3.11-18.35s-9.6,5.98-13.27-7.6c-3.67-13.58-10.51-25.39-15.28-28.38-4.77-2.99-24.53,0-24.53,0l-10.16,5.76Z"/><path class="cls-1" d="M215.97,216.76c-5.53-1.91-12.08-18.45-9.37-31.76s12.98-18.83,19.98-22.39c0,0,8.79-5.26,22.02-4.16,13.24,1.1,16.57,4.81,20.71,7.54,4.15,2.73,7.84,9.33,7.84,9.33,0,0,6.43-6.29,15.49-6.14s16.44,3.83,23.19,8.67,11.71,25.41,11.48,26.3-3.6,25.03-4.73,30.69c-1.13,5.66-11.89,16.25-19,18.54-7.11,2.29-13.31,2.31-15.08,1.95s-7.32-4.17-7.37-7.91,9.38-5.54,9.38-5.54c0,0,5.41-4.62,4.91-8.19-.5-3.57-1.78-5.95-3.97-6.59-2.18-.64-7.46-2.04-7.89-2.53s-2.52-14.59-6.4-20.42c-3.88-5.82-10.04-15.43-15.5-16.67-5.46-1.24-8.3-1.71-14.21,0s-14.39,6.23-21.03,12.24c-4.54,4.11-10.46,17.04-10.46,17.04Z"/><path class="cls-1" d="M83.61,418.03c-1.77.1-3.53.27-5.31.35-.65.04-1.28.18-1.93.2-2.3.1-4.6.21-6.9.32-1.02.06-2.03.19-3.03.32-1.28.19-2.57.42-3.89.31-.41-.04-.41-.52-.14-1.06.28-.54.83-1.16,1.55-1.33,2.57-.57,5.14-1.14,7.81-1.22,1.6-.04,3.21-.49,4.82-.73,1.77-.28,3.56-.45,5.36-.61l3.32-.3c1.69-.13,3.38-.27,5.05-.4.65-.05,1.3-.16,1.96-.24.65-.1,1.33-.17,2.02-.19.3-.02.61-.05.93,0,.59.08.97.21,1.23.48.24.24.32.54.3.96,0,.19,0,.38-.05.56-.15.6-.7.99-1.29,1.12-1.01.28-2.02.4-3.14.61-1.09.16-2.23.39-3.39.47-1.75.15-3.5.31-5.26.46v-.09Z"/><path class="cls-1" d="M269.32,268.47c-10.32,11.21-20.75,13.8-27.24,11.42-6.49-2.37-7.5-9.01-6.67-10.42,0,0,7.56,3.34,15.68,3.13,8.11-.21,18.23-4.13,18.23-4.13Z"/><path class="cls-1" d="M216.27,243.03c1.12,5.99,3.71,11.64,7.66,16.21.69.86,1.53,1.59,2.32,2.35.41.37.85.7,1.27,1.05.42.36.85.7,1.3,1.02,6.21,4.67,14.28,7.06,22.25,6.6,3.57-.15,7.14-.82,10.57-1.75,4.42-1.21,8.66-2.89,12.74-4.97.71-.22,1.04-.31,1.06-.25.02.06-.24.3-.6.87-.34.59-.99,1.24-1.79,2.03-.4.4-.87.77-1.38,1.17-.25.2-.52.4-.79.6-.29.16-.59.32-.9.49-2.2,1.12-4.48,2.1-6.83,2.85-2.36.7-4.77,1.25-7.2,1.64-2.44.39-4.91.59-7.42.58-.62.01-1.25-.02-1.88-.07-.63-.03-1.26-.09-1.89-.18-1.28-.13-2.48-.45-3.71-.67-2.91-.72-5.83-1.64-8.64-2.92-2.81-1.26-5.49-2.91-7.82-4.93-2.57-2.2-4.81-4.8-6.6-7.65-1.79-2.85-3.17-5.94-4.15-9.13-1.18-3.93-1.85-7.98-2.01-12.05-.12-3.08.1-6.17.51-9.22.51-3.03,1.17-6.03,2.1-8.93,1.42-4.51,3.2-8.84,5.58-12.91.54-.88,1.05-1.77,1.63-2.64,2.26-3.16,3.3-3.91,4.52-3.94.27-.01.58-.07.79-.03.7.13.23,1.75-1.26,3.98-2.12,3.39-4.09,6.95-5.73,10.71-1.63,3.76-2.91,7.71-3.69,11.77-1.15,6.02-1.24,12.27.06,18.28l-.09.03Z"/><path class="cls-1" d="M236.82,160.33c-5.91,1.43-11.58,4.05-16.42,7.77-1.76,1.36-3.37,2.91-4.85,4.54-5.37,5.66-8.54,13.33-9.42,21.22-.38,3.51-.21,7.09.44,10.52.37,2.22,1.14,4.33,1.88,6.44.81,2.09,1.76,4.07,2.43,6.38.67,1.28.54,1.15-.35.28-.2-.23-.56-.44-.98-.68-.12-.05-.2-.14-.37-.16-.08-.09-.2-.15-.29-.24-.19-.18-.39-.36-.6-.54-.41-.39-.9-.8-1.33-1.3-.39-.52-.72-1.11-1.06-1.73-1.21-2.21-1.86-4.67-2.43-7.09-.25-1.23-.49-2.45-.6-3.7-.18-1.24-.21-2.49-.23-3.73-.05-4.99.91-9.95,2.65-14.6,1.09-2.77,2.37-5.51,3.96-8.12,1.59-2.61,3.55-5.01,5.73-7.11,4.8-4.63,10.67-8,16.89-10.15,3.84-1.3,7.83-2.13,11.86-2.45,6.1-.47,12.38.28,18.05,2.61,4.38,1.8,8.5,4.35,11.7,7.96.35.4.72.77,1.05,1.18.32.42.63.84.95,1.27.61.79.98,1.52,1.3,2.13.31.61.57,1.1.66,1.56.2.91.14,1.51-.11,2.06-.11.25-.2.55-.34.72-.49.58-1.64-.58-3.08-2.73-4.19-6.45-11.02-11.31-19.02-12.8-5.88-1.19-12.13-.91-18.06.61l-.03-.08Z"/><path class="cls-1" d="M172.11,208.83c3.29,5.24,6.63,10.46,10.14,15.56,1.27,1.87,2.67,3.64,3.95,5.5,4.59,6.5,9.31,12.91,14.41,19.01,2.26,2.7,4.69,5.25,7.31,7.47,1.68,1.42,3.43,2.75,5.28,3.88.48.25.89.62,1.36.91.46.29.91.62,1.39.88.48.27.94.57,1.44.81.49.24.94.66,1.46.85,1.29.53,1.1.61-.14.58-.61-.03-1.58.16-2.69.03-1.11-.11-2.43-.3-3.75-.79-.6-.19-1.11-.54-1.65-.84-.54-.3-1.06-.63-1.57-.97-1.03-.67-2.02-1.38-2.96-2.15-1.85-1.57-3.55-3.27-5.15-5.02-1.6-1.76-3.11-3.56-4.55-5.4l-2.17-2.76-2.09-2.83c-3.31-4.53-6.95-9.07-10.25-13.74-3.63-5.13-7.12-10.36-10.5-15.66-1.05-1.62-2.08-3.26-3.1-4.9-1.03-1.63-2.05-3.27-3.06-4.92-3.09-4.97-6.03-10.05-9.03-15.03-2.32-3.87-4.74-7.58-7.04-11.41-.51-.84-1.01-1.67-1.49-2.53-.89-1.61-1.39-2.72-1.61-3.56-.25-.83-.21-1.41-.04-1.94.07-.24.1-.53.19-.69.23-.52,1.59.44,3.13,2.65,1.09,1.66,2.27,3.31,3.33,5.04,1.06,1.73,2.14,3.48,3.22,5.24,2.13,3.54,4.29,7.13,6.46,10.72,3.23,5.33,6.45,10.7,9.84,15.95l-.07.05Z"/><path class="cls-1" d="M182.39,302.12c-7.15-9.36-14.94-18.33-22.82-27.2-2.92-3.21-5.84-6.41-8.76-9.61-10.2-11.39-20.48-22.74-30.34-34.48-2.18-2.61-4.41-5.19-6.55-7.84-1.08-1.31-2.17-2.63-3.25-3.94-1.08-1.31-2.1-2.66-3.16-3.99-5.29-6.85-10.8-13.79-14.15-21.93-1.02-2.53-.81-2.21.77-.48.77.88,2.05,2,3.23,3.54,1.23,1.52,2.86,3.17,4.19,5.23l.92,1.35.99,1.31,1.97,2.62,1.97,2.62,2.05,2.57c1.36,1.72,2.68,3.47,4.07,5.16l4.18,5.1c5.64,6.76,11.4,13.46,17.22,20.19,6.93,8.07,14.61,16.07,21.96,24.13,8.06,8.87,16.08,17.82,23.7,27.14,4.67,5.76,9.21,11.64,13.31,17.83,6.33,9.28,11.49,19.64,14.31,30.53,2.2,8.45,3.53,16.86,4.89,25.26.31,1.85.61,3.66.92,5.52.28,1.73.47,3.16.58,4.38.11,1.21.21,2.19.21,3.01,0,1.64-.19,2.61-.53,3.43-.15.37-.28.85-.44,1.08-.27.39-.65-.1-1.16-1.31-.5-1.21-1.17-3.13-1.72-5.66-1.62-7.48-2.67-15.27-4.05-22.99-1.37-7.72-3.07-15.36-6.14-22.53-2.24-5.34-4.98-10.51-8.18-15.46-.75-1.26-1.6-2.48-2.43-3.7-.84-1.22-1.64-2.46-2.51-3.66l-2.63-3.59-1.32-1.79-1.37-1.75.07-.07Z"/><path class="cls-1" d="M121.06,199.04c1.56-.74,3.06-1.59,4.56-2.45.54-.33,1.03-.73,1.57-1.05,1.91-1.16,3.78-2.42,5.56-3.81.81-.6,1.55-1.28,2.28-1.96l.69-.67c.24-.21.5-.4.77-.6.52-.39,1.07-.75,1.63-1.1.36-.21.47-.03.44.42-.03.44-.11,1.25-.47,1.95l-.51.9c-.17.3-.42.52-.63.78-.44.5-.9.99-1.37,1.47-.93.98-2.04,1.76-3.16,2.53-1.37.89-2.58,2.08-3.94,3.04-1.47,1.08-3.07,1.99-4.66,2.88-.99.53-1.98,1.06-2.98,1.55-.75.39-1.52.75-2.29,1.1-.76.37-1.52.72-2.27,1.09-1.15.6-2.23,1.32-3.35,1.99-.25.14-.48.31-.74.43-.12.05-.24.09-.35.11-.12,0-.24-.02-.34-.04-.21-.04-.39-.09-.55-.15-.31-.13-.53-.31-.75-.56-.1-.11-.21-.21-.28-.31-.23-.32,0-.9.47-1.76.16-.35.39-.52.63-.68l.73-.47c.48-.31.98-.6,1.5-.87,1.02-.54,2.07-1.05,3.12-1.55,1.55-.76,3.14-1.47,4.66-2.3l.04.07Z"/><path class="cls-1" d="M117.95,132.19s-.02-.04-.02-.05c-.08-.1-.17-.19-.23-.25-.14-.13-.2-.17-.29-.21-.08-.04-.21-.06-.4-.07-.21.02-.44.03-.72.11-.54.13-1.2.4-1.78.68-.38.19-.84.55-1.27,1.05-.87.98-1.66,2.26-2.45,3.58-.82,1.33-1.56,2.72-2.74,4.17-.51.59-1.09,1.18-1.75,1.56-.66.39-1.39.55-2.13.53-.26-.07-.53-.16-.77-.26-.12-.05-.25-.08-.36-.16l-.33-.25c-.23-.15-.42-.38-.61-.6-.2-.22-.39-.44-.56-.69l-.43-.63-.29-.47c-.2-.31-.37-.62-.54-.93-1.99-3.63-3.68-7.25-5.57-10.78-.94-1.76-1.89-3.5-2.97-5.13l-.57-.86c-.12-.18-.26-.37-.4-.55-.29-.36-.62-.74-1.07-.98-.22-.1-.48-.15-.69-.03-.37.17-.35.64-.26.98.09.36.24.72.39,1.06l.25.5.32.61c.36.68.71,1.36,1.07,2.03,1.07,2.02,2.1,4.1,2.97,6.27.42,1.09.84,2.2,1.09,3.35.24,1.16.47,2.32.48,3.52-.21,1.52-.23,1.28-.98.21-.42-.53-.86-1.28-1.46-2.13-.28-.43-.62-.88-.92-1.38-.28-.5-.56-1.04-.82-1.61-.57-1.22-1.19-2.43-1.85-3.64-.67-1.2-1.35-2.41-1.99-3.67l-1.12-2.18c-.61-1.25-1.21-2.54-1.51-3.7-.28-1.14-.24-2.04-.03-2.76.2-.7.66-1.39,1.5-1.96.61-.22,1.13-.46,1.68-.45.26.02.51,0,.77.06.26.09.51.12.78.25.27.13.53.25.79.4l.83.6c.27.2.55.54.83.8l.41.42.39.5.78.99.37.52.31.46c.27.41.51.82.76,1.23.48.83.95,1.65,1.4,2.48,1.35,2.49,2.72,5.03,4.1,7.59.69,1.25,1.39,2.5,2.09,3.76.35.62.71,1.23,1.07,1.82.18.3.36.58.54.87l.27.4c.1.12.2.3.37.32.25.02.47-.14.65-.31.05-.05.09-.08.14-.14.09-.1.19-.23.29-.35.2-.25.39-.53.58-.8.77-1.13,1.51-2.39,2.31-3.65.82-1.25,1.68-2.54,2.94-3.7.31-.29.67-.56,1.06-.81.43-.26.77-.4,1.13-.57.73-.32,1.5-.6,2.39-.76,2.45-.67,5.85,1.73,5.1,4.72-.26,1.25-.83,2.19-1.41,3.07l-.81,1.18-.72,1.19c-1.44,2.42-2.54,5.1-3.3,7.87-.76,2.75-1.26,5.68-1.23,8.43.07,2.14.71,4.18,1.77,5.99,1.08,1.81,2.52,3.44,4.03,5.05.68.71,1.35,1.4,2.04,2.11,2.53,2.7,3.18,3.76,3.1,4.86-.01.25.02.53-.03.72-.18.6-1.55-.19-3.46-2.06-1.43-1.38-2.91-2.78-4.37-4.31-1.45-1.53-2.9-3.22-4.02-5.27-1.14-2.04-1.85-4.45-1.95-6.84-.03-.6,0-1.19,0-1.78.03-.58.07-1.13.13-1.69.1-1.12.29-2.21.46-3.32.56-3.27,1.48-6.48,2.84-9.6.35-.78.72-1.55,1.15-2.3.24-.36.46-.74.71-1.09l.71-1.01c.39-.54.72-1.09.88-1.52.09-.22.13-.4.14-.48,0-.06,0-.04,0-.08l.07-.04Z"/><path class="cls-1" d="M79.77,150.92l-.05-.06s-.03-.04-.15-.15l-1.29-1.19-2.69-2.36-5.48-4.75c-.91-.8-1.82-1.62-2.72-2.45l-1.49-1.41c-.79-.75-1.54-1.52-2.21-2.29-.67-.76-1.25-1.52-1.64-2.19-.39-.68-.58-1.26-.68-1.81-.08-.55-.11-1.03.15-1.66.14-.32.41-.61.7-.83l.43-.28.41-.2c.85-.26,1.66-.26,2.71-.03.23.02.55.17.82.25.28.1.56.18.88.34l.92.42c.32.17.64.36.96.55.64.35,1.29.8,1.93,1.22.38.25.49.33.69.47l.56.39c.73.53,1.45,1.07,2.15,1.62,2.48,1.94,4.85,3.95,7.24,5.88,1.19.96,2.39,1.91,3.59,2.72.29.19.6.39.86.53.15.09.27.15.38.19.14.07.17.06.22.09,0,.17-.07.29-.08.41-.02.13-.02.26,0,.4,0,.07.03.14.04.2,0,.04,0,.09.02.13.05.11.05.13.08.15.03.02-.02-.02-.05-.02-.1-.04-.12-.02-.28-.04-.16-.01-.23.02-.45.05-.1.01-.19.03-.29.05l-.14.04c-.06.02-.09.03-.07.03-.02-.07-.15-.39-.31-.66-.68-1.17-1.64-2.42-2.56-3.62l-2.95-3.56c-1.99-2.38-4-4.76-5.9-7.28-.87-1.19-1.55-2.01-2.74-4.05-.49-.9-.84-1.79-.97-2.59-.1-.78-.11-1.59.49-2.27.63-.64,1.46-.86,2.26-.84.8,0,1.68.27,2.56.69l.67.33.66.41c.22.13.44.27.65.42l.53.38c.58.42,1.14.87,1.69,1.31,2.78,2.31,5.26,4.85,7.69,7.42l1.79,1.95,1.69,2.03,1.67,2.04c.29.33.51.72.77,1.07l.38.54c.06.09.12.18.19.27l.05.06.03.03v.02s.02,0,.02,0h0c-.09.09-.02.03-.04.05l.07.16c.47,1.06.7,1.5.66,1.49-.05,0-.41-.39-1.32-.8-1.83-.81-4.92-2.64-7.82-5.41-2.51-2.52-5.05-4.98-7.64-7.22-.64-.55-1.28-1.11-1.93-1.6-.16-.13-.32-.25-.48-.36-.07-.05-.02-.02-.04-.04v-.02s-.15-.1-.17-.03c0,.02,0,.06,0,.1,0,.03,0,.04.03.08l.7,1.06c.97,1.42,2.02,2.83,3.11,4.24,2.22,2.84,4.44,5.68,6.67,8.54.68.87,1.36,1.75,2.03,2.74.33.53.67.97.99,1.86.07.22.17.55.15,1.06-.04.33-.09.67-.39,1.11-.24.37-.74.67-1,.74-.36.12-.51.11-.71.12-.19,0-.42,0-.56-.03-.23-.06-.49-.12-.7-.2-1.4-.6-2.26-1.27-3.22-1.94-.93-.68-1.82-1.36-2.7-2.06-1.73-1.38-3.47-2.77-5.21-4.15l-2.6-2.02-1.3-.98-1.15-.83c-.33-.24-.67-.47-1.05-.68-.37-.19-.81-.44-1.26-.34-.1.04-.21.1-.25.2-.03.1-.01.21.02.31.07.2.19.37.31.55.25.35.56.67.88,1.01.09.12,1.22,1.19,2.07,1.95l2.71,2.4,5.52,4.75c1.14.98,2.27,1.97,3.39,3.02.7.68,1.66,1.58,2.13,2.4.24.42.4.82.42,1.27,0,.11-.01.25-.07.35-.05.1-.13.18-.2.27-.13.18-.26.36-.47.5-.76.61-1.75,1.06-2.84,1.29l-.83.14-.64.06c-.41.02-.82.03-1.22.02-1.61-.02-3.13-.29-4.61-.59-1.12-.2-2.22-.5-3.29-.74-.51-.11-1.12-.22-1.53-.23-.37,0-.64.03-.91.2-.23.18-.38.55-.22.81.18.25.44.4.74.59.94.52,1.97.96,3,1.39,4.13,1.73,8.38,3.27,12.62,4.73,3.32,1.11,6.6,2.22,9.88,3.32l2.47.85c.77.26,1.78.66,2.57,1.16,1.64.97,2.99,2.19,4.28,3.45,1.13,1.12,2.12,2.3,3.08,3.56,3.49,4.74,3.81,6.76,3.67,8.17-.04.33-.04.74-.13.95-.14.36-.57.06-1.23-.73-.68-.79-1.66-2.04-2.82-3.68-1.74-2.43-3.78-4.69-5.9-6.74-1.06-1-2.21-1.94-3.33-2.53-.46-.23-1.25-.54-1.99-.81l-2.23-.83c-6.01-2.19-12.19-4.31-18.32-6.77-2.31-.89-4.51-1.95-6.75-3.41-.77-.55-1.88-1.36-2.12-2.27-.26-.96.1-2.12.87-2.77.37-.36.89-.56,1.44-.71l.86-.12.72-.07c.72-.08,1.38-.09,2.04-.1.65,0,1.29-.02,1.9.04l1.79.21c.58.06,1.16.11,1.72.15.56.07,1.1.1,1.63.12.51.02,1.06,0,1.47-.05.03,0,.05,0,.08,0,.03,0,.06-.02.09-.04.01-.03-.02-.05-.03-.08l.1-.02Z"/><path class="cls-1" d="M362.42,261.04c3.93-6.26,7.78-12.58,11.41-19.03,1.33-2.35,2.58-4.75,3.86-7.12,4.62-8.32,8.99-16.79,13.25-25.32,1.88-3.79,3.66-7.66,5.37-11.49,1.1-2.46,2.24-4.92,3.38-7.37l.87-1.83,1.02-1.77,1.03-1.76c.35-.58.78-1.13,1.16-1.7,1.01-1.39.74-1.27.44.16-.17.71-.2,1.8-.44,3.03-.11.63-.23,1.3-.36,2.01-.06.36-.16.71-.21,1.1-.13.35-.26.71-.4,1.07-1.03,2.56-2.03,5.14-3.11,7.68-1.12,2.53-2.26,5.05-3.43,7.55-1.16,2.51-2.37,5.01-3.6,7.5-1.22,2.5-2.51,4.96-3.85,7.41-3.17,5.87-6.22,12.11-9.47,18.11-3.64,6.56-7.38,13.07-11.32,19.46l-3.64,5.89-3.74,5.83c-3.79,5.87-7.77,11.66-11.7,17.37-.75,1.12-1.5,2.23-2.24,3.35-.75,1.11-1.51,2.21-2.26,3.31-1.5,2.2-2.95,4.43-4.49,6.61-.68.96-1.32,1.91-2.05,2.85-1.34,1.74-2.27,2.85-3.04,3.54-.81.66-1.4.94-2.01,1.06-.28.05-.59.17-.8.16-.36-.01-.36-.45-.1-1.25.26-.8.75-1.99,1.64-3.32,5.19-7.96,10.94-16.1,16.59-24.37,2.06-3.1,4.12-6.2,6.18-9.31,2-3.15,4.05-6.27,6-9.45l.08.04Z"/><path class="cls-1" d="M378.89,139.66c-.27-1.43-.8-2.97-1.4-4.49-.6-1.52-1.27-3.05-1.96-4.59-.5-1.12-1.09-2.21-1.58-3.36-.58-1.41-1.15-2.82-1.65-4.37-.06-.19-.12-.39-.17-.59l-.08-.3-.09-.43c-.06-.3-.12-.6-.14-.9l-.04-.45c0-.15.02-.29.04-.43.04-.58.22-1.1.52-1.55.14-.23.34-.42.55-.61.24-.13.47-.29.72-.39.94-.34,2-.23,2.96.21,1.07.48,1.56.93,2.15,1.41,1.57,1.41,2.91,2.91,4.03,4.55.73,1.04,1.41,2.12,2,3.24.57,1.13.9,2.4,1.02,3.69-.06.44-.08.63-.09.62-.02,0-.09-.18-.4-.4-.32-.21-.71-.54-1.24-.89-.25-.18-.56-.35-.81-.57-.25-.22-.48-.46-.7-.72-.65-.9-1.28-1.8-1.98-2.64-.69-.84-1.41-1.65-2.08-2.46-.69-.79-1.42-1.53-2.15-2.11-.16-.13-.4-.29-.49-.36-.02-.03-.05-.07-.09-.1-.07-.07-.18-.15-.32-.17-.09-.02-.19,0-.26.06-.15.11-.16.34-.14.57,0,.01.04.23.08.38.03.16.08.33.12.51.09.34.21.69.32,1.03.5,1.39,1.18,2.77,1.8,4.17,1.36,3.09,2.85,6.18,3.95,9.54.32,1.04.62,2.13.73,3.27.03.56.1,1.11.11,1.67-.02.56,0,1.12-.05,1.67-.28,3.38-1.59,6.51-3.07,9.34-1.15,2.22-2.3,4.36-3.51,6.46-.27.46-.5.93-.78,1.38-1.03,1.68-1.51,2.1-2.45,2.03-.21-.01-.43,0-.61-.05-.61-.14-.67-1.15-.02-2.48,1.89-3.98,4.47-7.69,6.06-11.58.58-1.44,1.01-2.91,1.23-4.38.25-1.46.15-3.01-.07-4.4l.07-.02Z"/><path class="cls-1" d="M406.25,114.91c-1.24,2.36-2.46,4.75-3.78,7.12l-.67,1.21c-.29.53-.59,1.08-.9,1.59-.61,1.03-1.27,1.98-1.9,2.55-.63.59-1.18.84-1.74.97-.28.06-.59.1-1.01-.02-.43-.13-.69-.39-.9-.62-.4-.52-.67-1.09-.81-1.97-.23-1.38,0-3.4.32-5.29l.32-1.83.34-1.64,1.32-5.68.64-2.82.3-1.41.25-1.25c.12-.68.36-1.52.19-2.41-.05-.23-.29-.37-.48-.29-.19.06-.32.21-.44.37-.24.32-.42.7-.59,1.1l-.22.56-.29.84c-.27.8-.53,1.62-.78,2.44-.48,1.65-.96,3.3-1.44,4.94-.63,2.11-1.17,4.26-2,6.33-.79,2.08-1.73,4.15-3.1,5.97-.53.51-.78.69-.82.64-.05-.06.08-.38.16-.99.06-.63.24-1.43.37-2.43.13-1,.34-2.12.68-3.31.31-1.05.54-2.13.86-3.19l.93-3.19c.61-2.14,1.21-4.3,1.88-6.48l.52-1.63.14-.41c.02-.05.05-.15.09-.3l.14-.39c.19-.51.35-1.04.56-1.52.77-2.04,1.77-3.53,2.65-4.1.46-.33.87-.47,1.44-.56.57-.15,1.45.14,1.79.55.38.39.62.83.8,1.41.17.58.27,1.32.25,2.19-.02,1.04-.16,2.21-.34,3.36l-.14.87-.11.58-.2,1.03c-.27,1.36-.55,2.72-.82,4.1-.55,2.72-1.12,5.45-1.61,8.12l-.16.85-.09.54c-.05.37-.11.76-.05,1.17.02.09.05.2.12.27.07.08.18.07.25.03.16-.08.28-.22.39-.35.23-.28.44-.6.65-.94l.34-.58.71-1.31,1.38-2.67c1.69-3.32,3.35-6.69,5.17-10.01.35-.63.7-1.25,1.07-1.88l.57-.93.3-.46.38-.56c.58-.85,1.23-1.67,1.91-2.22.69-.52,1.36-.95,2.23-.8.21.05.42.15.55.29l.22.2.18.25c.23.34.41.71.53,1.13.25.83.31,1.8.28,2.8-.08,1.06-.17,1.71-.32,2.43-.13.72-.3,1.43-.47,2.13-.55,2.17-1.2,4.28-1.9,6.36-.71,2.07-1.45,4.14-2.35,6.13-.39.88-.76,1.75-1.2,2.62-1.64,3.22-2.49,4.08-3.62,4.3-.26.05-.54.15-.75.15-.69-.02-.48-1.56.52-3.93.74-1.76,1.45-3.55,2.14-5.37.68-1.82,1.44-3.62,2.1-5.46.67-1.83,1.29-3.69,1.79-5.54.24-.92.46-1.85.6-2.74l.08-.51s0-.09,0-.07h0s0-.01,0-.02c0,0,0,0-.02,0l-.49.74-.57.93c-1.5,2.52-2.88,5.22-4.26,7.92l-.07-.03Z"/><path class="cls-1" d="M417.08,138.27c1.25-.73,2.49-1.48,3.58-2.31.28-.21.53-.42.79-.63l.36-.32c.06-.05.11-.11.17-.16.03-.03.02-.01.03-.02.08-.07.18-.17.21-.3.05-.14-.09-.24-.21-.28-.06-.02-.13-.03-.2-.03-.05,0-.04,0-.14,0-.15,0-.31.04-.47.05-1.29.19-2.71.59-4.12,1.04l-1.58.51c-.81.25-1.81.56-2.69.7-.91.16-1.69.11-2.3-.11-.3-.12-.61-.24-.88-.45-.27-.21-.51-.56-.58-.88-.14-.55-.09-1.1.1-1.75.2-.65.58-1.36,1.03-2.05,1.1-1.62,1.52-2.08,2.16-2.91l3.66-4.49c1.21-1.49,2.39-2.98,3.49-4.51l.46-.65c.12-.18.24-.36.36-.55.22-.39.46-.81.56-1.29.04-.19.03-.41-.08-.57-.1-.17-.32-.18-.48-.12-.17.06-.33.15-.47.26-.3.21-.58.45-.85.71-.27.25-.52.51-.77.77l-1.55,1.61c-1.47,1.6-3.01,3.15-4.62,4.66-1.6,1.51-3.27,2.98-5.2,4.13-1.25.66-1.14.45-.51-.58.34-.58.77-1.3,1.26-2.12.53-.85,1.2-1.79,2-2.74l2.6-3.13c.84-1.08,1.83-2.02,2.76-3.04l.72-.75,1.17-1.18c.96-.96,1.97-1.85,2.91-2.49.95-.66,1.72-.84,2.35-.87.33,0,.62.02.94.12.31.09.67.36,1.06.61.39.42.64.82.76,1.25.13.42.18.86.14,1.37-.07,1-.54,2.33-1.38,3.7-.4.68-.86,1.35-1.28,2.01l-.28.4-.2.27-.4.54c-.53.72-1.07,1.41-1.63,2.1-1.7,2.12-3.42,4.26-5.04,6.44l-1.12,1.55c-.13.18-.25.37-.36.56-.09.19-.26.4-.18.62.18.15.42.11.63.09.24-.04.47-.09.74-.16l2.12-.6c1.48-.41,2.96-.88,4.65-1.06.51-.06,1.19-.07,1.74,0,.57.09,1.12.23,1.57.53.45.28.83.67,1.08,1.13.15.53.18,1.04.07,1.56-.15.51-.37,1.02-.71,1.49-.18.23-.34.47-.54.69l-.31.33c-.07.08-.15.15-.22.22-.6.58-1.23,1.07-1.86,1.54-3.12,2.28-6.43,4.04-9.73,5.79-1.26.65-2.51,1.31-3.78,1.91l-1.87.93c-.6.31-1.19.67-1.78,1-2.34,1.4-4.49,3.12-6.31,5.13-1.43,1.55-2.6,3.3-3.64,5.1-1.03,1.82-1.95,3.68-2.76,5.62-.36.85-.67,1.71-1.01,2.58-1.26,3.24-1.75,4.25-2.72,4.72-.21.11-.44.27-.62.32-.58.17-.69-1.39.04-3.92.53-1.88,1.14-3.77,1.9-5.65.76-1.88,1.6-3.78,2.71-5.56,1.09-1.79,2.34-3.54,3.79-5.13,1.42-1.62,3-3.13,4.73-4.45.65-.48,1.31-.94,1.98-1.4.69-.42,1.36-.85,2.07-1.25,1.4-.76,2.7-1.45,4.07-2.1,2.69-1.32,5.36-2.66,7.88-4.15l.05.06Z"/><path class="cls-1" d="M384.08,190.52l-4.45-2.7c-.54-.33-1.11-.61-1.63-.95-1.84-1.25-3.68-2.5-5.52-3.75-.82-.55-1.67-1.04-2.5-1.55-1.06-.66-2.13-1.32-3.07-2.17-.29-.27-.09-.5.37-.61.46-.11,1.19-.15,1.85.14,2.37.98,4.53,2.26,6.66,3.68,1.26.87,2.74,1.47,4.12,2.19l4.53,2.44c.93.49,1.87.99,2.81,1.45,1.43.7,2.87,1.44,4.35,2.02,1.15.46,2.35.72,3.53,1.04.26.07.53.11.78.2.95.32,1.16.66,1.02,1.58-.03.21-.05.43-.1.63-.17.69-.76,1.07-1.53.98-2.27-.28-4.51-1.02-6.61-2.08-1.57-.76-3.11-1.61-4.64-2.45l.03-.07Z"/><path class="cls-1" d="M394.12,182.75c-.28.47-.68.88-1.11,1.2-.44.3-.88.49-1.27.66-.19.08-.37.18-.56.29-.08-.04-.14-.06-.23-.13-.46-.31-.84-.67-1.07-1.12l-.15-.34c-.02-.12-.08-.26-.09-.35-.04-.2-.06-.4-.06-.59,0-.34,0-.68.07-1.02.08-.42.26-.92.73-1.11.14-.06.33.25.51.56.17.32.41.61.41.68-.02.14-.03.29-.03.46,0,.09,0,.17,0,.26,0,.09,0,.19-.05.23-.07.17.1.3.21.28h0c.13-.03.29-.1.47-.24.1-.09.21-.21.27-.36.11-.22.09-.55-.13-.69-.08-.05-.18-.06-.28-.02-.05.01-.09.04-.14.07,0,.02,0,.04,0,.06h0s0,.02,0,.02v-.22s0-.01,0-.01v-.06c-.01-.09,0-.11-.03-.16-.02-.05,0,0,.01,0,.01.01.03.03.05.04h0s-.09-.06-.09-.06c-.06-.04-.13-.09-.21-.14-.14-.09-.29-.17-.44-.25-.25-.13-.47-.28-.58-.5-.11-.21-.12-.49.09-.75.3-.36.8-.6,1.22-.65.45-.03.73-.04,1.01.06.59.15,1.08.6,1.47,1.08.48.81.58,1.83.06,2.83h-.06Z"/><path class="cls-1" d="M355.32,393.91c.44-5.73.73-11.48.92-17.24.21-5.76.33-11.52.33-17.28,0-5.76-.12-11.52-.44-17.25-.35-5.71-.8-11.48-2.07-16.89-.25-.97-.51-1.93-.85-2.82-.33-.88-.75-1.72-1.18-2.22-.1-.07-.21-.23-.27-.24-.05-.06-.11-.05-.17-.09l-.15-.03-.3-.03c-.2-.03-.45-.03-.68-.05-.96-.04-2-.01-3.03.03-4.13.17-8.33.58-12.5.98-14.74,1.51-29.47,3.62-44.07,6.25-7.3,1.33-14.57,2.81-21.74,4.61-3.58.91-7.14,1.9-10.61,3.09-1.73.59-3.44,1.24-5.09,1.98-1.63.74-3.25,1.58-4.48,2.61l-.38.35-.32.36c-.09.12-.15.23-.24.35-.08.13-.15.32-.23.48-.33.63-.54,1.39-.79,2.11-.39,1.52-.72,3.08-.92,4.69-.44,3.2-.63,6.48-.73,9.75-.19,6.56,0,13.13.3,19.66.39,8.39,1.01,16.79,1.62,25.2l.45,6.31.34,6.32c.19,4.22.48,8.43.25,12.67-.29,2.65-.48,3.79-.56,3.72-.11-.07-.19-1.36-.76-3.56-.33-1.09-.54-2.43-.88-3.95-.37-1.52-.61-3.25-.93-5.13-.31-1.89-.61-3.94-.9-6.12-.14-1.09-.28-2.22-.42-3.37-.11-1.16-.21-2.34-.3-3.55-.62-8.58-1.21-17.18-1.6-25.81-.37-8.63-.62-17.29-.13-26.06.15-2.2.32-4.39.65-6.62.33-2.23.73-4.46,1.62-6.78.11-.29.27-.59.4-.88.16-.31.24-.56.46-.91.23-.36.48-.72.73-.98l.38-.42.38-.34c1.03-.9,2.07-1.52,3.11-2.09,2.07-1.09,4.16-1.91,6.25-2.66,8.38-2.87,16.87-4.76,25.42-6.47,10.22-2.01,20.68-3.78,31.23-5.35,10.56-1.54,21.18-2.96,31.86-3.69,1.47-.09,2.95-.16,4.45-.18.76,0,1.51,0,2.32.05.42.03.8.06,1.38.19.28.09.57.21.84.33.26.16.51.33.72.5.83.72,1.25,1.49,1.65,2.23.39.75.67,1.49.93,2.23.5,1.48.85,2.95,1.15,4.42,1.15,5.88,1.62,11.74,1.96,17.6.63,11.72.58,23.42.18,35.12-.2,5.15-.47,10.31-.87,15.46-.2,2.58-.43,5.15-.74,7.73-.15,1.29-.32,2.58-.54,3.88-.11.65-.23,1.31-.38,1.97-.09.34-.16.67-.28,1.03-.09.32-.31.85-.57,1.23-.51.62-1.01,1-1.49,1.31-.48.32-.96.6-1.44.84-.96.51-1.92.92-2.88,1.33-1.93.79-3.87,1.48-5.81,2.13-10.41,3.41-21.01,6.03-31.6,8.58-10.6,2.52-21.21,4.85-31.78,7.06-6.23,1.3-12.43,2.57-18.61,3.76-3.09.59-6.19,1.17-9.29,1.7-1.55.26-3.11.51-4.68.73-.79.11-1.58.21-2.39.29-.4.04-.82.07-1.25.09-.23,0-.42.02-.7,0-.31,0-.61-.07-.9-.14-.43-.15-.63-.24-.91-.36-.27-.12-.5-.24-.75-.37-.48-.25-.94-.52-1.38-.78-.9-.54-1.75-1.1-2.6-1.68-1.69-1.16-3.32-2.38-4.91-3.65-2.89-2.35-5.66-4.68-8.19-7.68-.58-.71-1.11-1.43-1.58-2.23-.24-.44-.42-.76-.64-1.4-.16-.6-.29-1.2-.21-1.79.1-1.2.9-2.13,1.76-2.78.79-.55,1.42-.81,2.06-1.05,2.5-.88,4.42-1.09,6.01-1.33,3.17-.41,4.96-.43,6.47-.33.69.05,1.58,0,2.02.06.75.08-.17.85-2.6,1.66-1.21.4-2.77.81-4.61,1.27-.92.23-1.91.47-2.94.76-1.03.29-2.11.62-3.1,1.06-.25.11-.49.23-.71.36-.19.11-.45.29-.5.34-.13.12-.25.27-.25.45,0,.09.02.17.05.25.01.04.03.07.06.14.04.09.08.19.15.3.22.42.56.89.91,1.34,1.46,1.84,3.32,3.6,5.23,5.28,1.92,1.68,3.96,3.29,6.05,4.81,1.05.76,2.12,1.5,3.19,2.18.54.34,1.08.67,1.61.97.27.15.53.29.78.41.13.07.24.11.36.16.13.07.22.08.2.08.06,0-.03,0,.26,0,.23,0,.51-.02.78-.05.56-.05,1.15-.11,1.75-.19,1.19-.15,2.4-.33,3.62-.53,2.43-.39,4.88-.82,7.34-1.26,4.91-.9,9.86-1.87,14.82-2.87,9.92-2.01,19.91-4.17,29.87-6.46,8.79-2.03,17.57-4.15,26.28-6.5,4.35-1.18,8.68-2.41,12.94-3.79,2.12-.69,4.23-1.42,6.25-2.23,1.01-.4,1.99-.84,2.91-1.29.46-.23.88-.47,1.26-.7.35-.22.69-.51.61-.45.02-.06-.03.11.07-.2.07-.19.13-.49.2-.75.12-.56.24-1.16.34-1.77.2-1.23.36-2.49.51-3.77.29-2.55.51-5.13.71-7.72l.1-.02Z"/><path class="cls-1" d="M310.18,376.06c-2.02-.72-3.75-2.13-4.78-4.08-.35-.73-.7-1.61-.66-2.54.09-1.63.85-2.84,1.67-3.77.84-.94,1.84-1.67,2.94-2.15.96-.43,1.94-.77,2.95-.94.65-.1,1.31-.19,1.97-.12.66.11,1.28.41,1.83.77.34.23.21.39-.18.6-.38.19-1.02.64-1.59.88-2.02.18-3.77,1.09-5.24,2.28-.44.37-.79.88-.95,1.37-.16.51-.15.93-.06,1.3.1.43.38.97.79,1.46.39.49.9.92,1.49,1.24.71.4,1.54.66,2.37.69,1.26.06,2.55-.31,3.42-1.26.69-.72.96-1.73,1.02-2.61.02-.2-.02-.39-.01-.58.01-.68.17-.87,1.09-1.21.21-.08.41-.17.62-.24.68-.25,1.41.09,1.64,1.04.62,2.8-.99,5.93-3.76,7.43-2.1,1.14-4.54,1.16-6.6.49l.02-.08Z"/><path class="cls-1" d="M94.56,404.94c-.43,1.14-.42,2.66-.1,4.18.12.47.38.93.61,1.43.84,1.77,2.06,3.65,3.66,5.09.7.65,1.49,1.22,2.31,1.65.53.29,1.08.48,1.62.68.27.11.54.23.82.3l.42.13c.14.02.28.05.43.07.36.08.4.32.08.68-.3.36-1.08.89-1.99.88-3.14-.3-5.69-2.03-7.47-4.26-1.07-1.33-2.33-2.61-3.12-4.32-.23-.44-.4-1-.54-1.48l-.31-1.45c-.13-.99-.22-2-.09-3.04l.04-.47.11-.47.24-.94c.28-.6.48-1.23.9-1.76,1.12-1.68,3.04-2.77,4.98-2.96,1.49-.19,3.09-.13,4.53.53.33.11.62.29.92.47.56.34.81.69.89,1.02.07.34-.04.66-.32,1.06-.13.18-.24.37-.39.54-.5.53-1.27.68-1.81.44-.88-.3-1.63-.51-2.37-.57-.73-.03-1.41.07-2,.33-.47.16-.81.49-1.18.83-.29.41-.6.85-.75,1.44l-.09-.02Z"/><path class="cls-1" d="M198.46,406.26l-12.97,1.06c-1.58.14-3.15.37-4.72.5-5.57.44-11.15.82-16.72,1.21-2.47.17-4.96.4-7.4.64-1.57.14-3.15.37-4.73.45-.79.03-1.59.04-2.38.03l-1.19-.02c-.4-.01-.8-.11-1.2-.13-.99-.08-.89-.55-.1-1.17.79-.69,2.25-1.6,4.05-1.91,6.38-.81,12.78-1.25,19.28-1.46,3.89-.12,7.89-.71,11.84-1.08l13.07-1.17c2.68-.23,5.37-.46,8.05-.69,4.06-.36,8.15-.63,12.19-1.02,3.14-.29,6.2-.76,9.3-1.11.68-.09,1.35-.16,2.04-.2,2.56-.13,3.39.07,3.98.87.13.18.31.36.39.55.28.62-.74,1.21-2.59,1.57-1.37.25-2.76.52-4.17.7-1.41.19-2.83.35-4.26.5-2.87.32-5.78.57-8.69.83-4.34.38-8.7.77-13.05,1.15v-.08Z"/><path class="cls-1" d="M418.99,388.1l-12.8.88c-1.56.11-3.1.33-4.66.43-5.49.36-10.98.69-16.46,1.12-2.43.19-4.87.43-7.27.72-1.54.17-3.08.43-4.64.52-.78.04-1.55.14-2.34.11-.79-.05-1.58-.11-2.37-.16-.99-.1-.88-.34-.12-.89.38-.28.92-.65,1.58-1.08.33-.2.69-.46,1.08-.63.39-.15.81-.28,1.25-.37,6.26-1.21,12.59-1.83,19.02-2.01,3.84-.12,7.79-.69,11.7-1.02,4.3-.36,8.59-.69,12.89-1,2.65-.19,5.29-.39,7.94-.58,4-.32,8.03-.58,11.99-1,3.08-.33,6.08-.86,9.12-1.24.67-.09,1.32-.2,2-.27,1.25-.14,2.09-.14,2.69,0,.6.13.96.37,1.27.74.14.17.32.33.41.5.29.55-.68,1.18-2.48,1.69-2.69.59-5.47,1.12-8.3,1.52-2.83.38-5.7.69-8.59.98-4.28.43-8.59.77-12.89,1.15v-.09Z"/><path class="cls-1" d="M401.62,439.9c-3.13,1.17-6.26,2.31-9.31,3.59-1.13.45-2.19,1.03-3.3,1.5-3.91,1.69-7.78,3.47-11.5,5.56-.82.48-1.62.98-2.42,1.49-.8.51-1.61,1-2.38,1.54-2.04,1.31-3.88,2.88-6.26,3.76-.78.23-.64.24-.32-.39.18-.3.31-.88.64-1.36.31-.51.7-1.08,1.19-1.61.91-.88,1.93-1.62,2.91-2.42l1.49-1.17c.5-.39,1.06-.69,1.59-1.03,1.07-.67,2.15-1.33,3.28-1.91,1.12-.59,2.23-1.21,3.4-1.72,2.75-1.28,5.49-2.85,8.33-4.09,3.11-1.38,6.27-2.62,9.42-3.83l5.82-2.23c2.92-1.14,5.87-2.25,8.7-3.53,2.21-.97,4.26-2.2,6.39-3.26.47-.24.91-.51,1.38-.74.88-.43,1.48-.67,1.96-.72.49-.03.84.09,1.2.34.16.11.35.21.48.34.21.21.19.51-.03.88-.22.37-.63.82-1.24,1.22-3.59,2.49-7.75,4.38-11.96,6.14-3.12,1.32-6.3,2.5-9.44,3.73l-.03-.07Z"/><path class="cls-1" d="M427.95,460.99c2.53-1.35,5.06-2.75,7.56-4.2.91-.53,1.79-1.12,2.7-1.65l9.7-5.57c1.44-.81,2.9-1.63,4.31-2.47.92-.51,1.83-1.07,2.77-1.55.97-.44,1.92-.91,2.95-1.21.64-.19.62-.05.26.46-.35.53-1.03,1.42-2.01,2.13-3.56,2.39-7.14,4.71-11,6.7-2.29,1.22-4.51,2.76-6.79,4.13-2.5,1.52-5.03,2.98-7.58,4.43-1.59.86-3.16,1.74-4.77,2.56-1.21.64-2.44,1.25-3.68,1.84-1.22.62-2.48,1.16-3.71,1.74-.94.48-1.93.86-2.88,1.29-.95.45-1.94.79-2.93,1.16-.44.16-.87.3-1.33.4-1.72.32-2.29.3-2.73.03-.1-.06-.22-.11-.29-.18-.21-.21.4-.63,1.52-1.18.42-.2.84-.39,1.25-.6.41-.24.82-.46,1.25-.64.85-.38,1.7-.76,2.55-1.2,1.69-.84,3.45-1.61,5.18-2.46,2.56-1.29,5.14-2.58,7.66-4.03l.03.05Z"/><path class="cls-1" d="M396.3,460.33c-1.26-.45-2.52-.88-3.81-1.26-.47-.14-.95-.2-1.42-.34-1.65-.52-3.31-1.02-4.99-1.39-.75-.17-1.51-.32-2.26-.44l-1.45-.22c-.48-.11-.95-.29-1.43-.45-.3-.11-.25-.22.03-.39.28-.16.79-.48,1.38-.62,1.02-.04,2.04-.01,3.06.06,1.02.08,2.01.33,3,.6,1.18.34,2.46.44,3.68.73,1.34.32,2.67.69,3.98,1.08l2.42.75c1.22.38,2.43.82,3.65,1.17.95.27,1.93.39,2.87.69.21.06.42.1.62.18.74.33.91.61.86,1.2-.01.14,0,.28-.03.4-.08.43-.52.67-1.14.67-.91,0-1.81-.09-2.68-.29-.86-.23-1.71-.51-2.56-.79-1.27-.42-2.53-.88-3.81-1.29v-.06Z"/><path class="cls-1" d="M403.67,455.71c-1.01-.3-2.02-.6-3.04-.87-.37-.1-.76-.13-1.13-.23-1.3-.4-2.6-.84-3.92-1.17-.58-.15-1.18-.24-1.77-.33-.76-.1-1.54-.1-2.25-.55-.18-.44-.17-.26.08-.64.25-.35.68-.68,1.14-.72,1.58.09,3.15.3,4.69.77.91.3,1.92.31,2.87.55,1.04.25,2.08.52,3.12.8l1.91.51c.97.25,1.93.54,2.9.73.75.17,1.54.13,2.28.29.17.03.33.04.49.09.6.18.74.43.75.95,0,.12.01.24,0,.35-.04.38-.37.64-.86.73-1.45.25-2.82-.09-4.21-.41-1.03-.24-2.05-.54-3.08-.79v-.06Z"/><path class="cls-1" d="M432.42,441.71l-4.12-1.29c-.5-.15-1.02-.25-1.52-.41-1.75-.6-3.5-1.21-5.25-1.82-.78-.26-1.58-.46-2.35-.72-.49-.17-1.01-.28-1.48-.54-.48-.22-.93-.55-1.43-.71-.3-.12-.26-.12.02-.09.27.07.82-.04,1.46-.12,2.23-.1,4.24.57,6.28,1.22,1.21.42,2.54.59,3.81.94l4.17,1.13,2.57.68c1.3.32,2.6.68,3.92.92,1.01.21,2.03.28,3.05.42.22.03.45.04.67.08.82.15,1.06.36,1.13.95.02.13.04.27.04.4,0,.44-.41.73-1.05.76-.95.04-1.91,0-2.87-.08-.48-.05-.97-.09-1.44-.18l-1.42-.33c-1.41-.34-2.8-.75-4.2-1.14v-.06Z"/><path class="cls-1" d="M318.47,243.43c-2.29,3.05-4.96,5.86-8.01,8.25-1.55,1.17-3.16,2.28-4.91,3.17-.85.49-1.78.84-2.67,1.25-.94.32-1.84.71-2.81.94-1.9.57-3.88.83-5.85.94-.99.02-1.98.05-2.96-.05l-.74-.05-.38-.03c-.16-.02-.35-.05-.49-.08-.61-.13-1.13-.29-1.62-.48-1.95-.76-3.64-1.76-5.24-3.05-.8-.65-1.55-1.39-2.24-2.29-.67-.89-1.33-2.04-1.42-3.52-.08-1.07.28-2.21.83-3.03.22-.39.69-.86,1.14-1.24.37-.23.8-.54,1.13-.68,1.4-.7,2.63-1.13,3.81-1.64,1.17-.49,2.27-1.01,3.28-1.6.97-.62,1.83-1.31,2.5-2.09.87-1.05,1.35-2.31,1.53-3.72.13-.69.09-1.45.06-2.17-.06-.33-.1-.68-.16-.99-.12-.26-.16-.61-.31-.82-.23-.51-.59-.82-1.03-1.13-.48-.27-1.12-.47-1.84-.61-.74-.12-1.55-.19-2.45-.26l-.7-.07-.77-.11c-.27-.04-.59-.14-.92-.23-.33-.14-.65-.32-.97-.49-1.47-1.1-2.54-2.35-3.45-3.76-.84-1.41-1.46-2.88-1.96-4.35-.96-2.94-1.52-5.84-2.19-8.66-.67-2.81-1.44-5.54-2.6-8.07-1.2-2.57-2.65-5.04-4.38-7.25-2.44-3.13-5.57-5.75-9.23-7.17-1.74-.75-3.65-.89-5.62-.83-1.96.09-3.94.43-5.88.91-4.99,1.24-9.79,3.39-14.32,5.92-2.27,1.25-4.47,2.65-6.55,4.18-1.03.78-2.07,1.55-3.07,2.36-1.02.81-1.93,1.71-2.85,2.62-1.15,1.13-1.61,1.68-1.7,1.57-.06-.1.23-.86.9-2.13.67-1.28,1.81-3,3.41-4.93,1.65-1.87,3.88-3.78,6.52-5.51,2.33-1.54,4.79-2.88,7.34-4.02,2.55-1.15,5.16-2.16,7.89-2.93,2.72-.77,5.54-1.34,8.51-1.44,1.48-.05,3.02.05,4.59.41,1.65.4,2.93,1,4.29,1.67,2.64,1.4,5,3.27,6.98,5.4,1.99,2.14,3.64,4.52,5.04,7,1.38,2.43,2.6,5.22,3.34,7.93.78,2.72,1.31,5.43,1.91,8.03.47,2.01,1,3.98,1.79,5.75.77,1.75,1.9,3.33,3.28,4.3.1.16,1.27.29,2.37.35,1.14.09,2.42.18,3.77.63,1.34.42,2.77,1.39,3.59,2.73.45.66.67,1.35.9,2.04.14.67.3,1.36.32,2.01.08,1.28.02,2.61-.27,3.92-.18.65-.31,1.32-.64,1.93l-.44.93c-.17.29-.38.57-.57.85-.76,1.14-1.77,2.03-2.79,2.82-1.05.73-2.14,1.36-3.23,1.84-1.75.83-3.63,1.38-5.11,2.03-.17.08-.38.16-.52.24l-.4.23c-.04.07-.09.07-.17.14-.08.11-.17.21-.21.32-.23.4-.24.77-.06,1.34.4,1.15,1.7,2.37,3.05,3.29.69.47,1.42.9,2.17,1.27.74.36,1.54.68,2.22.83.25.07.72.07,1.15.11.43.02.86.07,1.28.06.86-.03,1.72,0,2.56-.14,1.71-.15,3.38-.57,5.01-1.13,1.64-.53,3.18-1.35,4.69-2.2,1.49-.91,2.9-1.94,4.24-3.08,3.27-2.84,6.07-6.26,8.4-9.99,2.35-3.72,4.21-7.75,5.66-11.91,1.08-3.16,1.9-6.41,2.41-9.69.24-1.64.38-3.29.42-4.94l-.1-5.03c-.38-6.68-1.9-13.3-4.86-19.18-2.35-4.53-5.73-8.42-9.74-11.38-2.05-1.42-4.18-2.72-6.5-3.63l-.85-.37-.88-.3c-.59-.19-1.16-.43-1.76-.58l-1.8-.47c-.6-.14-1.17-.24-1.76-.33-2.09-.27-4.17-.16-6.27.19-1.95.33-3.52.84-4.8,1.34-1.29.49-2.28.99-3.12,1.38-1.7.76-2.69,1.27-3.67,1.55-.43.15-.95.41-1.26.46-.52.1-.32-.62.66-1.98.99-1.32,2.89-3.3,6-4.72,4.54-2.16,9.9-2.94,15.13-1.77,4.95,1.16,9.79,3.29,13.91,6.52,4.15,3.18,7.6,7.33,10.08,11.96,2.49,4.64,4.01,9.72,4.83,14.82l.25,1.42.15,1.43.28,2.86c.14,1.9.12,3.81.19,5.71-.04,3.97-.68,7.82-1.64,11.55-2.04,7.42-5.31,14.46-9.92,20.65l-.09-.04Z"/><path class="cls-1" d="M338.74,210.58c-2.95,6.74-6.1,13.4-9.58,19.91-1.28,2.37-2.51,4.77-3.9,7.08-2.45,4.07-5.12,8.03-8.05,11.8-1.48,1.88-3.02,3.71-4.66,5.46-1.66,1.73-3.39,3.4-5.24,4.94-3.29,2.71-6.93,5.15-10.97,6.68-2.58.99-5.36,1.57-8.14,1.65-.7.06-1.39-.02-2.09-.04-.69-.03-1.39-.09-2.06-.28-.68-.12-1.34-.37-1.99-.6-.65-.22-1.29-.45-1.9-.79-1.48-.89-1.33-.57.12-.56.37-.03.79.01,1.29-.04.5-.05,1.06-.13,1.66-.21.6-.06,1.24-.25,1.9-.29.65,0,1.34-.11,2.05-.1,2.51-.1,4.97-.65,7.32-1.52,2.36-.82,4.62-2.01,6.76-3.43,4.28-2.85,8.07-6.58,11.61-10.58,4.24-4.83,7.73-10.64,11-16.4,3.59-6.35,6.83-12.93,9.83-19.63,1.85-4.12,3.62-8.28,5.31-12.47,2.56-6.35,5.05-12.78,7.35-19.19,1.8-4.98,3.34-9.95,5.2-14.9.42-1.09.8-2.17,1.28-3.26.87-2.02,1.68-3.3,2.4-4.13.73-.82,1.44-1.17,2.13-1.19.29-.03.69,0,.85.11.15.09.18.26.16.45-.01.1-.03.2-.06.3-.03.11-.08.27-.13.42-.22.63-.67,1.63-1.25,3.02-1.73,4.14-3.25,8.71-4.88,13.27-1.61,4.58-3.28,9.24-5.02,13.89-2.57,6.91-5.31,13.82-8.22,20.65l-.08-.02Z"/><path class="cls-1" d="M397.46,177.43c-3.39-.88-6.44-2.19-9.45-3.58-1.09-.52-2.21-.96-3.28-1.52-3.76-1.97-7.33-4.24-10.77-6.69-1.52-1.09-3.07-2.16-4.56-3.29-1.88-1.47-3.68-3.16-4.87-5.32-.38-.66-.18-.68.47-.41.32.13.76.32,1.29.53.27.12.55.23.83.35.15.06.29.14.45.19.13.09.26.18.4.27.95.67,1.94,1.29,2.91,1.93.92.7,1.88,1.37,2.83,2.05,1.92,1.34,3.89,2.64,5.88,3.96,2.38,1.58,5.1,2.81,7.74,4.03,2.9,1.35,5.86,2.59,8.88,3.5,1.84.54,3.77.97,5.48.94.52-.03.88-.1,1.22-.36.15-.14.26-.33.27-.54,0-.21-.05-.41-.14-.6-.08-.19-.2-.37-.34-.59-.18-.27-.41-.55-.65-.81-.48-.52-1.01-1.02-1.57-1.5-1.74-1.47-3.73-2.6-5.7-3.75-.43-.26-.87-.49-1.3-.76-1.59-.99-1.95-1.54-1.79-2.56.03-.22.02-.44.07-.61.08-.3.34-.44.81-.53.48-.1,1.05.02,1.71.31.97.44,1.94.92,2.89,1.46.93.57,1.84,1.18,2.74,1.85,1.8,1.36,3.51,2.82,5.14,4.88l.12.14.16.22.33.45c.22.29.38.7.57,1.05.27.74.47,1.5.36,2.23-.08.75-.46,1.42-.95,1.98l-.41.39c-.14.13-.32.21-.47.32-.31.22-.67.38-1.05.5-.38.15-.74.22-1.07.28-.34.06-.72.16-.95.15l-.78.03-.73-.06c-.97-.09-1.85-.26-2.73-.45v-.09Z"/><path class="cls-1" d="M138.13,419.5c-.48,3.39-1.11,6.79-2.22,10.13-.54,1.67-1.24,3.31-2.07,4.91-.89,1.58-1.94,3.12-3.32,4.46-1.05.92-2.19,1.82-3.55,2.36-.34.13-.66.3-1.01.4l-1.05.25c-.7.21-1.41.17-2.12.23-2.43.02-4.89-.6-6.95-1.86-2.07-1.23-3.73-2.94-5.06-4.78-2.64-3.72-4.19-7.89-5.39-12.06-1.03-3.72-1.79-7.5-2.41-11.24-.38-2.41-.78-4.82-.95-7.25-.1-1.21-.18-2.43-.25-3.64-.05-.6-.03-1.22,0-1.83l.07-1.83c.08-1.52.05-1.32.44-.07.2.62.53,1.5.97,2.55.38,1.06.67,2.31.94,3.68.21,1.21.48,2.41.68,3.62.2,1.21.41,2.41.63,3.61.45,2.4.95,4.78,1.53,7.12,1.22,4.67,2.48,9.35,4.73,13.49,1.35,2.45,3.2,4.68,5.56,5.99,1.18.64,2.46,1.04,3.79,1.22,1.36.12,2.66.03,3.88-.33,2.65-.88,4.71-3.27,6.05-6.11,1.39-2.82,2.22-6,2.82-9.2.73-3.96,1.07-8.03,1.17-12.1.08-3.08.04-6.18-.14-9.26-.05-.77-.11-1.54-.18-2.3l-.12-1.14-.12-.86c-.04-.22-.07-.44-.15-.65-.13-.18-.39-.2-.6-.24-.23-.03-.42-.04-.68-.05-.36-.01-.74-.01-1.12,0-4.73.11-9.49.7-14.32.81-1.06.03-2.11.07-3.19.05-2-.05-3.33-.23-4.23-.54-.91-.3-1.4-.7-1.75-1.26-.16-.26-.38-.52-.45-.76-.24-.83,1.4-1.18,4.19-1.26,4.15-.03,8.43-.28,12.83-.53,2.21-.12,4.42-.27,6.77-.3h.9s.47.01.47.01c.12,0,.49.02.74.05,1.11.08,2.22.28,2.97.96.86.59,1.06,1.69,1.33,2.75.05.27.09.56.13.82l.06.45.1.88c.68,6.91.6,13.76-.24,20.64h-.09Z"/><path class="cls-1" d="M416.7,464.71c6.29-3.6,12.56-7.27,18.79-11l6.76-4.17c3.99-2.42,8-4.81,11.94-7.28l2.94-1.87,1.14-.75c.2-.13.41-.27.61-.43.05-.04.1-.08.13-.14.01-.06-.02-.12-.05-.17-.07-.1-.17-.17-.28-.23-.21-.13-.44-.22-.69-.32l-.66-.23-.81-.26-1.65-.49c-3.96-1.09-8.05-1.94-12.07-2.89-2.57-.64-5.16-1.29-7.71-2.11-1.27-.42-2.55-.85-3.78-1.4-.62-.28-1.23-.57-1.83-.89-.6-.33-1.15-.75-1.69-1.17-.67-.54-.89-.86-.82-.9.07-.06.45.13,1.13.33,1.39.39,3.91.71,6.77,1.54,2.55.71,5.15,1.29,7.77,1.84,2.63.59,5.25,1.18,7.88,1.77,2.65.62,5.29,1.22,8,2.11l.72.26c.29.12.59.22.87.35.57.24,1.08.55,1.48.88.39.34.67.7.83,1.11.08.21.1.45.14.7-.03.23-.14.39-.21.58-.19.78-1.32,1.56-2.29,2.24l-.37.26-.24.16-.43.28-.87.56c-5.55,3.49-11.19,7.23-16.87,10.73-6.24,3.84-12.53,7.61-18.84,11.33-3.91,2.28-7.74,4.58-11.81,6.74-.2.1-.55.27-.83.35-.31.06-.62.07-.93.04-.35,0-.55-.08-.79-.12-.24-.04-.44-.11-.67-.16-.87-.23-1.69-.48-2.52-.75l-4.88-1.63c-3.23-1.1-6.45-2.17-9.69-3.12-5.03-1.47-10.06-2.56-15.11-3.24-1.11-.16-2.2-.26-3.32-.37-4.13-.34-5.39-.58-6.37-1.28-.22-.15-.51-.27-.65-.39-.23-.21.07-.43.85-.82.39-.22.9-.34,1.52-.48.62-.14,1.35-.24,2.17-.3,2.43-.06,4.87.1,7.3.4,2.42.34,4.84.81,7.24,1.38,4.8,1.13,9.55,2.6,14.25,4.16,1.73.58,3.47,1.17,5.21,1.75,1.71.57,3.48,1.18,5.05,1.58l.58.13s.02,0,.02,0l.22-.11.28-.14c.77-.4,1.57-.84,2.35-1.29l4.74-2.72.05.06Z"/><path class="cls-1" d="M101.61,183.32c3.24-1.2,6.48-2.76,9.64-4.44,1.15-.62,2.25-1.35,3.39-1.99,4.03-2.29,8.01-4.72,11.85-7.35,1.7-1.18,3.35-2.44,4.97-3.69,2.06-1.65,4.06-3.33,6.39-4.65.7-.44.74-.27.49.48-.13.38-.32.9-.58,1.53-.14.3-.27.66-.46.97-.2.31-.43.61-.7.9-.92,1.05-1.94,1.96-2.98,2.85-1.04.89-2.08,1.79-3.19,2.59-2.21,1.61-4.5,3.13-6.87,4.54-2.83,1.68-5.59,3.7-8.49,5.43-3.19,1.88-6.46,3.68-9.91,5.15-2.13.9-4.31,1.72-6.67,2.21-.9.18-1.83.3-2.82.26-.98-.06-2.1-.26-3.05-1.03-.46-.4-.82-.83-1.07-1.37-.26-.53-.4-1.14-.38-1.71.01-1.17.49-2.12.98-2.93.81-1.25,1.75-2.28,2.74-3.23.99-.95,2.05-1.8,3.17-2.58.49-.34.97-.69,1.5-1,1.97-1.11,2.83-1.14,3.55-.52.17.14.35.28.46.43.34.54-.23,1.25-1.45,2.08-1.81,1.24-3.62,2.68-5.16,4.24-.76.77-1.45,1.6-1.89,2.36-.21.38-.34.73-.4.96-.05.24-.02.28-.01.33.02.02,0,.05.06.09.02.02.03.05.05.07.01,0,.02,0,.02.02.03.03.11.08.28.14.35.12,1.03.15,1.75.06,1.47-.17,3.13-.69,4.74-1.3l.04.08Z"/><path class="cls-1" d="M109.97,195.1c-.27-.41-.41-.91-.47-1.36-.02-.17-.09-.31-.08-.48.03-.58.23-1.09.46-1.52.1-.2.18-.37.28-.57.11-.24.24-.52.56-.58.1-.02.32.24.53.53.21.29.45.58.45.65-.02.28-.03.46-.28.69-.14.15-.02.33.01.47.03.17.06.32.14.49.04.11.1.22.19.31.12.14.28.3.48.32.08,0,.16-.03.24-.07.07-.03.14-.06.2-.08.03,0,.05-.04.08-.04.09,0,.14.19.25.7l.08.35c.08.38.06.74-.12.95-.26.26-.59.45-.95.53-.34,0-.67-.1-.97-.25-.45-.22-.82-.58-1.12-.97l.04-.04Z"/><path class="cls-1" d="M115.72,193.32c.03.82-.23,1.75-.72,2.42-.48.68-1.12,1.17-1.8,1.42-.49.19-.98.37-1.5.37-.9,0-1.86-.32-2.52-.9-.67-.56-1.07-1.34-1.18-2.14-.11-.7-.01-1.48.36-2.06.43-.74,1.28-1.27,2.13-1.14.26.05.19.24.05.49-.16.24-.28.63-.38.85-.24.39-.17.84-.09,1.01.07.24.26.45.39.78.21.42.68.36,1.11.25.47-.13.91-.39,1.04-.76.09-.24.09-.61-.07-.92-.21-.48-.67-.81-1.08-.67-.35.1-.55.6-.54.88-.01.06.02.12,0,.16-.02.12-.25.1-1.04.32l-.52.17c-.29.09-.57.11-.83-.01-.26-.12-.48-.39-.54-.76-.1-.55-.04-1.15.16-1.68.23-.51.57-.97,1.02-1.34.44-.37.99-.66,1.62-.81.62-.15,1.38-.13,2.01.08.96.3,1.71.93,2.18,1.63.49.71.76,1.51.82,2.36h-.08Z"/><path class="cls-1" d="M235.61,306.42c-.19-.36-.31-.73-.39-1.09-.04-.13-.12-.23-.14-.37-.07-.48.12-.98.26-1.4.06-.18.1-.37.12-.55.04-.23.05-.52.36-.63.09-.04.45.2.81.44.36.25.76.48.78.51.1.17.15.22-.06.42-.12.13.05.22.05.35.01.14.03.31.08.46.03.1.06.2.12.28.08.12.17.26.32.29.12,0,.26-.15.34-.28.02-.02.04-.08.05-.09.05-.06.05.13.09.88l.04.51c.05.58-.01,1.06-.2,1.22-.56.48-1.3.32-1.79,0-.38-.24-.66-.58-.89-.91l.05-.04Z"/><path class="cls-1" d="M239.19,291.91c-.01-.27,0-.52.02-.78,0-.09-.05-.17-.03-.26.06-.32.17-.63.25-.92.03-.13.02-.25,0-.37-.03-.16-.13-.33.09-.47.13-.08,1.8.23,1.85.32.07.2.05.37-.16.62-.13.15,0,.27.02.4,0,.15.01.31.02.47,0,.1.01.2.04.3.04.14.06.3.17.41.09.08.29.06.45.07.03,0,.08-.01.11,0,.09.03-.02.15-.48.61l-.32.32c-.36.35-.7.6-.88.62-.52.04-.78-.24-.94-.54-.12-.23-.17-.5-.23-.74l.05-.02Z"/><path class="cls-1" d="M243.17,290.68c.02.31.03.62-.02.92-.05.31-.16.6-.26.88-.11.28-.26.54-.43.78-.18.23-.39.43-.6.62-.3.26-.62.52-1,.62-.35.09-.71.11-1.05.07-.96-.19-1.66-.98-1.86-1.83-.14-.5-.12-1.06-.02-1.47.11-.55.34-1.09.83-1.35.16-.08.44.23.69.58.25.36.51.73.48.87-.03.13-.06.24-.06.34,0,.11,0,.17-.03.15-.05.02-.13.11-.13.31,0,.11.09.19.17.18.09.02.18-.03.26-.06.18-.07.38-.25.46-.52.05-.17.07-.37.01-.56-.04-.14-.11-.29-.23-.41-.06-.05-.13-.1-.2-.12-.09-.03-.05,0-.08,0-.04.03-.08.13-.06.23,0,.05.02.1.05.14.08.07-.06-.05-.12-.07-.07-.04-.15-.07-.21-.08-.13-.02-.12,0-.12-.01,0,0,0,0,.02,0-.02,0,.06-.03-.04.02-.08.04-.17.08-.28.13-.18.09-.36.2-.53.3-.3.18-.58.31-.87.27-.29-.03-.57-.25-.69-.63-.17-.57-.08-1.18.12-1.64.2-.47.52-.84.91-1.13.39-.28.86-.49,1.42-.57.29-.03.58-.03.89.02.29.06.42.11.62.19,1.13.41,1.84,1.58,2.03,2.81l-.07.03Z"/><path class="cls-1" d="M240.62,304.06c.15,1.08-.16,2.16-.81,2.93-.2.21-.41.41-.65.58-.38.26-.78.52-1.26.61-.83.16-1.7,0-2.37-.42-.66-.41-1.14-1.06-1.31-1.73-.15-.59-.19-1.16-.09-1.71.07-.7.53-1.46,1.3-1.65.24-.06.37.32.51.74.12.42.4.87.44,1,.04.14.03.23.02.33,0,.1,0,.2,0,.28.03.17,0,.23.03.42.06.28.36.22.56.18.12-.02.24-.06.35-.14.14-.1.24-.25.29-.44.05-.2.04-.45-.07-.66-.2-.33-.41-.48-.75-.35-.26.1-.34.53-.27.73,0,.04.05.09.05.1.01.05-.21-.04-1.11.03l-.61.06c-.67.1-1.31-.15-1.39-.85-.05-.49.04-1,.24-1.45.22-.44.54-.82.92-1.12.76-.61,1.87-.94,3.04-.72.87.17,1.66.71,2.1,1.27.48.56.77,1.25.91,1.95l-.07.02Z"/><g class="cls-5"><path class="cls-4" d="M315.75,413.61l.37-.06c6.74-1.21,13.56-2.47,20.26-4.56,2.31-.74,4.62-1.55,6.87-2.65,1.13-.54,2.24-1.16,3.32-1.9.54-.36,1.07-.78,1.58-1.21l.75-.7.76-.85.5-.9c.1-.26.15-.45.22-.68.14-.44.19-.78.29-1.17.15-.74.28-1.46.38-2.17.22-1.43.38-2.83.54-4.25.3-2.82.52-5.62.72-8.43.35-5.62.52-11.24.57-16.86.03-5.62.01-11.25-.4-16.87-.41-5.62-.92-11.25-2.12-16.83h0c-.2-.8-.39-1.46-.46-1.56l-.78-1.14c-.74-1.35-1.65-2.58-2.08-3.95-.05-.15-.03.02.04.48.08.59.16,1.15.14,1.76.09.57.2,1.12.25,1.7.06.6.24,1.71.39,2.93.82,5.44,1.15,11.01,1.27,16.57.06,5.57.16,11.15,0,16.73-.12,5.58-.4,11.16-.78,16.72-.18,2.78-.39,5.56-.67,8.31-.15,1.37-.3,2.75-.5,4.09-.09.68-.21,1.33-.33,1.97-.07.28-.13.65-.21.87l-.09.32h0s-.32.35-.32.35c-.11.15-.28.27-.42.41-.27.28-.61.52-.92.78-.67.49-1.38.95-2.14,1.37-1.52.84-3.17,1.55-4.86,2.18-3.4,1.25-6.98,2.19-10.59,3.02-1.04.24-1.95.49-2.23.64l-1.34.71c-.38.2-.5.34-.37.44l.43.31s-.09.08-.34.16l-2.26.67c-.62.18-.93.32-.87.39.17.19-1.19.64-3.45,1.15l-.97.21c-.7.15-1.21.3-1.44.4-.22.1-.13.15.25.14.34,0,.21.08-.3.2-1.09.28-1.26.44-.39.39l.9-.06c.29-.02.37.01.23.07-.15.06-.51.16-.97.25l-2.56.54c-.69.15-1.13.3-1.1.36.03.05.52,0,1.22-.12l1.57-.25c.8-.13,1.62-.26,2.44-.4"/></g><path class="cls-1" d="M229.12,211c-1.18,2.04-1.68,4.62-.95,6.91.6,1.87,2.2,3.99,4.32,4.12,1.06.07,2.12-.38,3.08-.75.67-.25,1.2-.94.96-1.69-.21-.65-.97-1.23-1.69-.96-.52.2-1.03.4-1.57.54-.12.03-.24.06-.36.09-.28.06-.05.07.03,0-.06.05-.52-.02-.53,0,.25.04.3.04.15.01-.05-.01-.09-.02-.14-.04-.31-.08.06.03.06.03-.02.02-.24-.14-.27-.15-.28-.17.01.01,0,.01-.03.02-.45-.43-.49-.48-.1-.11-.2-.23-.3-.35-.1-.13-.11-.13,0,0-.04-.05-.07-.1-.1-.14-.16-.23-.28-.47-.41-.72-.04-.09-.03-.07.02.06-.03-.07-.06-.15-.08-.22-.05-.13-.09-.27-.12-.4s-.07-.27-.09-.41c-.02-.08-.03-.16-.04-.24.02.14.02.16.01.06-.01-.29-.04-.57-.03-.86,0-.15.01-.29.03-.44,0-.08.02-.17.03-.25-.02.13-.02.15,0,.05.07-.29.12-.59.2-.88.04-.15.09-.29.14-.43.03-.08.06-.16.09-.24.05-.14.06-.16.03-.08-.04.08-.02.06.04-.08.04-.08.08-.16.11-.24.08-.16.16-.31.25-.46.36-.62.17-1.53-.49-1.88s-1.5-.17-1.88.49h0Z"/><path class="cls-1" d="M245.43,217.77c-1.32,2.94-3.58,7.15-.83,9.99s7.23,2.18,10.45.68c1.74-.81,3.4-1.97,4.7-3.39.55-.6.59-1.53,0-2.12-.56-.56-1.57-.6-2.12,0-1.2,1.31-2.58,2.26-4.26,3-.69.3-1.58.58-2.4.72-.27.05-.75.09-1.17.09-.48,0-.77-.03-1.12-.11-.76-.17-1.51-.48-2.02-1.05-.16-.18-.19-.23-.28-.53-.03-.1-.05-.2-.07-.3.02.15.01.13,0-.06-.01-.21,0-.43,0-.64.02-.19.02-.22,0-.09.02-.11.04-.22.06-.33.04-.23.1-.45.16-.68.13-.46.29-.91.46-1.36.28-.71.67-1.53,1.02-2.3s.21-1.61-.54-2.05c-.64-.38-1.72-.2-2.05.54h0Z"/><path class="cls-1" d="M257.75,210.97c-.35-.1-.69-.23-1.05-.34-.14-.04-.46-.15-.7-.27-.25-.12-.5-.27-.76-.49-.26-.22-.55-.5-.79-.98-.25-.47-.35-1.2-.17-1.76.16-.61.55-1.06.86-1.3.32-.26.59-.39.82-.49.6-.25,1.2-.51,1.82-.56,2.2-.11,4.02.81,5.45,1.73.64.44,1.26.8,1.9,1.14.38.29.84.55,1.2.99.17.23.32.49.44.77.13.27.09.65.08.94-.08.4-.14.32-.51.24-.2-.03-.49-.04-.85.06-.32.06-.58.13-.81.15-.2.02-.38,0-.55-.05l-.58-.12c-.4-.12-.82-.4-1.19-.59-.37-.22-.74-.41-1.06-.64-.31-.23-.63-.47-.95-.71-.76-.56-1.7-.47-2.43-.41-.2.01-.43.06-.58.1-.03,0-.03.03-.06-.02-.12-.18-.24-.32-.33-.41-.21-.19-.27-.18-.26-.17-.06,0,.07,0,.27-.13.09-.06.22-.17.31-.27,0,0,0,.02.01.04.03.04.09.09.15.14.04.04.16.09.3.15.64.24,1.35.41,2.09.54,1.13.2,2.32.4,3.57.67.96.21,1.98.35,2.99.86.22.11.45.21.66.37.19.15.33.29.43.43.09.15.09.33.08.48-.04.31-.2.58-.44.85-.11.13-.21.25-.32.35-.19.17-.41.24-.68.3-.26.05-.61.14-.85.13-1.11-.33-2.22-.64-3.68-.9-1.1-.19-2.39-.37-3.8-.71v-.08Z"/><path class="cls-1" d="M239.58,249.55c2.02,1.65,4.73,2.46,7.24,1.45,2.75-1.1,4.4-3.69,4.93-6.54.16-.83-.23-1.79-1.13-2-.8-.18-1.83.24-2,1.13-.12.62-.28,1.23-.51,1.82-.07.17-.06.16.02-.04-.03.07-.07.15-.1.22-.05.11-.11.21-.16.32-.13.24-.27.47-.43.69-.04.06-.09.12-.13.18.14-.18.16-.21.05-.07-.07.08-.14.16-.21.24-.17.18-.35.34-.53.5-.24.21.3-.19-.04.02-.1.06-.19.13-.29.19-.19.11-.44.19-.61.32.31-.23.18-.08.03-.02-.12.04-.24.08-.37.11-.09.02-.19.05-.28.07-.06.01-.13.02-.19.04-.18.03-.13.02.15-.02-.2-.03-.46.03-.67.03-.1,0-.19,0-.29-.02-.46-.04.24.06-.05,0-.23-.05-.45-.09-.68-.16-.1-.03-.19-.06-.29-.1-.43-.16.17.1-.09-.04-.2-.11-.41-.21-.61-.33-.11-.07-.22-.14-.32-.21-.06-.04-.12-.09-.18-.13.18.14.2.16.06.04-.66-.54-1.66-.69-2.3,0-.55.59-.7,1.72,0,2.3h0Z"/><path class="cls-1" d="M244.86,210.18c-.82,1.41-1.78,2.39-2.6,3.38l-2.56,2.96c-.62.72-1.15,1.49-1.77,2.2-2.13,2.51-4.33,5.03-5.93,7.77-.35.6-.64,1.24-.81,1.84-.13.32-.1.57-.17.85.04.21.02.42.11.58.1.2.26.31.48.48.22.16.57.28.93.38.74.11,1.63.52,2.59.74.62.24.53.07.08.46-.32.28-.66.59-.99.88-.22.19-.48.34-.76.5-.15.08-.3.13-.46.23-.16.02-.33.04-.5.04-.61,0-1.28-.06-2.01-.3-.37-.14-.75-.31-1.13-.58-.34-.29-.69-.66-.92-1.08-.26-.42-.39-.86-.5-1.3-.05-.43-.09-.91-.06-1.3.05-.35.11-.69.19-1.04.09-.31.19-.58.29-.87.2-.58.47-1.03.71-1.54.27-.45.53-.92.82-1.35.57-.86,1.19-1.67,1.83-2.44,1.54-1.84,2.91-3.86,4.43-5.72,1.66-2.03,3.42-4.01,4.96-6,.44-.58.81-1.16,1.08-1.75.12-.29.23-.59.3-.88.06-.29.1-.63.09-.79,0-.03,0-.06,0-.09-.02-.15-.08-.32-.16-.43-.09-.15-.26-.34-.44-.5-.36-.33-.8-.64-1.27-.88-.89-.48-2.03-.78-2.55-.54-.05.02-.1.03-.13.07l-.05.04-.03.02h-.01s0,.01,0,.01h0c.33.34-.45-.47-.37-.39h0s-.01-.03-.01-.03l-.03-.04c-.17-.21-.42-.23-.32-.23,0,0,.13-.1.13-.17.08-.13.15-.28.19-.43,0-.06.07-.21.1-.32h0s.03,0,.03,0h.12c.38.03.88.11,1.36.17.96.18,1.99.28,3.03.66.46.17.92.36,1.35.66.8.58,1.2,1.18,1.3,1.65.09.48-.04.82-.31,1.11-.12.14-.23.28-.37.37-.22.15-.5.11-.79,0-.3-.12-.64-.28-.94-.49-.46-.32-1.02-.51-1.66-.64-.32-.07-.66-.12-1.02-.15-.36-.03-.75.06-1.15.1-.42.03-.79.17-1.41.07-.19-.03-.33-.03-.8-.18l-.21-.09-.1-.05-.05-.03-.12-.07c-.16-.1-.31-.22-.45-.35-.07-.07-.13-.13-.19-.2-.1-.12-.22-.3-.31-.48-.19-.36-.28-.82-.27-1.14,0-.29.06-.61.17-.89.05-.14.13-.3.18-.39l.09-.14c.06-.1.13-.19.21-.28.2-.23.21-.22.26-.27l.15-.13.31-.25c.21-.17.43-.29.66-.39.94-.45,1.78-.47,2.52-.45.71.07,1.37.18,1.93.42,1.05.44,1.93,1.01,2.76,1.74.41.37.8.79,1.21,1.33.53.64.75,1.43.88,2.22,0,.24,0,.49,0,.72-.02.23-.03.37-.05.56-.05.35-.12.7-.22,1.03-.19.66-.46,1.26-.76,1.81l-.08-.03Z"/><path class="cls-1" d="M167.22,48.59c-.02-.18.1-.33.23-.46.04-.04.16-.03.18.02.06.12.11.23.15.31.01.06.36,1.06.44,1.4.1.33.17.65.22.98l.35,1.99c.02.15.01.29-.02.44-.09.5-.06,1.01.02,1.51.01.08,0,.17.09.25.18.13.18,1.5.12,1.67-.15.44-.24.88-.36,1.33-.02.06.02.13-.09.19-.23.14-.21.27-.24.41-.05.19-.06.38-.2.57-.05.09-.21.19-.31.29-.1.09-.27.05-.3.02-.07-.08-.18-.01-.26,0-.03,0-.07,0-.09,0-.18,0-.83-1.08-.85-1.2-.03-.03-.19-1.63-.24-1.81-.02-.09.03-.19.06-.29,0-.02-.04-.35-.08-.68-.03-.33-.04-.66-.04-.69.05-.27,0-.53.19-.8.04-.05.03-.11.03-.16.01-.46.09-.91.2-1.37.05-.23.06-.47.09-.7,0-.04.03-.08.05-.13.02-.05.04-.11.05-.16.05-.55.18-1.1.2-1.65,0-.13.2-.73.22-.87.02-.08.19-.35.18-.42Z"/><path class="cls-1" d="M162.53,54.23c-.17,0-.31-.14-.44-.26-.04-.04-.03-.14.02-.17.11-.06.22-.11.3-.15.07-.03.31-.12.58-.22.29-.07.61-.15.78-.2.32-.11.63-.14.95-.13l1.92-.06c.14,0,.28.01.42.04.48.11.97.11,1.46.1.08,0,.16.01.24-.05.13-.09,1.45-.05,1.62,0,.42.13.84.22,1.27.32.06.02.13,0,.18.07.12.17.26.15.39.16.18.02.36.08.54.15.09.03.18.13.26.21.08.07.03.29,0,.32-.08.07-.02.18-.01.27,0,.03,0,.07,0,.1,0,.05-1.07.51-1.19.48-.01,0-.4.02-.81.04-.41.02-.84.05-.92.06-.09.01-.18-.03-.27-.06-.04-.01-1.27.08-1.32.08-.25-.03-.51.03-.76-.13-.05-.03-.1-.03-.15-.03-.44-.01-.87-.1-1.31-.17-.22-.03-.45-.03-.67-.05-.04,0-.08-.03-.12-.04-.05-.01-.1-.04-.15-.04-.53-.04-1.05-.09-1.58-.16-.12-.02-.69-.24-.83-.24-.08-.03-.33-.24-.4-.23Z"/><path class="cls-1" d="M164.01,51.75c-.15-.07-.17-.26-.14-.48.01-.07.13-.2.19-.2.11.01.21.03.32.05.05.03.89.4,1.18.51.27.12.52.28.76.44l1.5.98c.11.07.21.16.3.26.31.35.67.62,1.07.86.07.04.12.1.22.09.18-.03,1.16.77,1.24.92.22.36.47.69.7,1.05.03.05.1.07.08.17-.04.22.07.28.15.38.12.13.2.3.27.47.03.09.02.22.01.34,0,.11-.21.24-.25.24-.11,0-.15.12-.22.2-.02.03-.06.06-.08.08-.05.03-1.11-.26-1.16-.35,0,0-.28-.22-.58-.45-.3-.22-.61-.45-.68-.48-.07-.04-.11-.13-.15-.2-.03-.02-.94-.67-.96-.72-.15-.18-.36-.29-.44-.56-.02-.05-.06-.08-.09-.11-.31-.26-.57-.57-.85-.87-.14-.15-.31-.28-.46-.42-.03-.03-.04-.07-.07-.1-.03-.04-.05-.08-.09-.12-.37-.32-.7-.7-1.1-.99-.1-.06-.38-.57-.49-.65-.05-.05-.12-.34-.19-.37Z"/><path class="cls-1" d="M164.54,57.95c-.09.14-.26.18-.46.18-.06,0-.18-.09-.17-.14.01-.12.03-.23.04-.32-.01-.08.28-.99.39-1.29.11-.29.25-.56.41-.82.3-.54.66-1.03,1.03-1.52.08-.11.18-.21.29-.29.38-.29.67-.64.94-1.03.04-.06.1-.12.1-.22,0-.17.8-1.14.94-1.23.37-.21.72-.44,1.07-.66.05-.03.08-.09.17-.08.22.04.28-.07.38-.15.13-.11.28-.21.44-.29.08-.04.21-.04.34-.03.11,0,.26.2.26.24,0,.11.14.15.22.22.03.02.06.05.08.08.06.07-.29,1.09-.35,1.18-.01.02-.82,1.16-.93,1.32-.04.07-.14.1-.21.15-.04.02-.7.94-.74.97-.18.16-.28.37-.56.44-.05.01-.08.06-.11.09-.25.32-.57.58-.86.86-.15.14-.27.31-.41.47-.02.03-.07.04-.1.06-.04.03-.09.05-.11.09-.34.36-.74.67-1.03,1.06-.06.1-.58.38-.66.48-.06.05-.33.14-.39.18Z"/><path class="cls-1" d="M460.58,194c-.02-.18.1-.33.23-.46.04-.04.16-.03.18.02.06.12.11.23.15.31.01.06.36,1.06.44,1.4.1.33.17.65.22.98l.35,1.99c.02.15.01.29-.02.44-.09.5-.06,1.01.02,1.51.01.08,0,.17.09.25.18.13.18,1.5.12,1.67-.15.44-.24.88-.36,1.33-.02.06.02.13-.09.19-.23.14-.21.27-.24.41-.05.19-.06.38-.2.57-.05.09-.21.19-.31.29-.1.09-.27.05-.3.02-.07-.08-.18-.01-.26,0-.03,0-.07,0-.09,0-.18,0-.83-1.08-.85-1.2-.03-.03-.19-1.63-.24-1.81-.02-.09.03-.19.06-.29,0-.02-.04-.35-.08-.68-.03-.33-.04-.66-.04-.69.05-.27,0-.53.19-.8.04-.05.03-.11.03-.16.01-.46.09-.91.2-1.37.05-.23.06-.47.09-.7,0-.04.03-.08.05-.13.02-.05.04-.11.05-.16.05-.55.18-1.1.2-1.65,0-.13.2-.73.22-.87.02-.08.19-.35.18-.42Z"/><path class="cls-1" d="M455.9,199.64c-.17,0-.31-.14-.44-.26-.04-.04-.03-.14.02-.17.11-.06.22-.11.3-.15.07-.03.31-.12.58-.22.29-.07.61-.15.78-.2.32-.11.63-.14.95-.13l1.92-.06c.14,0,.28.01.42.04.48.11.97.11,1.46.1.08,0,.16.01.24-.05.13-.09,1.45-.05,1.62,0,.42.13.84.22,1.27.32.06.02.13,0,.18.07.12.17.26.15.39.16.18.02.36.08.54.15.09.03.18.13.26.21.08.07.03.29,0,.32-.08.07-.02.18-.01.27,0,.03,0,.07,0,.1,0,.05-1.07.51-1.19.48-.01,0-.4.02-.81.04-.41.02-.84.05-.92.06-.09.01-.18-.03-.27-.06-.04-.01-1.27.08-1.32.08-.25-.03-.51.03-.76-.13-.05-.03-.1-.03-.15-.03-.44-.01-.87-.1-1.31-.17-.22-.03-.45-.03-.67-.05-.04,0-.08-.03-.12-.04-.05-.01-.1-.04-.15-.04-.53-.04-1.05-.09-1.58-.16-.12-.02-.69-.24-.83-.24-.08-.03-.33-.24-.4-.23Z"/><path class="cls-1" d="M457.38,197.16c-.15-.07-.17-.26-.14-.48.01-.07.13-.2.19-.2.11.01.21.03.32.05.05.03.89.4,1.18.51.27.12.52.28.76.44l1.5.98c.11.07.21.16.3.26.31.35.67.62,1.07.86.07.04.12.1.22.09.18-.03,1.16.77,1.24.92.22.36.47.69.7,1.05.03.05.1.07.08.17-.04.22.07.28.15.38.12.13.2.3.27.47.03.09.02.22.01.34,0,.11-.21.24-.25.24-.11,0-.15.12-.22.2-.02.03-.06.06-.08.08-.05.03-1.11-.26-1.16-.35,0,0-.28-.22-.58-.45-.3-.22-.61-.45-.68-.48-.07-.04-.11-.13-.15-.2-.03-.02-.94-.67-.96-.72-.15-.18-.36-.29-.44-.56-.02-.05-.06-.08-.09-.11-.31-.26-.57-.57-.85-.87-.14-.15-.31-.28-.46-.42-.03-.03-.04-.07-.07-.1-.03-.04-.05-.08-.09-.12-.37-.32-.7-.7-1.1-.99-.1-.06-.38-.57-.49-.65-.05-.05-.12-.34-.19-.37Z"/><path class="cls-1" d="M457.9,203.36c-.09.14-.26.18-.46.18-.06,0-.18-.09-.17-.14.01-.12.03-.23.04-.32-.01-.08.28-.99.39-1.29.11-.29.25-.56.41-.82.3-.54.66-1.03,1.03-1.52.08-.11.18-.21.29-.29.38-.29.67-.64.94-1.03.04-.06.1-.12.1-.22,0-.17.8-1.14.94-1.23.37-.21.72-.44,1.07-.66.05-.03.08-.09.17-.08.22.04.28-.07.38-.15.13-.11.28-.21.44-.29.08-.04.21-.04.34-.03.11,0,.26.2.26.24,0,.11.14.15.22.22.03.02.06.05.08.08.06.07-.29,1.09-.35,1.18-.01.02-.82,1.16-.93,1.32-.04.07-.14.1-.21.15-.04.02-.7.94-.74.97-.18.16-.28.37-.56.44-.05.01-.08.06-.11.09-.25.32-.57.58-.86.86-.15.14-.27.31-.41.47-.02.03-.07.04-.1.06-.04.03-.09.05-.11.09-.34.36-.74.67-1.03,1.06-.06.1-.58.38-.66.48-.06.05-.33.14-.39.18Z"/><path class="cls-1" d="M60.88,234.2c-.03-.23.13-.42.3-.59.06-.05.21-.04.25.03.08.15.15.29.2.4.01.08.48,1.37.59,1.8.14.42.22.84.29,1.26l.46,2.56c.02.19.01.38-.02.57-.12.65-.08,1.3.03,1.94.02.11.01.22.12.32.24.17.24,1.92.16,2.15-.2.57-.32,1.14-.48,1.71-.02.08.02.17-.12.24-.31.18-.28.35-.31.53-.07.25-.08.49-.26.74-.07.12-.28.25-.42.37-.13.11-.36.06-.4.02-.1-.11-.24-.01-.35,0-.04,0-.09.01-.13,0-.04,0-.45-.35-.65-.71-.23-.37-.47-.75-.48-.83-.04-.04-.25-2.09-.32-2.33-.03-.12.04-.25.08-.37,0-.03-.05-.45-.11-.88-.04-.43-.05-.86-.05-.89.06-.34-.01-.68.26-1.03.05-.07.04-.14.05-.2.02-.59.13-1.17.26-1.76.07-.3.07-.6.12-.9,0-.05.04-.11.06-.16.02-.07.06-.14.07-.2.07-.71.24-1.41.26-2.12,0-.16.26-.94.3-1.12.02-.1.25-.44.23-.54Z"/><path class="cls-1" d="M54.23,241.48c-.25,0-.44-.18-.62-.35-.06-.05-.04-.19.03-.23.14-.06.28-.13.42-.21.09-.03.43-.15.82-.29.41-.09.87-.2,1.1-.27.45-.15.9-.18,1.34-.18l2.72-.08c.2,0,.4.01.6.05.68.14,1.37.14,2.06.13.11,0,.23.01.35-.06.19-.12,2.06-.07,2.3,0,.6.17,1.2.29,1.8.43.09.02.18,0,.25.09.18.23.36.19.55.22.26.03.51.1.77.19.13.05.25.17.37.28.11.09.04.39,0,.42-.12.09-.03.24-.02.36,0,.04,0,.1,0,.13-.01.07-1.51.68-1.68.64-.02,0-.57.03-1.15.05-.58.03-1.19.06-1.31.08-.13.02-.26-.04-.39-.07-.06-.02-1.8.11-1.87.1-.36-.04-.72.04-1.07-.18-.07-.04-.14-.04-.21-.04-.62-.01-1.23-.13-1.85-.22-.31-.05-.63-.04-.95-.07-.06,0-.11-.04-.17-.05-.07-.02-.14-.05-.21-.05-.75-.06-1.49-.12-2.24-.21-.17-.02-.98-.32-1.18-.32-.11-.04-.46-.32-.56-.31Z"/><path class="cls-1" d="M56.35,238.29c-.21-.09-.25-.34-.23-.64,0-.1.16-.28.24-.27.14.01.29.02.43.05.07.03,1.23.49,1.64.63.38.15.72.35,1.06.56l2.1,1.25c.16.09.3.21.43.34.44.45.96.8,1.51,1.11.09.05.17.12.31.11.11,0,.54.21.92.49.39.28.76.6.83.69.33.48.69.91,1.03,1.37.05.07.14.09.12.22-.04.29.12.38.24.5.17.17.29.39.4.62.05.12.04.3.05.45,0,.14-.26.33-.31.34-.15,0-.2.17-.29.28-.03.04-.07.08-.1.11-.03.03-.4-.06-.8-.14-.38-.09-.74-.22-.79-.27,0,0-.11-.08-.26-.19-.15-.11-.35-.25-.56-.39-.42-.28-.86-.57-.96-.62-.1-.05-.15-.17-.22-.26-.04-.03-1.32-.86-1.36-.92-.22-.23-.51-.37-.64-.73-.03-.07-.08-.1-.13-.14-.44-.33-.82-.74-1.22-1.13-.2-.2-.44-.36-.66-.54-.04-.03-.06-.09-.1-.13-.04-.05-.08-.11-.13-.15-.53-.41-1-.9-1.56-1.28-.14-.07-.56-.74-.71-.85-.08-.06-.19-.45-.28-.48Z"/><path class="cls-1" d="M57.03,246.27c-.13.18-.36.22-.63.21-.09,0-.23-.13-.22-.2.03-.16.05-.31.07-.42,0-.03.06-.09.06-.26.03-.14.11-.3.18-.48.14-.36.27-.78.37-.97.16-.39.37-.74.6-1.07.43-.71.95-1.34,1.48-1.97.12-.14.25-.26.4-.37.53-.36.94-.82,1.33-1.32.06-.08.15-.15.15-.29,0-.22,1.14-1.48,1.35-1.59.51-.26.99-.54,1.48-.82.07-.04.11-.12.23-.09.29.06.38-.08.52-.18.19-.14.39-.27.61-.37.12-.04.28-.04.45-.02.15.01.33.28.33.34,0,.15.17.21.27.31.03.03.08.07.1.11.07.1-.46,1.44-.55,1.55-.01.01-.31.39-.63.8-.31.41-.64.83-.71.91-.06.09-.19.13-.3.18-.05.02-1,1.22-1.05,1.26-.25.2-.41.48-.78.56-.07.02-.11.07-.15.12-.36.41-.8.74-1.21,1.1-.21.18-.38.4-.58.6-.03.04-.09.05-.14.08-.06.03-.12.06-.16.11-.47.46-1.03.85-1.45,1.35-.09.12-.8.47-.92.6-.08.06-.46.17-.53.22Z"/><path class="cls-1" d="M135.78,83.26c.08.26.16.42.43.6.28.16.71.25,1.16.22.45-.03.9-.19,1.24-.43.18-.11.3-.26.43-.4.12-.19.25-.39.33-.62.26-.66.18-1.48-.01-2.27-.34-1.43-1.34-2.69-2.74-3.49-1.39-.79-3.12-1.1-4.76-.85-1.47.2-2.83.97-3.88,2.03-1.29,1.42-2.32,3.11-2.83,5.07-.16.6-.43.53-.72-.07-.27-.59-.57-1.82-.17-3.16.18-.59.41-1.16.7-1.71.29-.55.68-1.05,1.09-1.52.83-.95,1.85-1.75,3.01-2.32,2.34-1.18,5.11-1.17,7.45-.23,1.4.58,2.74,1.39,3.8,2.58,1.06,1.19,1.78,2.68,1.93,4.31.17,1.76-.44,3.83-2.13,4.99-.8.54-1.71.83-2.63.9-.92.07-1.9-.1-2.77-.62-1.1-.62-1.81-1.89-1.87-3.06-.09-1.19.29-2.31.95-3.22,1.04-1.41,2.64-2.07,4.14-2.29,1.52-.22,3.06-.02,4.46.48,2.17.78,4.13,2.13,5.48,4.08.28.44.59.85.79,1.35.41.9.5,1.57.44,2.04-.05.47-.3.76-.65.98-.16.1-.32.22-.49.28-.58.17-1.04-.46-1.51-1.39-.67-1.42-1.73-2.63-2.98-3.55-1.27-.89-2.76-1.43-4.2-1.43-1.09,0-2.12.32-2.72.85-.56.44-.84,1.37-.68,1.83l-.07.03Z"/><path class="cls-1" d="M324.63,96.93c-.32.92-.9,1.63-1.6,2.17-.73.56-1.55.84-2.32.98-.77.13-1.51.13-2.19.05-.67-.09-1.32-.22-2-.43-.96-.31-2.03-.69-2.9-1.61-.78-.79-1.22-2.06-1.15-3.08.04-1.03.32-1.84.56-2.58.54-1.5,1.24-2.99,2.24-4.32.87-1.16,1.98-2.25,3.34-2.91,1.66-.9,3.93-1.04,5.57.09.5.37.19.6-.37.76-.57.15-1.33.43-2.06.57-1.32.29-2.59.85-3.51,1.87-.97,1.01-1.71,2.36-2.34,3.86-.35.89-.73,1.95-.7,2.64.01.68.28,1.05.95,1.49.72.46,1.76.72,2.8.84.99.14,1.97.04,2.57-.44.4-.3.7-.75.74-1.16.05-.41-.14-.83-.52-1.09-.59-.43-1.62-.55-2.52-.39-.87.15-1.82.68-2.57,1.29-1.19.99-1.93,2.39-2.3,3.79-.07.31-.13.62-.19.93-.22,1.14-.36,1.47-1.19,1.76-.18.06-.37.16-.55.2-.6.17-1.19-.43-1.22-1.66-.08-3.61,2.51-7.24,6.2-8.66.78-.3,1.57-.44,2.37-.46.8,0,1.62.08,2.46.43.82.33,1.75.97,2.24,1.99.49.96.53,2.16.21,3.09l-.06-.02Z"/><path class="cls-1" d="M436.52,249.71c.51.55.92,1.2,1.17,1.97.25.76.3,1.68.01,2.53-.29.86-.82,1.49-1.37,1.94-.55.46-1.11.73-1.7.98-.86.34-1.76.57-2.65.55-.79-.02-1.55-.16-2.28-.4-.72-.26-1.39-.63-2-1.09-1.21-.89-2.13-2.24-2.46-3.68-.28-1.28-.23-2.56.1-3.75.41-1.51,1.37-2.96,2.82-3.64.45-.21.52.12.41.6-.13.48-.3,1.17-.6,1.75-.57,1.04-.75,2.26-.6,3.33.07.54.24,1.04.44,1.49.2.46.48.9.85,1.3.92.98,2.53,1.3,3.85,1.11.37-.05.73-.14,1.06-.28.34-.13.67-.33.89-.53.24-.2.36-.41.42-.6.06-.2.06-.46-.05-.74-.24-.71-1.06-1.39-1.8-1.43-1.23-.11-2.67,1.02-3.17,2.48-.4,1.11-.22,2.4.07,3.63.06.28.17.54.21.83.18,1.07.04,1.47-.73,1.87-.18.09-.35.2-.52.27-.6.23-1.22-.12-1.6-.94-.59-1.21-.9-2.65-.84-4.27.04-.79.18-1.66.51-2.51.33-.83.78-1.61,1.4-2.3.9-1.02,2.22-1.89,3.79-2.1.37-.05.82-.07,1.25-.02.43.05.84.16,1.22.3.76.29,1.4.74,1.94,1.28l-.05.06Z"/></svg>